G75*
%MOIN*%
%OFA0B0*%
%FSLAX25Y25*%
%IPPOS*%
%LPD*%
%AMOC8*
5,1,8,0,0,1.08239X$1,22.5*
%
%ADD10C,0.05937*%
%ADD11R,0.07400X0.07400*%
%ADD12OC8,0.07400*%
%ADD13R,0.06496X0.06496*%
%ADD14C,0.06496*%
%ADD15C,0.07400*%
%ADD16C,0.03962*%
%ADD17C,0.00600*%
%ADD18C,0.03100*%
%ADD19C,0.01800*%
D10*
X0327911Y0254768D02*
X0333848Y0254768D01*
X0333848Y0264768D02*
X0327911Y0264768D01*
D11*
X0263380Y0346726D03*
D12*
X0273380Y0346726D03*
X0283380Y0346726D03*
X0283380Y0356726D03*
X0273380Y0356726D03*
X0263380Y0356726D03*
D13*
X0230073Y0430860D03*
X0332435Y0245821D03*
D14*
X0342435Y0245821D03*
X0320073Y0430860D03*
X0310073Y0430860D03*
X0300073Y0430860D03*
X0290073Y0430860D03*
X0280073Y0430860D03*
X0270073Y0430860D03*
X0260073Y0430860D03*
X0250073Y0430860D03*
X0240073Y0430860D03*
D15*
X0430860Y0331254D03*
X0430860Y0321254D03*
X0430860Y0311254D03*
X0430860Y0301254D03*
X0430860Y0291254D03*
X0430860Y0281254D03*
X0430860Y0264325D03*
X0430860Y0254325D03*
X0430860Y0244325D03*
X0430860Y0234325D03*
X0430860Y0224325D03*
X0430860Y0214325D03*
D16*
X0424561Y0181648D03*
X0357238Y0124167D03*
X0296215Y0116293D03*
X0251333Y0116293D03*
X0179679Y0119443D03*
X0179679Y0130467D03*
X0268656Y0252908D03*
X0306057Y0302908D03*
X0284797Y0324167D03*
X0359207Y0297789D03*
X0415900Y0264325D03*
X0424561Y0372986D03*
X0178892Y0415506D03*
X0178892Y0425742D03*
X0166687Y0339915D03*
X0170624Y0335191D03*
X0159207Y0339915D03*
X0151333Y0339915D03*
X0143852Y0339915D03*
X0137947Y0337553D03*
X0137159Y0317081D03*
X0137159Y0310388D03*
X0143459Y0308813D03*
X0150545Y0308419D03*
X0158026Y0308026D03*
X0167081Y0308026D03*
X0170624Y0313537D03*
X0170624Y0321411D03*
D17*
X0178892Y0305860D02*
X0201530Y0328498D01*
X0199561Y0330467D01*
X0199561Y0340309D01*
X0216293Y0340309D01*
X0219246Y0343262D01*
X0219246Y0418065D01*
X0236963Y0418065D01*
X0249758Y0430860D01*
X0250073Y0430860D01*
X0240073Y0430860D02*
X0239915Y0430860D01*
X0234994Y0435782D01*
X0227120Y0435782D01*
X0175939Y0384600D01*
X0175939Y0302908D01*
X0232041Y0302908D01*
X0232041Y0273380D01*
X0247789Y0273380D01*
X0262553Y0305860D02*
X0221215Y0305860D01*
X0215309Y0308813D02*
X0261569Y0308813D01*
X0335388Y0234994D01*
X0430860Y0234994D01*
X0430860Y0234325D01*
X0430860Y0225152D02*
X0430860Y0224325D01*
X0430860Y0225152D02*
X0343262Y0225152D01*
X0262553Y0305860D01*
X0275348Y0331451D02*
X0288144Y0344246D01*
X0288144Y0352120D01*
X0277317Y0352120D01*
X0273380Y0356057D01*
X0273380Y0356726D01*
X0283380Y0356726D02*
X0284207Y0357041D01*
X0319640Y0357041D01*
X0319640Y0430860D01*
X0320073Y0430860D01*
X0280073Y0430860D02*
X0279285Y0430860D01*
X0274364Y0435782D01*
X0265506Y0435782D01*
X0265506Y0413144D01*
X0222199Y0369837D01*
X0215309Y0343262D02*
X0215309Y0416096D01*
X0230073Y0430860D01*
X0270073Y0430860D02*
X0270427Y0430860D01*
X0316687Y0384600D01*
X0283380Y0346726D02*
X0283222Y0346215D01*
X0270427Y0333419D01*
X0204482Y0333419D01*
X0202514Y0331451D01*
X0201530Y0328498D02*
X0215309Y0328498D01*
X0217278Y0330467D01*
X0217278Y0325545D02*
X0223183Y0331451D01*
X0275348Y0331451D01*
X0242868Y0328498D02*
X0231057Y0328498D01*
X0229089Y0326530D01*
X0228104Y0310782D02*
X0213341Y0325545D01*
X0208419Y0315703D02*
X0215309Y0308813D01*
X0228104Y0310782D02*
X0422002Y0310782D01*
X0430860Y0301923D01*
X0430860Y0301254D01*
X0435782Y0325545D02*
X0435782Y0264522D01*
X0430860Y0264522D01*
X0430860Y0264325D01*
X0435782Y0325545D02*
X0430860Y0330467D01*
X0430860Y0331254D01*
D18*
X0422986Y0407238D03*
X0402317Y0431845D03*
X0316687Y0384600D03*
X0290112Y0405270D03*
X0222199Y0369837D03*
X0215309Y0343262D03*
X0217278Y0336372D03*
X0217278Y0330467D03*
X0217278Y0325545D03*
X0213341Y0325545D03*
X0217278Y0316687D03*
X0208419Y0315703D03*
X0200545Y0318656D03*
X0202514Y0331451D03*
X0229089Y0326530D03*
X0242868Y0328498D03*
X0232041Y0302908D03*
X0221215Y0305860D03*
X0247789Y0273380D03*
X0264522Y0266490D03*
X0178892Y0305860D03*
X0112947Y0150348D03*
D19*
X0132632Y0130663D02*
X0178892Y0130663D01*
X0179679Y0130467D01*
X0132632Y0130663D02*
X0112947Y0150348D01*
X0331451Y0245821D02*
X0332435Y0245821D01*
X0331451Y0245821D02*
X0331451Y0254679D01*
X0330880Y0254768D01*
X0331451Y0264522D02*
X0330880Y0264768D01*
X0331451Y0264522D02*
X0415112Y0264522D01*
X0415900Y0264325D01*
M02*
