%
M48
M72
T01C0.01500
T02C0.02362
T03C0.03937
T04C0.04000
T05C0.04331
T06C0.05512
T07C0.09843
%
T01
X141928Y177928
X171663Y249222
X210442Y289182
X226190Y304930
X226190Y317726
X232096Y317726
X238001Y321663
X238001Y327568
X250797Y323631
X250797Y339379
X261623Y340363
X245875Y350206
X222928Y324928
X243907Y293119
X241938Y275403
X258671Y279340
X261623Y267529
X267529Y259655
X294104Y334458
X349222Y270482
X400403Y278356
X270928Y407428
X207489Y366938
X198631Y366938
T02
X210245Y388198
X238198Y388198
X190167Y338592
X186230Y344497
X177962Y344497
X169300Y344497
X161033Y344497
X190167Y325206
X190167Y317332
X189773Y309064
X179537Y306308
X170088Y305915
X159852Y306308
X149615Y382293
X183474Y403159
X183080Y418513
X364970Y418907
X365363Y402371
X403552Y251584
X364182Y144891
X364182Y129537
X296072Y130324
X253552Y130324
X187017Y128356
X186623Y144497
T03
X331919Y255806
X331919Y265806
T04
X288356Y347765
X288356Y357765
X278356Y357765
X278356Y347765
X268356Y347765
X268356Y357765
X420088Y332293
X420088Y322293
X420088Y312293
X420088Y302293
X420088Y292293
X420088Y282293
X420088Y265363
X420088Y255363
X420088Y245363
X420088Y235363
X420088Y225363
X420088Y215363
T05
X343474Y246860
X333474Y246860
X321111Y420088
X311111Y420088
X301111Y420088
X291111Y420088
X281111Y420088
X271111Y420088
X261111Y420088
X251111Y420088
X241111Y420088
X231111Y420088
T06
X226978Y294743
X226978Y236869
X321860Y236869
X321860Y294743
T07
X274419Y395678
X274419Y152371
M30
