%
M48
M72
T01C0.0150
T02C0.0236
T03C0.0394
T04C0.0400
T05C0.0433
T06C0.0551
%
T01
X11295Y15035
X24779Y27338
X26452Y26649
X23204Y30291
X22121Y30586
X21728Y31669
X20842Y31570
X20055Y31866
X20251Y33145
X21334Y32555
X21728Y32555
X21728Y33047
X21728Y33637
X21531Y34326
X22909Y32653
X24287Y32850
X22220Y36984
X17889Y30586
X29011Y40527
X31669Y38460
X40232Y43184
X42299Y40724
T02
X42456Y37299
X35921Y29779
X30606Y30291
X28480Y32417
X26866Y25291
X17062Y31354
X16708Y30803
X15803Y30803
X15055Y30842
X14346Y30881
X13716Y31039
X13716Y31708
X13795Y33755
X14385Y33992
X15133Y33992
X15921Y33992
X16669Y33992
X17062Y33519
X17062Y32141
X17889Y41551
X17889Y42574
X41590Y26432
X42456Y18165
X35724Y12417
X29621Y11629
X25133Y11629
X17968Y11944
X17968Y13047
T03
X33088Y25477
X33088Y26477
T04
X28338Y34673
X27338Y34673
X27338Y35673
X28338Y35673
X26338Y35673
X26338Y34673
X43086Y33125
X43086Y32125
X43086Y31125
X43086Y30125
X43086Y29125
X43086Y28125
X43086Y26432
X43086Y25432
X43086Y24432
X43086Y23432
X43086Y22432
X43086Y21432
T05
X34244Y24582
X33244Y24582
X32007Y43086
X31007Y43086
X30007Y43086
X29007Y43086
X28007Y43086
X27007Y43086
X26007Y43086
X25007Y43086
X24007Y43086
X23007Y43086
T06
X22594Y29370
X22594Y23583
X32082Y23583
X32082Y29370
M30
