G75*
%MOIN*%
%OFA0B0*%
%FSLAX25Y25*%
%IPPOS*%
%LPD*%
%AMOC8*
5,1,8,0,0,1.08239X$1,22.5*
%
%ADD10C,0.01600*%
%ADD11C,0.00500*%
%ADD12C,0.00400*%
%ADD13C,0.00000*%
D10*
X0006402Y0011323D02*
X0011323Y0016244D01*
X0016736Y0010535D02*
X0011323Y0006402D01*
X0010535Y0016736D02*
X0010349Y0017081D01*
X0010172Y0017431D01*
X0010003Y0017784D01*
X0009843Y0018142D01*
X0009691Y0018503D01*
X0009548Y0018867D01*
X0009413Y0019235D01*
X0009287Y0019606D01*
X0009170Y0019980D01*
X0009061Y0020357D01*
X0008962Y0020735D01*
X0008871Y0021117D01*
X0008790Y0021500D01*
X0008717Y0021885D01*
X0008654Y0022271D01*
X0008600Y0022659D01*
X0008555Y0023049D01*
X0008519Y0023439D01*
X0008492Y0023829D01*
X0008475Y0024221D01*
X0008467Y0024613D01*
X0008468Y0025004D01*
X0016736Y0010535D02*
X0017081Y0010349D01*
X0017431Y0010172D01*
X0017784Y0010003D01*
X0018142Y0009843D01*
X0018503Y0009691D01*
X0018867Y0009548D01*
X0019235Y0009413D01*
X0019606Y0009287D01*
X0019980Y0009170D01*
X0020357Y0009061D01*
X0020735Y0008962D01*
X0021117Y0008871D01*
X0021500Y0008790D01*
X0021885Y0008717D01*
X0022271Y0008654D01*
X0022659Y0008600D01*
X0023049Y0008555D01*
X0023439Y0008519D01*
X0023829Y0008492D01*
X0024221Y0008475D01*
X0024613Y0008467D01*
X0025004Y0008468D01*
X0025004Y0008469D02*
X0025408Y0008474D01*
X0025811Y0008489D01*
X0026214Y0008513D01*
X0026616Y0008548D01*
X0027018Y0008592D01*
X0027418Y0008646D01*
X0027816Y0008710D01*
X0028213Y0008783D01*
X0028608Y0008867D01*
X0029001Y0008959D01*
X0029392Y0009062D01*
X0029780Y0009174D01*
X0030165Y0009295D01*
X0030547Y0009426D01*
X0030925Y0009566D01*
X0031301Y0009715D01*
X0031672Y0009873D01*
X0032039Y0010040D01*
X0032403Y0010217D01*
X0032761Y0010402D01*
X0033116Y0010595D01*
X0033465Y0010798D01*
X0033809Y0011009D01*
X0034148Y0011228D01*
X0034482Y0011455D01*
X0034810Y0011690D01*
X0035132Y0011934D01*
X0035448Y0012185D01*
X0035758Y0012444D01*
X0036061Y0012710D01*
X0036358Y0012984D01*
X0036648Y0013265D01*
X0036931Y0013552D01*
X0037208Y0013847D01*
X0037476Y0014148D01*
X0037738Y0014456D01*
X0037991Y0014770D01*
X0038237Y0015090D01*
X0038475Y0015416D01*
X0038705Y0015748D01*
X0038927Y0016085D01*
X0039141Y0016428D01*
X0039346Y0016775D01*
X0039543Y0017128D01*
X0039731Y0017485D01*
X0039910Y0017847D01*
X0040080Y0018213D01*
X0040241Y0018583D01*
X0040394Y0018957D01*
X0040537Y0019335D01*
X0040670Y0019716D01*
X0040795Y0020100D01*
X0040910Y0020487D01*
X0041015Y0020876D01*
X0041112Y0021268D01*
X0041198Y0021663D01*
X0041275Y0022059D01*
X0041342Y0022457D01*
X0041399Y0022857D01*
X0041447Y0023258D01*
X0041484Y0023660D01*
X0041512Y0024062D01*
X0041530Y0024466D01*
X0041538Y0024869D01*
X0041537Y0025273D01*
X0041525Y0025677D01*
X0041504Y0026080D01*
X0041473Y0026482D01*
X0041432Y0026884D01*
X0041381Y0027284D01*
X0041320Y0027684D01*
X0041250Y0028081D01*
X0041170Y0028477D01*
X0041081Y0028871D01*
X0040981Y0029262D01*
X0040873Y0029651D01*
X0040754Y0030037D01*
X0040627Y0030420D01*
X0040490Y0030800D01*
X0040344Y0031176D01*
X0040189Y0031549D01*
X0040024Y0031917D01*
X0039851Y0032282D01*
X0039669Y0032642D01*
X0039478Y0032998D01*
X0039279Y0033349D01*
X0039071Y0033695D01*
X0038854Y0034036D01*
X0038630Y0034371D01*
X0038397Y0034701D01*
X0038156Y0035025D01*
X0037908Y0035343D01*
X0037651Y0035655D01*
X0037387Y0035961D01*
X0037116Y0036260D01*
X0036838Y0036552D01*
X0036552Y0036838D01*
X0036260Y0037116D01*
X0035961Y0037387D01*
X0035655Y0037651D01*
X0035343Y0037908D01*
X0035025Y0038156D01*
X0034701Y0038397D01*
X0034371Y0038630D01*
X0034036Y0038854D01*
X0033695Y0039071D01*
X0033349Y0039279D01*
X0032998Y0039478D01*
X0032642Y0039669D01*
X0032282Y0039851D01*
X0031917Y0040024D01*
X0031549Y0040189D01*
X0031176Y0040344D01*
X0030800Y0040490D01*
X0030420Y0040627D01*
X0030037Y0040754D01*
X0029651Y0040873D01*
X0029262Y0040981D01*
X0028871Y0041081D01*
X0028477Y0041170D01*
X0028081Y0041250D01*
X0027684Y0041320D01*
X0027284Y0041381D01*
X0026884Y0041432D01*
X0026482Y0041473D01*
X0026080Y0041504D01*
X0025677Y0041525D01*
X0025273Y0041537D01*
X0024869Y0041538D01*
X0024466Y0041530D01*
X0024062Y0041512D01*
X0023660Y0041484D01*
X0023258Y0041447D01*
X0022857Y0041399D01*
X0022457Y0041342D01*
X0022059Y0041275D01*
X0021663Y0041198D01*
X0021268Y0041112D01*
X0020876Y0041015D01*
X0020487Y0040910D01*
X0020100Y0040795D01*
X0019716Y0040670D01*
X0019335Y0040537D01*
X0018957Y0040394D01*
X0018583Y0040241D01*
X0018213Y0040080D01*
X0017847Y0039910D01*
X0017485Y0039731D01*
X0017128Y0039543D01*
X0016775Y0039346D01*
X0016428Y0039141D01*
X0016085Y0038927D01*
X0015748Y0038705D01*
X0015416Y0038475D01*
X0015090Y0038237D01*
X0014770Y0037991D01*
X0014456Y0037738D01*
X0014148Y0037476D01*
X0013847Y0037208D01*
X0013552Y0036931D01*
X0013265Y0036648D01*
X0012984Y0036358D01*
X0012710Y0036061D01*
X0012444Y0035758D01*
X0012185Y0035448D01*
X0011934Y0035132D01*
X0011690Y0034810D01*
X0011455Y0034482D01*
X0011228Y0034148D01*
X0011009Y0033809D01*
X0010798Y0033465D01*
X0010595Y0033116D01*
X0010402Y0032761D01*
X0010217Y0032403D01*
X0010040Y0032039D01*
X0009873Y0031672D01*
X0009715Y0031301D01*
X0009566Y0030925D01*
X0009426Y0030547D01*
X0009295Y0030165D01*
X0009174Y0029780D01*
X0009062Y0029392D01*
X0008959Y0029001D01*
X0008867Y0028608D01*
X0008783Y0028213D01*
X0008710Y0027816D01*
X0008646Y0027418D01*
X0008592Y0027018D01*
X0008548Y0026616D01*
X0008513Y0026214D01*
X0008489Y0025811D01*
X0008474Y0025408D01*
X0008469Y0025004D01*
X0006402Y0011323D02*
X0006069Y0011782D01*
X0005748Y0012248D01*
X0005438Y0012722D01*
X0005140Y0013204D01*
X0004854Y0013692D01*
X0004579Y0014188D01*
X0004317Y0014689D01*
X0004067Y0015198D01*
X0003829Y0015712D01*
X0003604Y0016231D01*
X0003392Y0016756D01*
X0003193Y0017287D01*
X0003006Y0017821D01*
X0002833Y0018360D01*
X0002673Y0018904D01*
X0002526Y0019451D01*
X0002392Y0020001D01*
X0002272Y0020554D01*
X0002165Y0021110D01*
X0002072Y0021669D01*
X0001992Y0022230D01*
X0001927Y0022792D01*
X0001875Y0023356D01*
X0001836Y0023921D01*
X0001811Y0024487D01*
X0001801Y0025053D01*
X0001803Y0025620D01*
X0001820Y0026186D01*
X0001851Y0026751D01*
X0001895Y0027316D01*
X0001953Y0027879D01*
X0002024Y0028441D01*
X0002110Y0029001D01*
X0002208Y0029558D01*
X0002321Y0030113D01*
X0002447Y0030666D01*
X0002586Y0031214D01*
X0002739Y0031760D01*
X0002904Y0032301D01*
X0003083Y0032839D01*
X0003275Y0033372D01*
X0003480Y0033899D01*
X0003698Y0034422D01*
X0003928Y0034940D01*
X0004171Y0035451D01*
X0004426Y0035957D01*
X0004693Y0036456D01*
X0004973Y0036949D01*
X0005264Y0037434D01*
X0005567Y0037913D01*
X0005882Y0038384D01*
X0006208Y0038847D01*
X0006545Y0039302D01*
X0006893Y0039748D01*
X0007252Y0040186D01*
X0007622Y0040616D01*
X0008001Y0041036D01*
X0008391Y0041446D01*
X0008791Y0041848D01*
X0009201Y0042239D01*
X0009619Y0042620D01*
X0010047Y0042991D01*
X0010484Y0043351D01*
X0010930Y0043701D01*
X0011384Y0044040D01*
X0011846Y0044367D01*
X0012315Y0044683D01*
X0012793Y0044988D01*
X0013277Y0045281D01*
X0013769Y0045562D01*
X0014267Y0045831D01*
X0014772Y0046088D01*
X0015283Y0046333D01*
X0015800Y0046565D01*
X0016322Y0046784D01*
X0016849Y0046991D01*
X0017381Y0047184D01*
X0017918Y0047365D01*
X0018459Y0047533D01*
X0019004Y0047687D01*
X0019552Y0047828D01*
X0020104Y0047956D01*
X0020659Y0048070D01*
X0021216Y0048171D01*
X0021775Y0048258D01*
X0022337Y0048331D01*
X0022900Y0048391D01*
X0023465Y0048437D01*
X0024030Y0048469D01*
X0024596Y0048488D01*
X0025162Y0048493D01*
X0025729Y0048484D01*
X0026294Y0048461D01*
X0026860Y0048425D01*
X0027424Y0048374D01*
X0027986Y0048310D01*
X0028547Y0048233D01*
X0028547Y0048232D02*
X0106057Y0125742D01*
X0106057Y0421018D01*
X0028547Y0498528D01*
X0048232Y0518213D02*
X0125742Y0440703D01*
X0421018Y0440703D01*
X0498528Y0518213D01*
X0518213Y0498528D02*
X0440703Y0421018D01*
X0440703Y0125742D01*
X0518213Y0048232D01*
X0498528Y0028547D02*
X0421018Y0106057D01*
X0125742Y0106057D01*
X0048232Y0028547D01*
X0048233Y0028547D02*
X0048310Y0027986D01*
X0048374Y0027424D01*
X0048425Y0026860D01*
X0048461Y0026294D01*
X0048484Y0025729D01*
X0048493Y0025162D01*
X0048488Y0024596D01*
X0048469Y0024030D01*
X0048437Y0023465D01*
X0048391Y0022900D01*
X0048331Y0022337D01*
X0048258Y0021775D01*
X0048171Y0021216D01*
X0048070Y0020659D01*
X0047956Y0020104D01*
X0047828Y0019552D01*
X0047687Y0019004D01*
X0047533Y0018459D01*
X0047365Y0017918D01*
X0047184Y0017381D01*
X0046991Y0016849D01*
X0046784Y0016322D01*
X0046565Y0015800D01*
X0046333Y0015283D01*
X0046088Y0014772D01*
X0045831Y0014267D01*
X0045562Y0013769D01*
X0045281Y0013277D01*
X0044988Y0012793D01*
X0044683Y0012315D01*
X0044367Y0011846D01*
X0044040Y0011384D01*
X0043701Y0010930D01*
X0043351Y0010484D01*
X0042991Y0010047D01*
X0042620Y0009619D01*
X0042239Y0009201D01*
X0041848Y0008791D01*
X0041446Y0008391D01*
X0041036Y0008001D01*
X0040616Y0007622D01*
X0040186Y0007252D01*
X0039748Y0006893D01*
X0039302Y0006545D01*
X0038847Y0006208D01*
X0038384Y0005882D01*
X0037913Y0005567D01*
X0037434Y0005264D01*
X0036949Y0004973D01*
X0036456Y0004693D01*
X0035957Y0004426D01*
X0035451Y0004171D01*
X0034940Y0003928D01*
X0034422Y0003698D01*
X0033899Y0003480D01*
X0033372Y0003275D01*
X0032839Y0003083D01*
X0032301Y0002904D01*
X0031760Y0002739D01*
X0031214Y0002586D01*
X0030666Y0002447D01*
X0030113Y0002321D01*
X0029558Y0002208D01*
X0029001Y0002110D01*
X0028441Y0002024D01*
X0027879Y0001953D01*
X0027316Y0001895D01*
X0026751Y0001851D01*
X0026186Y0001820D01*
X0025620Y0001803D01*
X0025053Y0001801D01*
X0024487Y0001811D01*
X0023921Y0001836D01*
X0023356Y0001875D01*
X0022792Y0001927D01*
X0022230Y0001992D01*
X0021669Y0002072D01*
X0021110Y0002165D01*
X0020554Y0002272D01*
X0020001Y0002392D01*
X0019451Y0002526D01*
X0018904Y0002673D01*
X0018360Y0002833D01*
X0017821Y0003006D01*
X0017287Y0003193D01*
X0016756Y0003392D01*
X0016231Y0003604D01*
X0015712Y0003829D01*
X0015198Y0004067D01*
X0014689Y0004317D01*
X0014188Y0004579D01*
X0013692Y0004854D01*
X0013204Y0005140D01*
X0012722Y0005438D01*
X0012248Y0005748D01*
X0011782Y0006069D01*
X0011323Y0006402D01*
X0498527Y0028547D02*
X0498450Y0027986D01*
X0498386Y0027424D01*
X0498335Y0026860D01*
X0498299Y0026294D01*
X0498276Y0025729D01*
X0498267Y0025162D01*
X0498272Y0024596D01*
X0498291Y0024030D01*
X0498323Y0023465D01*
X0498369Y0022900D01*
X0498429Y0022337D01*
X0498502Y0021775D01*
X0498589Y0021216D01*
X0498690Y0020659D01*
X0498804Y0020104D01*
X0498932Y0019552D01*
X0499073Y0019004D01*
X0499227Y0018459D01*
X0499395Y0017918D01*
X0499576Y0017381D01*
X0499769Y0016849D01*
X0499976Y0016322D01*
X0500195Y0015800D01*
X0500427Y0015283D01*
X0500672Y0014772D01*
X0500929Y0014267D01*
X0501198Y0013769D01*
X0501479Y0013277D01*
X0501772Y0012793D01*
X0502077Y0012315D01*
X0502393Y0011846D01*
X0502720Y0011384D01*
X0503059Y0010930D01*
X0503409Y0010484D01*
X0503769Y0010047D01*
X0504140Y0009619D01*
X0504521Y0009201D01*
X0504912Y0008791D01*
X0505314Y0008391D01*
X0505724Y0008001D01*
X0506144Y0007622D01*
X0506574Y0007252D01*
X0507012Y0006893D01*
X0507458Y0006545D01*
X0507913Y0006208D01*
X0508376Y0005882D01*
X0508847Y0005567D01*
X0509326Y0005264D01*
X0509811Y0004973D01*
X0510304Y0004693D01*
X0510803Y0004426D01*
X0511309Y0004171D01*
X0511820Y0003928D01*
X0512338Y0003698D01*
X0512861Y0003480D01*
X0513388Y0003275D01*
X0513921Y0003083D01*
X0514459Y0002904D01*
X0515000Y0002739D01*
X0515546Y0002586D01*
X0516094Y0002447D01*
X0516647Y0002321D01*
X0517202Y0002208D01*
X0517759Y0002110D01*
X0518319Y0002024D01*
X0518881Y0001953D01*
X0519444Y0001895D01*
X0520009Y0001851D01*
X0520574Y0001820D01*
X0521140Y0001803D01*
X0521707Y0001801D01*
X0522273Y0001811D01*
X0522839Y0001836D01*
X0523404Y0001875D01*
X0523968Y0001927D01*
X0524530Y0001992D01*
X0525091Y0002072D01*
X0525650Y0002165D01*
X0526206Y0002272D01*
X0526759Y0002392D01*
X0527309Y0002526D01*
X0527856Y0002673D01*
X0528400Y0002833D01*
X0528939Y0003006D01*
X0529473Y0003193D01*
X0530004Y0003392D01*
X0530529Y0003604D01*
X0531048Y0003829D01*
X0531562Y0004067D01*
X0532071Y0004317D01*
X0532572Y0004579D01*
X0533068Y0004854D01*
X0533556Y0005140D01*
X0534038Y0005438D01*
X0534512Y0005748D01*
X0534978Y0006069D01*
X0535437Y0006402D01*
X0530516Y0011323D01*
X0536224Y0016736D02*
X0540358Y0011323D01*
X0530024Y0010535D02*
X0529679Y0010349D01*
X0529329Y0010172D01*
X0528976Y0010003D01*
X0528618Y0009843D01*
X0528257Y0009691D01*
X0527893Y0009548D01*
X0527525Y0009413D01*
X0527154Y0009287D01*
X0526780Y0009170D01*
X0526403Y0009061D01*
X0526025Y0008962D01*
X0525643Y0008871D01*
X0525260Y0008790D01*
X0524875Y0008717D01*
X0524489Y0008654D01*
X0524101Y0008600D01*
X0523711Y0008555D01*
X0523321Y0008519D01*
X0522931Y0008492D01*
X0522539Y0008475D01*
X0522147Y0008467D01*
X0521756Y0008468D01*
X0536225Y0016736D02*
X0536411Y0017081D01*
X0536588Y0017431D01*
X0536757Y0017784D01*
X0536917Y0018142D01*
X0537069Y0018503D01*
X0537212Y0018867D01*
X0537347Y0019235D01*
X0537473Y0019606D01*
X0537590Y0019980D01*
X0537699Y0020357D01*
X0537798Y0020735D01*
X0537889Y0021117D01*
X0537970Y0021500D01*
X0538043Y0021885D01*
X0538106Y0022271D01*
X0538160Y0022659D01*
X0538205Y0023049D01*
X0538241Y0023439D01*
X0538268Y0023829D01*
X0538285Y0024221D01*
X0538293Y0024613D01*
X0538292Y0025004D01*
X0538291Y0025004D02*
X0538286Y0025408D01*
X0538271Y0025811D01*
X0538247Y0026214D01*
X0538212Y0026616D01*
X0538168Y0027018D01*
X0538114Y0027418D01*
X0538050Y0027816D01*
X0537977Y0028213D01*
X0537893Y0028608D01*
X0537801Y0029001D01*
X0537698Y0029392D01*
X0537586Y0029780D01*
X0537465Y0030165D01*
X0537334Y0030547D01*
X0537194Y0030925D01*
X0537045Y0031301D01*
X0536887Y0031672D01*
X0536720Y0032039D01*
X0536543Y0032403D01*
X0536358Y0032761D01*
X0536165Y0033116D01*
X0535962Y0033465D01*
X0535751Y0033809D01*
X0535532Y0034148D01*
X0535305Y0034482D01*
X0535070Y0034810D01*
X0534826Y0035132D01*
X0534575Y0035448D01*
X0534316Y0035758D01*
X0534050Y0036061D01*
X0533776Y0036358D01*
X0533495Y0036648D01*
X0533208Y0036931D01*
X0532913Y0037208D01*
X0532612Y0037476D01*
X0532304Y0037738D01*
X0531990Y0037991D01*
X0531670Y0038237D01*
X0531344Y0038475D01*
X0531012Y0038705D01*
X0530675Y0038927D01*
X0530332Y0039141D01*
X0529985Y0039346D01*
X0529632Y0039543D01*
X0529275Y0039731D01*
X0528913Y0039910D01*
X0528547Y0040080D01*
X0528177Y0040241D01*
X0527803Y0040394D01*
X0527425Y0040537D01*
X0527044Y0040670D01*
X0526660Y0040795D01*
X0526273Y0040910D01*
X0525884Y0041015D01*
X0525492Y0041112D01*
X0525097Y0041198D01*
X0524701Y0041275D01*
X0524303Y0041342D01*
X0523903Y0041399D01*
X0523502Y0041447D01*
X0523100Y0041484D01*
X0522698Y0041512D01*
X0522294Y0041530D01*
X0521891Y0041538D01*
X0521487Y0041537D01*
X0521083Y0041525D01*
X0520680Y0041504D01*
X0520278Y0041473D01*
X0519876Y0041432D01*
X0519476Y0041381D01*
X0519076Y0041320D01*
X0518679Y0041250D01*
X0518283Y0041170D01*
X0517889Y0041081D01*
X0517498Y0040981D01*
X0517109Y0040873D01*
X0516723Y0040754D01*
X0516340Y0040627D01*
X0515960Y0040490D01*
X0515584Y0040344D01*
X0515211Y0040189D01*
X0514843Y0040024D01*
X0514478Y0039851D01*
X0514118Y0039669D01*
X0513762Y0039478D01*
X0513411Y0039279D01*
X0513065Y0039071D01*
X0512724Y0038854D01*
X0512389Y0038630D01*
X0512059Y0038397D01*
X0511735Y0038156D01*
X0511417Y0037908D01*
X0511105Y0037651D01*
X0510799Y0037387D01*
X0510500Y0037116D01*
X0510208Y0036838D01*
X0509922Y0036552D01*
X0509644Y0036260D01*
X0509373Y0035961D01*
X0509109Y0035655D01*
X0508852Y0035343D01*
X0508604Y0035025D01*
X0508363Y0034701D01*
X0508130Y0034371D01*
X0507906Y0034036D01*
X0507689Y0033695D01*
X0507481Y0033349D01*
X0507282Y0032998D01*
X0507091Y0032642D01*
X0506909Y0032282D01*
X0506736Y0031917D01*
X0506571Y0031549D01*
X0506416Y0031176D01*
X0506270Y0030800D01*
X0506133Y0030420D01*
X0506006Y0030037D01*
X0505887Y0029651D01*
X0505779Y0029262D01*
X0505679Y0028871D01*
X0505590Y0028477D01*
X0505510Y0028081D01*
X0505440Y0027684D01*
X0505379Y0027284D01*
X0505328Y0026884D01*
X0505287Y0026482D01*
X0505256Y0026080D01*
X0505235Y0025677D01*
X0505223Y0025273D01*
X0505222Y0024869D01*
X0505230Y0024466D01*
X0505248Y0024062D01*
X0505276Y0023660D01*
X0505313Y0023258D01*
X0505361Y0022857D01*
X0505418Y0022457D01*
X0505485Y0022059D01*
X0505562Y0021663D01*
X0505648Y0021268D01*
X0505745Y0020876D01*
X0505850Y0020487D01*
X0505965Y0020100D01*
X0506090Y0019716D01*
X0506223Y0019335D01*
X0506366Y0018957D01*
X0506519Y0018583D01*
X0506680Y0018213D01*
X0506850Y0017847D01*
X0507029Y0017485D01*
X0507217Y0017128D01*
X0507414Y0016775D01*
X0507619Y0016428D01*
X0507833Y0016085D01*
X0508055Y0015748D01*
X0508285Y0015416D01*
X0508523Y0015090D01*
X0508769Y0014770D01*
X0509022Y0014456D01*
X0509284Y0014148D01*
X0509552Y0013847D01*
X0509829Y0013552D01*
X0510112Y0013265D01*
X0510402Y0012984D01*
X0510699Y0012710D01*
X0511002Y0012444D01*
X0511312Y0012185D01*
X0511628Y0011934D01*
X0511950Y0011690D01*
X0512278Y0011455D01*
X0512612Y0011228D01*
X0512951Y0011009D01*
X0513295Y0010798D01*
X0513644Y0010595D01*
X0513999Y0010402D01*
X0514357Y0010217D01*
X0514721Y0010040D01*
X0515088Y0009873D01*
X0515459Y0009715D01*
X0515835Y0009566D01*
X0516213Y0009426D01*
X0516595Y0009295D01*
X0516980Y0009174D01*
X0517368Y0009062D01*
X0517759Y0008959D01*
X0518152Y0008867D01*
X0518547Y0008783D01*
X0518944Y0008710D01*
X0519342Y0008646D01*
X0519742Y0008592D01*
X0520144Y0008548D01*
X0520546Y0008513D01*
X0520949Y0008489D01*
X0521352Y0008474D01*
X0521756Y0008469D01*
X0540358Y0011323D02*
X0540691Y0011782D01*
X0541012Y0012248D01*
X0541322Y0012722D01*
X0541620Y0013204D01*
X0541906Y0013692D01*
X0542181Y0014188D01*
X0542443Y0014689D01*
X0542693Y0015198D01*
X0542931Y0015712D01*
X0543156Y0016231D01*
X0543368Y0016756D01*
X0543567Y0017287D01*
X0543754Y0017821D01*
X0543927Y0018360D01*
X0544087Y0018904D01*
X0544234Y0019451D01*
X0544368Y0020001D01*
X0544488Y0020554D01*
X0544595Y0021110D01*
X0544688Y0021669D01*
X0544768Y0022230D01*
X0544833Y0022792D01*
X0544885Y0023356D01*
X0544924Y0023921D01*
X0544949Y0024487D01*
X0544959Y0025053D01*
X0544957Y0025620D01*
X0544940Y0026186D01*
X0544909Y0026751D01*
X0544865Y0027316D01*
X0544807Y0027879D01*
X0544736Y0028441D01*
X0544650Y0029001D01*
X0544552Y0029558D01*
X0544439Y0030113D01*
X0544313Y0030666D01*
X0544174Y0031214D01*
X0544021Y0031760D01*
X0543856Y0032301D01*
X0543677Y0032839D01*
X0543485Y0033372D01*
X0543280Y0033899D01*
X0543062Y0034422D01*
X0542832Y0034940D01*
X0542589Y0035451D01*
X0542334Y0035957D01*
X0542067Y0036456D01*
X0541787Y0036949D01*
X0541496Y0037434D01*
X0541193Y0037913D01*
X0540878Y0038384D01*
X0540552Y0038847D01*
X0540215Y0039302D01*
X0539867Y0039748D01*
X0539508Y0040186D01*
X0539138Y0040616D01*
X0538759Y0041036D01*
X0538369Y0041446D01*
X0537969Y0041848D01*
X0537559Y0042239D01*
X0537141Y0042620D01*
X0536713Y0042991D01*
X0536276Y0043351D01*
X0535830Y0043701D01*
X0535376Y0044040D01*
X0534914Y0044367D01*
X0534445Y0044683D01*
X0533967Y0044988D01*
X0533483Y0045281D01*
X0532991Y0045562D01*
X0532493Y0045831D01*
X0531988Y0046088D01*
X0531477Y0046333D01*
X0530960Y0046565D01*
X0530438Y0046784D01*
X0529911Y0046991D01*
X0529379Y0047184D01*
X0528842Y0047365D01*
X0528301Y0047533D01*
X0527756Y0047687D01*
X0527208Y0047828D01*
X0526656Y0047956D01*
X0526101Y0048070D01*
X0525544Y0048171D01*
X0524985Y0048258D01*
X0524423Y0048331D01*
X0523860Y0048391D01*
X0523295Y0048437D01*
X0522730Y0048469D01*
X0522164Y0048488D01*
X0521598Y0048493D01*
X0521031Y0048484D01*
X0520466Y0048461D01*
X0519900Y0048425D01*
X0519336Y0048374D01*
X0518774Y0048310D01*
X0518213Y0048233D01*
X0518213Y0498527D02*
X0518774Y0498450D01*
X0519336Y0498386D01*
X0519900Y0498335D01*
X0520466Y0498299D01*
X0521031Y0498276D01*
X0521598Y0498267D01*
X0522164Y0498272D01*
X0522730Y0498291D01*
X0523295Y0498323D01*
X0523860Y0498369D01*
X0524423Y0498429D01*
X0524985Y0498502D01*
X0525544Y0498589D01*
X0526101Y0498690D01*
X0526656Y0498804D01*
X0527208Y0498932D01*
X0527756Y0499073D01*
X0528301Y0499227D01*
X0528842Y0499395D01*
X0529379Y0499576D01*
X0529911Y0499769D01*
X0530438Y0499976D01*
X0530960Y0500195D01*
X0531477Y0500427D01*
X0531988Y0500672D01*
X0532493Y0500929D01*
X0532991Y0501198D01*
X0533483Y0501479D01*
X0533967Y0501772D01*
X0534445Y0502077D01*
X0534914Y0502393D01*
X0535376Y0502720D01*
X0535830Y0503059D01*
X0536276Y0503409D01*
X0536713Y0503769D01*
X0537141Y0504140D01*
X0537559Y0504521D01*
X0537969Y0504912D01*
X0538369Y0505314D01*
X0538759Y0505724D01*
X0539138Y0506144D01*
X0539508Y0506574D01*
X0539867Y0507012D01*
X0540215Y0507458D01*
X0540552Y0507913D01*
X0540878Y0508376D01*
X0541193Y0508847D01*
X0541496Y0509326D01*
X0541787Y0509811D01*
X0542067Y0510304D01*
X0542334Y0510803D01*
X0542589Y0511309D01*
X0542832Y0511820D01*
X0543062Y0512338D01*
X0543280Y0512861D01*
X0543485Y0513388D01*
X0543677Y0513921D01*
X0543856Y0514459D01*
X0544021Y0515000D01*
X0544174Y0515546D01*
X0544313Y0516094D01*
X0544439Y0516647D01*
X0544552Y0517202D01*
X0544650Y0517759D01*
X0544736Y0518319D01*
X0544807Y0518881D01*
X0544865Y0519444D01*
X0544909Y0520009D01*
X0544940Y0520574D01*
X0544957Y0521140D01*
X0544959Y0521707D01*
X0544949Y0522273D01*
X0544924Y0522839D01*
X0544885Y0523404D01*
X0544833Y0523968D01*
X0544768Y0524530D01*
X0544688Y0525091D01*
X0544595Y0525650D01*
X0544488Y0526206D01*
X0544368Y0526759D01*
X0544234Y0527309D01*
X0544087Y0527856D01*
X0543927Y0528400D01*
X0543754Y0528939D01*
X0543567Y0529473D01*
X0543368Y0530004D01*
X0543156Y0530529D01*
X0542931Y0531048D01*
X0542693Y0531562D01*
X0542443Y0532071D01*
X0542181Y0532572D01*
X0541906Y0533068D01*
X0541620Y0533556D01*
X0541322Y0534038D01*
X0541012Y0534512D01*
X0540691Y0534978D01*
X0540358Y0535437D01*
X0535437Y0530516D01*
X0530024Y0536224D02*
X0535437Y0540358D01*
X0536225Y0530024D02*
X0536411Y0529679D01*
X0536588Y0529329D01*
X0536757Y0528976D01*
X0536917Y0528618D01*
X0537069Y0528257D01*
X0537212Y0527893D01*
X0537347Y0527525D01*
X0537473Y0527154D01*
X0537590Y0526780D01*
X0537699Y0526403D01*
X0537798Y0526025D01*
X0537889Y0525643D01*
X0537970Y0525260D01*
X0538043Y0524875D01*
X0538106Y0524489D01*
X0538160Y0524101D01*
X0538205Y0523711D01*
X0538241Y0523321D01*
X0538268Y0522931D01*
X0538285Y0522539D01*
X0538293Y0522147D01*
X0538292Y0521756D01*
X0530024Y0536225D02*
X0529679Y0536411D01*
X0529329Y0536588D01*
X0528976Y0536757D01*
X0528618Y0536917D01*
X0528257Y0537069D01*
X0527893Y0537212D01*
X0527525Y0537347D01*
X0527154Y0537473D01*
X0526780Y0537590D01*
X0526403Y0537699D01*
X0526025Y0537798D01*
X0525643Y0537889D01*
X0525260Y0537970D01*
X0524875Y0538043D01*
X0524489Y0538106D01*
X0524101Y0538160D01*
X0523711Y0538205D01*
X0523321Y0538241D01*
X0522931Y0538268D01*
X0522539Y0538285D01*
X0522147Y0538293D01*
X0521756Y0538292D01*
X0521756Y0538291D02*
X0521352Y0538286D01*
X0520949Y0538271D01*
X0520546Y0538247D01*
X0520144Y0538212D01*
X0519742Y0538168D01*
X0519342Y0538114D01*
X0518944Y0538050D01*
X0518547Y0537977D01*
X0518152Y0537893D01*
X0517759Y0537801D01*
X0517368Y0537698D01*
X0516980Y0537586D01*
X0516595Y0537465D01*
X0516213Y0537334D01*
X0515835Y0537194D01*
X0515459Y0537045D01*
X0515088Y0536887D01*
X0514721Y0536720D01*
X0514357Y0536543D01*
X0513999Y0536358D01*
X0513644Y0536165D01*
X0513295Y0535962D01*
X0512951Y0535751D01*
X0512612Y0535532D01*
X0512278Y0535305D01*
X0511950Y0535070D01*
X0511628Y0534826D01*
X0511312Y0534575D01*
X0511002Y0534316D01*
X0510699Y0534050D01*
X0510402Y0533776D01*
X0510112Y0533495D01*
X0509829Y0533208D01*
X0509552Y0532913D01*
X0509284Y0532612D01*
X0509022Y0532304D01*
X0508769Y0531990D01*
X0508523Y0531670D01*
X0508285Y0531344D01*
X0508055Y0531012D01*
X0507833Y0530675D01*
X0507619Y0530332D01*
X0507414Y0529985D01*
X0507217Y0529632D01*
X0507029Y0529275D01*
X0506850Y0528913D01*
X0506680Y0528547D01*
X0506519Y0528177D01*
X0506366Y0527803D01*
X0506223Y0527425D01*
X0506090Y0527044D01*
X0505965Y0526660D01*
X0505850Y0526273D01*
X0505745Y0525884D01*
X0505648Y0525492D01*
X0505562Y0525097D01*
X0505485Y0524701D01*
X0505418Y0524303D01*
X0505361Y0523903D01*
X0505313Y0523502D01*
X0505276Y0523100D01*
X0505248Y0522698D01*
X0505230Y0522294D01*
X0505222Y0521891D01*
X0505223Y0521487D01*
X0505235Y0521083D01*
X0505256Y0520680D01*
X0505287Y0520278D01*
X0505328Y0519876D01*
X0505379Y0519476D01*
X0505440Y0519076D01*
X0505510Y0518679D01*
X0505590Y0518283D01*
X0505679Y0517889D01*
X0505779Y0517498D01*
X0505887Y0517109D01*
X0506006Y0516723D01*
X0506133Y0516340D01*
X0506270Y0515960D01*
X0506416Y0515584D01*
X0506571Y0515211D01*
X0506736Y0514843D01*
X0506909Y0514478D01*
X0507091Y0514118D01*
X0507282Y0513762D01*
X0507481Y0513411D01*
X0507689Y0513065D01*
X0507906Y0512724D01*
X0508130Y0512389D01*
X0508363Y0512059D01*
X0508604Y0511735D01*
X0508852Y0511417D01*
X0509109Y0511105D01*
X0509373Y0510799D01*
X0509644Y0510500D01*
X0509922Y0510208D01*
X0510208Y0509922D01*
X0510500Y0509644D01*
X0510799Y0509373D01*
X0511105Y0509109D01*
X0511417Y0508852D01*
X0511735Y0508604D01*
X0512059Y0508363D01*
X0512389Y0508130D01*
X0512724Y0507906D01*
X0513065Y0507689D01*
X0513411Y0507481D01*
X0513762Y0507282D01*
X0514118Y0507091D01*
X0514478Y0506909D01*
X0514843Y0506736D01*
X0515211Y0506571D01*
X0515584Y0506416D01*
X0515960Y0506270D01*
X0516340Y0506133D01*
X0516723Y0506006D01*
X0517109Y0505887D01*
X0517498Y0505779D01*
X0517889Y0505679D01*
X0518283Y0505590D01*
X0518679Y0505510D01*
X0519076Y0505440D01*
X0519476Y0505379D01*
X0519876Y0505328D01*
X0520278Y0505287D01*
X0520680Y0505256D01*
X0521083Y0505235D01*
X0521487Y0505223D01*
X0521891Y0505222D01*
X0522294Y0505230D01*
X0522698Y0505248D01*
X0523100Y0505276D01*
X0523502Y0505313D01*
X0523903Y0505361D01*
X0524303Y0505418D01*
X0524701Y0505485D01*
X0525097Y0505562D01*
X0525492Y0505648D01*
X0525884Y0505745D01*
X0526273Y0505850D01*
X0526660Y0505965D01*
X0527044Y0506090D01*
X0527425Y0506223D01*
X0527803Y0506366D01*
X0528177Y0506519D01*
X0528547Y0506680D01*
X0528913Y0506850D01*
X0529275Y0507029D01*
X0529632Y0507217D01*
X0529985Y0507414D01*
X0530332Y0507619D01*
X0530675Y0507833D01*
X0531012Y0508055D01*
X0531344Y0508285D01*
X0531670Y0508523D01*
X0531990Y0508769D01*
X0532304Y0509022D01*
X0532612Y0509284D01*
X0532913Y0509552D01*
X0533208Y0509829D01*
X0533495Y0510112D01*
X0533776Y0510402D01*
X0534050Y0510699D01*
X0534316Y0511002D01*
X0534575Y0511312D01*
X0534826Y0511628D01*
X0535070Y0511950D01*
X0535305Y0512278D01*
X0535532Y0512612D01*
X0535751Y0512951D01*
X0535962Y0513295D01*
X0536165Y0513644D01*
X0536358Y0513999D01*
X0536543Y0514357D01*
X0536720Y0514721D01*
X0536887Y0515088D01*
X0537045Y0515459D01*
X0537194Y0515835D01*
X0537334Y0516213D01*
X0537465Y0516595D01*
X0537586Y0516980D01*
X0537698Y0517368D01*
X0537801Y0517759D01*
X0537893Y0518152D01*
X0537977Y0518547D01*
X0538050Y0518944D01*
X0538114Y0519342D01*
X0538168Y0519742D01*
X0538212Y0520144D01*
X0538247Y0520546D01*
X0538271Y0520949D01*
X0538286Y0521352D01*
X0538291Y0521756D01*
X0535437Y0540358D02*
X0534978Y0540691D01*
X0534512Y0541012D01*
X0534038Y0541322D01*
X0533556Y0541620D01*
X0533068Y0541906D01*
X0532572Y0542181D01*
X0532071Y0542443D01*
X0531562Y0542693D01*
X0531048Y0542931D01*
X0530529Y0543156D01*
X0530004Y0543368D01*
X0529473Y0543567D01*
X0528939Y0543754D01*
X0528400Y0543927D01*
X0527856Y0544087D01*
X0527309Y0544234D01*
X0526759Y0544368D01*
X0526206Y0544488D01*
X0525650Y0544595D01*
X0525091Y0544688D01*
X0524530Y0544768D01*
X0523968Y0544833D01*
X0523404Y0544885D01*
X0522839Y0544924D01*
X0522273Y0544949D01*
X0521707Y0544959D01*
X0521140Y0544957D01*
X0520574Y0544940D01*
X0520009Y0544909D01*
X0519444Y0544865D01*
X0518881Y0544807D01*
X0518319Y0544736D01*
X0517759Y0544650D01*
X0517202Y0544552D01*
X0516647Y0544439D01*
X0516094Y0544313D01*
X0515546Y0544174D01*
X0515000Y0544021D01*
X0514459Y0543856D01*
X0513921Y0543677D01*
X0513388Y0543485D01*
X0512861Y0543280D01*
X0512338Y0543062D01*
X0511820Y0542832D01*
X0511309Y0542589D01*
X0510803Y0542334D01*
X0510304Y0542067D01*
X0509811Y0541787D01*
X0509326Y0541496D01*
X0508847Y0541193D01*
X0508376Y0540878D01*
X0507913Y0540552D01*
X0507458Y0540215D01*
X0507012Y0539867D01*
X0506574Y0539508D01*
X0506144Y0539138D01*
X0505724Y0538759D01*
X0505314Y0538369D01*
X0504912Y0537969D01*
X0504521Y0537559D01*
X0504140Y0537141D01*
X0503769Y0536713D01*
X0503409Y0536276D01*
X0503059Y0535830D01*
X0502720Y0535376D01*
X0502393Y0534914D01*
X0502077Y0534445D01*
X0501772Y0533967D01*
X0501479Y0533483D01*
X0501198Y0532991D01*
X0500929Y0532493D01*
X0500672Y0531988D01*
X0500427Y0531477D01*
X0500195Y0530960D01*
X0499976Y0530438D01*
X0499769Y0529911D01*
X0499576Y0529379D01*
X0499395Y0528842D01*
X0499227Y0528301D01*
X0499073Y0527756D01*
X0498932Y0527208D01*
X0498804Y0526656D01*
X0498690Y0526101D01*
X0498589Y0525544D01*
X0498502Y0524985D01*
X0498429Y0524423D01*
X0498369Y0523860D01*
X0498323Y0523295D01*
X0498291Y0522730D01*
X0498272Y0522164D01*
X0498267Y0521598D01*
X0498276Y0521031D01*
X0498299Y0520466D01*
X0498335Y0519900D01*
X0498386Y0519336D01*
X0498450Y0518774D01*
X0498527Y0518213D01*
X0048233Y0518213D02*
X0048310Y0518774D01*
X0048374Y0519336D01*
X0048425Y0519900D01*
X0048461Y0520466D01*
X0048484Y0521031D01*
X0048493Y0521598D01*
X0048488Y0522164D01*
X0048469Y0522730D01*
X0048437Y0523295D01*
X0048391Y0523860D01*
X0048331Y0524423D01*
X0048258Y0524985D01*
X0048171Y0525544D01*
X0048070Y0526101D01*
X0047956Y0526656D01*
X0047828Y0527208D01*
X0047687Y0527756D01*
X0047533Y0528301D01*
X0047365Y0528842D01*
X0047184Y0529379D01*
X0046991Y0529911D01*
X0046784Y0530438D01*
X0046565Y0530960D01*
X0046333Y0531477D01*
X0046088Y0531988D01*
X0045831Y0532493D01*
X0045562Y0532991D01*
X0045281Y0533483D01*
X0044988Y0533967D01*
X0044683Y0534445D01*
X0044367Y0534914D01*
X0044040Y0535376D01*
X0043701Y0535830D01*
X0043351Y0536276D01*
X0042991Y0536713D01*
X0042620Y0537141D01*
X0042239Y0537559D01*
X0041848Y0537969D01*
X0041446Y0538369D01*
X0041036Y0538759D01*
X0040616Y0539138D01*
X0040186Y0539508D01*
X0039748Y0539867D01*
X0039302Y0540215D01*
X0038847Y0540552D01*
X0038384Y0540878D01*
X0037913Y0541193D01*
X0037434Y0541496D01*
X0036949Y0541787D01*
X0036456Y0542067D01*
X0035957Y0542334D01*
X0035451Y0542589D01*
X0034940Y0542832D01*
X0034422Y0543062D01*
X0033899Y0543280D01*
X0033372Y0543485D01*
X0032839Y0543677D01*
X0032301Y0543856D01*
X0031760Y0544021D01*
X0031214Y0544174D01*
X0030666Y0544313D01*
X0030113Y0544439D01*
X0029558Y0544552D01*
X0029001Y0544650D01*
X0028441Y0544736D01*
X0027879Y0544807D01*
X0027316Y0544865D01*
X0026751Y0544909D01*
X0026186Y0544940D01*
X0025620Y0544957D01*
X0025053Y0544959D01*
X0024487Y0544949D01*
X0023921Y0544924D01*
X0023356Y0544885D01*
X0022792Y0544833D01*
X0022230Y0544768D01*
X0021669Y0544688D01*
X0021110Y0544595D01*
X0020554Y0544488D01*
X0020001Y0544368D01*
X0019451Y0544234D01*
X0018904Y0544087D01*
X0018360Y0543927D01*
X0017821Y0543754D01*
X0017287Y0543567D01*
X0016756Y0543368D01*
X0016231Y0543156D01*
X0015712Y0542931D01*
X0015198Y0542693D01*
X0014689Y0542443D01*
X0014188Y0542181D01*
X0013692Y0541906D01*
X0013204Y0541620D01*
X0012722Y0541322D01*
X0012248Y0541012D01*
X0011782Y0540691D01*
X0011323Y0540358D01*
X0016244Y0535437D01*
X0010535Y0530024D02*
X0006402Y0535437D01*
X0016736Y0536225D02*
X0017081Y0536411D01*
X0017431Y0536588D01*
X0017784Y0536757D01*
X0018142Y0536917D01*
X0018503Y0537069D01*
X0018867Y0537212D01*
X0019235Y0537347D01*
X0019606Y0537473D01*
X0019980Y0537590D01*
X0020357Y0537699D01*
X0020735Y0537798D01*
X0021117Y0537889D01*
X0021500Y0537970D01*
X0021885Y0538043D01*
X0022271Y0538106D01*
X0022659Y0538160D01*
X0023049Y0538205D01*
X0023439Y0538241D01*
X0023829Y0538268D01*
X0024221Y0538285D01*
X0024613Y0538293D01*
X0025004Y0538292D01*
X0010535Y0530024D02*
X0010349Y0529679D01*
X0010172Y0529329D01*
X0010003Y0528976D01*
X0009843Y0528618D01*
X0009691Y0528257D01*
X0009548Y0527893D01*
X0009413Y0527525D01*
X0009287Y0527154D01*
X0009170Y0526780D01*
X0009061Y0526403D01*
X0008962Y0526025D01*
X0008871Y0525643D01*
X0008790Y0525260D01*
X0008717Y0524875D01*
X0008654Y0524489D01*
X0008600Y0524101D01*
X0008555Y0523711D01*
X0008519Y0523321D01*
X0008492Y0522931D01*
X0008475Y0522539D01*
X0008467Y0522147D01*
X0008468Y0521756D01*
X0008469Y0521756D02*
X0008474Y0521352D01*
X0008489Y0520949D01*
X0008513Y0520546D01*
X0008548Y0520144D01*
X0008592Y0519742D01*
X0008646Y0519342D01*
X0008710Y0518944D01*
X0008783Y0518547D01*
X0008867Y0518152D01*
X0008959Y0517759D01*
X0009062Y0517368D01*
X0009174Y0516980D01*
X0009295Y0516595D01*
X0009426Y0516213D01*
X0009566Y0515835D01*
X0009715Y0515459D01*
X0009873Y0515088D01*
X0010040Y0514721D01*
X0010217Y0514357D01*
X0010402Y0513999D01*
X0010595Y0513644D01*
X0010798Y0513295D01*
X0011009Y0512951D01*
X0011228Y0512612D01*
X0011455Y0512278D01*
X0011690Y0511950D01*
X0011934Y0511628D01*
X0012185Y0511312D01*
X0012444Y0511002D01*
X0012710Y0510699D01*
X0012984Y0510402D01*
X0013265Y0510112D01*
X0013552Y0509829D01*
X0013847Y0509552D01*
X0014148Y0509284D01*
X0014456Y0509022D01*
X0014770Y0508769D01*
X0015090Y0508523D01*
X0015416Y0508285D01*
X0015748Y0508055D01*
X0016085Y0507833D01*
X0016428Y0507619D01*
X0016775Y0507414D01*
X0017128Y0507217D01*
X0017485Y0507029D01*
X0017847Y0506850D01*
X0018213Y0506680D01*
X0018583Y0506519D01*
X0018957Y0506366D01*
X0019335Y0506223D01*
X0019716Y0506090D01*
X0020100Y0505965D01*
X0020487Y0505850D01*
X0020876Y0505745D01*
X0021268Y0505648D01*
X0021663Y0505562D01*
X0022059Y0505485D01*
X0022457Y0505418D01*
X0022857Y0505361D01*
X0023258Y0505313D01*
X0023660Y0505276D01*
X0024062Y0505248D01*
X0024466Y0505230D01*
X0024869Y0505222D01*
X0025273Y0505223D01*
X0025677Y0505235D01*
X0026080Y0505256D01*
X0026482Y0505287D01*
X0026884Y0505328D01*
X0027284Y0505379D01*
X0027684Y0505440D01*
X0028081Y0505510D01*
X0028477Y0505590D01*
X0028871Y0505679D01*
X0029262Y0505779D01*
X0029651Y0505887D01*
X0030037Y0506006D01*
X0030420Y0506133D01*
X0030800Y0506270D01*
X0031176Y0506416D01*
X0031549Y0506571D01*
X0031917Y0506736D01*
X0032282Y0506909D01*
X0032642Y0507091D01*
X0032998Y0507282D01*
X0033349Y0507481D01*
X0033695Y0507689D01*
X0034036Y0507906D01*
X0034371Y0508130D01*
X0034701Y0508363D01*
X0035025Y0508604D01*
X0035343Y0508852D01*
X0035655Y0509109D01*
X0035961Y0509373D01*
X0036260Y0509644D01*
X0036552Y0509922D01*
X0036838Y0510208D01*
X0037116Y0510500D01*
X0037387Y0510799D01*
X0037651Y0511105D01*
X0037908Y0511417D01*
X0038156Y0511735D01*
X0038397Y0512059D01*
X0038630Y0512389D01*
X0038854Y0512724D01*
X0039071Y0513065D01*
X0039279Y0513411D01*
X0039478Y0513762D01*
X0039669Y0514118D01*
X0039851Y0514478D01*
X0040024Y0514843D01*
X0040189Y0515211D01*
X0040344Y0515584D01*
X0040490Y0515960D01*
X0040627Y0516340D01*
X0040754Y0516723D01*
X0040873Y0517109D01*
X0040981Y0517498D01*
X0041081Y0517889D01*
X0041170Y0518283D01*
X0041250Y0518679D01*
X0041320Y0519076D01*
X0041381Y0519476D01*
X0041432Y0519876D01*
X0041473Y0520278D01*
X0041504Y0520680D01*
X0041525Y0521083D01*
X0041537Y0521487D01*
X0041538Y0521891D01*
X0041530Y0522294D01*
X0041512Y0522698D01*
X0041484Y0523100D01*
X0041447Y0523502D01*
X0041399Y0523903D01*
X0041342Y0524303D01*
X0041275Y0524701D01*
X0041198Y0525097D01*
X0041112Y0525492D01*
X0041015Y0525884D01*
X0040910Y0526273D01*
X0040795Y0526660D01*
X0040670Y0527044D01*
X0040537Y0527425D01*
X0040394Y0527803D01*
X0040241Y0528177D01*
X0040080Y0528547D01*
X0039910Y0528913D01*
X0039731Y0529275D01*
X0039543Y0529632D01*
X0039346Y0529985D01*
X0039141Y0530332D01*
X0038927Y0530675D01*
X0038705Y0531012D01*
X0038475Y0531344D01*
X0038237Y0531670D01*
X0037991Y0531990D01*
X0037738Y0532304D01*
X0037476Y0532612D01*
X0037208Y0532913D01*
X0036931Y0533208D01*
X0036648Y0533495D01*
X0036358Y0533776D01*
X0036061Y0534050D01*
X0035758Y0534316D01*
X0035448Y0534575D01*
X0035132Y0534826D01*
X0034810Y0535070D01*
X0034482Y0535305D01*
X0034148Y0535532D01*
X0033809Y0535751D01*
X0033465Y0535962D01*
X0033116Y0536165D01*
X0032761Y0536358D01*
X0032403Y0536543D01*
X0032039Y0536720D01*
X0031672Y0536887D01*
X0031301Y0537045D01*
X0030925Y0537194D01*
X0030547Y0537334D01*
X0030165Y0537465D01*
X0029780Y0537586D01*
X0029392Y0537698D01*
X0029001Y0537801D01*
X0028608Y0537893D01*
X0028213Y0537977D01*
X0027816Y0538050D01*
X0027418Y0538114D01*
X0027018Y0538168D01*
X0026616Y0538212D01*
X0026214Y0538247D01*
X0025811Y0538271D01*
X0025408Y0538286D01*
X0025004Y0538291D01*
X0006402Y0535437D02*
X0006069Y0534978D01*
X0005748Y0534512D01*
X0005438Y0534038D01*
X0005140Y0533556D01*
X0004854Y0533068D01*
X0004579Y0532572D01*
X0004317Y0532071D01*
X0004067Y0531562D01*
X0003829Y0531048D01*
X0003604Y0530529D01*
X0003392Y0530004D01*
X0003193Y0529473D01*
X0003006Y0528939D01*
X0002833Y0528400D01*
X0002673Y0527856D01*
X0002526Y0527309D01*
X0002392Y0526759D01*
X0002272Y0526206D01*
X0002165Y0525650D01*
X0002072Y0525091D01*
X0001992Y0524530D01*
X0001927Y0523968D01*
X0001875Y0523404D01*
X0001836Y0522839D01*
X0001811Y0522273D01*
X0001801Y0521707D01*
X0001803Y0521140D01*
X0001820Y0520574D01*
X0001851Y0520009D01*
X0001895Y0519444D01*
X0001953Y0518881D01*
X0002024Y0518319D01*
X0002110Y0517759D01*
X0002208Y0517202D01*
X0002321Y0516647D01*
X0002447Y0516094D01*
X0002586Y0515546D01*
X0002739Y0515000D01*
X0002904Y0514459D01*
X0003083Y0513921D01*
X0003275Y0513388D01*
X0003480Y0512861D01*
X0003698Y0512338D01*
X0003928Y0511820D01*
X0004171Y0511309D01*
X0004426Y0510803D01*
X0004693Y0510304D01*
X0004973Y0509811D01*
X0005264Y0509326D01*
X0005567Y0508847D01*
X0005882Y0508376D01*
X0006208Y0507913D01*
X0006545Y0507458D01*
X0006893Y0507012D01*
X0007252Y0506574D01*
X0007622Y0506144D01*
X0008001Y0505724D01*
X0008391Y0505314D01*
X0008791Y0504912D01*
X0009201Y0504521D01*
X0009619Y0504140D01*
X0010047Y0503769D01*
X0010484Y0503409D01*
X0010930Y0503059D01*
X0011384Y0502720D01*
X0011846Y0502393D01*
X0012315Y0502077D01*
X0012793Y0501772D01*
X0013277Y0501479D01*
X0013769Y0501198D01*
X0014267Y0500929D01*
X0014772Y0500672D01*
X0015283Y0500427D01*
X0015800Y0500195D01*
X0016322Y0499976D01*
X0016849Y0499769D01*
X0017381Y0499576D01*
X0017918Y0499395D01*
X0018459Y0499227D01*
X0019004Y0499073D01*
X0019552Y0498932D01*
X0020104Y0498804D01*
X0020659Y0498690D01*
X0021216Y0498589D01*
X0021775Y0498502D01*
X0022337Y0498429D01*
X0022900Y0498369D01*
X0023465Y0498323D01*
X0024030Y0498291D01*
X0024596Y0498272D01*
X0025162Y0498267D01*
X0025729Y0498276D01*
X0026294Y0498299D01*
X0026860Y0498335D01*
X0027424Y0498386D01*
X0027986Y0498450D01*
X0028547Y0498527D01*
D11*
X0230073Y0344945D02*
X0230073Y0298232D01*
X0226136Y0298232D01*
X0230073Y0298232D02*
X0230073Y0292327D01*
X0230073Y0289374D01*
X0226136Y0289374D01*
X0230073Y0289374D02*
X0230073Y0276579D01*
X0263537Y0288390D01*
X0263537Y0245083D01*
X0230073Y0233272D01*
X0230073Y0231303D02*
X0226136Y0231303D01*
X0230073Y0231303D02*
X0230073Y0240161D01*
X0226136Y0240161D01*
X0230073Y0240161D02*
X0230073Y0276579D01*
X0230073Y0292327D02*
X0263537Y0304138D01*
X0283222Y0304138D01*
X0316687Y0292327D01*
X0316687Y0298232D01*
X0320624Y0298232D01*
X0316687Y0298232D02*
X0316687Y0344945D01*
X0316685Y0345043D01*
X0316679Y0345141D01*
X0316670Y0345239D01*
X0316656Y0345336D01*
X0316639Y0345433D01*
X0316618Y0345529D01*
X0316593Y0345624D01*
X0316565Y0345718D01*
X0316532Y0345810D01*
X0316497Y0345902D01*
X0316457Y0345992D01*
X0316415Y0346080D01*
X0316368Y0346167D01*
X0316319Y0346251D01*
X0316266Y0346334D01*
X0316210Y0346414D01*
X0316150Y0346493D01*
X0316088Y0346569D01*
X0316023Y0346642D01*
X0315955Y0346713D01*
X0315884Y0346781D01*
X0315811Y0346846D01*
X0315735Y0346908D01*
X0315656Y0346968D01*
X0315576Y0347024D01*
X0315493Y0347077D01*
X0315409Y0347126D01*
X0315322Y0347173D01*
X0315234Y0347215D01*
X0315144Y0347255D01*
X0315052Y0347290D01*
X0314960Y0347323D01*
X0314866Y0347351D01*
X0314771Y0347376D01*
X0314675Y0347397D01*
X0314578Y0347414D01*
X0314481Y0347428D01*
X0314383Y0347437D01*
X0314285Y0347443D01*
X0314187Y0347445D01*
X0293065Y0347445D01*
X0293065Y0357287D01*
X0279285Y0357287D01*
X0279285Y0361224D01*
X0267474Y0361224D01*
X0267474Y0357287D01*
X0279285Y0357287D01*
X0293065Y0347445D02*
X0253695Y0347445D01*
X0253695Y0357287D01*
X0267474Y0357287D01*
X0253695Y0347445D02*
X0232573Y0347445D01*
X0232475Y0347443D01*
X0232377Y0347437D01*
X0232279Y0347428D01*
X0232182Y0347414D01*
X0232085Y0347397D01*
X0231989Y0347376D01*
X0231894Y0347351D01*
X0231800Y0347323D01*
X0231708Y0347290D01*
X0231616Y0347255D01*
X0231526Y0347215D01*
X0231438Y0347173D01*
X0231351Y0347126D01*
X0231267Y0347077D01*
X0231184Y0347024D01*
X0231104Y0346968D01*
X0231025Y0346908D01*
X0230949Y0346846D01*
X0230876Y0346781D01*
X0230805Y0346713D01*
X0230737Y0346642D01*
X0230672Y0346569D01*
X0230610Y0346493D01*
X0230550Y0346414D01*
X0230494Y0346334D01*
X0230441Y0346251D01*
X0230392Y0346167D01*
X0230345Y0346080D01*
X0230303Y0345992D01*
X0230263Y0345902D01*
X0230228Y0345810D01*
X0230195Y0345718D01*
X0230167Y0345624D01*
X0230142Y0345529D01*
X0230121Y0345433D01*
X0230104Y0345336D01*
X0230090Y0345239D01*
X0230081Y0345141D01*
X0230075Y0345043D01*
X0230073Y0344945D01*
X0232041Y0342976D02*
X0232041Y0333665D01*
X0243852Y0345476D01*
X0234541Y0345476D01*
X0234443Y0345474D01*
X0234345Y0345468D01*
X0234247Y0345459D01*
X0234150Y0345445D01*
X0234053Y0345428D01*
X0233957Y0345407D01*
X0233862Y0345382D01*
X0233768Y0345354D01*
X0233676Y0345321D01*
X0233584Y0345286D01*
X0233494Y0345246D01*
X0233406Y0345204D01*
X0233319Y0345157D01*
X0233235Y0345108D01*
X0233152Y0345055D01*
X0233072Y0344999D01*
X0232993Y0344939D01*
X0232917Y0344877D01*
X0232844Y0344812D01*
X0232773Y0344744D01*
X0232705Y0344673D01*
X0232640Y0344600D01*
X0232578Y0344524D01*
X0232518Y0344445D01*
X0232462Y0344365D01*
X0232409Y0344282D01*
X0232360Y0344198D01*
X0232313Y0344111D01*
X0232271Y0344023D01*
X0232231Y0343933D01*
X0232196Y0343841D01*
X0232163Y0343749D01*
X0232135Y0343655D01*
X0232110Y0343560D01*
X0232089Y0343464D01*
X0232072Y0343367D01*
X0232058Y0343270D01*
X0232049Y0343172D01*
X0232043Y0343074D01*
X0232041Y0342976D01*
X0226136Y0298232D02*
X0226005Y0298230D01*
X0225874Y0298224D01*
X0225743Y0298215D01*
X0225612Y0298201D01*
X0225482Y0298183D01*
X0225353Y0298162D01*
X0225224Y0298137D01*
X0225096Y0298108D01*
X0224969Y0298075D01*
X0224842Y0298039D01*
X0224718Y0297999D01*
X0224594Y0297955D01*
X0224471Y0297907D01*
X0224351Y0297856D01*
X0224231Y0297801D01*
X0224114Y0297743D01*
X0223998Y0297682D01*
X0223884Y0297617D01*
X0223772Y0297548D01*
X0223662Y0297476D01*
X0223554Y0297402D01*
X0223448Y0297323D01*
X0223345Y0297242D01*
X0223245Y0297158D01*
X0223147Y0297071D01*
X0223051Y0296981D01*
X0222958Y0296888D01*
X0222868Y0296792D01*
X0222781Y0296694D01*
X0222697Y0296594D01*
X0222616Y0296491D01*
X0222537Y0296385D01*
X0222463Y0296277D01*
X0222391Y0296167D01*
X0222322Y0296055D01*
X0222257Y0295941D01*
X0222196Y0295825D01*
X0222138Y0295708D01*
X0222083Y0295588D01*
X0222032Y0295468D01*
X0221984Y0295345D01*
X0221940Y0295221D01*
X0221900Y0295097D01*
X0221864Y0294970D01*
X0221831Y0294843D01*
X0221802Y0294715D01*
X0221777Y0294586D01*
X0221756Y0294457D01*
X0221738Y0294327D01*
X0221724Y0294196D01*
X0221715Y0294065D01*
X0221709Y0293934D01*
X0221707Y0293803D01*
X0221709Y0293672D01*
X0221715Y0293541D01*
X0221724Y0293410D01*
X0221738Y0293279D01*
X0221756Y0293149D01*
X0221777Y0293020D01*
X0221802Y0292891D01*
X0221831Y0292763D01*
X0221864Y0292636D01*
X0221900Y0292509D01*
X0221940Y0292385D01*
X0221984Y0292261D01*
X0222032Y0292138D01*
X0222083Y0292018D01*
X0222138Y0291898D01*
X0222196Y0291781D01*
X0222257Y0291665D01*
X0222322Y0291551D01*
X0222391Y0291439D01*
X0222463Y0291329D01*
X0222537Y0291221D01*
X0222616Y0291115D01*
X0222697Y0291012D01*
X0222781Y0290912D01*
X0222868Y0290814D01*
X0222958Y0290718D01*
X0223051Y0290625D01*
X0223147Y0290535D01*
X0223245Y0290448D01*
X0223345Y0290364D01*
X0223448Y0290283D01*
X0223554Y0290204D01*
X0223662Y0290130D01*
X0223772Y0290058D01*
X0223884Y0289989D01*
X0223998Y0289924D01*
X0224114Y0289863D01*
X0224231Y0289805D01*
X0224351Y0289750D01*
X0224471Y0289699D01*
X0224594Y0289651D01*
X0224718Y0289607D01*
X0224842Y0289567D01*
X0224969Y0289531D01*
X0225096Y0289498D01*
X0225224Y0289469D01*
X0225353Y0289444D01*
X0225482Y0289423D01*
X0225612Y0289405D01*
X0225743Y0289391D01*
X0225874Y0289382D01*
X0226005Y0289376D01*
X0226136Y0289374D01*
X0226136Y0240161D02*
X0226005Y0240159D01*
X0225874Y0240153D01*
X0225743Y0240144D01*
X0225612Y0240130D01*
X0225482Y0240112D01*
X0225353Y0240091D01*
X0225224Y0240066D01*
X0225096Y0240037D01*
X0224969Y0240004D01*
X0224842Y0239968D01*
X0224718Y0239928D01*
X0224594Y0239884D01*
X0224471Y0239836D01*
X0224351Y0239785D01*
X0224231Y0239730D01*
X0224114Y0239672D01*
X0223998Y0239611D01*
X0223884Y0239546D01*
X0223772Y0239477D01*
X0223662Y0239405D01*
X0223554Y0239331D01*
X0223448Y0239252D01*
X0223345Y0239171D01*
X0223245Y0239087D01*
X0223147Y0239000D01*
X0223051Y0238910D01*
X0222958Y0238817D01*
X0222868Y0238721D01*
X0222781Y0238623D01*
X0222697Y0238523D01*
X0222616Y0238420D01*
X0222537Y0238314D01*
X0222463Y0238206D01*
X0222391Y0238096D01*
X0222322Y0237984D01*
X0222257Y0237870D01*
X0222196Y0237754D01*
X0222138Y0237637D01*
X0222083Y0237517D01*
X0222032Y0237397D01*
X0221984Y0237274D01*
X0221940Y0237150D01*
X0221900Y0237026D01*
X0221864Y0236899D01*
X0221831Y0236772D01*
X0221802Y0236644D01*
X0221777Y0236515D01*
X0221756Y0236386D01*
X0221738Y0236256D01*
X0221724Y0236125D01*
X0221715Y0235994D01*
X0221709Y0235863D01*
X0221707Y0235732D01*
X0221709Y0235601D01*
X0221715Y0235470D01*
X0221724Y0235339D01*
X0221738Y0235208D01*
X0221756Y0235078D01*
X0221777Y0234949D01*
X0221802Y0234820D01*
X0221831Y0234692D01*
X0221864Y0234565D01*
X0221900Y0234438D01*
X0221940Y0234314D01*
X0221984Y0234190D01*
X0222032Y0234067D01*
X0222083Y0233947D01*
X0222138Y0233827D01*
X0222196Y0233710D01*
X0222257Y0233594D01*
X0222322Y0233480D01*
X0222391Y0233368D01*
X0222463Y0233258D01*
X0222537Y0233150D01*
X0222616Y0233044D01*
X0222697Y0232941D01*
X0222781Y0232841D01*
X0222868Y0232743D01*
X0222958Y0232647D01*
X0223051Y0232554D01*
X0223147Y0232464D01*
X0223245Y0232377D01*
X0223345Y0232293D01*
X0223448Y0232212D01*
X0223554Y0232133D01*
X0223662Y0232059D01*
X0223772Y0231987D01*
X0223884Y0231918D01*
X0223998Y0231853D01*
X0224114Y0231792D01*
X0224231Y0231734D01*
X0224351Y0231679D01*
X0224471Y0231628D01*
X0224594Y0231580D01*
X0224718Y0231536D01*
X0224842Y0231496D01*
X0224969Y0231460D01*
X0225096Y0231427D01*
X0225224Y0231398D01*
X0225353Y0231373D01*
X0225482Y0231352D01*
X0225612Y0231334D01*
X0225743Y0231320D01*
X0225874Y0231311D01*
X0226005Y0231305D01*
X0226136Y0231303D01*
X0230073Y0231303D02*
X0230073Y0199807D01*
X0235978Y0186028D01*
X0256648Y0186028D01*
X0256648Y0203744D01*
X0257632Y0203744D01*
X0257632Y0174748D01*
X0257634Y0174650D01*
X0257640Y0174552D01*
X0257649Y0174454D01*
X0257663Y0174357D01*
X0257680Y0174260D01*
X0257701Y0174164D01*
X0257726Y0174069D01*
X0257754Y0173975D01*
X0257787Y0173883D01*
X0257822Y0173791D01*
X0257862Y0173701D01*
X0257904Y0173613D01*
X0257951Y0173526D01*
X0258000Y0173442D01*
X0258053Y0173359D01*
X0258109Y0173279D01*
X0258169Y0173200D01*
X0258231Y0173124D01*
X0258296Y0173051D01*
X0258364Y0172980D01*
X0258435Y0172912D01*
X0258508Y0172847D01*
X0258584Y0172785D01*
X0258663Y0172725D01*
X0258743Y0172669D01*
X0258826Y0172616D01*
X0258910Y0172567D01*
X0258997Y0172520D01*
X0259085Y0172478D01*
X0259175Y0172438D01*
X0259267Y0172403D01*
X0259359Y0172370D01*
X0259453Y0172342D01*
X0259548Y0172317D01*
X0259644Y0172296D01*
X0259741Y0172279D01*
X0259838Y0172265D01*
X0259936Y0172256D01*
X0260034Y0172250D01*
X0260132Y0172248D01*
X0286628Y0172248D01*
X0286726Y0172250D01*
X0286824Y0172256D01*
X0286922Y0172265D01*
X0287019Y0172279D01*
X0287116Y0172296D01*
X0287212Y0172317D01*
X0287307Y0172342D01*
X0287401Y0172370D01*
X0287493Y0172403D01*
X0287585Y0172438D01*
X0287675Y0172478D01*
X0287763Y0172520D01*
X0287850Y0172567D01*
X0287934Y0172616D01*
X0288017Y0172669D01*
X0288097Y0172725D01*
X0288176Y0172785D01*
X0288252Y0172847D01*
X0288325Y0172912D01*
X0288396Y0172980D01*
X0288464Y0173051D01*
X0288529Y0173124D01*
X0288591Y0173200D01*
X0288651Y0173279D01*
X0288707Y0173359D01*
X0288760Y0173442D01*
X0288809Y0173526D01*
X0288856Y0173613D01*
X0288898Y0173701D01*
X0288938Y0173791D01*
X0288973Y0173883D01*
X0289006Y0173975D01*
X0289034Y0174069D01*
X0289059Y0174164D01*
X0289080Y0174260D01*
X0289097Y0174357D01*
X0289111Y0174454D01*
X0289120Y0174552D01*
X0289126Y0174650D01*
X0289128Y0174748D01*
X0289128Y0203744D01*
X0290112Y0203744D01*
X0290112Y0186028D01*
X0310782Y0186028D01*
X0316687Y0199807D01*
X0316687Y0231303D01*
X0320624Y0231303D01*
X0316687Y0231303D02*
X0316687Y0240161D01*
X0316687Y0276579D01*
X0316687Y0289374D01*
X0316687Y0292327D01*
X0316687Y0289374D02*
X0320624Y0289374D01*
X0320755Y0289376D01*
X0320886Y0289382D01*
X0321017Y0289391D01*
X0321148Y0289405D01*
X0321278Y0289423D01*
X0321407Y0289444D01*
X0321536Y0289469D01*
X0321664Y0289498D01*
X0321791Y0289531D01*
X0321918Y0289567D01*
X0322042Y0289607D01*
X0322166Y0289651D01*
X0322289Y0289699D01*
X0322409Y0289750D01*
X0322529Y0289805D01*
X0322646Y0289863D01*
X0322762Y0289924D01*
X0322876Y0289989D01*
X0322988Y0290058D01*
X0323098Y0290130D01*
X0323206Y0290204D01*
X0323312Y0290283D01*
X0323415Y0290364D01*
X0323515Y0290448D01*
X0323613Y0290535D01*
X0323709Y0290625D01*
X0323802Y0290718D01*
X0323892Y0290814D01*
X0323979Y0290912D01*
X0324063Y0291012D01*
X0324144Y0291115D01*
X0324223Y0291221D01*
X0324297Y0291329D01*
X0324369Y0291439D01*
X0324438Y0291551D01*
X0324503Y0291665D01*
X0324564Y0291781D01*
X0324622Y0291898D01*
X0324677Y0292018D01*
X0324728Y0292138D01*
X0324776Y0292261D01*
X0324820Y0292385D01*
X0324860Y0292509D01*
X0324896Y0292636D01*
X0324929Y0292763D01*
X0324958Y0292891D01*
X0324983Y0293020D01*
X0325004Y0293149D01*
X0325022Y0293279D01*
X0325036Y0293410D01*
X0325045Y0293541D01*
X0325051Y0293672D01*
X0325053Y0293803D01*
X0325051Y0293934D01*
X0325045Y0294065D01*
X0325036Y0294196D01*
X0325022Y0294327D01*
X0325004Y0294457D01*
X0324983Y0294586D01*
X0324958Y0294715D01*
X0324929Y0294843D01*
X0324896Y0294970D01*
X0324860Y0295097D01*
X0324820Y0295221D01*
X0324776Y0295345D01*
X0324728Y0295468D01*
X0324677Y0295588D01*
X0324622Y0295708D01*
X0324564Y0295825D01*
X0324503Y0295941D01*
X0324438Y0296055D01*
X0324369Y0296167D01*
X0324297Y0296277D01*
X0324223Y0296385D01*
X0324144Y0296491D01*
X0324063Y0296594D01*
X0323979Y0296694D01*
X0323892Y0296792D01*
X0323802Y0296888D01*
X0323709Y0296981D01*
X0323613Y0297071D01*
X0323515Y0297158D01*
X0323415Y0297242D01*
X0323312Y0297323D01*
X0323206Y0297402D01*
X0323098Y0297476D01*
X0322988Y0297548D01*
X0322876Y0297617D01*
X0322762Y0297682D01*
X0322646Y0297743D01*
X0322529Y0297801D01*
X0322409Y0297856D01*
X0322289Y0297907D01*
X0322166Y0297955D01*
X0322042Y0297999D01*
X0321918Y0298039D01*
X0321791Y0298075D01*
X0321664Y0298108D01*
X0321536Y0298137D01*
X0321407Y0298162D01*
X0321278Y0298183D01*
X0321148Y0298201D01*
X0321017Y0298215D01*
X0320886Y0298224D01*
X0320755Y0298230D01*
X0320624Y0298232D01*
X0316687Y0276579D02*
X0283222Y0288390D01*
X0283222Y0245083D01*
X0316687Y0233272D01*
X0320624Y0231303D02*
X0320755Y0231305D01*
X0320886Y0231311D01*
X0321017Y0231320D01*
X0321148Y0231334D01*
X0321278Y0231352D01*
X0321407Y0231373D01*
X0321536Y0231398D01*
X0321664Y0231427D01*
X0321791Y0231460D01*
X0321918Y0231496D01*
X0322042Y0231536D01*
X0322166Y0231580D01*
X0322289Y0231628D01*
X0322409Y0231679D01*
X0322529Y0231734D01*
X0322646Y0231792D01*
X0322762Y0231853D01*
X0322876Y0231918D01*
X0322988Y0231987D01*
X0323098Y0232059D01*
X0323206Y0232133D01*
X0323312Y0232212D01*
X0323415Y0232293D01*
X0323515Y0232377D01*
X0323613Y0232464D01*
X0323709Y0232554D01*
X0323802Y0232647D01*
X0323892Y0232743D01*
X0323979Y0232841D01*
X0324063Y0232941D01*
X0324144Y0233044D01*
X0324223Y0233150D01*
X0324297Y0233258D01*
X0324369Y0233368D01*
X0324438Y0233480D01*
X0324503Y0233594D01*
X0324564Y0233710D01*
X0324622Y0233827D01*
X0324677Y0233947D01*
X0324728Y0234067D01*
X0324776Y0234190D01*
X0324820Y0234314D01*
X0324860Y0234438D01*
X0324896Y0234565D01*
X0324929Y0234692D01*
X0324958Y0234820D01*
X0324983Y0234949D01*
X0325004Y0235078D01*
X0325022Y0235208D01*
X0325036Y0235339D01*
X0325045Y0235470D01*
X0325051Y0235601D01*
X0325053Y0235732D01*
X0325051Y0235863D01*
X0325045Y0235994D01*
X0325036Y0236125D01*
X0325022Y0236256D01*
X0325004Y0236386D01*
X0324983Y0236515D01*
X0324958Y0236644D01*
X0324929Y0236772D01*
X0324896Y0236899D01*
X0324860Y0237026D01*
X0324820Y0237150D01*
X0324776Y0237274D01*
X0324728Y0237397D01*
X0324677Y0237517D01*
X0324622Y0237637D01*
X0324564Y0237754D01*
X0324503Y0237870D01*
X0324438Y0237984D01*
X0324369Y0238096D01*
X0324297Y0238206D01*
X0324223Y0238314D01*
X0324144Y0238420D01*
X0324063Y0238523D01*
X0323979Y0238623D01*
X0323892Y0238721D01*
X0323802Y0238817D01*
X0323709Y0238910D01*
X0323613Y0239000D01*
X0323515Y0239087D01*
X0323415Y0239171D01*
X0323312Y0239252D01*
X0323206Y0239331D01*
X0323098Y0239405D01*
X0322988Y0239477D01*
X0322876Y0239546D01*
X0322762Y0239611D01*
X0322646Y0239672D01*
X0322529Y0239730D01*
X0322409Y0239785D01*
X0322289Y0239836D01*
X0322166Y0239884D01*
X0322042Y0239928D01*
X0321918Y0239968D01*
X0321791Y0240004D01*
X0321664Y0240037D01*
X0321536Y0240066D01*
X0321407Y0240091D01*
X0321278Y0240112D01*
X0321148Y0240130D01*
X0321017Y0240144D01*
X0320886Y0240153D01*
X0320755Y0240159D01*
X0320624Y0240161D01*
X0316687Y0240161D01*
X0316687Y0217524D02*
X0283222Y0229335D01*
X0263537Y0229335D01*
X0230073Y0217524D01*
X0314719Y0333665D02*
X0302908Y0345476D01*
X0312219Y0345476D01*
X0312317Y0345474D01*
X0312415Y0345468D01*
X0312513Y0345459D01*
X0312610Y0345445D01*
X0312707Y0345428D01*
X0312803Y0345407D01*
X0312898Y0345382D01*
X0312992Y0345354D01*
X0313084Y0345321D01*
X0313176Y0345286D01*
X0313266Y0345246D01*
X0313354Y0345204D01*
X0313441Y0345157D01*
X0313525Y0345108D01*
X0313608Y0345055D01*
X0313688Y0344999D01*
X0313767Y0344939D01*
X0313843Y0344877D01*
X0313916Y0344812D01*
X0313987Y0344744D01*
X0314055Y0344673D01*
X0314120Y0344600D01*
X0314182Y0344524D01*
X0314242Y0344445D01*
X0314298Y0344365D01*
X0314351Y0344282D01*
X0314400Y0344198D01*
X0314447Y0344111D01*
X0314489Y0344023D01*
X0314529Y0343933D01*
X0314564Y0343841D01*
X0314597Y0343749D01*
X0314625Y0343655D01*
X0314650Y0343560D01*
X0314671Y0343464D01*
X0314688Y0343367D01*
X0314702Y0343270D01*
X0314711Y0343172D01*
X0314717Y0343074D01*
X0314719Y0342976D01*
X0314719Y0333665D01*
D12*
X0340882Y0268037D02*
X0340882Y0264968D01*
X0340882Y0255537D02*
X0340882Y0252468D01*
X0342417Y0254002D02*
X0339347Y0254002D01*
X0225684Y0253458D02*
X0225684Y0255760D01*
X0224917Y0256527D01*
X0224149Y0256527D01*
X0223382Y0255760D01*
X0223382Y0253458D01*
X0223382Y0255760D02*
X0222615Y0256527D01*
X0221847Y0256527D01*
X0221080Y0255760D01*
X0221080Y0253458D01*
X0225684Y0253458D01*
X0224149Y0258062D02*
X0225684Y0259596D01*
X0224149Y0261131D01*
X0221080Y0261131D01*
X0223382Y0261131D02*
X0223382Y0258062D01*
X0224149Y0258062D02*
X0221080Y0258062D01*
X0221080Y0264200D02*
X0225684Y0264200D01*
X0225684Y0262666D02*
X0225684Y0265735D01*
X0225684Y0267270D02*
X0225684Y0270339D01*
X0225684Y0268804D02*
X0221080Y0268804D01*
X0221080Y0271874D02*
X0221080Y0274943D01*
X0221080Y0273408D02*
X0225684Y0273408D01*
X0224149Y0271874D01*
D13*
X0223183Y0293705D02*
X0223185Y0293810D01*
X0223191Y0293915D01*
X0223201Y0294019D01*
X0223215Y0294123D01*
X0223233Y0294227D01*
X0223255Y0294329D01*
X0223280Y0294431D01*
X0223310Y0294532D01*
X0223343Y0294631D01*
X0223380Y0294729D01*
X0223421Y0294826D01*
X0223466Y0294921D01*
X0223514Y0295014D01*
X0223565Y0295106D01*
X0223621Y0295195D01*
X0223679Y0295282D01*
X0223741Y0295367D01*
X0223805Y0295450D01*
X0223873Y0295530D01*
X0223944Y0295607D01*
X0224018Y0295681D01*
X0224095Y0295753D01*
X0224174Y0295822D01*
X0224256Y0295887D01*
X0224340Y0295950D01*
X0224427Y0296009D01*
X0224516Y0296065D01*
X0224607Y0296118D01*
X0224700Y0296167D01*
X0224794Y0296212D01*
X0224890Y0296254D01*
X0224988Y0296292D01*
X0225087Y0296326D01*
X0225188Y0296357D01*
X0225289Y0296383D01*
X0225392Y0296406D01*
X0225495Y0296425D01*
X0225599Y0296440D01*
X0225703Y0296451D01*
X0225808Y0296458D01*
X0225913Y0296461D01*
X0226018Y0296460D01*
X0226123Y0296455D01*
X0226227Y0296446D01*
X0226331Y0296433D01*
X0226435Y0296416D01*
X0226538Y0296395D01*
X0226640Y0296370D01*
X0226741Y0296342D01*
X0226840Y0296309D01*
X0226939Y0296273D01*
X0227036Y0296233D01*
X0227131Y0296190D01*
X0227225Y0296142D01*
X0227317Y0296092D01*
X0227407Y0296038D01*
X0227495Y0295980D01*
X0227580Y0295919D01*
X0227663Y0295855D01*
X0227744Y0295788D01*
X0227822Y0295718D01*
X0227897Y0295644D01*
X0227969Y0295569D01*
X0228039Y0295490D01*
X0228105Y0295409D01*
X0228169Y0295325D01*
X0228229Y0295239D01*
X0228285Y0295151D01*
X0228339Y0295060D01*
X0228389Y0294968D01*
X0228435Y0294874D01*
X0228478Y0294778D01*
X0228517Y0294680D01*
X0228552Y0294582D01*
X0228583Y0294481D01*
X0228611Y0294380D01*
X0228635Y0294278D01*
X0228655Y0294175D01*
X0228671Y0294071D01*
X0228683Y0293967D01*
X0228691Y0293862D01*
X0228695Y0293757D01*
X0228695Y0293653D01*
X0228691Y0293548D01*
X0228683Y0293443D01*
X0228671Y0293339D01*
X0228655Y0293235D01*
X0228635Y0293132D01*
X0228611Y0293030D01*
X0228583Y0292929D01*
X0228552Y0292828D01*
X0228517Y0292730D01*
X0228478Y0292632D01*
X0228435Y0292536D01*
X0228389Y0292442D01*
X0228339Y0292350D01*
X0228285Y0292259D01*
X0228229Y0292171D01*
X0228169Y0292085D01*
X0228105Y0292001D01*
X0228039Y0291920D01*
X0227969Y0291841D01*
X0227897Y0291766D01*
X0227822Y0291692D01*
X0227744Y0291622D01*
X0227663Y0291555D01*
X0227580Y0291491D01*
X0227495Y0291430D01*
X0227407Y0291372D01*
X0227317Y0291318D01*
X0227225Y0291268D01*
X0227131Y0291220D01*
X0227036Y0291177D01*
X0226939Y0291137D01*
X0226840Y0291101D01*
X0226741Y0291068D01*
X0226640Y0291040D01*
X0226538Y0291015D01*
X0226435Y0290994D01*
X0226331Y0290977D01*
X0226227Y0290964D01*
X0226123Y0290955D01*
X0226018Y0290950D01*
X0225913Y0290949D01*
X0225808Y0290952D01*
X0225703Y0290959D01*
X0225599Y0290970D01*
X0225495Y0290985D01*
X0225392Y0291004D01*
X0225289Y0291027D01*
X0225188Y0291053D01*
X0225087Y0291084D01*
X0224988Y0291118D01*
X0224890Y0291156D01*
X0224794Y0291198D01*
X0224700Y0291243D01*
X0224607Y0291292D01*
X0224516Y0291345D01*
X0224427Y0291401D01*
X0224340Y0291460D01*
X0224256Y0291523D01*
X0224174Y0291588D01*
X0224095Y0291657D01*
X0224018Y0291729D01*
X0223944Y0291803D01*
X0223873Y0291880D01*
X0223805Y0291960D01*
X0223741Y0292043D01*
X0223679Y0292128D01*
X0223621Y0292215D01*
X0223565Y0292304D01*
X0223514Y0292396D01*
X0223466Y0292489D01*
X0223421Y0292584D01*
X0223380Y0292681D01*
X0223343Y0292779D01*
X0223310Y0292878D01*
X0223280Y0292979D01*
X0223255Y0293081D01*
X0223233Y0293183D01*
X0223215Y0293287D01*
X0223201Y0293391D01*
X0223191Y0293495D01*
X0223185Y0293600D01*
X0223183Y0293705D01*
X0223183Y0235831D02*
X0223185Y0235936D01*
X0223191Y0236041D01*
X0223201Y0236145D01*
X0223215Y0236249D01*
X0223233Y0236353D01*
X0223255Y0236455D01*
X0223280Y0236557D01*
X0223310Y0236658D01*
X0223343Y0236757D01*
X0223380Y0236855D01*
X0223421Y0236952D01*
X0223466Y0237047D01*
X0223514Y0237140D01*
X0223565Y0237232D01*
X0223621Y0237321D01*
X0223679Y0237408D01*
X0223741Y0237493D01*
X0223805Y0237576D01*
X0223873Y0237656D01*
X0223944Y0237733D01*
X0224018Y0237807D01*
X0224095Y0237879D01*
X0224174Y0237948D01*
X0224256Y0238013D01*
X0224340Y0238076D01*
X0224427Y0238135D01*
X0224516Y0238191D01*
X0224607Y0238244D01*
X0224700Y0238293D01*
X0224794Y0238338D01*
X0224890Y0238380D01*
X0224988Y0238418D01*
X0225087Y0238452D01*
X0225188Y0238483D01*
X0225289Y0238509D01*
X0225392Y0238532D01*
X0225495Y0238551D01*
X0225599Y0238566D01*
X0225703Y0238577D01*
X0225808Y0238584D01*
X0225913Y0238587D01*
X0226018Y0238586D01*
X0226123Y0238581D01*
X0226227Y0238572D01*
X0226331Y0238559D01*
X0226435Y0238542D01*
X0226538Y0238521D01*
X0226640Y0238496D01*
X0226741Y0238468D01*
X0226840Y0238435D01*
X0226939Y0238399D01*
X0227036Y0238359D01*
X0227131Y0238316D01*
X0227225Y0238268D01*
X0227317Y0238218D01*
X0227407Y0238164D01*
X0227495Y0238106D01*
X0227580Y0238045D01*
X0227663Y0237981D01*
X0227744Y0237914D01*
X0227822Y0237844D01*
X0227897Y0237770D01*
X0227969Y0237695D01*
X0228039Y0237616D01*
X0228105Y0237535D01*
X0228169Y0237451D01*
X0228229Y0237365D01*
X0228285Y0237277D01*
X0228339Y0237186D01*
X0228389Y0237094D01*
X0228435Y0237000D01*
X0228478Y0236904D01*
X0228517Y0236806D01*
X0228552Y0236708D01*
X0228583Y0236607D01*
X0228611Y0236506D01*
X0228635Y0236404D01*
X0228655Y0236301D01*
X0228671Y0236197D01*
X0228683Y0236093D01*
X0228691Y0235988D01*
X0228695Y0235883D01*
X0228695Y0235779D01*
X0228691Y0235674D01*
X0228683Y0235569D01*
X0228671Y0235465D01*
X0228655Y0235361D01*
X0228635Y0235258D01*
X0228611Y0235156D01*
X0228583Y0235055D01*
X0228552Y0234954D01*
X0228517Y0234856D01*
X0228478Y0234758D01*
X0228435Y0234662D01*
X0228389Y0234568D01*
X0228339Y0234476D01*
X0228285Y0234385D01*
X0228229Y0234297D01*
X0228169Y0234211D01*
X0228105Y0234127D01*
X0228039Y0234046D01*
X0227969Y0233967D01*
X0227897Y0233892D01*
X0227822Y0233818D01*
X0227744Y0233748D01*
X0227663Y0233681D01*
X0227580Y0233617D01*
X0227495Y0233556D01*
X0227407Y0233498D01*
X0227317Y0233444D01*
X0227225Y0233394D01*
X0227131Y0233346D01*
X0227036Y0233303D01*
X0226939Y0233263D01*
X0226840Y0233227D01*
X0226741Y0233194D01*
X0226640Y0233166D01*
X0226538Y0233141D01*
X0226435Y0233120D01*
X0226331Y0233103D01*
X0226227Y0233090D01*
X0226123Y0233081D01*
X0226018Y0233076D01*
X0225913Y0233075D01*
X0225808Y0233078D01*
X0225703Y0233085D01*
X0225599Y0233096D01*
X0225495Y0233111D01*
X0225392Y0233130D01*
X0225289Y0233153D01*
X0225188Y0233179D01*
X0225087Y0233210D01*
X0224988Y0233244D01*
X0224890Y0233282D01*
X0224794Y0233324D01*
X0224700Y0233369D01*
X0224607Y0233418D01*
X0224516Y0233471D01*
X0224427Y0233527D01*
X0224340Y0233586D01*
X0224256Y0233649D01*
X0224174Y0233714D01*
X0224095Y0233783D01*
X0224018Y0233855D01*
X0223944Y0233929D01*
X0223873Y0234006D01*
X0223805Y0234086D01*
X0223741Y0234169D01*
X0223679Y0234254D01*
X0223621Y0234341D01*
X0223565Y0234430D01*
X0223514Y0234522D01*
X0223466Y0234615D01*
X0223421Y0234710D01*
X0223380Y0234807D01*
X0223343Y0234905D01*
X0223310Y0235004D01*
X0223280Y0235105D01*
X0223255Y0235207D01*
X0223233Y0235309D01*
X0223215Y0235413D01*
X0223201Y0235517D01*
X0223191Y0235621D01*
X0223185Y0235726D01*
X0223183Y0235831D01*
X0318065Y0235831D02*
X0318067Y0235936D01*
X0318073Y0236041D01*
X0318083Y0236145D01*
X0318097Y0236249D01*
X0318115Y0236353D01*
X0318137Y0236455D01*
X0318162Y0236557D01*
X0318192Y0236658D01*
X0318225Y0236757D01*
X0318262Y0236855D01*
X0318303Y0236952D01*
X0318348Y0237047D01*
X0318396Y0237140D01*
X0318447Y0237232D01*
X0318503Y0237321D01*
X0318561Y0237408D01*
X0318623Y0237493D01*
X0318687Y0237576D01*
X0318755Y0237656D01*
X0318826Y0237733D01*
X0318900Y0237807D01*
X0318977Y0237879D01*
X0319056Y0237948D01*
X0319138Y0238013D01*
X0319222Y0238076D01*
X0319309Y0238135D01*
X0319398Y0238191D01*
X0319489Y0238244D01*
X0319582Y0238293D01*
X0319676Y0238338D01*
X0319772Y0238380D01*
X0319870Y0238418D01*
X0319969Y0238452D01*
X0320070Y0238483D01*
X0320171Y0238509D01*
X0320274Y0238532D01*
X0320377Y0238551D01*
X0320481Y0238566D01*
X0320585Y0238577D01*
X0320690Y0238584D01*
X0320795Y0238587D01*
X0320900Y0238586D01*
X0321005Y0238581D01*
X0321109Y0238572D01*
X0321213Y0238559D01*
X0321317Y0238542D01*
X0321420Y0238521D01*
X0321522Y0238496D01*
X0321623Y0238468D01*
X0321722Y0238435D01*
X0321821Y0238399D01*
X0321918Y0238359D01*
X0322013Y0238316D01*
X0322107Y0238268D01*
X0322199Y0238218D01*
X0322289Y0238164D01*
X0322377Y0238106D01*
X0322462Y0238045D01*
X0322545Y0237981D01*
X0322626Y0237914D01*
X0322704Y0237844D01*
X0322779Y0237770D01*
X0322851Y0237695D01*
X0322921Y0237616D01*
X0322987Y0237535D01*
X0323051Y0237451D01*
X0323111Y0237365D01*
X0323167Y0237277D01*
X0323221Y0237186D01*
X0323271Y0237094D01*
X0323317Y0237000D01*
X0323360Y0236904D01*
X0323399Y0236806D01*
X0323434Y0236708D01*
X0323465Y0236607D01*
X0323493Y0236506D01*
X0323517Y0236404D01*
X0323537Y0236301D01*
X0323553Y0236197D01*
X0323565Y0236093D01*
X0323573Y0235988D01*
X0323577Y0235883D01*
X0323577Y0235779D01*
X0323573Y0235674D01*
X0323565Y0235569D01*
X0323553Y0235465D01*
X0323537Y0235361D01*
X0323517Y0235258D01*
X0323493Y0235156D01*
X0323465Y0235055D01*
X0323434Y0234954D01*
X0323399Y0234856D01*
X0323360Y0234758D01*
X0323317Y0234662D01*
X0323271Y0234568D01*
X0323221Y0234476D01*
X0323167Y0234385D01*
X0323111Y0234297D01*
X0323051Y0234211D01*
X0322987Y0234127D01*
X0322921Y0234046D01*
X0322851Y0233967D01*
X0322779Y0233892D01*
X0322704Y0233818D01*
X0322626Y0233748D01*
X0322545Y0233681D01*
X0322462Y0233617D01*
X0322377Y0233556D01*
X0322289Y0233498D01*
X0322199Y0233444D01*
X0322107Y0233394D01*
X0322013Y0233346D01*
X0321918Y0233303D01*
X0321821Y0233263D01*
X0321722Y0233227D01*
X0321623Y0233194D01*
X0321522Y0233166D01*
X0321420Y0233141D01*
X0321317Y0233120D01*
X0321213Y0233103D01*
X0321109Y0233090D01*
X0321005Y0233081D01*
X0320900Y0233076D01*
X0320795Y0233075D01*
X0320690Y0233078D01*
X0320585Y0233085D01*
X0320481Y0233096D01*
X0320377Y0233111D01*
X0320274Y0233130D01*
X0320171Y0233153D01*
X0320070Y0233179D01*
X0319969Y0233210D01*
X0319870Y0233244D01*
X0319772Y0233282D01*
X0319676Y0233324D01*
X0319582Y0233369D01*
X0319489Y0233418D01*
X0319398Y0233471D01*
X0319309Y0233527D01*
X0319222Y0233586D01*
X0319138Y0233649D01*
X0319056Y0233714D01*
X0318977Y0233783D01*
X0318900Y0233855D01*
X0318826Y0233929D01*
X0318755Y0234006D01*
X0318687Y0234086D01*
X0318623Y0234169D01*
X0318561Y0234254D01*
X0318503Y0234341D01*
X0318447Y0234430D01*
X0318396Y0234522D01*
X0318348Y0234615D01*
X0318303Y0234710D01*
X0318262Y0234807D01*
X0318225Y0234905D01*
X0318192Y0235004D01*
X0318162Y0235105D01*
X0318137Y0235207D01*
X0318115Y0235309D01*
X0318097Y0235413D01*
X0318083Y0235517D01*
X0318073Y0235621D01*
X0318067Y0235726D01*
X0318065Y0235831D01*
X0318065Y0293705D02*
X0318067Y0293810D01*
X0318073Y0293915D01*
X0318083Y0294019D01*
X0318097Y0294123D01*
X0318115Y0294227D01*
X0318137Y0294329D01*
X0318162Y0294431D01*
X0318192Y0294532D01*
X0318225Y0294631D01*
X0318262Y0294729D01*
X0318303Y0294826D01*
X0318348Y0294921D01*
X0318396Y0295014D01*
X0318447Y0295106D01*
X0318503Y0295195D01*
X0318561Y0295282D01*
X0318623Y0295367D01*
X0318687Y0295450D01*
X0318755Y0295530D01*
X0318826Y0295607D01*
X0318900Y0295681D01*
X0318977Y0295753D01*
X0319056Y0295822D01*
X0319138Y0295887D01*
X0319222Y0295950D01*
X0319309Y0296009D01*
X0319398Y0296065D01*
X0319489Y0296118D01*
X0319582Y0296167D01*
X0319676Y0296212D01*
X0319772Y0296254D01*
X0319870Y0296292D01*
X0319969Y0296326D01*
X0320070Y0296357D01*
X0320171Y0296383D01*
X0320274Y0296406D01*
X0320377Y0296425D01*
X0320481Y0296440D01*
X0320585Y0296451D01*
X0320690Y0296458D01*
X0320795Y0296461D01*
X0320900Y0296460D01*
X0321005Y0296455D01*
X0321109Y0296446D01*
X0321213Y0296433D01*
X0321317Y0296416D01*
X0321420Y0296395D01*
X0321522Y0296370D01*
X0321623Y0296342D01*
X0321722Y0296309D01*
X0321821Y0296273D01*
X0321918Y0296233D01*
X0322013Y0296190D01*
X0322107Y0296142D01*
X0322199Y0296092D01*
X0322289Y0296038D01*
X0322377Y0295980D01*
X0322462Y0295919D01*
X0322545Y0295855D01*
X0322626Y0295788D01*
X0322704Y0295718D01*
X0322779Y0295644D01*
X0322851Y0295569D01*
X0322921Y0295490D01*
X0322987Y0295409D01*
X0323051Y0295325D01*
X0323111Y0295239D01*
X0323167Y0295151D01*
X0323221Y0295060D01*
X0323271Y0294968D01*
X0323317Y0294874D01*
X0323360Y0294778D01*
X0323399Y0294680D01*
X0323434Y0294582D01*
X0323465Y0294481D01*
X0323493Y0294380D01*
X0323517Y0294278D01*
X0323537Y0294175D01*
X0323553Y0294071D01*
X0323565Y0293967D01*
X0323573Y0293862D01*
X0323577Y0293757D01*
X0323577Y0293653D01*
X0323573Y0293548D01*
X0323565Y0293443D01*
X0323553Y0293339D01*
X0323537Y0293235D01*
X0323517Y0293132D01*
X0323493Y0293030D01*
X0323465Y0292929D01*
X0323434Y0292828D01*
X0323399Y0292730D01*
X0323360Y0292632D01*
X0323317Y0292536D01*
X0323271Y0292442D01*
X0323221Y0292350D01*
X0323167Y0292259D01*
X0323111Y0292171D01*
X0323051Y0292085D01*
X0322987Y0292001D01*
X0322921Y0291920D01*
X0322851Y0291841D01*
X0322779Y0291766D01*
X0322704Y0291692D01*
X0322626Y0291622D01*
X0322545Y0291555D01*
X0322462Y0291491D01*
X0322377Y0291430D01*
X0322289Y0291372D01*
X0322199Y0291318D01*
X0322107Y0291268D01*
X0322013Y0291220D01*
X0321918Y0291177D01*
X0321821Y0291137D01*
X0321722Y0291101D01*
X0321623Y0291068D01*
X0321522Y0291040D01*
X0321420Y0291015D01*
X0321317Y0290994D01*
X0321213Y0290977D01*
X0321109Y0290964D01*
X0321005Y0290955D01*
X0320900Y0290950D01*
X0320795Y0290949D01*
X0320690Y0290952D01*
X0320585Y0290959D01*
X0320481Y0290970D01*
X0320377Y0290985D01*
X0320274Y0291004D01*
X0320171Y0291027D01*
X0320070Y0291053D01*
X0319969Y0291084D01*
X0319870Y0291118D01*
X0319772Y0291156D01*
X0319676Y0291198D01*
X0319582Y0291243D01*
X0319489Y0291292D01*
X0319398Y0291345D01*
X0319309Y0291401D01*
X0319222Y0291460D01*
X0319138Y0291523D01*
X0319056Y0291588D01*
X0318977Y0291657D01*
X0318900Y0291729D01*
X0318826Y0291803D01*
X0318755Y0291880D01*
X0318687Y0291960D01*
X0318623Y0292043D01*
X0318561Y0292128D01*
X0318503Y0292215D01*
X0318447Y0292304D01*
X0318396Y0292396D01*
X0318348Y0292489D01*
X0318303Y0292584D01*
X0318262Y0292681D01*
X0318225Y0292779D01*
X0318192Y0292878D01*
X0318162Y0292979D01*
X0318137Y0293081D01*
X0318115Y0293183D01*
X0318097Y0293287D01*
X0318083Y0293391D01*
X0318073Y0293495D01*
X0318067Y0293600D01*
X0318065Y0293705D01*
M02*
