G75*
%MOIN*%
%OFA0B0*%
%FSLAX25Y25*%
%IPPOS*%
%LPD*%
%AMOC8*
5,1,8,0,0,1.08239X$1,22.5*
%
%ADD10C,0.05937*%
%ADD11R,0.07400X0.07400*%
%ADD12OC8,0.07400*%
%ADD13R,0.06496X0.06496*%
%ADD14C,0.06496*%
%ADD15C,0.07400*%
%ADD16C,0.04500*%
%ADD17C,0.00600*%
%ADD18C,0.05362*%
%ADD19C,0.01800*%
D10*
X0328950Y0255806D02*
X0334887Y0255806D01*
X0334887Y0265806D02*
X0328950Y0265806D01*
D11*
X0268356Y0347765D03*
D12*
X0278356Y0347765D03*
X0288356Y0347765D03*
X0288356Y0357765D03*
X0278356Y0357765D03*
X0268356Y0357765D03*
D13*
X0231111Y0420088D03*
X0333474Y0246860D03*
D14*
X0343474Y0246860D03*
X0321111Y0420088D03*
X0311111Y0420088D03*
X0301111Y0420088D03*
X0291111Y0420088D03*
X0281111Y0420088D03*
X0271111Y0420088D03*
X0261111Y0420088D03*
X0251111Y0420088D03*
X0241111Y0420088D03*
D15*
X0420088Y0332293D03*
X0420088Y0322293D03*
X0420088Y0312293D03*
X0420088Y0302293D03*
X0420088Y0292293D03*
X0420088Y0282293D03*
X0420088Y0265363D03*
X0420088Y0255363D03*
X0420088Y0245363D03*
X0420088Y0235363D03*
X0420088Y0225363D03*
X0420088Y0215363D03*
D16*
X0141928Y0177928D03*
X0171663Y0249222D03*
X0210442Y0289182D03*
X0226190Y0304930D03*
X0226190Y0317726D03*
X0232096Y0317726D03*
X0238001Y0321663D03*
X0238001Y0327568D03*
X0250797Y0323631D03*
X0250797Y0339379D03*
X0261623Y0340363D03*
X0245875Y0350206D03*
X0222928Y0324928D03*
X0243907Y0293119D03*
X0241938Y0275403D03*
X0258671Y0279340D03*
X0261623Y0267529D03*
X0267529Y0259655D03*
X0294104Y0334458D03*
X0349222Y0270482D03*
X0400403Y0278356D03*
X0270928Y0407428D03*
X0207489Y0366938D03*
X0198631Y0366938D03*
D17*
X0182293Y0377568D02*
X0150009Y0382293D01*
X0149615Y0382293D01*
X0182293Y0377568D02*
X0182293Y0388198D01*
X0210245Y0388198D01*
X0238198Y0388198D02*
X0260639Y0388198D01*
X0260639Y0364970D01*
X0245875Y0350206D01*
X0257686Y0346269D02*
X0264576Y0353159D01*
X0278356Y0353159D01*
X0278356Y0347765D01*
X0283277Y0349222D02*
X0283277Y0340363D01*
X0261623Y0340363D01*
X0257686Y0346269D02*
X0257686Y0330521D01*
X0250797Y0323631D01*
X0236033Y0318710D02*
X0236033Y0314773D01*
X0226190Y0304930D01*
X0258671Y0304930D01*
X0258671Y0279340D01*
X0254734Y0282293D02*
X0254734Y0267529D01*
X0290167Y0232096D01*
X0420088Y0232096D01*
X0420088Y0235363D01*
X0420088Y0226190D02*
X0420088Y0225363D01*
X0420088Y0226190D02*
X0282293Y0226190D01*
X0222253Y0286230D01*
X0222253Y0307883D01*
X0232096Y0317726D01*
X0236033Y0318710D02*
X0231111Y0323631D01*
X0231111Y0420088D01*
X0226190Y0425009D02*
X0236033Y0425009D01*
X0240954Y0420088D01*
X0241111Y0420088D01*
X0246928Y0420328D02*
X0240928Y0426328D01*
X0225628Y0426328D01*
X0222928Y0423628D01*
X0222928Y0324928D01*
X0220828Y0322828D01*
X0220828Y0293728D01*
X0141928Y0214828D01*
X0141928Y0177928D01*
X0254734Y0282293D02*
X0243907Y0293119D01*
X0226190Y0317726D02*
X0226190Y0425009D01*
X0246928Y0420328D02*
X0250828Y0420328D01*
X0251111Y0420088D01*
X0260639Y0420088D02*
X0261111Y0420088D01*
X0260639Y0420088D02*
X0260639Y0388198D01*
X0270928Y0407428D02*
X0270928Y0420028D01*
X0271111Y0420088D01*
X0289182Y0388592D02*
X0289182Y0358080D01*
X0288356Y0357765D01*
X0287214Y0353159D02*
X0415167Y0353159D01*
X0415167Y0307883D01*
X0420088Y0302962D01*
X0420088Y0302293D01*
X0425009Y0326584D02*
X0425009Y0275403D01*
X0420088Y0270482D01*
X0420088Y0265363D01*
X0420088Y0270482D02*
X0349222Y0270482D01*
X0294104Y0259655D02*
X0294104Y0334458D01*
X0294104Y0342332D01*
X0289182Y0347253D01*
X0288356Y0347765D01*
X0283277Y0349222D02*
X0287214Y0353159D01*
X0289182Y0388592D02*
X0320678Y0420088D01*
X0321111Y0420088D01*
X0420088Y0332293D02*
X0420088Y0331505D01*
X0425009Y0326584D01*
X0294104Y0259655D02*
X0267529Y0259655D01*
D18*
X0189773Y0309064D03*
X0190167Y0317332D03*
X0190167Y0325206D03*
X0190167Y0338592D03*
X0186230Y0344497D03*
X0177962Y0344497D03*
X0169300Y0344497D03*
X0161033Y0344497D03*
X0159852Y0306308D03*
X0170088Y0305915D03*
X0179537Y0306308D03*
X0149615Y0382293D03*
X0183474Y0403159D03*
X0183080Y0418513D03*
X0210245Y0388198D03*
X0238198Y0388198D03*
X0365363Y0402371D03*
X0364970Y0418907D03*
X0403552Y0251584D03*
X0364182Y0144891D03*
X0364182Y0129537D03*
X0296072Y0130324D03*
X0253552Y0130324D03*
X0187017Y0128356D03*
X0186623Y0144497D03*
D19*
X0333474Y0246860D02*
X0333474Y0254734D01*
X0332489Y0255718D01*
X0331919Y0255806D01*
M02*
