G75*
%MOIN*%
%OFA0B0*%
%FSLAX25Y25*%
%IPPOS*%
%LPD*%
%AMOC8*
5,1,8,0,0,1.08239X$1,22.5*
%
%ADD10C,0.01600*%
%ADD11C,0.00300*%
%ADD12C,0.00000*%
%ADD13C,0.00800*%
%ADD14C,0.00400*%
%ADD15C,0.00500*%
%ADD16C,0.00472*%
%ADD17C,0.00787*%
%ADD18C,0.00709*%
%ADD19C,0.00600*%
%ADD20C,0.01575*%
D10*
X0007440Y0016298D02*
X0016298Y0021220D01*
X0021712Y0015511D02*
X0016298Y0007440D01*
X0016299Y0007440D02*
X0016778Y0007060D01*
X0017266Y0006692D01*
X0017762Y0006335D01*
X0018267Y0005991D01*
X0018781Y0005659D01*
X0019302Y0005340D01*
X0019831Y0005033D01*
X0020367Y0004740D01*
X0020911Y0004460D01*
X0021460Y0004193D01*
X0022017Y0003939D01*
X0022579Y0003699D01*
X0023147Y0003473D01*
X0023720Y0003260D01*
X0024298Y0003062D01*
X0024881Y0002878D01*
X0025468Y0002708D01*
X0026060Y0002552D01*
X0026654Y0002411D01*
X0027252Y0002284D01*
X0027853Y0002172D01*
X0028457Y0002075D01*
X0029062Y0001992D01*
X0029670Y0001924D01*
X0030279Y0001871D01*
X0030889Y0001832D01*
X0031500Y0001809D01*
X0032111Y0001800D01*
X0032722Y0001806D01*
X0033333Y0001827D01*
X0033944Y0001863D01*
X0034553Y0001914D01*
X0035161Y0001980D01*
X0035767Y0002060D01*
X0036371Y0002155D01*
X0036972Y0002265D01*
X0037570Y0002389D01*
X0038166Y0002528D01*
X0038758Y0002681D01*
X0039345Y0002849D01*
X0039929Y0003031D01*
X0040508Y0003227D01*
X0041082Y0003437D01*
X0041651Y0003661D01*
X0042214Y0003899D01*
X0042771Y0004150D01*
X0043322Y0004415D01*
X0043867Y0004693D01*
X0044404Y0004985D01*
X0044934Y0005289D01*
X0045457Y0005606D01*
X0045971Y0005936D01*
X0046478Y0006278D01*
X0046976Y0006633D01*
X0047465Y0006999D01*
X0047946Y0007377D01*
X0048417Y0007767D01*
X0048878Y0008168D01*
X0049329Y0008581D01*
X0049770Y0009004D01*
X0050201Y0009437D01*
X0050621Y0009882D01*
X0051031Y0010336D01*
X0051429Y0010800D01*
X0051815Y0011273D01*
X0052190Y0011756D01*
X0052553Y0012248D01*
X0052904Y0012748D01*
X0053243Y0013257D01*
X0053569Y0013774D01*
X0053883Y0014299D01*
X0054184Y0014831D01*
X0054471Y0015370D01*
X0054746Y0015917D01*
X0055007Y0016469D01*
X0055255Y0017028D01*
X0055489Y0017593D01*
X0055709Y0018163D01*
X0055915Y0018739D01*
X0056107Y0019319D01*
X0056285Y0019904D01*
X0056449Y0020493D01*
X0056598Y0021086D01*
X0056733Y0021682D01*
X0056853Y0022281D01*
X0056959Y0022884D01*
X0057050Y0023488D01*
X0057126Y0024095D01*
X0057188Y0024703D01*
X0057234Y0025312D01*
X0057266Y0025923D01*
X0057283Y0026534D01*
X0057285Y0027145D01*
X0057272Y0027756D01*
X0057245Y0028367D01*
X0057202Y0028977D01*
X0057145Y0029585D01*
X0057145Y0029586D02*
X0146466Y0118907D01*
X0402371Y0118907D01*
X0491692Y0029586D01*
X0491692Y0029585D02*
X0491635Y0028977D01*
X0491592Y0028367D01*
X0491565Y0027756D01*
X0491552Y0027145D01*
X0491554Y0026534D01*
X0491571Y0025923D01*
X0491603Y0025312D01*
X0491649Y0024703D01*
X0491711Y0024095D01*
X0491787Y0023488D01*
X0491878Y0022884D01*
X0491984Y0022281D01*
X0492104Y0021682D01*
X0492239Y0021086D01*
X0492388Y0020493D01*
X0492552Y0019904D01*
X0492730Y0019319D01*
X0492922Y0018739D01*
X0493128Y0018163D01*
X0493348Y0017593D01*
X0493582Y0017028D01*
X0493830Y0016469D01*
X0494091Y0015917D01*
X0494366Y0015370D01*
X0494653Y0014831D01*
X0494954Y0014299D01*
X0495268Y0013774D01*
X0495594Y0013257D01*
X0495933Y0012748D01*
X0496284Y0012248D01*
X0496647Y0011756D01*
X0497022Y0011273D01*
X0497408Y0010800D01*
X0497806Y0010336D01*
X0498216Y0009882D01*
X0498636Y0009437D01*
X0499067Y0009004D01*
X0499508Y0008581D01*
X0499959Y0008168D01*
X0500420Y0007767D01*
X0500891Y0007377D01*
X0501372Y0006999D01*
X0501861Y0006633D01*
X0502359Y0006278D01*
X0502866Y0005936D01*
X0503380Y0005606D01*
X0503903Y0005289D01*
X0504433Y0004985D01*
X0504970Y0004693D01*
X0505515Y0004415D01*
X0506066Y0004150D01*
X0506623Y0003899D01*
X0507186Y0003661D01*
X0507755Y0003437D01*
X0508329Y0003227D01*
X0508908Y0003031D01*
X0509492Y0002849D01*
X0510079Y0002681D01*
X0510671Y0002528D01*
X0511267Y0002389D01*
X0511865Y0002265D01*
X0512466Y0002155D01*
X0513070Y0002060D01*
X0513676Y0001980D01*
X0514284Y0001914D01*
X0514893Y0001863D01*
X0515504Y0001827D01*
X0516115Y0001806D01*
X0516726Y0001800D01*
X0517337Y0001809D01*
X0517948Y0001832D01*
X0518558Y0001871D01*
X0519167Y0001924D01*
X0519775Y0001992D01*
X0520380Y0002075D01*
X0520984Y0002172D01*
X0521585Y0002284D01*
X0522183Y0002411D01*
X0522777Y0002552D01*
X0523369Y0002708D01*
X0523956Y0002878D01*
X0524539Y0003062D01*
X0525117Y0003260D01*
X0525690Y0003473D01*
X0526258Y0003699D01*
X0526820Y0003939D01*
X0527377Y0004193D01*
X0527926Y0004460D01*
X0528470Y0004740D01*
X0529006Y0005033D01*
X0529535Y0005340D01*
X0530056Y0005659D01*
X0530570Y0005991D01*
X0531075Y0006335D01*
X0531571Y0006692D01*
X0532059Y0007060D01*
X0532538Y0007440D01*
X0532539Y0007440D02*
X0527617Y0016298D01*
X0533326Y0021712D02*
X0541397Y0016298D01*
X0541397Y0016299D02*
X0541777Y0016778D01*
X0542145Y0017266D01*
X0542502Y0017762D01*
X0542846Y0018267D01*
X0543178Y0018781D01*
X0543497Y0019302D01*
X0543804Y0019831D01*
X0544097Y0020367D01*
X0544377Y0020911D01*
X0544644Y0021460D01*
X0544898Y0022017D01*
X0545138Y0022579D01*
X0545364Y0023147D01*
X0545577Y0023720D01*
X0545775Y0024298D01*
X0545959Y0024881D01*
X0546129Y0025468D01*
X0546285Y0026060D01*
X0546426Y0026654D01*
X0546553Y0027252D01*
X0546665Y0027853D01*
X0546762Y0028457D01*
X0546845Y0029062D01*
X0546913Y0029670D01*
X0546966Y0030279D01*
X0547005Y0030889D01*
X0547028Y0031500D01*
X0547037Y0032111D01*
X0547031Y0032722D01*
X0547010Y0033333D01*
X0546974Y0033944D01*
X0546923Y0034553D01*
X0546857Y0035161D01*
X0546777Y0035767D01*
X0546682Y0036371D01*
X0546572Y0036972D01*
X0546448Y0037570D01*
X0546309Y0038166D01*
X0546156Y0038758D01*
X0545988Y0039345D01*
X0545806Y0039929D01*
X0545610Y0040508D01*
X0545400Y0041082D01*
X0545176Y0041651D01*
X0544938Y0042214D01*
X0544687Y0042771D01*
X0544422Y0043322D01*
X0544144Y0043867D01*
X0543852Y0044404D01*
X0543548Y0044934D01*
X0543231Y0045457D01*
X0542901Y0045971D01*
X0542559Y0046478D01*
X0542204Y0046976D01*
X0541838Y0047465D01*
X0541460Y0047946D01*
X0541070Y0048417D01*
X0540669Y0048878D01*
X0540256Y0049329D01*
X0539833Y0049770D01*
X0539400Y0050201D01*
X0538955Y0050621D01*
X0538501Y0051031D01*
X0538037Y0051429D01*
X0537564Y0051815D01*
X0537081Y0052190D01*
X0536589Y0052553D01*
X0536089Y0052904D01*
X0535580Y0053243D01*
X0535063Y0053569D01*
X0534538Y0053883D01*
X0534006Y0054184D01*
X0533467Y0054471D01*
X0532920Y0054746D01*
X0532368Y0055007D01*
X0531809Y0055255D01*
X0531244Y0055489D01*
X0530674Y0055709D01*
X0530098Y0055915D01*
X0529518Y0056107D01*
X0528933Y0056285D01*
X0528344Y0056449D01*
X0527751Y0056598D01*
X0527155Y0056733D01*
X0526556Y0056853D01*
X0525953Y0056959D01*
X0525349Y0057050D01*
X0524742Y0057126D01*
X0524134Y0057188D01*
X0523525Y0057234D01*
X0522914Y0057266D01*
X0522303Y0057283D01*
X0521692Y0057285D01*
X0521081Y0057272D01*
X0520470Y0057245D01*
X0519860Y0057202D01*
X0519252Y0057145D01*
X0519251Y0057145D02*
X0429930Y0146466D01*
X0429930Y0402371D01*
X0519251Y0491692D01*
X0519252Y0491692D02*
X0519860Y0491635D01*
X0520470Y0491592D01*
X0521081Y0491565D01*
X0521692Y0491552D01*
X0522303Y0491554D01*
X0522914Y0491571D01*
X0523525Y0491603D01*
X0524134Y0491649D01*
X0524742Y0491711D01*
X0525349Y0491787D01*
X0525953Y0491878D01*
X0526556Y0491984D01*
X0527155Y0492104D01*
X0527751Y0492239D01*
X0528344Y0492388D01*
X0528933Y0492552D01*
X0529518Y0492730D01*
X0530098Y0492922D01*
X0530674Y0493128D01*
X0531244Y0493348D01*
X0531809Y0493582D01*
X0532368Y0493830D01*
X0532920Y0494091D01*
X0533467Y0494366D01*
X0534006Y0494653D01*
X0534538Y0494954D01*
X0535063Y0495268D01*
X0535580Y0495594D01*
X0536089Y0495933D01*
X0536589Y0496284D01*
X0537081Y0496647D01*
X0537564Y0497022D01*
X0538037Y0497408D01*
X0538501Y0497806D01*
X0538955Y0498216D01*
X0539400Y0498636D01*
X0539833Y0499067D01*
X0540256Y0499508D01*
X0540669Y0499959D01*
X0541070Y0500420D01*
X0541460Y0500891D01*
X0541838Y0501372D01*
X0542204Y0501861D01*
X0542559Y0502359D01*
X0542901Y0502866D01*
X0543231Y0503380D01*
X0543548Y0503903D01*
X0543852Y0504433D01*
X0544144Y0504970D01*
X0544422Y0505515D01*
X0544687Y0506066D01*
X0544938Y0506623D01*
X0545176Y0507186D01*
X0545400Y0507755D01*
X0545610Y0508329D01*
X0545806Y0508908D01*
X0545988Y0509492D01*
X0546156Y0510079D01*
X0546309Y0510671D01*
X0546448Y0511267D01*
X0546572Y0511865D01*
X0546682Y0512466D01*
X0546777Y0513070D01*
X0546857Y0513676D01*
X0546923Y0514284D01*
X0546974Y0514893D01*
X0547010Y0515504D01*
X0547031Y0516115D01*
X0547037Y0516726D01*
X0547028Y0517337D01*
X0547005Y0517948D01*
X0546966Y0518558D01*
X0546913Y0519167D01*
X0546845Y0519775D01*
X0546762Y0520380D01*
X0546665Y0520984D01*
X0546553Y0521585D01*
X0546426Y0522183D01*
X0546285Y0522777D01*
X0546129Y0523369D01*
X0545959Y0523956D01*
X0545775Y0524539D01*
X0545577Y0525117D01*
X0545364Y0525690D01*
X0545138Y0526258D01*
X0544898Y0526820D01*
X0544644Y0527377D01*
X0544377Y0527926D01*
X0544097Y0528470D01*
X0543804Y0529006D01*
X0543497Y0529535D01*
X0543178Y0530056D01*
X0542846Y0530570D01*
X0542502Y0531075D01*
X0542145Y0531571D01*
X0541777Y0532059D01*
X0541397Y0532538D01*
X0541397Y0532539D02*
X0532539Y0527617D01*
X0527125Y0533326D02*
X0532539Y0541397D01*
X0532538Y0541397D02*
X0532059Y0541777D01*
X0531571Y0542145D01*
X0531075Y0542502D01*
X0530570Y0542846D01*
X0530056Y0543178D01*
X0529535Y0543497D01*
X0529006Y0543804D01*
X0528470Y0544097D01*
X0527926Y0544377D01*
X0527377Y0544644D01*
X0526820Y0544898D01*
X0526258Y0545138D01*
X0525690Y0545364D01*
X0525117Y0545577D01*
X0524539Y0545775D01*
X0523956Y0545959D01*
X0523369Y0546129D01*
X0522777Y0546285D01*
X0522183Y0546426D01*
X0521585Y0546553D01*
X0520984Y0546665D01*
X0520380Y0546762D01*
X0519775Y0546845D01*
X0519167Y0546913D01*
X0518558Y0546966D01*
X0517948Y0547005D01*
X0517337Y0547028D01*
X0516726Y0547037D01*
X0516115Y0547031D01*
X0515504Y0547010D01*
X0514893Y0546974D01*
X0514284Y0546923D01*
X0513676Y0546857D01*
X0513070Y0546777D01*
X0512466Y0546682D01*
X0511865Y0546572D01*
X0511267Y0546448D01*
X0510671Y0546309D01*
X0510079Y0546156D01*
X0509492Y0545988D01*
X0508908Y0545806D01*
X0508329Y0545610D01*
X0507755Y0545400D01*
X0507186Y0545176D01*
X0506623Y0544938D01*
X0506066Y0544687D01*
X0505515Y0544422D01*
X0504970Y0544144D01*
X0504433Y0543852D01*
X0503903Y0543548D01*
X0503380Y0543231D01*
X0502866Y0542901D01*
X0502359Y0542559D01*
X0501861Y0542204D01*
X0501372Y0541838D01*
X0500891Y0541460D01*
X0500420Y0541070D01*
X0499959Y0540669D01*
X0499508Y0540256D01*
X0499067Y0539833D01*
X0498636Y0539400D01*
X0498216Y0538955D01*
X0497806Y0538501D01*
X0497408Y0538037D01*
X0497022Y0537564D01*
X0496647Y0537081D01*
X0496284Y0536589D01*
X0495933Y0536089D01*
X0495594Y0535580D01*
X0495268Y0535063D01*
X0494954Y0534538D01*
X0494653Y0534006D01*
X0494366Y0533467D01*
X0494091Y0532920D01*
X0493830Y0532368D01*
X0493582Y0531809D01*
X0493348Y0531244D01*
X0493128Y0530674D01*
X0492922Y0530098D01*
X0492730Y0529518D01*
X0492552Y0528933D01*
X0492388Y0528344D01*
X0492239Y0527751D01*
X0492104Y0527155D01*
X0491984Y0526556D01*
X0491878Y0525953D01*
X0491787Y0525349D01*
X0491711Y0524742D01*
X0491649Y0524134D01*
X0491603Y0523525D01*
X0491571Y0522914D01*
X0491554Y0522303D01*
X0491552Y0521692D01*
X0491565Y0521081D01*
X0491592Y0520470D01*
X0491635Y0519860D01*
X0491692Y0519252D01*
X0491692Y0519251D02*
X0402371Y0429930D01*
X0146466Y0429930D01*
X0057145Y0519251D01*
X0057145Y0519252D02*
X0057202Y0519860D01*
X0057245Y0520470D01*
X0057272Y0521081D01*
X0057285Y0521692D01*
X0057283Y0522303D01*
X0057266Y0522914D01*
X0057234Y0523525D01*
X0057188Y0524134D01*
X0057126Y0524742D01*
X0057050Y0525349D01*
X0056959Y0525953D01*
X0056853Y0526556D01*
X0056733Y0527155D01*
X0056598Y0527751D01*
X0056449Y0528344D01*
X0056285Y0528933D01*
X0056107Y0529518D01*
X0055915Y0530098D01*
X0055709Y0530674D01*
X0055489Y0531244D01*
X0055255Y0531809D01*
X0055007Y0532368D01*
X0054746Y0532920D01*
X0054471Y0533467D01*
X0054184Y0534006D01*
X0053883Y0534538D01*
X0053569Y0535063D01*
X0053243Y0535580D01*
X0052904Y0536089D01*
X0052553Y0536589D01*
X0052190Y0537081D01*
X0051815Y0537564D01*
X0051429Y0538037D01*
X0051031Y0538501D01*
X0050621Y0538955D01*
X0050201Y0539400D01*
X0049770Y0539833D01*
X0049329Y0540256D01*
X0048878Y0540669D01*
X0048417Y0541070D01*
X0047946Y0541460D01*
X0047465Y0541838D01*
X0046976Y0542204D01*
X0046478Y0542559D01*
X0045971Y0542901D01*
X0045457Y0543231D01*
X0044934Y0543548D01*
X0044404Y0543852D01*
X0043867Y0544144D01*
X0043322Y0544422D01*
X0042771Y0544687D01*
X0042214Y0544938D01*
X0041651Y0545176D01*
X0041082Y0545400D01*
X0040508Y0545610D01*
X0039929Y0545806D01*
X0039345Y0545988D01*
X0038758Y0546156D01*
X0038166Y0546309D01*
X0037570Y0546448D01*
X0036972Y0546572D01*
X0036371Y0546682D01*
X0035767Y0546777D01*
X0035161Y0546857D01*
X0034553Y0546923D01*
X0033944Y0546974D01*
X0033333Y0547010D01*
X0032722Y0547031D01*
X0032111Y0547037D01*
X0031500Y0547028D01*
X0030889Y0547005D01*
X0030279Y0546966D01*
X0029670Y0546913D01*
X0029062Y0546845D01*
X0028457Y0546762D01*
X0027853Y0546665D01*
X0027252Y0546553D01*
X0026654Y0546426D01*
X0026060Y0546285D01*
X0025468Y0546129D01*
X0024881Y0545959D01*
X0024298Y0545775D01*
X0023720Y0545577D01*
X0023147Y0545364D01*
X0022579Y0545138D01*
X0022017Y0544898D01*
X0021460Y0544644D01*
X0020911Y0544377D01*
X0020367Y0544097D01*
X0019831Y0543804D01*
X0019302Y0543497D01*
X0018781Y0543178D01*
X0018267Y0542846D01*
X0017762Y0542502D01*
X0017266Y0542145D01*
X0016778Y0541777D01*
X0016299Y0541397D01*
X0016298Y0541397D02*
X0021220Y0532539D01*
X0015511Y0527125D02*
X0007440Y0532539D01*
X0007440Y0532538D02*
X0007060Y0532059D01*
X0006692Y0531571D01*
X0006335Y0531075D01*
X0005991Y0530570D01*
X0005659Y0530056D01*
X0005340Y0529535D01*
X0005033Y0529006D01*
X0004740Y0528470D01*
X0004460Y0527926D01*
X0004193Y0527377D01*
X0003939Y0526820D01*
X0003699Y0526258D01*
X0003473Y0525690D01*
X0003260Y0525117D01*
X0003062Y0524539D01*
X0002878Y0523956D01*
X0002708Y0523369D01*
X0002552Y0522777D01*
X0002411Y0522183D01*
X0002284Y0521585D01*
X0002172Y0520984D01*
X0002075Y0520380D01*
X0001992Y0519775D01*
X0001924Y0519167D01*
X0001871Y0518558D01*
X0001832Y0517948D01*
X0001809Y0517337D01*
X0001800Y0516726D01*
X0001806Y0516115D01*
X0001827Y0515504D01*
X0001863Y0514893D01*
X0001914Y0514284D01*
X0001980Y0513676D01*
X0002060Y0513070D01*
X0002155Y0512466D01*
X0002265Y0511865D01*
X0002389Y0511267D01*
X0002528Y0510671D01*
X0002681Y0510079D01*
X0002849Y0509492D01*
X0003031Y0508908D01*
X0003227Y0508329D01*
X0003437Y0507755D01*
X0003661Y0507186D01*
X0003899Y0506623D01*
X0004150Y0506066D01*
X0004415Y0505515D01*
X0004693Y0504970D01*
X0004985Y0504433D01*
X0005289Y0503903D01*
X0005606Y0503380D01*
X0005936Y0502866D01*
X0006278Y0502359D01*
X0006633Y0501861D01*
X0006999Y0501372D01*
X0007377Y0500891D01*
X0007767Y0500420D01*
X0008168Y0499959D01*
X0008581Y0499508D01*
X0009004Y0499067D01*
X0009437Y0498636D01*
X0009882Y0498216D01*
X0010336Y0497806D01*
X0010800Y0497408D01*
X0011273Y0497022D01*
X0011756Y0496647D01*
X0012248Y0496284D01*
X0012748Y0495933D01*
X0013257Y0495594D01*
X0013774Y0495268D01*
X0014299Y0494954D01*
X0014831Y0494653D01*
X0015370Y0494366D01*
X0015917Y0494091D01*
X0016469Y0493830D01*
X0017028Y0493582D01*
X0017593Y0493348D01*
X0018163Y0493128D01*
X0018739Y0492922D01*
X0019319Y0492730D01*
X0019904Y0492552D01*
X0020493Y0492388D01*
X0021086Y0492239D01*
X0021682Y0492104D01*
X0022281Y0491984D01*
X0022884Y0491878D01*
X0023488Y0491787D01*
X0024095Y0491711D01*
X0024703Y0491649D01*
X0025312Y0491603D01*
X0025923Y0491571D01*
X0026534Y0491554D01*
X0027145Y0491552D01*
X0027756Y0491565D01*
X0028367Y0491592D01*
X0028977Y0491635D01*
X0029585Y0491692D01*
X0029586Y0491692D02*
X0118907Y0402371D01*
X0118907Y0146466D01*
X0029586Y0057145D01*
X0029585Y0057145D02*
X0028977Y0057202D01*
X0028367Y0057245D01*
X0027756Y0057272D01*
X0027145Y0057285D01*
X0026534Y0057283D01*
X0025923Y0057266D01*
X0025312Y0057234D01*
X0024703Y0057188D01*
X0024095Y0057126D01*
X0023488Y0057050D01*
X0022884Y0056959D01*
X0022281Y0056853D01*
X0021682Y0056733D01*
X0021086Y0056598D01*
X0020493Y0056449D01*
X0019904Y0056285D01*
X0019319Y0056107D01*
X0018739Y0055915D01*
X0018163Y0055709D01*
X0017593Y0055489D01*
X0017028Y0055255D01*
X0016469Y0055007D01*
X0015917Y0054746D01*
X0015370Y0054471D01*
X0014831Y0054184D01*
X0014299Y0053883D01*
X0013774Y0053569D01*
X0013257Y0053243D01*
X0012748Y0052904D01*
X0012248Y0052553D01*
X0011756Y0052190D01*
X0011273Y0051815D01*
X0010800Y0051429D01*
X0010336Y0051031D01*
X0009882Y0050621D01*
X0009437Y0050201D01*
X0009004Y0049770D01*
X0008581Y0049329D01*
X0008168Y0048878D01*
X0007767Y0048417D01*
X0007377Y0047946D01*
X0006999Y0047465D01*
X0006633Y0046976D01*
X0006278Y0046478D01*
X0005936Y0045971D01*
X0005606Y0045457D01*
X0005289Y0044934D01*
X0004985Y0044404D01*
X0004693Y0043867D01*
X0004415Y0043322D01*
X0004150Y0042771D01*
X0003899Y0042214D01*
X0003661Y0041651D01*
X0003437Y0041082D01*
X0003227Y0040508D01*
X0003031Y0039929D01*
X0002849Y0039345D01*
X0002681Y0038758D01*
X0002528Y0038166D01*
X0002389Y0037570D01*
X0002265Y0036972D01*
X0002155Y0036371D01*
X0002060Y0035767D01*
X0001980Y0035161D01*
X0001914Y0034553D01*
X0001863Y0033944D01*
X0001827Y0033333D01*
X0001806Y0032722D01*
X0001800Y0032111D01*
X0001809Y0031500D01*
X0001832Y0030889D01*
X0001871Y0030279D01*
X0001924Y0029670D01*
X0001992Y0029062D01*
X0002075Y0028457D01*
X0002172Y0027853D01*
X0002284Y0027252D01*
X0002411Y0026654D01*
X0002552Y0026060D01*
X0002708Y0025468D01*
X0002878Y0024881D01*
X0003062Y0024298D01*
X0003260Y0023720D01*
X0003473Y0023147D01*
X0003699Y0022579D01*
X0003939Y0022017D01*
X0004193Y0021460D01*
X0004460Y0020911D01*
X0004740Y0020367D01*
X0005033Y0019831D01*
X0005340Y0019302D01*
X0005659Y0018781D01*
X0005991Y0018267D01*
X0006335Y0017762D01*
X0006692Y0017266D01*
X0007060Y0016778D01*
X0007440Y0016299D01*
X0021711Y0015511D02*
X0022056Y0015325D01*
X0022406Y0015148D01*
X0022759Y0014979D01*
X0023117Y0014819D01*
X0023478Y0014667D01*
X0023842Y0014524D01*
X0024210Y0014389D01*
X0024581Y0014263D01*
X0024955Y0014146D01*
X0025332Y0014037D01*
X0025710Y0013938D01*
X0026092Y0013847D01*
X0026475Y0013766D01*
X0026860Y0013693D01*
X0027246Y0013630D01*
X0027634Y0013576D01*
X0028024Y0013531D01*
X0028414Y0013495D01*
X0028804Y0013468D01*
X0029196Y0013451D01*
X0029588Y0013443D01*
X0029979Y0013444D01*
X0015511Y0021711D02*
X0015325Y0022056D01*
X0015148Y0022406D01*
X0014979Y0022759D01*
X0014819Y0023117D01*
X0014667Y0023478D01*
X0014524Y0023842D01*
X0014389Y0024210D01*
X0014263Y0024581D01*
X0014146Y0024955D01*
X0014037Y0025332D01*
X0013938Y0025710D01*
X0013847Y0026092D01*
X0013766Y0026475D01*
X0013693Y0026860D01*
X0013630Y0027246D01*
X0013576Y0027634D01*
X0013531Y0028024D01*
X0013495Y0028414D01*
X0013468Y0028804D01*
X0013451Y0029196D01*
X0013443Y0029588D01*
X0013444Y0029979D01*
X0013445Y0029980D02*
X0013450Y0030384D01*
X0013465Y0030787D01*
X0013489Y0031190D01*
X0013524Y0031592D01*
X0013568Y0031994D01*
X0013622Y0032394D01*
X0013686Y0032792D01*
X0013759Y0033189D01*
X0013843Y0033584D01*
X0013935Y0033977D01*
X0014038Y0034368D01*
X0014150Y0034756D01*
X0014271Y0035141D01*
X0014402Y0035523D01*
X0014542Y0035901D01*
X0014691Y0036277D01*
X0014849Y0036648D01*
X0015016Y0037015D01*
X0015193Y0037379D01*
X0015378Y0037737D01*
X0015571Y0038092D01*
X0015774Y0038441D01*
X0015985Y0038785D01*
X0016204Y0039124D01*
X0016431Y0039458D01*
X0016666Y0039786D01*
X0016910Y0040108D01*
X0017161Y0040424D01*
X0017420Y0040734D01*
X0017686Y0041037D01*
X0017960Y0041334D01*
X0018241Y0041624D01*
X0018528Y0041907D01*
X0018823Y0042184D01*
X0019124Y0042452D01*
X0019432Y0042714D01*
X0019746Y0042967D01*
X0020066Y0043213D01*
X0020392Y0043451D01*
X0020724Y0043681D01*
X0021061Y0043903D01*
X0021404Y0044117D01*
X0021751Y0044322D01*
X0022104Y0044519D01*
X0022461Y0044707D01*
X0022823Y0044886D01*
X0023189Y0045056D01*
X0023559Y0045217D01*
X0023933Y0045370D01*
X0024311Y0045513D01*
X0024692Y0045646D01*
X0025076Y0045771D01*
X0025463Y0045886D01*
X0025852Y0045991D01*
X0026244Y0046088D01*
X0026639Y0046174D01*
X0027035Y0046251D01*
X0027433Y0046318D01*
X0027833Y0046375D01*
X0028234Y0046423D01*
X0028636Y0046460D01*
X0029038Y0046488D01*
X0029442Y0046506D01*
X0029845Y0046514D01*
X0030249Y0046513D01*
X0030653Y0046501D01*
X0031056Y0046480D01*
X0031458Y0046449D01*
X0031860Y0046408D01*
X0032260Y0046357D01*
X0032660Y0046296D01*
X0033057Y0046226D01*
X0033453Y0046146D01*
X0033847Y0046057D01*
X0034238Y0045957D01*
X0034627Y0045849D01*
X0035013Y0045730D01*
X0035396Y0045603D01*
X0035776Y0045466D01*
X0036152Y0045320D01*
X0036525Y0045165D01*
X0036893Y0045000D01*
X0037258Y0044827D01*
X0037618Y0044645D01*
X0037974Y0044454D01*
X0038325Y0044255D01*
X0038671Y0044047D01*
X0039012Y0043830D01*
X0039347Y0043606D01*
X0039677Y0043373D01*
X0040001Y0043132D01*
X0040319Y0042884D01*
X0040631Y0042627D01*
X0040937Y0042363D01*
X0041236Y0042092D01*
X0041528Y0041814D01*
X0041814Y0041528D01*
X0042092Y0041236D01*
X0042363Y0040937D01*
X0042627Y0040631D01*
X0042884Y0040319D01*
X0043132Y0040001D01*
X0043373Y0039677D01*
X0043606Y0039347D01*
X0043830Y0039012D01*
X0044047Y0038671D01*
X0044255Y0038325D01*
X0044454Y0037974D01*
X0044645Y0037618D01*
X0044827Y0037258D01*
X0045000Y0036893D01*
X0045165Y0036525D01*
X0045320Y0036152D01*
X0045466Y0035776D01*
X0045603Y0035396D01*
X0045730Y0035013D01*
X0045849Y0034627D01*
X0045957Y0034238D01*
X0046057Y0033847D01*
X0046146Y0033453D01*
X0046226Y0033057D01*
X0046296Y0032660D01*
X0046357Y0032260D01*
X0046408Y0031860D01*
X0046449Y0031458D01*
X0046480Y0031056D01*
X0046501Y0030653D01*
X0046513Y0030249D01*
X0046514Y0029845D01*
X0046506Y0029442D01*
X0046488Y0029038D01*
X0046460Y0028636D01*
X0046423Y0028234D01*
X0046375Y0027833D01*
X0046318Y0027433D01*
X0046251Y0027035D01*
X0046174Y0026639D01*
X0046088Y0026244D01*
X0045991Y0025852D01*
X0045886Y0025463D01*
X0045771Y0025076D01*
X0045646Y0024692D01*
X0045513Y0024311D01*
X0045370Y0023933D01*
X0045217Y0023559D01*
X0045056Y0023189D01*
X0044886Y0022823D01*
X0044707Y0022461D01*
X0044519Y0022104D01*
X0044322Y0021751D01*
X0044117Y0021404D01*
X0043903Y0021061D01*
X0043681Y0020724D01*
X0043451Y0020392D01*
X0043213Y0020066D01*
X0042967Y0019746D01*
X0042714Y0019432D01*
X0042452Y0019124D01*
X0042184Y0018823D01*
X0041907Y0018528D01*
X0041624Y0018241D01*
X0041334Y0017960D01*
X0041037Y0017686D01*
X0040734Y0017420D01*
X0040424Y0017161D01*
X0040108Y0016910D01*
X0039786Y0016666D01*
X0039458Y0016431D01*
X0039124Y0016204D01*
X0038785Y0015985D01*
X0038441Y0015774D01*
X0038092Y0015571D01*
X0037737Y0015378D01*
X0037379Y0015193D01*
X0037015Y0015016D01*
X0036648Y0014849D01*
X0036277Y0014691D01*
X0035901Y0014542D01*
X0035523Y0014402D01*
X0035141Y0014271D01*
X0034756Y0014150D01*
X0034368Y0014038D01*
X0033977Y0013935D01*
X0033584Y0013843D01*
X0033189Y0013759D01*
X0032792Y0013686D01*
X0032394Y0013622D01*
X0031994Y0013568D01*
X0031592Y0013524D01*
X0031190Y0013489D01*
X0030787Y0013465D01*
X0030384Y0013450D01*
X0029980Y0013445D01*
X0533326Y0021711D02*
X0533512Y0022056D01*
X0533689Y0022406D01*
X0533858Y0022759D01*
X0534018Y0023117D01*
X0534170Y0023478D01*
X0534313Y0023842D01*
X0534448Y0024210D01*
X0534574Y0024581D01*
X0534691Y0024955D01*
X0534800Y0025332D01*
X0534899Y0025710D01*
X0534990Y0026092D01*
X0535071Y0026475D01*
X0535144Y0026860D01*
X0535207Y0027246D01*
X0535261Y0027634D01*
X0535306Y0028024D01*
X0535342Y0028414D01*
X0535369Y0028804D01*
X0535386Y0029196D01*
X0535394Y0029588D01*
X0535393Y0029979D01*
X0527126Y0015511D02*
X0526781Y0015325D01*
X0526431Y0015148D01*
X0526078Y0014979D01*
X0525720Y0014819D01*
X0525359Y0014667D01*
X0524995Y0014524D01*
X0524627Y0014389D01*
X0524256Y0014263D01*
X0523882Y0014146D01*
X0523505Y0014037D01*
X0523127Y0013938D01*
X0522745Y0013847D01*
X0522362Y0013766D01*
X0521977Y0013693D01*
X0521591Y0013630D01*
X0521203Y0013576D01*
X0520813Y0013531D01*
X0520423Y0013495D01*
X0520033Y0013468D01*
X0519641Y0013451D01*
X0519249Y0013443D01*
X0518858Y0013444D01*
X0518858Y0013445D02*
X0518454Y0013450D01*
X0518051Y0013465D01*
X0517648Y0013489D01*
X0517246Y0013524D01*
X0516844Y0013568D01*
X0516444Y0013622D01*
X0516046Y0013686D01*
X0515649Y0013759D01*
X0515254Y0013843D01*
X0514861Y0013935D01*
X0514470Y0014038D01*
X0514082Y0014150D01*
X0513697Y0014271D01*
X0513315Y0014402D01*
X0512937Y0014542D01*
X0512561Y0014691D01*
X0512190Y0014849D01*
X0511823Y0015016D01*
X0511459Y0015193D01*
X0511101Y0015378D01*
X0510746Y0015571D01*
X0510397Y0015774D01*
X0510053Y0015985D01*
X0509714Y0016204D01*
X0509380Y0016431D01*
X0509052Y0016666D01*
X0508730Y0016910D01*
X0508414Y0017161D01*
X0508104Y0017420D01*
X0507801Y0017686D01*
X0507504Y0017960D01*
X0507214Y0018241D01*
X0506931Y0018528D01*
X0506654Y0018823D01*
X0506386Y0019124D01*
X0506124Y0019432D01*
X0505871Y0019746D01*
X0505625Y0020066D01*
X0505387Y0020392D01*
X0505157Y0020724D01*
X0504935Y0021061D01*
X0504721Y0021404D01*
X0504516Y0021751D01*
X0504319Y0022104D01*
X0504131Y0022461D01*
X0503952Y0022823D01*
X0503782Y0023189D01*
X0503621Y0023559D01*
X0503468Y0023933D01*
X0503325Y0024311D01*
X0503192Y0024692D01*
X0503067Y0025076D01*
X0502952Y0025463D01*
X0502847Y0025852D01*
X0502750Y0026244D01*
X0502664Y0026639D01*
X0502587Y0027035D01*
X0502520Y0027433D01*
X0502463Y0027833D01*
X0502415Y0028234D01*
X0502378Y0028636D01*
X0502350Y0029038D01*
X0502332Y0029442D01*
X0502324Y0029845D01*
X0502325Y0030249D01*
X0502337Y0030653D01*
X0502358Y0031056D01*
X0502389Y0031458D01*
X0502430Y0031860D01*
X0502481Y0032260D01*
X0502542Y0032660D01*
X0502612Y0033057D01*
X0502692Y0033453D01*
X0502781Y0033847D01*
X0502881Y0034238D01*
X0502989Y0034627D01*
X0503108Y0035013D01*
X0503235Y0035396D01*
X0503372Y0035776D01*
X0503518Y0036152D01*
X0503673Y0036525D01*
X0503838Y0036893D01*
X0504011Y0037258D01*
X0504193Y0037618D01*
X0504384Y0037974D01*
X0504583Y0038325D01*
X0504791Y0038671D01*
X0505008Y0039012D01*
X0505232Y0039347D01*
X0505465Y0039677D01*
X0505706Y0040001D01*
X0505954Y0040319D01*
X0506211Y0040631D01*
X0506475Y0040937D01*
X0506746Y0041236D01*
X0507024Y0041528D01*
X0507310Y0041814D01*
X0507602Y0042092D01*
X0507901Y0042363D01*
X0508207Y0042627D01*
X0508519Y0042884D01*
X0508837Y0043132D01*
X0509161Y0043373D01*
X0509491Y0043606D01*
X0509826Y0043830D01*
X0510167Y0044047D01*
X0510513Y0044255D01*
X0510864Y0044454D01*
X0511220Y0044645D01*
X0511580Y0044827D01*
X0511945Y0045000D01*
X0512313Y0045165D01*
X0512686Y0045320D01*
X0513062Y0045466D01*
X0513442Y0045603D01*
X0513825Y0045730D01*
X0514211Y0045849D01*
X0514600Y0045957D01*
X0514991Y0046057D01*
X0515385Y0046146D01*
X0515781Y0046226D01*
X0516178Y0046296D01*
X0516578Y0046357D01*
X0516978Y0046408D01*
X0517380Y0046449D01*
X0517782Y0046480D01*
X0518185Y0046501D01*
X0518589Y0046513D01*
X0518993Y0046514D01*
X0519396Y0046506D01*
X0519800Y0046488D01*
X0520202Y0046460D01*
X0520604Y0046423D01*
X0521005Y0046375D01*
X0521405Y0046318D01*
X0521803Y0046251D01*
X0522199Y0046174D01*
X0522594Y0046088D01*
X0522986Y0045991D01*
X0523375Y0045886D01*
X0523762Y0045771D01*
X0524146Y0045646D01*
X0524527Y0045513D01*
X0524905Y0045370D01*
X0525279Y0045217D01*
X0525649Y0045056D01*
X0526015Y0044886D01*
X0526377Y0044707D01*
X0526734Y0044519D01*
X0527087Y0044322D01*
X0527434Y0044117D01*
X0527777Y0043903D01*
X0528114Y0043681D01*
X0528446Y0043451D01*
X0528772Y0043213D01*
X0529092Y0042967D01*
X0529406Y0042714D01*
X0529714Y0042452D01*
X0530015Y0042184D01*
X0530310Y0041907D01*
X0530597Y0041624D01*
X0530878Y0041334D01*
X0531152Y0041037D01*
X0531418Y0040734D01*
X0531677Y0040424D01*
X0531928Y0040108D01*
X0532172Y0039786D01*
X0532407Y0039458D01*
X0532634Y0039124D01*
X0532853Y0038785D01*
X0533064Y0038441D01*
X0533267Y0038092D01*
X0533460Y0037737D01*
X0533645Y0037379D01*
X0533822Y0037015D01*
X0533989Y0036648D01*
X0534147Y0036277D01*
X0534296Y0035901D01*
X0534436Y0035523D01*
X0534567Y0035141D01*
X0534688Y0034756D01*
X0534800Y0034368D01*
X0534903Y0033977D01*
X0534995Y0033584D01*
X0535079Y0033189D01*
X0535152Y0032792D01*
X0535216Y0032394D01*
X0535270Y0031994D01*
X0535314Y0031592D01*
X0535349Y0031190D01*
X0535373Y0030787D01*
X0535388Y0030384D01*
X0535393Y0029980D01*
X0527126Y0533326D02*
X0526781Y0533512D01*
X0526431Y0533689D01*
X0526078Y0533858D01*
X0525720Y0534018D01*
X0525359Y0534170D01*
X0524995Y0534313D01*
X0524627Y0534448D01*
X0524256Y0534574D01*
X0523882Y0534691D01*
X0523505Y0534800D01*
X0523127Y0534899D01*
X0522745Y0534990D01*
X0522362Y0535071D01*
X0521977Y0535144D01*
X0521591Y0535207D01*
X0521203Y0535261D01*
X0520813Y0535306D01*
X0520423Y0535342D01*
X0520033Y0535369D01*
X0519641Y0535386D01*
X0519249Y0535394D01*
X0518858Y0535393D01*
X0533326Y0527126D02*
X0533512Y0526781D01*
X0533689Y0526431D01*
X0533858Y0526078D01*
X0534018Y0525720D01*
X0534170Y0525359D01*
X0534313Y0524995D01*
X0534448Y0524627D01*
X0534574Y0524256D01*
X0534691Y0523882D01*
X0534800Y0523505D01*
X0534899Y0523127D01*
X0534990Y0522745D01*
X0535071Y0522362D01*
X0535144Y0521977D01*
X0535207Y0521591D01*
X0535261Y0521203D01*
X0535306Y0520813D01*
X0535342Y0520423D01*
X0535369Y0520033D01*
X0535386Y0519641D01*
X0535394Y0519249D01*
X0535393Y0518858D01*
X0535388Y0518454D01*
X0535373Y0518051D01*
X0535349Y0517648D01*
X0535314Y0517246D01*
X0535270Y0516844D01*
X0535216Y0516444D01*
X0535152Y0516046D01*
X0535079Y0515649D01*
X0534995Y0515254D01*
X0534903Y0514861D01*
X0534800Y0514470D01*
X0534688Y0514082D01*
X0534567Y0513697D01*
X0534436Y0513315D01*
X0534296Y0512937D01*
X0534147Y0512561D01*
X0533989Y0512190D01*
X0533822Y0511823D01*
X0533645Y0511459D01*
X0533460Y0511101D01*
X0533267Y0510746D01*
X0533064Y0510397D01*
X0532853Y0510053D01*
X0532634Y0509714D01*
X0532407Y0509380D01*
X0532172Y0509052D01*
X0531928Y0508730D01*
X0531677Y0508414D01*
X0531418Y0508104D01*
X0531152Y0507801D01*
X0530878Y0507504D01*
X0530597Y0507214D01*
X0530310Y0506931D01*
X0530015Y0506654D01*
X0529714Y0506386D01*
X0529406Y0506124D01*
X0529092Y0505871D01*
X0528772Y0505625D01*
X0528446Y0505387D01*
X0528114Y0505157D01*
X0527777Y0504935D01*
X0527434Y0504721D01*
X0527087Y0504516D01*
X0526734Y0504319D01*
X0526377Y0504131D01*
X0526015Y0503952D01*
X0525649Y0503782D01*
X0525279Y0503621D01*
X0524905Y0503468D01*
X0524527Y0503325D01*
X0524146Y0503192D01*
X0523762Y0503067D01*
X0523375Y0502952D01*
X0522986Y0502847D01*
X0522594Y0502750D01*
X0522199Y0502664D01*
X0521803Y0502587D01*
X0521405Y0502520D01*
X0521005Y0502463D01*
X0520604Y0502415D01*
X0520202Y0502378D01*
X0519800Y0502350D01*
X0519396Y0502332D01*
X0518993Y0502324D01*
X0518589Y0502325D01*
X0518185Y0502337D01*
X0517782Y0502358D01*
X0517380Y0502389D01*
X0516978Y0502430D01*
X0516578Y0502481D01*
X0516178Y0502542D01*
X0515781Y0502612D01*
X0515385Y0502692D01*
X0514991Y0502781D01*
X0514600Y0502881D01*
X0514211Y0502989D01*
X0513825Y0503108D01*
X0513442Y0503235D01*
X0513062Y0503372D01*
X0512686Y0503518D01*
X0512313Y0503673D01*
X0511945Y0503838D01*
X0511580Y0504011D01*
X0511220Y0504193D01*
X0510864Y0504384D01*
X0510513Y0504583D01*
X0510167Y0504791D01*
X0509826Y0505008D01*
X0509491Y0505232D01*
X0509161Y0505465D01*
X0508837Y0505706D01*
X0508519Y0505954D01*
X0508207Y0506211D01*
X0507901Y0506475D01*
X0507602Y0506746D01*
X0507310Y0507024D01*
X0507024Y0507310D01*
X0506746Y0507602D01*
X0506475Y0507901D01*
X0506211Y0508207D01*
X0505954Y0508519D01*
X0505706Y0508837D01*
X0505465Y0509161D01*
X0505232Y0509491D01*
X0505008Y0509826D01*
X0504791Y0510167D01*
X0504583Y0510513D01*
X0504384Y0510864D01*
X0504193Y0511220D01*
X0504011Y0511580D01*
X0503838Y0511945D01*
X0503673Y0512313D01*
X0503518Y0512686D01*
X0503372Y0513062D01*
X0503235Y0513442D01*
X0503108Y0513825D01*
X0502989Y0514211D01*
X0502881Y0514600D01*
X0502781Y0514991D01*
X0502692Y0515385D01*
X0502612Y0515781D01*
X0502542Y0516178D01*
X0502481Y0516578D01*
X0502430Y0516978D01*
X0502389Y0517380D01*
X0502358Y0517782D01*
X0502337Y0518185D01*
X0502325Y0518589D01*
X0502324Y0518993D01*
X0502332Y0519396D01*
X0502350Y0519800D01*
X0502378Y0520202D01*
X0502415Y0520604D01*
X0502463Y0521005D01*
X0502520Y0521405D01*
X0502587Y0521803D01*
X0502664Y0522199D01*
X0502750Y0522594D01*
X0502847Y0522986D01*
X0502952Y0523375D01*
X0503067Y0523762D01*
X0503192Y0524146D01*
X0503325Y0524527D01*
X0503468Y0524905D01*
X0503621Y0525279D01*
X0503782Y0525649D01*
X0503952Y0526015D01*
X0504131Y0526377D01*
X0504319Y0526734D01*
X0504516Y0527087D01*
X0504721Y0527434D01*
X0504935Y0527777D01*
X0505157Y0528114D01*
X0505387Y0528446D01*
X0505625Y0528772D01*
X0505871Y0529092D01*
X0506124Y0529406D01*
X0506386Y0529714D01*
X0506654Y0530015D01*
X0506931Y0530310D01*
X0507214Y0530597D01*
X0507504Y0530878D01*
X0507801Y0531152D01*
X0508104Y0531418D01*
X0508414Y0531677D01*
X0508730Y0531928D01*
X0509052Y0532172D01*
X0509380Y0532407D01*
X0509714Y0532634D01*
X0510053Y0532853D01*
X0510397Y0533064D01*
X0510746Y0533267D01*
X0511101Y0533460D01*
X0511459Y0533645D01*
X0511823Y0533822D01*
X0512190Y0533989D01*
X0512561Y0534147D01*
X0512937Y0534296D01*
X0513315Y0534436D01*
X0513697Y0534567D01*
X0514082Y0534688D01*
X0514470Y0534800D01*
X0514861Y0534903D01*
X0515254Y0534995D01*
X0515649Y0535079D01*
X0516046Y0535152D01*
X0516444Y0535216D01*
X0516844Y0535270D01*
X0517246Y0535314D01*
X0517648Y0535349D01*
X0518051Y0535373D01*
X0518454Y0535388D01*
X0518858Y0535393D01*
X0015511Y0527126D02*
X0015325Y0526781D01*
X0015148Y0526431D01*
X0014979Y0526078D01*
X0014819Y0525720D01*
X0014667Y0525359D01*
X0014524Y0524995D01*
X0014389Y0524627D01*
X0014263Y0524256D01*
X0014146Y0523882D01*
X0014037Y0523505D01*
X0013938Y0523127D01*
X0013847Y0522745D01*
X0013766Y0522362D01*
X0013693Y0521977D01*
X0013630Y0521591D01*
X0013576Y0521203D01*
X0013531Y0520813D01*
X0013495Y0520423D01*
X0013468Y0520033D01*
X0013451Y0519641D01*
X0013443Y0519249D01*
X0013444Y0518858D01*
X0021711Y0533326D02*
X0022056Y0533512D01*
X0022406Y0533689D01*
X0022759Y0533858D01*
X0023117Y0534018D01*
X0023478Y0534170D01*
X0023842Y0534313D01*
X0024210Y0534448D01*
X0024581Y0534574D01*
X0024955Y0534691D01*
X0025332Y0534800D01*
X0025710Y0534899D01*
X0026092Y0534990D01*
X0026475Y0535071D01*
X0026860Y0535144D01*
X0027246Y0535207D01*
X0027634Y0535261D01*
X0028024Y0535306D01*
X0028414Y0535342D01*
X0028804Y0535369D01*
X0029196Y0535386D01*
X0029588Y0535394D01*
X0029979Y0535393D01*
X0029980Y0535393D02*
X0030384Y0535388D01*
X0030787Y0535373D01*
X0031190Y0535349D01*
X0031592Y0535314D01*
X0031994Y0535270D01*
X0032394Y0535216D01*
X0032792Y0535152D01*
X0033189Y0535079D01*
X0033584Y0534995D01*
X0033977Y0534903D01*
X0034368Y0534800D01*
X0034756Y0534688D01*
X0035141Y0534567D01*
X0035523Y0534436D01*
X0035901Y0534296D01*
X0036277Y0534147D01*
X0036648Y0533989D01*
X0037015Y0533822D01*
X0037379Y0533645D01*
X0037737Y0533460D01*
X0038092Y0533267D01*
X0038441Y0533064D01*
X0038785Y0532853D01*
X0039124Y0532634D01*
X0039458Y0532407D01*
X0039786Y0532172D01*
X0040108Y0531928D01*
X0040424Y0531677D01*
X0040734Y0531418D01*
X0041037Y0531152D01*
X0041334Y0530878D01*
X0041624Y0530597D01*
X0041907Y0530310D01*
X0042184Y0530015D01*
X0042452Y0529714D01*
X0042714Y0529406D01*
X0042967Y0529092D01*
X0043213Y0528772D01*
X0043451Y0528446D01*
X0043681Y0528114D01*
X0043903Y0527777D01*
X0044117Y0527434D01*
X0044322Y0527087D01*
X0044519Y0526734D01*
X0044707Y0526377D01*
X0044886Y0526015D01*
X0045056Y0525649D01*
X0045217Y0525279D01*
X0045370Y0524905D01*
X0045513Y0524527D01*
X0045646Y0524146D01*
X0045771Y0523762D01*
X0045886Y0523375D01*
X0045991Y0522986D01*
X0046088Y0522594D01*
X0046174Y0522199D01*
X0046251Y0521803D01*
X0046318Y0521405D01*
X0046375Y0521005D01*
X0046423Y0520604D01*
X0046460Y0520202D01*
X0046488Y0519800D01*
X0046506Y0519396D01*
X0046514Y0518993D01*
X0046513Y0518589D01*
X0046501Y0518185D01*
X0046480Y0517782D01*
X0046449Y0517380D01*
X0046408Y0516978D01*
X0046357Y0516578D01*
X0046296Y0516178D01*
X0046226Y0515781D01*
X0046146Y0515385D01*
X0046057Y0514991D01*
X0045957Y0514600D01*
X0045849Y0514211D01*
X0045730Y0513825D01*
X0045603Y0513442D01*
X0045466Y0513062D01*
X0045320Y0512686D01*
X0045165Y0512313D01*
X0045000Y0511945D01*
X0044827Y0511580D01*
X0044645Y0511220D01*
X0044454Y0510864D01*
X0044255Y0510513D01*
X0044047Y0510167D01*
X0043830Y0509826D01*
X0043606Y0509491D01*
X0043373Y0509161D01*
X0043132Y0508837D01*
X0042884Y0508519D01*
X0042627Y0508207D01*
X0042363Y0507901D01*
X0042092Y0507602D01*
X0041814Y0507310D01*
X0041528Y0507024D01*
X0041236Y0506746D01*
X0040937Y0506475D01*
X0040631Y0506211D01*
X0040319Y0505954D01*
X0040001Y0505706D01*
X0039677Y0505465D01*
X0039347Y0505232D01*
X0039012Y0505008D01*
X0038671Y0504791D01*
X0038325Y0504583D01*
X0037974Y0504384D01*
X0037618Y0504193D01*
X0037258Y0504011D01*
X0036893Y0503838D01*
X0036525Y0503673D01*
X0036152Y0503518D01*
X0035776Y0503372D01*
X0035396Y0503235D01*
X0035013Y0503108D01*
X0034627Y0502989D01*
X0034238Y0502881D01*
X0033847Y0502781D01*
X0033453Y0502692D01*
X0033057Y0502612D01*
X0032660Y0502542D01*
X0032260Y0502481D01*
X0031860Y0502430D01*
X0031458Y0502389D01*
X0031056Y0502358D01*
X0030653Y0502337D01*
X0030249Y0502325D01*
X0029845Y0502324D01*
X0029442Y0502332D01*
X0029038Y0502350D01*
X0028636Y0502378D01*
X0028234Y0502415D01*
X0027833Y0502463D01*
X0027433Y0502520D01*
X0027035Y0502587D01*
X0026639Y0502664D01*
X0026244Y0502750D01*
X0025852Y0502847D01*
X0025463Y0502952D01*
X0025076Y0503067D01*
X0024692Y0503192D01*
X0024311Y0503325D01*
X0023933Y0503468D01*
X0023559Y0503621D01*
X0023189Y0503782D01*
X0022823Y0503952D01*
X0022461Y0504131D01*
X0022104Y0504319D01*
X0021751Y0504516D01*
X0021404Y0504721D01*
X0021061Y0504935D01*
X0020724Y0505157D01*
X0020392Y0505387D01*
X0020066Y0505625D01*
X0019746Y0505871D01*
X0019432Y0506124D01*
X0019124Y0506386D01*
X0018823Y0506654D01*
X0018528Y0506931D01*
X0018241Y0507214D01*
X0017960Y0507504D01*
X0017686Y0507801D01*
X0017420Y0508104D01*
X0017161Y0508414D01*
X0016910Y0508730D01*
X0016666Y0509052D01*
X0016431Y0509380D01*
X0016204Y0509714D01*
X0015985Y0510053D01*
X0015774Y0510397D01*
X0015571Y0510746D01*
X0015378Y0511101D01*
X0015193Y0511459D01*
X0015016Y0511823D01*
X0014849Y0512190D01*
X0014691Y0512561D01*
X0014542Y0512937D01*
X0014402Y0513315D01*
X0014271Y0513697D01*
X0014150Y0514082D01*
X0014038Y0514470D01*
X0013935Y0514861D01*
X0013843Y0515254D01*
X0013759Y0515649D01*
X0013686Y0516046D01*
X0013622Y0516444D01*
X0013568Y0516844D01*
X0013524Y0517246D01*
X0013489Y0517648D01*
X0013465Y0518051D01*
X0013450Y0518454D01*
X0013445Y0518858D01*
D11*
X0121947Y0406476D02*
X0123003Y0406476D01*
X0123530Y0405948D01*
X0123530Y0403837D01*
X0123003Y0403309D01*
X0121947Y0403309D01*
X0121419Y0403837D01*
X0121419Y0405948D01*
X0121947Y0406476D01*
X0122475Y0404364D02*
X0123530Y0403309D01*
X0124609Y0403837D02*
X0125137Y0403309D01*
X0126193Y0403309D01*
X0126721Y0403837D01*
X0126721Y0404364D01*
X0126193Y0404892D01*
X0125665Y0404892D01*
X0126193Y0404892D02*
X0126721Y0405420D01*
X0126721Y0405948D01*
X0126193Y0406476D01*
X0125137Y0406476D01*
X0124609Y0405948D01*
X0228306Y0405326D02*
X0228306Y0404112D01*
X0228912Y0403506D01*
X0229519Y0403506D01*
X0230126Y0404112D01*
X0230126Y0405326D01*
X0230732Y0405932D01*
X0231339Y0405932D01*
X0231946Y0405326D01*
X0231946Y0404112D01*
X0231339Y0403506D01*
X0228912Y0405932D02*
X0228306Y0405326D01*
X0228912Y0407131D02*
X0231339Y0407131D01*
X0231946Y0407737D01*
X0231946Y0408951D01*
X0231339Y0409557D01*
X0231946Y0410756D02*
X0231946Y0413183D01*
X0231946Y0410756D02*
X0228306Y0410756D01*
X0228912Y0409557D02*
X0228306Y0408951D01*
X0228306Y0407737D01*
X0228912Y0407131D01*
X0239132Y0407131D02*
X0239132Y0408951D01*
X0239739Y0409557D01*
X0242166Y0409557D01*
X0242773Y0408951D01*
X0242773Y0407131D01*
X0239132Y0407131D01*
X0239739Y0405932D02*
X0239132Y0405326D01*
X0239132Y0404112D01*
X0239739Y0403506D01*
X0240346Y0403506D01*
X0240952Y0404112D01*
X0240952Y0405326D01*
X0241559Y0405932D01*
X0242166Y0405932D01*
X0242773Y0405326D01*
X0242773Y0404112D01*
X0242166Y0403506D01*
X0248975Y0403194D02*
X0252615Y0403194D01*
X0251402Y0404407D01*
X0252615Y0405620D01*
X0248975Y0405620D01*
X0248975Y0406819D02*
X0250188Y0408032D01*
X0248975Y0409246D01*
X0252615Y0409246D01*
X0250795Y0410444D02*
X0250795Y0412871D01*
X0252615Y0412264D02*
X0248975Y0412264D01*
X0250795Y0410444D01*
X0252615Y0406819D02*
X0248975Y0406819D01*
X0249582Y0401995D02*
X0250795Y0401995D01*
X0251402Y0401389D01*
X0251402Y0399569D01*
X0252615Y0399569D02*
X0248975Y0399569D01*
X0248975Y0401389D01*
X0249582Y0401995D01*
X0242773Y0410756D02*
X0240346Y0410756D01*
X0239132Y0411969D01*
X0240346Y0413183D01*
X0242773Y0413183D01*
X0240952Y0413183D02*
X0240952Y0410756D01*
X0259802Y0411051D02*
X0259802Y0412264D01*
X0260408Y0412871D01*
X0261015Y0412871D01*
X0261622Y0412264D01*
X0262228Y0412871D01*
X0262835Y0412871D01*
X0263442Y0412264D01*
X0263442Y0411051D01*
X0262835Y0410444D01*
X0263442Y0409246D02*
X0259802Y0409246D01*
X0261015Y0408032D01*
X0259802Y0406819D01*
X0263442Y0406819D01*
X0263442Y0405620D02*
X0259802Y0405620D01*
X0259802Y0403194D02*
X0263442Y0403194D01*
X0262228Y0404407D01*
X0263442Y0405620D01*
X0261622Y0401995D02*
X0262228Y0401389D01*
X0262228Y0399569D01*
X0263442Y0399569D02*
X0259802Y0399569D01*
X0259802Y0401389D01*
X0260408Y0401995D01*
X0261622Y0401995D01*
X0260408Y0410444D02*
X0259802Y0411051D01*
X0261622Y0411657D02*
X0261622Y0412264D01*
X0269644Y0412264D02*
X0269644Y0411051D01*
X0270251Y0410444D01*
X0269644Y0409246D02*
X0273284Y0409246D01*
X0273284Y0410444D02*
X0270858Y0412871D01*
X0270251Y0412871D01*
X0269644Y0412264D01*
X0269644Y0409246D02*
X0270858Y0408032D01*
X0269644Y0406819D01*
X0273284Y0406819D01*
X0273284Y0405620D02*
X0269644Y0405620D01*
X0269644Y0403194D02*
X0273284Y0403194D01*
X0272071Y0404407D01*
X0273284Y0405620D01*
X0271464Y0401995D02*
X0272071Y0401389D01*
X0272071Y0399569D01*
X0273284Y0399569D02*
X0269644Y0399569D01*
X0269644Y0401389D01*
X0270251Y0401995D01*
X0271464Y0401995D01*
X0279487Y0401389D02*
X0279487Y0399569D01*
X0283127Y0399569D01*
X0281913Y0399569D02*
X0281913Y0401389D01*
X0281307Y0401995D01*
X0280093Y0401995D01*
X0279487Y0401389D01*
X0279487Y0403194D02*
X0283127Y0403194D01*
X0281913Y0404407D01*
X0283127Y0405620D01*
X0279487Y0405620D01*
X0279487Y0406819D02*
X0280700Y0408032D01*
X0279487Y0409246D01*
X0283127Y0409246D01*
X0283127Y0410444D02*
X0283127Y0412871D01*
X0283127Y0411657D02*
X0279487Y0411657D01*
X0280700Y0410444D01*
X0279487Y0406819D02*
X0283127Y0406819D01*
X0289329Y0405932D02*
X0291756Y0405932D01*
X0292969Y0404719D01*
X0291756Y0403506D01*
X0289329Y0403506D01*
X0289936Y0407131D02*
X0292363Y0407131D01*
X0292969Y0407737D01*
X0292969Y0408951D01*
X0292363Y0409557D01*
X0292363Y0410756D02*
X0292969Y0411363D01*
X0292969Y0412576D01*
X0292363Y0413183D01*
X0289936Y0413183D02*
X0289329Y0412576D01*
X0289329Y0411363D01*
X0289936Y0410756D01*
X0292363Y0410756D01*
X0289936Y0409557D02*
X0289329Y0408951D01*
X0289329Y0407737D01*
X0289936Y0407131D01*
X0300156Y0408032D02*
X0301369Y0409246D01*
X0303796Y0409246D01*
X0301976Y0409246D02*
X0301976Y0406819D01*
X0301369Y0406819D02*
X0303796Y0406819D01*
X0303189Y0405620D02*
X0303796Y0405014D01*
X0303796Y0403194D01*
X0300156Y0403194D01*
X0300156Y0405014D01*
X0300763Y0405620D01*
X0301369Y0405620D01*
X0301976Y0405014D01*
X0301976Y0403194D01*
X0302583Y0401995D02*
X0300156Y0401995D01*
X0300156Y0399569D02*
X0302583Y0399569D01*
X0303796Y0400782D01*
X0302583Y0401995D01*
X0301976Y0405014D02*
X0302583Y0405620D01*
X0303189Y0405620D01*
X0301369Y0406819D02*
X0300156Y0408032D01*
X0300156Y0410444D02*
X0300156Y0412871D01*
X0300156Y0411657D02*
X0303796Y0411657D01*
X0309999Y0412313D02*
X0309999Y0410493D01*
X0313639Y0410493D01*
X0313639Y0412313D01*
X0313032Y0412919D01*
X0310605Y0412919D01*
X0309999Y0412313D01*
X0309999Y0409294D02*
X0313639Y0409294D01*
X0309999Y0406867D01*
X0313639Y0406867D01*
X0313032Y0405669D02*
X0311819Y0405669D01*
X0311819Y0404456D01*
X0313032Y0405669D02*
X0313639Y0405062D01*
X0313639Y0403849D01*
X0313032Y0403242D01*
X0310605Y0403242D01*
X0309999Y0403849D01*
X0309999Y0405062D01*
X0310605Y0405669D01*
X0314245Y0402044D02*
X0314245Y0399617D01*
X0313639Y0397205D02*
X0309999Y0397205D01*
X0309999Y0395992D02*
X0309999Y0398419D01*
X0311212Y0394794D02*
X0313639Y0394794D01*
X0311819Y0394794D02*
X0311819Y0392367D01*
X0311212Y0392367D02*
X0309999Y0393580D01*
X0311212Y0394794D01*
X0311212Y0392367D02*
X0313639Y0392367D01*
X0313032Y0391169D02*
X0313639Y0390562D01*
X0313639Y0388742D01*
X0309999Y0388742D01*
X0309999Y0390562D01*
X0310605Y0391169D01*
X0311212Y0391169D01*
X0311819Y0390562D01*
X0311819Y0388742D01*
X0311819Y0390562D02*
X0312425Y0391169D01*
X0313032Y0391169D01*
X0321432Y0403506D02*
X0323859Y0403506D01*
X0324465Y0404112D01*
X0324465Y0405326D01*
X0323859Y0405932D01*
X0322645Y0405932D01*
X0322645Y0404719D01*
X0321432Y0405932D02*
X0320825Y0405326D01*
X0320825Y0404112D01*
X0321432Y0403506D01*
X0320825Y0407131D02*
X0324465Y0409557D01*
X0320825Y0409557D01*
X0320825Y0410756D02*
X0320825Y0412576D01*
X0321432Y0413183D01*
X0323859Y0413183D01*
X0324465Y0412576D01*
X0324465Y0410756D01*
X0320825Y0410756D01*
X0320825Y0407131D02*
X0324465Y0407131D01*
X0273284Y0410444D02*
X0273284Y0412871D01*
X0272526Y0288051D02*
X0272526Y0285346D01*
X0273067Y0284805D01*
X0274149Y0284805D01*
X0274690Y0285346D01*
X0274690Y0288051D01*
X0271427Y0288051D02*
X0271427Y0284805D01*
X0269263Y0284805D02*
X0269263Y0288051D01*
X0270345Y0286969D01*
X0271427Y0288051D01*
X0268170Y0288051D02*
X0267088Y0288051D01*
X0267629Y0288051D02*
X0267629Y0284805D01*
X0267088Y0284805D02*
X0268170Y0284805D01*
X0346613Y0278411D02*
X0346613Y0276300D01*
X0349780Y0276300D01*
X0349780Y0278411D01*
X0348197Y0277355D02*
X0348197Y0276300D01*
X0348197Y0275221D02*
X0348197Y0274165D01*
X0348197Y0275221D02*
X0349253Y0275221D01*
X0349780Y0274693D01*
X0349780Y0273637D01*
X0349253Y0273110D01*
X0347141Y0273110D01*
X0346613Y0273637D01*
X0346613Y0274693D01*
X0347141Y0275221D01*
X0347141Y0272031D02*
X0346613Y0271503D01*
X0346613Y0269919D01*
X0349780Y0269919D01*
X0349780Y0271503D01*
X0349253Y0272031D01*
X0347141Y0272031D01*
X0346613Y0268848D02*
X0346613Y0267793D01*
X0346613Y0268321D02*
X0349780Y0268321D01*
X0349780Y0268848D02*
X0349780Y0267793D01*
X0349780Y0266714D02*
X0348725Y0265658D01*
X0348725Y0266186D02*
X0348725Y0264603D01*
X0349780Y0264603D02*
X0346613Y0264603D01*
X0346613Y0266186D01*
X0347141Y0266714D01*
X0348197Y0266714D01*
X0348725Y0266186D01*
X0348725Y0263524D02*
X0349253Y0263524D01*
X0349780Y0262996D01*
X0349780Y0261412D01*
X0346613Y0261412D01*
X0346613Y0262996D01*
X0347141Y0263524D01*
X0347669Y0263524D01*
X0348197Y0262996D01*
X0348197Y0261412D01*
X0348197Y0262996D02*
X0348725Y0263524D01*
X0350308Y0260334D02*
X0350308Y0258222D01*
X0349780Y0256088D02*
X0346613Y0256088D01*
X0346613Y0255032D02*
X0346613Y0257144D01*
X0346613Y0253954D02*
X0346613Y0251842D01*
X0349780Y0251842D01*
X0349780Y0253954D01*
X0348197Y0252898D02*
X0348197Y0251842D01*
X0349780Y0250763D02*
X0346613Y0250763D01*
X0346613Y0248652D02*
X0349780Y0250763D01*
X0349780Y0248652D02*
X0346613Y0248652D01*
X0397600Y0264348D02*
X0398207Y0263742D01*
X0399420Y0263742D01*
X0400027Y0264348D01*
X0400027Y0265562D01*
X0398813Y0265562D01*
X0397600Y0266775D02*
X0397600Y0264348D01*
X0397600Y0266775D02*
X0398207Y0267382D01*
X0399420Y0267382D01*
X0400027Y0266775D01*
X0401225Y0267382D02*
X0403652Y0263742D01*
X0403652Y0267382D01*
X0404850Y0267382D02*
X0406670Y0267382D01*
X0407277Y0266775D01*
X0407277Y0264348D01*
X0406670Y0263742D01*
X0404850Y0263742D01*
X0404850Y0267382D01*
X0401225Y0267382D02*
X0401225Y0263742D01*
X0404561Y0276537D02*
X0403506Y0277593D01*
X0403506Y0278649D01*
X0404561Y0279704D01*
X0405474Y0280474D02*
X0407058Y0280474D01*
X0407586Y0281002D01*
X0407586Y0283113D01*
X0407058Y0283641D01*
X0405474Y0283641D01*
X0405474Y0280474D01*
X0405632Y0278649D02*
X0405632Y0276537D01*
X0405632Y0277593D02*
X0406688Y0278649D01*
X0407216Y0278649D01*
X0408291Y0278121D02*
X0408819Y0278649D01*
X0409874Y0278649D01*
X0410402Y0278121D01*
X0410402Y0277593D01*
X0408291Y0277593D01*
X0408291Y0277065D02*
X0408291Y0278121D01*
X0408291Y0277065D02*
X0408819Y0276537D01*
X0409874Y0276537D01*
X0411481Y0276537D02*
X0413065Y0276537D01*
X0413592Y0277065D01*
X0413065Y0277593D01*
X0412009Y0277593D01*
X0411481Y0278121D01*
X0412009Y0278649D01*
X0413592Y0278649D01*
X0414671Y0279704D02*
X0415727Y0278649D01*
X0415727Y0277593D01*
X0414671Y0276537D01*
X0413966Y0280474D02*
X0412910Y0281530D01*
X0413438Y0281530D02*
X0411854Y0281530D01*
X0411854Y0280474D02*
X0411854Y0283641D01*
X0413438Y0283641D01*
X0413966Y0283113D01*
X0413966Y0282058D01*
X0413438Y0281530D01*
X0410776Y0283641D02*
X0408664Y0283641D01*
X0409720Y0283641D02*
X0409720Y0280474D01*
X0410083Y0290317D02*
X0412510Y0293957D01*
X0413709Y0293957D02*
X0414922Y0293957D01*
X0414315Y0293957D02*
X0414315Y0290317D01*
X0413709Y0290317D02*
X0414922Y0290317D01*
X0412510Y0290317D02*
X0410083Y0293957D01*
X0408885Y0293350D02*
X0408885Y0292137D01*
X0408278Y0291530D01*
X0406458Y0291530D01*
X0406458Y0290317D02*
X0406458Y0293957D01*
X0408278Y0293957D01*
X0408885Y0293350D01*
X0407672Y0291530D02*
X0408885Y0290317D01*
X0409690Y0300356D02*
X0412117Y0303996D01*
X0413315Y0303389D02*
X0413922Y0303996D01*
X0415135Y0303996D01*
X0415742Y0303389D01*
X0413315Y0300963D01*
X0413922Y0300356D01*
X0415135Y0300356D01*
X0415742Y0300963D01*
X0415742Y0303389D01*
X0413315Y0303389D02*
X0413315Y0300963D01*
X0412117Y0300356D02*
X0409690Y0303996D01*
X0408491Y0303996D02*
X0406065Y0303996D01*
X0407278Y0303996D02*
X0407278Y0300356D01*
X0407294Y0330671D02*
X0406081Y0330671D01*
X0405474Y0331278D01*
X0405474Y0333704D01*
X0406081Y0334311D01*
X0407294Y0334311D01*
X0407901Y0333704D01*
X0407901Y0332491D02*
X0406687Y0332491D01*
X0407901Y0332491D02*
X0407901Y0331278D01*
X0407294Y0330671D01*
X0409099Y0330671D02*
X0409099Y0334311D01*
X0411526Y0330671D01*
X0411526Y0334311D01*
X0412724Y0334311D02*
X0414544Y0334311D01*
X0415151Y0333704D01*
X0415151Y0331278D01*
X0414544Y0330671D01*
X0412724Y0330671D01*
X0412724Y0334311D01*
X0413285Y0407246D02*
X0412758Y0407774D01*
X0412758Y0409885D01*
X0413285Y0410413D01*
X0414341Y0410413D01*
X0414869Y0409885D01*
X0414869Y0407774D01*
X0414341Y0407246D01*
X0413285Y0407246D01*
X0413813Y0408302D02*
X0414869Y0407246D01*
X0415948Y0407246D02*
X0418059Y0407246D01*
X0417003Y0407246D02*
X0417003Y0410413D01*
X0415948Y0409357D01*
X0411198Y0236870D02*
X0411805Y0236263D01*
X0409378Y0233837D01*
X0409985Y0233230D01*
X0411198Y0233230D01*
X0411805Y0233837D01*
X0411805Y0236263D01*
X0411198Y0236870D02*
X0409985Y0236870D01*
X0409378Y0236263D01*
X0409378Y0233837D01*
X0408180Y0233230D02*
X0405753Y0236870D01*
X0404554Y0236870D02*
X0402128Y0236870D01*
X0403341Y0236870D02*
X0403341Y0233230D01*
X0405753Y0233230D02*
X0408180Y0236870D01*
X0408573Y0227028D02*
X0406146Y0223387D01*
X0404948Y0223387D02*
X0403735Y0224601D01*
X0404341Y0224601D02*
X0402521Y0224601D01*
X0402521Y0223387D02*
X0402521Y0227028D01*
X0404341Y0227028D01*
X0404948Y0226421D01*
X0404948Y0225208D01*
X0404341Y0224601D01*
X0406146Y0227028D02*
X0408573Y0223387D01*
X0409772Y0223387D02*
X0410985Y0223387D01*
X0410378Y0223387D02*
X0410378Y0227028D01*
X0409772Y0227028D02*
X0410985Y0227028D01*
X0421866Y0141594D02*
X0422922Y0141594D01*
X0423449Y0141066D01*
X0423449Y0138955D01*
X0422922Y0138427D01*
X0421866Y0138427D01*
X0421338Y0138955D01*
X0421338Y0141066D01*
X0421866Y0141594D01*
X0422394Y0139483D02*
X0423449Y0138427D01*
X0424528Y0138427D02*
X0426640Y0140538D01*
X0426640Y0141066D01*
X0426112Y0141594D01*
X0425056Y0141594D01*
X0424528Y0141066D01*
X0424528Y0138427D02*
X0426640Y0138427D01*
X0282939Y0127027D02*
X0280827Y0127027D01*
X0280827Y0125444D01*
X0281883Y0125971D01*
X0282411Y0125971D01*
X0282939Y0125444D01*
X0282939Y0124388D01*
X0282411Y0123860D01*
X0281355Y0123860D01*
X0280827Y0124388D01*
X0279749Y0124388D02*
X0279749Y0126499D01*
X0279221Y0127027D01*
X0277637Y0127027D01*
X0277637Y0123860D01*
X0279221Y0123860D01*
X0279749Y0124388D01*
X0135301Y0140010D02*
X0133189Y0140010D01*
X0134773Y0141594D01*
X0134773Y0138427D01*
X0132111Y0138427D02*
X0131055Y0139483D01*
X0130527Y0138427D02*
X0129999Y0138955D01*
X0129999Y0141066D01*
X0130527Y0141594D01*
X0131583Y0141594D01*
X0132111Y0141066D01*
X0132111Y0138955D01*
X0131583Y0138427D01*
X0130527Y0138427D01*
D12*
X0224222Y0236869D02*
X0224224Y0236974D01*
X0224230Y0237079D01*
X0224240Y0237183D01*
X0224254Y0237287D01*
X0224272Y0237391D01*
X0224294Y0237493D01*
X0224319Y0237595D01*
X0224349Y0237696D01*
X0224382Y0237795D01*
X0224419Y0237893D01*
X0224460Y0237990D01*
X0224505Y0238085D01*
X0224553Y0238178D01*
X0224604Y0238270D01*
X0224660Y0238359D01*
X0224718Y0238446D01*
X0224780Y0238531D01*
X0224844Y0238614D01*
X0224912Y0238694D01*
X0224983Y0238771D01*
X0225057Y0238845D01*
X0225134Y0238917D01*
X0225213Y0238986D01*
X0225295Y0239051D01*
X0225379Y0239114D01*
X0225466Y0239173D01*
X0225555Y0239229D01*
X0225646Y0239282D01*
X0225739Y0239331D01*
X0225833Y0239376D01*
X0225929Y0239418D01*
X0226027Y0239456D01*
X0226126Y0239490D01*
X0226227Y0239521D01*
X0226328Y0239547D01*
X0226431Y0239570D01*
X0226534Y0239589D01*
X0226638Y0239604D01*
X0226742Y0239615D01*
X0226847Y0239622D01*
X0226952Y0239625D01*
X0227057Y0239624D01*
X0227162Y0239619D01*
X0227266Y0239610D01*
X0227370Y0239597D01*
X0227474Y0239580D01*
X0227577Y0239559D01*
X0227679Y0239534D01*
X0227780Y0239506D01*
X0227879Y0239473D01*
X0227978Y0239437D01*
X0228075Y0239397D01*
X0228170Y0239354D01*
X0228264Y0239306D01*
X0228356Y0239256D01*
X0228446Y0239202D01*
X0228534Y0239144D01*
X0228619Y0239083D01*
X0228702Y0239019D01*
X0228783Y0238952D01*
X0228861Y0238882D01*
X0228936Y0238808D01*
X0229008Y0238733D01*
X0229078Y0238654D01*
X0229144Y0238573D01*
X0229208Y0238489D01*
X0229268Y0238403D01*
X0229324Y0238315D01*
X0229378Y0238224D01*
X0229428Y0238132D01*
X0229474Y0238038D01*
X0229517Y0237942D01*
X0229556Y0237844D01*
X0229591Y0237746D01*
X0229622Y0237645D01*
X0229650Y0237544D01*
X0229674Y0237442D01*
X0229694Y0237339D01*
X0229710Y0237235D01*
X0229722Y0237131D01*
X0229730Y0237026D01*
X0229734Y0236921D01*
X0229734Y0236817D01*
X0229730Y0236712D01*
X0229722Y0236607D01*
X0229710Y0236503D01*
X0229694Y0236399D01*
X0229674Y0236296D01*
X0229650Y0236194D01*
X0229622Y0236093D01*
X0229591Y0235992D01*
X0229556Y0235894D01*
X0229517Y0235796D01*
X0229474Y0235700D01*
X0229428Y0235606D01*
X0229378Y0235514D01*
X0229324Y0235423D01*
X0229268Y0235335D01*
X0229208Y0235249D01*
X0229144Y0235165D01*
X0229078Y0235084D01*
X0229008Y0235005D01*
X0228936Y0234930D01*
X0228861Y0234856D01*
X0228783Y0234786D01*
X0228702Y0234719D01*
X0228619Y0234655D01*
X0228534Y0234594D01*
X0228446Y0234536D01*
X0228356Y0234482D01*
X0228264Y0234432D01*
X0228170Y0234384D01*
X0228075Y0234341D01*
X0227978Y0234301D01*
X0227879Y0234265D01*
X0227780Y0234232D01*
X0227679Y0234204D01*
X0227577Y0234179D01*
X0227474Y0234158D01*
X0227370Y0234141D01*
X0227266Y0234128D01*
X0227162Y0234119D01*
X0227057Y0234114D01*
X0226952Y0234113D01*
X0226847Y0234116D01*
X0226742Y0234123D01*
X0226638Y0234134D01*
X0226534Y0234149D01*
X0226431Y0234168D01*
X0226328Y0234191D01*
X0226227Y0234217D01*
X0226126Y0234248D01*
X0226027Y0234282D01*
X0225929Y0234320D01*
X0225833Y0234362D01*
X0225739Y0234407D01*
X0225646Y0234456D01*
X0225555Y0234509D01*
X0225466Y0234565D01*
X0225379Y0234624D01*
X0225295Y0234687D01*
X0225213Y0234752D01*
X0225134Y0234821D01*
X0225057Y0234893D01*
X0224983Y0234967D01*
X0224912Y0235044D01*
X0224844Y0235124D01*
X0224780Y0235207D01*
X0224718Y0235292D01*
X0224660Y0235379D01*
X0224604Y0235468D01*
X0224553Y0235560D01*
X0224505Y0235653D01*
X0224460Y0235748D01*
X0224419Y0235845D01*
X0224382Y0235943D01*
X0224349Y0236042D01*
X0224319Y0236143D01*
X0224294Y0236245D01*
X0224272Y0236347D01*
X0224254Y0236451D01*
X0224240Y0236555D01*
X0224230Y0236659D01*
X0224224Y0236764D01*
X0224222Y0236869D01*
X0224222Y0294743D02*
X0224224Y0294848D01*
X0224230Y0294953D01*
X0224240Y0295057D01*
X0224254Y0295161D01*
X0224272Y0295265D01*
X0224294Y0295367D01*
X0224319Y0295469D01*
X0224349Y0295570D01*
X0224382Y0295669D01*
X0224419Y0295767D01*
X0224460Y0295864D01*
X0224505Y0295959D01*
X0224553Y0296052D01*
X0224604Y0296144D01*
X0224660Y0296233D01*
X0224718Y0296320D01*
X0224780Y0296405D01*
X0224844Y0296488D01*
X0224912Y0296568D01*
X0224983Y0296645D01*
X0225057Y0296719D01*
X0225134Y0296791D01*
X0225213Y0296860D01*
X0225295Y0296925D01*
X0225379Y0296988D01*
X0225466Y0297047D01*
X0225555Y0297103D01*
X0225646Y0297156D01*
X0225739Y0297205D01*
X0225833Y0297250D01*
X0225929Y0297292D01*
X0226027Y0297330D01*
X0226126Y0297364D01*
X0226227Y0297395D01*
X0226328Y0297421D01*
X0226431Y0297444D01*
X0226534Y0297463D01*
X0226638Y0297478D01*
X0226742Y0297489D01*
X0226847Y0297496D01*
X0226952Y0297499D01*
X0227057Y0297498D01*
X0227162Y0297493D01*
X0227266Y0297484D01*
X0227370Y0297471D01*
X0227474Y0297454D01*
X0227577Y0297433D01*
X0227679Y0297408D01*
X0227780Y0297380D01*
X0227879Y0297347D01*
X0227978Y0297311D01*
X0228075Y0297271D01*
X0228170Y0297228D01*
X0228264Y0297180D01*
X0228356Y0297130D01*
X0228446Y0297076D01*
X0228534Y0297018D01*
X0228619Y0296957D01*
X0228702Y0296893D01*
X0228783Y0296826D01*
X0228861Y0296756D01*
X0228936Y0296682D01*
X0229008Y0296607D01*
X0229078Y0296528D01*
X0229144Y0296447D01*
X0229208Y0296363D01*
X0229268Y0296277D01*
X0229324Y0296189D01*
X0229378Y0296098D01*
X0229428Y0296006D01*
X0229474Y0295912D01*
X0229517Y0295816D01*
X0229556Y0295718D01*
X0229591Y0295620D01*
X0229622Y0295519D01*
X0229650Y0295418D01*
X0229674Y0295316D01*
X0229694Y0295213D01*
X0229710Y0295109D01*
X0229722Y0295005D01*
X0229730Y0294900D01*
X0229734Y0294795D01*
X0229734Y0294691D01*
X0229730Y0294586D01*
X0229722Y0294481D01*
X0229710Y0294377D01*
X0229694Y0294273D01*
X0229674Y0294170D01*
X0229650Y0294068D01*
X0229622Y0293967D01*
X0229591Y0293866D01*
X0229556Y0293768D01*
X0229517Y0293670D01*
X0229474Y0293574D01*
X0229428Y0293480D01*
X0229378Y0293388D01*
X0229324Y0293297D01*
X0229268Y0293209D01*
X0229208Y0293123D01*
X0229144Y0293039D01*
X0229078Y0292958D01*
X0229008Y0292879D01*
X0228936Y0292804D01*
X0228861Y0292730D01*
X0228783Y0292660D01*
X0228702Y0292593D01*
X0228619Y0292529D01*
X0228534Y0292468D01*
X0228446Y0292410D01*
X0228356Y0292356D01*
X0228264Y0292306D01*
X0228170Y0292258D01*
X0228075Y0292215D01*
X0227978Y0292175D01*
X0227879Y0292139D01*
X0227780Y0292106D01*
X0227679Y0292078D01*
X0227577Y0292053D01*
X0227474Y0292032D01*
X0227370Y0292015D01*
X0227266Y0292002D01*
X0227162Y0291993D01*
X0227057Y0291988D01*
X0226952Y0291987D01*
X0226847Y0291990D01*
X0226742Y0291997D01*
X0226638Y0292008D01*
X0226534Y0292023D01*
X0226431Y0292042D01*
X0226328Y0292065D01*
X0226227Y0292091D01*
X0226126Y0292122D01*
X0226027Y0292156D01*
X0225929Y0292194D01*
X0225833Y0292236D01*
X0225739Y0292281D01*
X0225646Y0292330D01*
X0225555Y0292383D01*
X0225466Y0292439D01*
X0225379Y0292498D01*
X0225295Y0292561D01*
X0225213Y0292626D01*
X0225134Y0292695D01*
X0225057Y0292767D01*
X0224983Y0292841D01*
X0224912Y0292918D01*
X0224844Y0292998D01*
X0224780Y0293081D01*
X0224718Y0293166D01*
X0224660Y0293253D01*
X0224604Y0293342D01*
X0224553Y0293434D01*
X0224505Y0293527D01*
X0224460Y0293622D01*
X0224419Y0293719D01*
X0224382Y0293817D01*
X0224349Y0293916D01*
X0224319Y0294017D01*
X0224294Y0294119D01*
X0224272Y0294221D01*
X0224254Y0294325D01*
X0224240Y0294429D01*
X0224230Y0294533D01*
X0224224Y0294638D01*
X0224222Y0294743D01*
X0319104Y0294743D02*
X0319106Y0294848D01*
X0319112Y0294953D01*
X0319122Y0295057D01*
X0319136Y0295161D01*
X0319154Y0295265D01*
X0319176Y0295367D01*
X0319201Y0295469D01*
X0319231Y0295570D01*
X0319264Y0295669D01*
X0319301Y0295767D01*
X0319342Y0295864D01*
X0319387Y0295959D01*
X0319435Y0296052D01*
X0319486Y0296144D01*
X0319542Y0296233D01*
X0319600Y0296320D01*
X0319662Y0296405D01*
X0319726Y0296488D01*
X0319794Y0296568D01*
X0319865Y0296645D01*
X0319939Y0296719D01*
X0320016Y0296791D01*
X0320095Y0296860D01*
X0320177Y0296925D01*
X0320261Y0296988D01*
X0320348Y0297047D01*
X0320437Y0297103D01*
X0320528Y0297156D01*
X0320621Y0297205D01*
X0320715Y0297250D01*
X0320811Y0297292D01*
X0320909Y0297330D01*
X0321008Y0297364D01*
X0321109Y0297395D01*
X0321210Y0297421D01*
X0321313Y0297444D01*
X0321416Y0297463D01*
X0321520Y0297478D01*
X0321624Y0297489D01*
X0321729Y0297496D01*
X0321834Y0297499D01*
X0321939Y0297498D01*
X0322044Y0297493D01*
X0322148Y0297484D01*
X0322252Y0297471D01*
X0322356Y0297454D01*
X0322459Y0297433D01*
X0322561Y0297408D01*
X0322662Y0297380D01*
X0322761Y0297347D01*
X0322860Y0297311D01*
X0322957Y0297271D01*
X0323052Y0297228D01*
X0323146Y0297180D01*
X0323238Y0297130D01*
X0323328Y0297076D01*
X0323416Y0297018D01*
X0323501Y0296957D01*
X0323584Y0296893D01*
X0323665Y0296826D01*
X0323743Y0296756D01*
X0323818Y0296682D01*
X0323890Y0296607D01*
X0323960Y0296528D01*
X0324026Y0296447D01*
X0324090Y0296363D01*
X0324150Y0296277D01*
X0324206Y0296189D01*
X0324260Y0296098D01*
X0324310Y0296006D01*
X0324356Y0295912D01*
X0324399Y0295816D01*
X0324438Y0295718D01*
X0324473Y0295620D01*
X0324504Y0295519D01*
X0324532Y0295418D01*
X0324556Y0295316D01*
X0324576Y0295213D01*
X0324592Y0295109D01*
X0324604Y0295005D01*
X0324612Y0294900D01*
X0324616Y0294795D01*
X0324616Y0294691D01*
X0324612Y0294586D01*
X0324604Y0294481D01*
X0324592Y0294377D01*
X0324576Y0294273D01*
X0324556Y0294170D01*
X0324532Y0294068D01*
X0324504Y0293967D01*
X0324473Y0293866D01*
X0324438Y0293768D01*
X0324399Y0293670D01*
X0324356Y0293574D01*
X0324310Y0293480D01*
X0324260Y0293388D01*
X0324206Y0293297D01*
X0324150Y0293209D01*
X0324090Y0293123D01*
X0324026Y0293039D01*
X0323960Y0292958D01*
X0323890Y0292879D01*
X0323818Y0292804D01*
X0323743Y0292730D01*
X0323665Y0292660D01*
X0323584Y0292593D01*
X0323501Y0292529D01*
X0323416Y0292468D01*
X0323328Y0292410D01*
X0323238Y0292356D01*
X0323146Y0292306D01*
X0323052Y0292258D01*
X0322957Y0292215D01*
X0322860Y0292175D01*
X0322761Y0292139D01*
X0322662Y0292106D01*
X0322561Y0292078D01*
X0322459Y0292053D01*
X0322356Y0292032D01*
X0322252Y0292015D01*
X0322148Y0292002D01*
X0322044Y0291993D01*
X0321939Y0291988D01*
X0321834Y0291987D01*
X0321729Y0291990D01*
X0321624Y0291997D01*
X0321520Y0292008D01*
X0321416Y0292023D01*
X0321313Y0292042D01*
X0321210Y0292065D01*
X0321109Y0292091D01*
X0321008Y0292122D01*
X0320909Y0292156D01*
X0320811Y0292194D01*
X0320715Y0292236D01*
X0320621Y0292281D01*
X0320528Y0292330D01*
X0320437Y0292383D01*
X0320348Y0292439D01*
X0320261Y0292498D01*
X0320177Y0292561D01*
X0320095Y0292626D01*
X0320016Y0292695D01*
X0319939Y0292767D01*
X0319865Y0292841D01*
X0319794Y0292918D01*
X0319726Y0292998D01*
X0319662Y0293081D01*
X0319600Y0293166D01*
X0319542Y0293253D01*
X0319486Y0293342D01*
X0319435Y0293434D01*
X0319387Y0293527D01*
X0319342Y0293622D01*
X0319301Y0293719D01*
X0319264Y0293817D01*
X0319231Y0293916D01*
X0319201Y0294017D01*
X0319176Y0294119D01*
X0319154Y0294221D01*
X0319136Y0294325D01*
X0319122Y0294429D01*
X0319112Y0294533D01*
X0319106Y0294638D01*
X0319104Y0294743D01*
X0319104Y0236869D02*
X0319106Y0236974D01*
X0319112Y0237079D01*
X0319122Y0237183D01*
X0319136Y0237287D01*
X0319154Y0237391D01*
X0319176Y0237493D01*
X0319201Y0237595D01*
X0319231Y0237696D01*
X0319264Y0237795D01*
X0319301Y0237893D01*
X0319342Y0237990D01*
X0319387Y0238085D01*
X0319435Y0238178D01*
X0319486Y0238270D01*
X0319542Y0238359D01*
X0319600Y0238446D01*
X0319662Y0238531D01*
X0319726Y0238614D01*
X0319794Y0238694D01*
X0319865Y0238771D01*
X0319939Y0238845D01*
X0320016Y0238917D01*
X0320095Y0238986D01*
X0320177Y0239051D01*
X0320261Y0239114D01*
X0320348Y0239173D01*
X0320437Y0239229D01*
X0320528Y0239282D01*
X0320621Y0239331D01*
X0320715Y0239376D01*
X0320811Y0239418D01*
X0320909Y0239456D01*
X0321008Y0239490D01*
X0321109Y0239521D01*
X0321210Y0239547D01*
X0321313Y0239570D01*
X0321416Y0239589D01*
X0321520Y0239604D01*
X0321624Y0239615D01*
X0321729Y0239622D01*
X0321834Y0239625D01*
X0321939Y0239624D01*
X0322044Y0239619D01*
X0322148Y0239610D01*
X0322252Y0239597D01*
X0322356Y0239580D01*
X0322459Y0239559D01*
X0322561Y0239534D01*
X0322662Y0239506D01*
X0322761Y0239473D01*
X0322860Y0239437D01*
X0322957Y0239397D01*
X0323052Y0239354D01*
X0323146Y0239306D01*
X0323238Y0239256D01*
X0323328Y0239202D01*
X0323416Y0239144D01*
X0323501Y0239083D01*
X0323584Y0239019D01*
X0323665Y0238952D01*
X0323743Y0238882D01*
X0323818Y0238808D01*
X0323890Y0238733D01*
X0323960Y0238654D01*
X0324026Y0238573D01*
X0324090Y0238489D01*
X0324150Y0238403D01*
X0324206Y0238315D01*
X0324260Y0238224D01*
X0324310Y0238132D01*
X0324356Y0238038D01*
X0324399Y0237942D01*
X0324438Y0237844D01*
X0324473Y0237746D01*
X0324504Y0237645D01*
X0324532Y0237544D01*
X0324556Y0237442D01*
X0324576Y0237339D01*
X0324592Y0237235D01*
X0324604Y0237131D01*
X0324612Y0237026D01*
X0324616Y0236921D01*
X0324616Y0236817D01*
X0324612Y0236712D01*
X0324604Y0236607D01*
X0324592Y0236503D01*
X0324576Y0236399D01*
X0324556Y0236296D01*
X0324532Y0236194D01*
X0324504Y0236093D01*
X0324473Y0235992D01*
X0324438Y0235894D01*
X0324399Y0235796D01*
X0324356Y0235700D01*
X0324310Y0235606D01*
X0324260Y0235514D01*
X0324206Y0235423D01*
X0324150Y0235335D01*
X0324090Y0235249D01*
X0324026Y0235165D01*
X0323960Y0235084D01*
X0323890Y0235005D01*
X0323818Y0234930D01*
X0323743Y0234856D01*
X0323665Y0234786D01*
X0323584Y0234719D01*
X0323501Y0234655D01*
X0323416Y0234594D01*
X0323328Y0234536D01*
X0323238Y0234482D01*
X0323146Y0234432D01*
X0323052Y0234384D01*
X0322957Y0234341D01*
X0322860Y0234301D01*
X0322761Y0234265D01*
X0322662Y0234232D01*
X0322561Y0234204D01*
X0322459Y0234179D01*
X0322356Y0234158D01*
X0322252Y0234141D01*
X0322148Y0234128D01*
X0322044Y0234119D01*
X0321939Y0234114D01*
X0321834Y0234113D01*
X0321729Y0234116D01*
X0321624Y0234123D01*
X0321520Y0234134D01*
X0321416Y0234149D01*
X0321313Y0234168D01*
X0321210Y0234191D01*
X0321109Y0234217D01*
X0321008Y0234248D01*
X0320909Y0234282D01*
X0320811Y0234320D01*
X0320715Y0234362D01*
X0320621Y0234407D01*
X0320528Y0234456D01*
X0320437Y0234509D01*
X0320348Y0234565D01*
X0320261Y0234624D01*
X0320177Y0234687D01*
X0320095Y0234752D01*
X0320016Y0234821D01*
X0319939Y0234893D01*
X0319865Y0234967D01*
X0319794Y0235044D01*
X0319726Y0235124D01*
X0319662Y0235207D01*
X0319600Y0235292D01*
X0319542Y0235379D01*
X0319486Y0235468D01*
X0319435Y0235560D01*
X0319387Y0235653D01*
X0319342Y0235748D01*
X0319301Y0235845D01*
X0319264Y0235943D01*
X0319231Y0236042D01*
X0319201Y0236143D01*
X0319176Y0236245D01*
X0319154Y0236347D01*
X0319136Y0236451D01*
X0319122Y0236555D01*
X0319112Y0236659D01*
X0319106Y0236764D01*
X0319104Y0236869D01*
X0269498Y0152371D02*
X0269500Y0152511D01*
X0269506Y0152651D01*
X0269516Y0152790D01*
X0269530Y0152929D01*
X0269548Y0153068D01*
X0269569Y0153206D01*
X0269595Y0153344D01*
X0269625Y0153481D01*
X0269658Y0153616D01*
X0269696Y0153751D01*
X0269737Y0153885D01*
X0269782Y0154018D01*
X0269830Y0154149D01*
X0269883Y0154278D01*
X0269939Y0154407D01*
X0269998Y0154533D01*
X0270062Y0154658D01*
X0270128Y0154781D01*
X0270199Y0154902D01*
X0270272Y0155021D01*
X0270349Y0155138D01*
X0270430Y0155252D01*
X0270513Y0155364D01*
X0270600Y0155474D01*
X0270690Y0155582D01*
X0270782Y0155686D01*
X0270878Y0155788D01*
X0270977Y0155888D01*
X0271078Y0155984D01*
X0271182Y0156078D01*
X0271289Y0156168D01*
X0271398Y0156255D01*
X0271510Y0156340D01*
X0271624Y0156421D01*
X0271740Y0156499D01*
X0271858Y0156573D01*
X0271979Y0156644D01*
X0272101Y0156712D01*
X0272226Y0156776D01*
X0272352Y0156837D01*
X0272479Y0156894D01*
X0272609Y0156947D01*
X0272740Y0156997D01*
X0272872Y0157042D01*
X0273005Y0157085D01*
X0273140Y0157123D01*
X0273275Y0157157D01*
X0273412Y0157188D01*
X0273549Y0157215D01*
X0273687Y0157237D01*
X0273826Y0157256D01*
X0273965Y0157271D01*
X0274104Y0157282D01*
X0274244Y0157289D01*
X0274384Y0157292D01*
X0274524Y0157291D01*
X0274664Y0157286D01*
X0274803Y0157277D01*
X0274943Y0157264D01*
X0275082Y0157247D01*
X0275220Y0157226D01*
X0275358Y0157202D01*
X0275495Y0157173D01*
X0275631Y0157141D01*
X0275766Y0157104D01*
X0275900Y0157064D01*
X0276033Y0157020D01*
X0276164Y0156972D01*
X0276294Y0156921D01*
X0276423Y0156866D01*
X0276550Y0156807D01*
X0276675Y0156744D01*
X0276798Y0156679D01*
X0276920Y0156609D01*
X0277039Y0156536D01*
X0277157Y0156460D01*
X0277272Y0156381D01*
X0277385Y0156298D01*
X0277495Y0156212D01*
X0277603Y0156123D01*
X0277708Y0156031D01*
X0277811Y0155936D01*
X0277911Y0155838D01*
X0278008Y0155738D01*
X0278102Y0155634D01*
X0278194Y0155528D01*
X0278282Y0155420D01*
X0278367Y0155309D01*
X0278449Y0155195D01*
X0278528Y0155079D01*
X0278603Y0154962D01*
X0278675Y0154842D01*
X0278743Y0154720D01*
X0278808Y0154596D01*
X0278870Y0154470D01*
X0278928Y0154343D01*
X0278982Y0154214D01*
X0279033Y0154083D01*
X0279079Y0153951D01*
X0279122Y0153818D01*
X0279162Y0153684D01*
X0279197Y0153549D01*
X0279229Y0153412D01*
X0279256Y0153275D01*
X0279280Y0153137D01*
X0279300Y0152999D01*
X0279316Y0152860D01*
X0279328Y0152720D01*
X0279336Y0152581D01*
X0279340Y0152441D01*
X0279340Y0152301D01*
X0279336Y0152161D01*
X0279328Y0152022D01*
X0279316Y0151882D01*
X0279300Y0151743D01*
X0279280Y0151605D01*
X0279256Y0151467D01*
X0279229Y0151330D01*
X0279197Y0151193D01*
X0279162Y0151058D01*
X0279122Y0150924D01*
X0279079Y0150791D01*
X0279033Y0150659D01*
X0278982Y0150528D01*
X0278928Y0150399D01*
X0278870Y0150272D01*
X0278808Y0150146D01*
X0278743Y0150022D01*
X0278675Y0149900D01*
X0278603Y0149780D01*
X0278528Y0149663D01*
X0278449Y0149547D01*
X0278367Y0149433D01*
X0278282Y0149322D01*
X0278194Y0149214D01*
X0278102Y0149108D01*
X0278008Y0149004D01*
X0277911Y0148904D01*
X0277811Y0148806D01*
X0277708Y0148711D01*
X0277603Y0148619D01*
X0277495Y0148530D01*
X0277385Y0148444D01*
X0277272Y0148361D01*
X0277157Y0148282D01*
X0277039Y0148206D01*
X0276920Y0148133D01*
X0276798Y0148063D01*
X0276675Y0147998D01*
X0276550Y0147935D01*
X0276423Y0147876D01*
X0276294Y0147821D01*
X0276164Y0147770D01*
X0276033Y0147722D01*
X0275900Y0147678D01*
X0275766Y0147638D01*
X0275631Y0147601D01*
X0275495Y0147569D01*
X0275358Y0147540D01*
X0275220Y0147516D01*
X0275082Y0147495D01*
X0274943Y0147478D01*
X0274803Y0147465D01*
X0274664Y0147456D01*
X0274524Y0147451D01*
X0274384Y0147450D01*
X0274244Y0147453D01*
X0274104Y0147460D01*
X0273965Y0147471D01*
X0273826Y0147486D01*
X0273687Y0147505D01*
X0273549Y0147527D01*
X0273412Y0147554D01*
X0273275Y0147585D01*
X0273140Y0147619D01*
X0273005Y0147657D01*
X0272872Y0147700D01*
X0272740Y0147745D01*
X0272609Y0147795D01*
X0272479Y0147848D01*
X0272352Y0147905D01*
X0272226Y0147966D01*
X0272101Y0148030D01*
X0271979Y0148098D01*
X0271858Y0148169D01*
X0271740Y0148243D01*
X0271624Y0148321D01*
X0271510Y0148402D01*
X0271398Y0148487D01*
X0271289Y0148574D01*
X0271182Y0148664D01*
X0271078Y0148758D01*
X0270977Y0148854D01*
X0270878Y0148954D01*
X0270782Y0149056D01*
X0270690Y0149160D01*
X0270600Y0149268D01*
X0270513Y0149378D01*
X0270430Y0149490D01*
X0270349Y0149604D01*
X0270272Y0149721D01*
X0270199Y0149840D01*
X0270128Y0149961D01*
X0270062Y0150084D01*
X0269998Y0150209D01*
X0269939Y0150335D01*
X0269883Y0150464D01*
X0269830Y0150593D01*
X0269782Y0150724D01*
X0269737Y0150857D01*
X0269696Y0150991D01*
X0269658Y0151126D01*
X0269625Y0151261D01*
X0269595Y0151398D01*
X0269569Y0151536D01*
X0269548Y0151674D01*
X0269530Y0151813D01*
X0269516Y0151952D01*
X0269506Y0152091D01*
X0269500Y0152231D01*
X0269498Y0152371D01*
X0269498Y0395678D02*
X0269500Y0395818D01*
X0269506Y0395958D01*
X0269516Y0396097D01*
X0269530Y0396236D01*
X0269548Y0396375D01*
X0269569Y0396513D01*
X0269595Y0396651D01*
X0269625Y0396788D01*
X0269658Y0396923D01*
X0269696Y0397058D01*
X0269737Y0397192D01*
X0269782Y0397325D01*
X0269830Y0397456D01*
X0269883Y0397585D01*
X0269939Y0397714D01*
X0269998Y0397840D01*
X0270062Y0397965D01*
X0270128Y0398088D01*
X0270199Y0398209D01*
X0270272Y0398328D01*
X0270349Y0398445D01*
X0270430Y0398559D01*
X0270513Y0398671D01*
X0270600Y0398781D01*
X0270690Y0398889D01*
X0270782Y0398993D01*
X0270878Y0399095D01*
X0270977Y0399195D01*
X0271078Y0399291D01*
X0271182Y0399385D01*
X0271289Y0399475D01*
X0271398Y0399562D01*
X0271510Y0399647D01*
X0271624Y0399728D01*
X0271740Y0399806D01*
X0271858Y0399880D01*
X0271979Y0399951D01*
X0272101Y0400019D01*
X0272226Y0400083D01*
X0272352Y0400144D01*
X0272479Y0400201D01*
X0272609Y0400254D01*
X0272740Y0400304D01*
X0272872Y0400349D01*
X0273005Y0400392D01*
X0273140Y0400430D01*
X0273275Y0400464D01*
X0273412Y0400495D01*
X0273549Y0400522D01*
X0273687Y0400544D01*
X0273826Y0400563D01*
X0273965Y0400578D01*
X0274104Y0400589D01*
X0274244Y0400596D01*
X0274384Y0400599D01*
X0274524Y0400598D01*
X0274664Y0400593D01*
X0274803Y0400584D01*
X0274943Y0400571D01*
X0275082Y0400554D01*
X0275220Y0400533D01*
X0275358Y0400509D01*
X0275495Y0400480D01*
X0275631Y0400448D01*
X0275766Y0400411D01*
X0275900Y0400371D01*
X0276033Y0400327D01*
X0276164Y0400279D01*
X0276294Y0400228D01*
X0276423Y0400173D01*
X0276550Y0400114D01*
X0276675Y0400051D01*
X0276798Y0399986D01*
X0276920Y0399916D01*
X0277039Y0399843D01*
X0277157Y0399767D01*
X0277272Y0399688D01*
X0277385Y0399605D01*
X0277495Y0399519D01*
X0277603Y0399430D01*
X0277708Y0399338D01*
X0277811Y0399243D01*
X0277911Y0399145D01*
X0278008Y0399045D01*
X0278102Y0398941D01*
X0278194Y0398835D01*
X0278282Y0398727D01*
X0278367Y0398616D01*
X0278449Y0398502D01*
X0278528Y0398386D01*
X0278603Y0398269D01*
X0278675Y0398149D01*
X0278743Y0398027D01*
X0278808Y0397903D01*
X0278870Y0397777D01*
X0278928Y0397650D01*
X0278982Y0397521D01*
X0279033Y0397390D01*
X0279079Y0397258D01*
X0279122Y0397125D01*
X0279162Y0396991D01*
X0279197Y0396856D01*
X0279229Y0396719D01*
X0279256Y0396582D01*
X0279280Y0396444D01*
X0279300Y0396306D01*
X0279316Y0396167D01*
X0279328Y0396027D01*
X0279336Y0395888D01*
X0279340Y0395748D01*
X0279340Y0395608D01*
X0279336Y0395468D01*
X0279328Y0395329D01*
X0279316Y0395189D01*
X0279300Y0395050D01*
X0279280Y0394912D01*
X0279256Y0394774D01*
X0279229Y0394637D01*
X0279197Y0394500D01*
X0279162Y0394365D01*
X0279122Y0394231D01*
X0279079Y0394098D01*
X0279033Y0393966D01*
X0278982Y0393835D01*
X0278928Y0393706D01*
X0278870Y0393579D01*
X0278808Y0393453D01*
X0278743Y0393329D01*
X0278675Y0393207D01*
X0278603Y0393087D01*
X0278528Y0392970D01*
X0278449Y0392854D01*
X0278367Y0392740D01*
X0278282Y0392629D01*
X0278194Y0392521D01*
X0278102Y0392415D01*
X0278008Y0392311D01*
X0277911Y0392211D01*
X0277811Y0392113D01*
X0277708Y0392018D01*
X0277603Y0391926D01*
X0277495Y0391837D01*
X0277385Y0391751D01*
X0277272Y0391668D01*
X0277157Y0391589D01*
X0277039Y0391513D01*
X0276920Y0391440D01*
X0276798Y0391370D01*
X0276675Y0391305D01*
X0276550Y0391242D01*
X0276423Y0391183D01*
X0276294Y0391128D01*
X0276164Y0391077D01*
X0276033Y0391029D01*
X0275900Y0390985D01*
X0275766Y0390945D01*
X0275631Y0390908D01*
X0275495Y0390876D01*
X0275358Y0390847D01*
X0275220Y0390823D01*
X0275082Y0390802D01*
X0274943Y0390785D01*
X0274803Y0390772D01*
X0274664Y0390763D01*
X0274524Y0390758D01*
X0274384Y0390757D01*
X0274244Y0390760D01*
X0274104Y0390767D01*
X0273965Y0390778D01*
X0273826Y0390793D01*
X0273687Y0390812D01*
X0273549Y0390834D01*
X0273412Y0390861D01*
X0273275Y0390892D01*
X0273140Y0390926D01*
X0273005Y0390964D01*
X0272872Y0391007D01*
X0272740Y0391052D01*
X0272609Y0391102D01*
X0272479Y0391155D01*
X0272352Y0391212D01*
X0272226Y0391273D01*
X0272101Y0391337D01*
X0271979Y0391405D01*
X0271858Y0391476D01*
X0271740Y0391550D01*
X0271624Y0391628D01*
X0271510Y0391709D01*
X0271398Y0391794D01*
X0271289Y0391881D01*
X0271182Y0391971D01*
X0271078Y0392065D01*
X0270977Y0392161D01*
X0270878Y0392261D01*
X0270782Y0392363D01*
X0270690Y0392467D01*
X0270600Y0392575D01*
X0270513Y0392685D01*
X0270430Y0392797D01*
X0270349Y0392911D01*
X0270272Y0393028D01*
X0270199Y0393147D01*
X0270128Y0393268D01*
X0270062Y0393391D01*
X0269998Y0393516D01*
X0269939Y0393642D01*
X0269883Y0393771D01*
X0269830Y0393900D01*
X0269782Y0394031D01*
X0269737Y0394164D01*
X0269696Y0394298D01*
X0269658Y0394433D01*
X0269625Y0394568D01*
X0269595Y0394705D01*
X0269569Y0394843D01*
X0269548Y0394981D01*
X0269530Y0395120D01*
X0269516Y0395259D01*
X0269506Y0395398D01*
X0269500Y0395538D01*
X0269498Y0395678D01*
D13*
X0270856Y0362765D02*
X0265856Y0362765D01*
X0263356Y0360265D01*
X0263356Y0345265D01*
X0265856Y0342765D01*
X0270856Y0342765D01*
X0273356Y0345265D01*
X0273356Y0360265D01*
X0270856Y0362765D01*
X0275856Y0362765D02*
X0280856Y0362765D01*
X0283356Y0360265D01*
X0285856Y0362765D01*
X0290856Y0362765D01*
X0293356Y0360265D01*
X0293356Y0345265D01*
X0290856Y0342765D01*
X0285856Y0342765D01*
X0283356Y0345265D01*
X0283356Y0360265D01*
X0283356Y0345265D02*
X0280856Y0342765D01*
X0275856Y0342765D01*
X0273356Y0345265D01*
X0242923Y0346860D02*
X0242923Y0348041D01*
X0241741Y0348041D01*
X0235442Y0359655D02*
X0230718Y0359655D01*
X0223237Y0364773D02*
X0223237Y0367135D01*
X0230718Y0372253D02*
X0235442Y0372253D01*
X0242923Y0367135D02*
X0242923Y0364773D01*
X0208671Y0348041D02*
X0207489Y0346860D01*
X0207489Y0313789D02*
X0207489Y0312608D01*
X0208671Y0312608D01*
X0241741Y0312608D02*
X0242923Y0312608D01*
X0242923Y0313789D01*
X0155769Y0326415D02*
X0136769Y0326415D01*
X0139269Y0329415D02*
X0137769Y0330915D01*
X0139269Y0332415D01*
X0137769Y0330915D02*
X0141269Y0330915D01*
X0136769Y0335415D02*
X0155769Y0335415D01*
X0415088Y0334793D02*
X0415088Y0329793D01*
X0417588Y0327293D01*
X0415088Y0324793D01*
X0415088Y0319793D01*
X0417588Y0317293D01*
X0415088Y0314793D01*
X0415088Y0309793D01*
X0417588Y0307293D01*
X0415088Y0304793D01*
X0415088Y0299793D01*
X0417588Y0297293D01*
X0415088Y0294793D01*
X0415088Y0289793D01*
X0417588Y0287293D01*
X0415088Y0284793D01*
X0415088Y0279793D01*
X0417588Y0277293D01*
X0422588Y0277293D01*
X0425088Y0279793D01*
X0425088Y0284793D01*
X0422588Y0287293D01*
X0425088Y0289793D01*
X0425088Y0294793D01*
X0422588Y0297293D01*
X0425088Y0299793D01*
X0425088Y0304793D01*
X0422588Y0307293D01*
X0425088Y0309793D01*
X0425088Y0314793D01*
X0422588Y0317293D01*
X0425088Y0319793D01*
X0425088Y0324793D01*
X0422588Y0327293D01*
X0425088Y0329793D01*
X0425088Y0334793D01*
X0422588Y0337293D01*
X0417588Y0337293D01*
X0415088Y0334793D01*
X0417588Y0270363D02*
X0422588Y0270363D01*
X0425088Y0267863D01*
X0425088Y0262863D01*
X0422588Y0260363D01*
X0425088Y0257863D01*
X0425088Y0252863D01*
X0422588Y0250363D01*
X0425088Y0247863D01*
X0425088Y0242863D01*
X0422588Y0240363D01*
X0425088Y0237863D01*
X0425088Y0232863D01*
X0422588Y0230363D01*
X0425088Y0227863D01*
X0425088Y0222863D01*
X0422588Y0220363D01*
X0425088Y0217863D01*
X0425088Y0212863D01*
X0422588Y0210363D01*
X0417588Y0210363D01*
X0415088Y0212863D01*
X0415088Y0217863D01*
X0417588Y0220363D01*
X0415088Y0222863D01*
X0415088Y0227863D01*
X0417588Y0230363D01*
X0415088Y0232863D01*
X0415088Y0237863D01*
X0417588Y0240363D01*
X0415088Y0242863D01*
X0415088Y0247863D01*
X0417588Y0250363D01*
X0415088Y0252863D01*
X0415088Y0257863D01*
X0417588Y0260363D01*
X0415088Y0262863D01*
X0415088Y0267863D01*
X0417588Y0270363D01*
D14*
X0374535Y0278417D02*
X0374535Y0279952D01*
X0373000Y0279952D01*
X0371465Y0281487D02*
X0371465Y0278417D01*
X0372233Y0277650D01*
X0373767Y0277650D01*
X0374535Y0278417D01*
X0374535Y0281487D02*
X0373767Y0282254D01*
X0372233Y0282254D01*
X0371465Y0281487D01*
X0369931Y0282254D02*
X0366861Y0282254D01*
X0366861Y0277650D01*
X0369931Y0277650D01*
X0368396Y0279952D02*
X0366861Y0279952D01*
X0365327Y0279952D02*
X0364559Y0279185D01*
X0362258Y0279185D01*
X0363792Y0279185D02*
X0365327Y0277650D01*
X0365327Y0279952D02*
X0365327Y0281487D01*
X0364559Y0282254D01*
X0362258Y0282254D01*
X0362258Y0277650D01*
X0360723Y0276883D02*
X0357654Y0276883D01*
X0356119Y0279185D02*
X0356119Y0282254D01*
X0356119Y0279185D02*
X0354584Y0277650D01*
X0353050Y0279185D01*
X0353050Y0282254D01*
X0236192Y0374697D02*
X0233123Y0374697D01*
X0234657Y0374697D02*
X0234657Y0379301D01*
X0233123Y0377767D01*
X0231588Y0378534D02*
X0231588Y0379301D01*
X0231588Y0378534D02*
X0230053Y0376999D01*
X0230053Y0374697D01*
X0230053Y0376999D02*
X0228519Y0378534D01*
X0228519Y0379301D01*
X0171626Y0341093D02*
X0171626Y0336489D01*
X0173160Y0336489D02*
X0170091Y0336489D01*
X0168556Y0337256D02*
X0167789Y0336489D01*
X0165487Y0336489D01*
X0165487Y0341093D01*
X0167789Y0341093D01*
X0168556Y0340325D01*
X0168556Y0339558D01*
X0167789Y0338791D01*
X0165487Y0338791D01*
X0167789Y0338791D02*
X0168556Y0338023D01*
X0168556Y0337256D01*
X0170091Y0339558D02*
X0171626Y0341093D01*
X0154460Y0323648D02*
X0152926Y0322113D01*
X0151391Y0322113D02*
X0151391Y0319044D01*
X0152926Y0319044D02*
X0155995Y0319044D01*
X0154460Y0319044D02*
X0154460Y0323648D01*
X0151391Y0322113D02*
X0149856Y0323648D01*
X0148322Y0322113D01*
X0148322Y0319044D01*
X0148322Y0321346D02*
X0151391Y0321346D01*
X0139459Y0402040D02*
X0137924Y0402040D01*
X0137157Y0402807D01*
X0135622Y0402807D02*
X0135622Y0403574D01*
X0134855Y0404342D01*
X0133320Y0404342D01*
X0132553Y0405109D01*
X0132553Y0405876D01*
X0133320Y0406644D01*
X0134855Y0406644D01*
X0135622Y0405876D01*
X0137157Y0405876D02*
X0137924Y0406644D01*
X0139459Y0406644D01*
X0140226Y0405876D01*
X0140226Y0405109D01*
X0139459Y0404342D01*
X0140226Y0403574D01*
X0140226Y0402807D01*
X0139459Y0402040D01*
X0139459Y0404342D02*
X0138691Y0404342D01*
X0135622Y0402807D02*
X0134855Y0402040D01*
X0133320Y0402040D01*
X0132553Y0402807D01*
X0131018Y0402807D02*
X0131018Y0406644D01*
X0127949Y0406644D02*
X0127949Y0402807D01*
X0128716Y0402040D01*
X0130251Y0402040D01*
X0131018Y0402807D01*
X0134087Y0401273D02*
X0134087Y0407411D01*
X0138125Y0409716D02*
X0141194Y0409716D01*
X0139660Y0411250D02*
X0139660Y0408181D01*
X0129383Y0409716D02*
X0126314Y0409716D01*
X0406508Y0422590D02*
X0409578Y0422590D01*
X0408043Y0424124D02*
X0408043Y0421055D01*
X0408244Y0425662D02*
X0409778Y0425662D01*
X0410546Y0426429D01*
X0410546Y0430266D01*
X0412080Y0429498D02*
X0412848Y0430266D01*
X0414382Y0430266D01*
X0415150Y0429498D01*
X0416684Y0428731D02*
X0418219Y0430266D01*
X0418219Y0425662D01*
X0416684Y0425662D02*
X0419754Y0425662D01*
X0418319Y0422590D02*
X0421389Y0422590D01*
X0415150Y0426429D02*
X0415150Y0427197D01*
X0414382Y0427964D01*
X0412848Y0427964D01*
X0412080Y0428731D01*
X0412080Y0429498D01*
X0413615Y0431033D02*
X0413615Y0424895D01*
X0412848Y0425662D02*
X0414382Y0425662D01*
X0415150Y0426429D01*
X0412848Y0425662D02*
X0412080Y0426429D01*
X0408244Y0425662D02*
X0407476Y0426429D01*
X0407476Y0430266D01*
X0413615Y0147569D02*
X0413615Y0141430D01*
X0412848Y0142197D02*
X0414382Y0142197D01*
X0415150Y0142965D01*
X0415150Y0143732D01*
X0414382Y0144499D01*
X0412848Y0144499D01*
X0412080Y0145267D01*
X0412080Y0146034D01*
X0412848Y0146801D01*
X0414382Y0146801D01*
X0415150Y0146034D01*
X0416684Y0146034D02*
X0417452Y0146801D01*
X0418986Y0146801D01*
X0419754Y0146034D01*
X0419754Y0145267D01*
X0416684Y0142197D01*
X0419754Y0142197D01*
X0418319Y0139125D02*
X0421389Y0139125D01*
X0412848Y0142197D02*
X0412080Y0142965D01*
X0410546Y0142965D02*
X0409778Y0142197D01*
X0408244Y0142197D01*
X0407476Y0142965D01*
X0407476Y0146801D01*
X0410546Y0146801D02*
X0410546Y0142965D01*
X0408043Y0140660D02*
X0408043Y0137591D01*
X0406508Y0139125D02*
X0409578Y0139125D01*
X0141194Y0126251D02*
X0138125Y0126251D01*
X0139660Y0127786D02*
X0139660Y0124717D01*
X0139459Y0123179D02*
X0137157Y0120877D01*
X0140226Y0120877D01*
X0139459Y0118575D02*
X0139459Y0123179D01*
X0135622Y0122412D02*
X0134855Y0123179D01*
X0133320Y0123179D01*
X0132553Y0122412D01*
X0132553Y0121645D01*
X0133320Y0120877D01*
X0134855Y0120877D01*
X0135622Y0120110D01*
X0135622Y0119343D01*
X0134855Y0118575D01*
X0133320Y0118575D01*
X0132553Y0119343D01*
X0131018Y0119343D02*
X0131018Y0123179D01*
X0127949Y0123179D02*
X0127949Y0119343D01*
X0128716Y0118575D01*
X0130251Y0118575D01*
X0131018Y0119343D01*
X0134087Y0117808D02*
X0134087Y0123947D01*
X0129383Y0126251D02*
X0126314Y0126251D01*
D15*
X0122844Y0123828D02*
X0146466Y0123828D01*
X0146466Y0139576D01*
X0122844Y0139576D01*
X0122844Y0123828D01*
X0122056Y0143710D02*
X0122056Y0145678D01*
X0122056Y0143710D02*
X0124419Y0143710D01*
X0133867Y0143710D02*
X0135836Y0143710D01*
X0135836Y0145285D01*
X0141988Y0156500D02*
X0141988Y0158614D01*
X0142692Y0159319D01*
X0144102Y0159319D01*
X0144806Y0158614D01*
X0144806Y0156500D01*
X0145452Y0156558D02*
X0146861Y0156558D01*
X0147566Y0157263D01*
X0146216Y0156500D02*
X0141988Y0156500D01*
X0144747Y0157263D02*
X0144747Y0160082D01*
X0145452Y0160786D01*
X0146861Y0160786D01*
X0147566Y0160082D01*
X0146216Y0159319D02*
X0144806Y0157909D01*
X0144747Y0157263D02*
X0145452Y0156558D01*
X0149097Y0156558D02*
X0151916Y0156558D01*
X0150507Y0156558D02*
X0150507Y0160786D01*
X0149097Y0159377D01*
X0146216Y0160850D02*
X0146216Y0163669D01*
X0146216Y0162259D02*
X0141988Y0162259D01*
X0143397Y0160850D01*
X0142692Y0165200D02*
X0141988Y0165905D01*
X0141988Y0167314D01*
X0142692Y0168019D01*
X0145511Y0165200D01*
X0146216Y0165905D01*
X0146216Y0167314D01*
X0145511Y0168019D01*
X0142692Y0168019D01*
X0140518Y0167188D02*
X0137700Y0167188D01*
X0139109Y0167188D02*
X0139109Y0171416D01*
X0137700Y0170007D01*
X0136168Y0167188D02*
X0133349Y0167188D01*
X0134759Y0167188D02*
X0134759Y0171416D01*
X0133349Y0170007D01*
X0131818Y0170712D02*
X0131818Y0169302D01*
X0131113Y0168598D01*
X0128999Y0168598D01*
X0130409Y0168598D02*
X0131818Y0167188D01*
X0128999Y0167188D02*
X0128999Y0171416D01*
X0131113Y0171416D01*
X0131818Y0170712D01*
X0142692Y0165200D02*
X0145511Y0165200D01*
X0135836Y0161820D02*
X0133867Y0161820D01*
X0135836Y0161820D02*
X0135836Y0160245D01*
X0123631Y0161820D02*
X0122056Y0161820D01*
X0122056Y0159852D01*
X0147893Y0139400D02*
X0148598Y0140105D01*
X0149303Y0140105D01*
X0150007Y0139400D01*
X0150007Y0137991D01*
X0149303Y0137286D01*
X0148598Y0137286D01*
X0147893Y0137991D01*
X0147893Y0139400D01*
X0150007Y0139400D02*
X0150712Y0140105D01*
X0151417Y0140105D01*
X0152121Y0139400D01*
X0152121Y0137991D01*
X0151417Y0137286D01*
X0150712Y0137286D01*
X0150007Y0137991D01*
X0148598Y0135755D02*
X0147893Y0135050D01*
X0147893Y0132936D01*
X0152121Y0132936D01*
X0152121Y0135050D01*
X0151417Y0135755D01*
X0148598Y0135755D01*
X0163641Y0141515D02*
X0163641Y0142924D01*
X0164346Y0143629D01*
X0165051Y0145160D02*
X0163641Y0146570D01*
X0167869Y0146570D01*
X0167869Y0147979D02*
X0167869Y0145160D01*
X0167165Y0143629D02*
X0167869Y0142924D01*
X0167869Y0141515D01*
X0167165Y0140810D01*
X0164346Y0140810D01*
X0163641Y0141515D01*
X0163641Y0149511D02*
X0163641Y0152329D01*
X0164346Y0152329D01*
X0167165Y0149511D01*
X0167869Y0149511D01*
X0156266Y0157263D02*
X0156266Y0157968D01*
X0155562Y0158672D01*
X0153448Y0158672D01*
X0153448Y0157263D01*
X0154152Y0156558D01*
X0155562Y0156558D01*
X0156266Y0157263D01*
X0153448Y0158672D02*
X0154857Y0160082D01*
X0156266Y0160786D01*
X0181220Y0245535D02*
X0180516Y0246239D01*
X0181220Y0245535D02*
X0182630Y0245535D01*
X0183334Y0246239D01*
X0183334Y0246944D01*
X0182630Y0247649D01*
X0181220Y0247649D01*
X0180516Y0248353D01*
X0180516Y0249058D01*
X0181220Y0249763D01*
X0182630Y0249763D01*
X0183334Y0249058D01*
X0184866Y0249763D02*
X0184866Y0245535D01*
X0186275Y0246944D01*
X0187685Y0245535D01*
X0187685Y0249763D01*
X0189216Y0249058D02*
X0189921Y0249763D01*
X0191330Y0249763D01*
X0192035Y0249058D01*
X0192035Y0248353D01*
X0189216Y0245535D01*
X0192035Y0245535D01*
X0215921Y0289197D02*
X0218740Y0289197D01*
X0219444Y0289901D01*
X0219444Y0291311D01*
X0218740Y0292015D01*
X0217330Y0293547D02*
X0217330Y0296365D01*
X0215216Y0295661D02*
X0217330Y0293547D01*
X0215921Y0292015D02*
X0215216Y0291311D01*
X0215216Y0289901D01*
X0215921Y0289197D01*
X0215216Y0295661D02*
X0219444Y0295661D01*
X0206452Y0298602D02*
X0206452Y0300011D01*
X0205747Y0300716D01*
X0206452Y0302247D02*
X0203633Y0305066D01*
X0202929Y0305066D01*
X0202224Y0304361D01*
X0202224Y0302952D01*
X0202929Y0302247D01*
X0202929Y0300716D02*
X0202224Y0300011D01*
X0202224Y0298602D01*
X0202929Y0297897D01*
X0205747Y0297897D01*
X0206452Y0298602D01*
X0206452Y0302247D02*
X0206452Y0305066D01*
X0237657Y0295267D02*
X0238362Y0295972D01*
X0239066Y0295972D01*
X0239771Y0295267D01*
X0240476Y0295972D01*
X0241180Y0295972D01*
X0241885Y0295267D01*
X0241885Y0293858D01*
X0241180Y0293153D01*
X0241180Y0291622D02*
X0241885Y0290917D01*
X0241885Y0289508D01*
X0241180Y0288803D01*
X0238362Y0288803D01*
X0237657Y0289508D01*
X0237657Y0290917D01*
X0238362Y0291622D01*
X0238362Y0293153D02*
X0237657Y0293858D01*
X0237657Y0295267D01*
X0239771Y0295267D02*
X0239771Y0294562D01*
X0245279Y0290790D02*
X0245279Y0287972D01*
X0245984Y0287267D01*
X0247393Y0287267D01*
X0248098Y0287972D01*
X0249630Y0287267D02*
X0252448Y0290086D01*
X0252448Y0290790D01*
X0251744Y0291495D01*
X0250334Y0291495D01*
X0249630Y0290790D01*
X0248098Y0290790D02*
X0247393Y0291495D01*
X0245984Y0291495D01*
X0245279Y0290790D01*
X0249630Y0287267D02*
X0252448Y0287267D01*
X0253980Y0287267D02*
X0256798Y0290086D01*
X0256798Y0290790D01*
X0256094Y0291495D01*
X0254684Y0291495D01*
X0253980Y0290790D01*
X0253980Y0287267D02*
X0256798Y0287267D01*
X0255428Y0284802D02*
X0255428Y0280574D01*
X0254019Y0280574D02*
X0256837Y0280574D01*
X0258369Y0280574D02*
X0261188Y0283393D01*
X0261188Y0284097D01*
X0260483Y0284802D01*
X0259074Y0284802D01*
X0258369Y0284097D01*
X0255428Y0284802D02*
X0254019Y0283393D01*
X0252487Y0284097D02*
X0252487Y0282688D01*
X0251783Y0281983D01*
X0249669Y0281983D01*
X0249669Y0280574D02*
X0249669Y0284802D01*
X0251783Y0284802D01*
X0252487Y0284097D01*
X0251078Y0281983D02*
X0252487Y0280574D01*
X0251783Y0274763D02*
X0252487Y0274058D01*
X0252487Y0272649D01*
X0251783Y0271944D01*
X0249669Y0271944D01*
X0251078Y0271944D02*
X0252487Y0270535D01*
X0254019Y0270535D02*
X0256837Y0270535D01*
X0255428Y0270535D02*
X0255428Y0274763D01*
X0254019Y0273353D01*
X0251783Y0274763D02*
X0249669Y0274763D01*
X0249669Y0270535D01*
X0258369Y0271239D02*
X0259074Y0270535D01*
X0260483Y0270535D01*
X0261188Y0271239D01*
X0261188Y0271944D01*
X0260483Y0272649D01*
X0259778Y0272649D01*
X0260483Y0272649D02*
X0261188Y0273353D01*
X0261188Y0274058D01*
X0260483Y0274763D01*
X0259074Y0274763D01*
X0258369Y0274058D01*
X0266938Y0270088D02*
X0266938Y0268119D01*
X0261188Y0280574D02*
X0258369Y0280574D01*
X0269744Y0282205D02*
X0270448Y0281500D01*
X0273267Y0281500D01*
X0273972Y0282205D01*
X0273972Y0283614D01*
X0273267Y0284319D01*
X0273972Y0285850D02*
X0271153Y0288669D01*
X0270448Y0288669D01*
X0269744Y0287964D01*
X0269744Y0286555D01*
X0270448Y0285850D01*
X0270448Y0284319D02*
X0269744Y0283614D01*
X0269744Y0282205D01*
X0273972Y0285850D02*
X0273972Y0288669D01*
X0273972Y0290200D02*
X0273972Y0293019D01*
X0273972Y0291610D02*
X0269744Y0291610D01*
X0271153Y0290200D01*
X0275960Y0294354D02*
X0278779Y0294354D01*
X0279484Y0295058D01*
X0279484Y0296468D01*
X0278779Y0297172D01*
X0279484Y0298704D02*
X0279484Y0301522D01*
X0279484Y0300113D02*
X0275256Y0300113D01*
X0276665Y0298704D01*
X0275960Y0297172D02*
X0275256Y0296468D01*
X0275256Y0295058D01*
X0275960Y0294354D01*
X0275960Y0303054D02*
X0276665Y0303054D01*
X0277370Y0303759D01*
X0277370Y0305168D01*
X0278074Y0305873D01*
X0278779Y0305873D01*
X0279484Y0305168D01*
X0279484Y0303759D01*
X0278779Y0303054D01*
X0278074Y0303054D01*
X0277370Y0303759D01*
X0277370Y0305168D02*
X0276665Y0305873D01*
X0275960Y0305873D01*
X0275256Y0305168D01*
X0275256Y0303759D01*
X0275960Y0303054D01*
X0275023Y0308527D02*
X0277137Y0308527D01*
X0277842Y0309232D01*
X0277842Y0312050D01*
X0277137Y0312755D01*
X0275023Y0312755D01*
X0275023Y0308527D01*
X0273492Y0308527D02*
X0270673Y0308527D01*
X0270673Y0312755D01*
X0273492Y0312755D01*
X0272083Y0310641D02*
X0270673Y0310641D01*
X0269142Y0308527D02*
X0266323Y0308527D01*
X0266323Y0312755D01*
X0265263Y0312755D02*
X0262444Y0312755D01*
X0262444Y0310641D01*
X0263854Y0311346D01*
X0264558Y0311346D01*
X0265263Y0310641D01*
X0265263Y0309232D01*
X0264558Y0308527D01*
X0263149Y0308527D01*
X0262444Y0309232D01*
X0260913Y0308527D02*
X0259504Y0309936D01*
X0260208Y0309936D02*
X0258094Y0309936D01*
X0258094Y0308527D02*
X0258094Y0312755D01*
X0260208Y0312755D01*
X0260913Y0312050D01*
X0260913Y0310641D01*
X0260208Y0309936D01*
X0260913Y0317582D02*
X0259504Y0318991D01*
X0260208Y0318991D02*
X0258094Y0318991D01*
X0258094Y0317582D02*
X0258094Y0321810D01*
X0260208Y0321810D01*
X0260913Y0321105D01*
X0260913Y0319696D01*
X0260208Y0318991D01*
X0262444Y0319696D02*
X0262444Y0318287D01*
X0263149Y0317582D01*
X0264558Y0317582D01*
X0265263Y0318287D01*
X0265263Y0318991D01*
X0264558Y0319696D01*
X0262444Y0319696D01*
X0263854Y0321105D01*
X0265263Y0321810D01*
X0266323Y0321810D02*
X0266323Y0317582D01*
X0269142Y0317582D01*
X0270673Y0317582D02*
X0273492Y0317582D01*
X0275023Y0317582D02*
X0275023Y0321810D01*
X0277137Y0321810D01*
X0277842Y0321105D01*
X0277842Y0318287D01*
X0277137Y0317582D01*
X0275023Y0317582D01*
X0272083Y0319696D02*
X0270673Y0319696D01*
X0270673Y0321810D02*
X0270673Y0317582D01*
X0270673Y0321810D02*
X0273492Y0321810D01*
X0279374Y0321105D02*
X0280078Y0321810D01*
X0281488Y0321810D01*
X0282192Y0321105D01*
X0282192Y0320401D01*
X0279374Y0317582D01*
X0282192Y0317582D01*
X0281488Y0312755D02*
X0282192Y0312050D01*
X0282192Y0311346D01*
X0281488Y0310641D01*
X0282192Y0309936D01*
X0282192Y0309232D01*
X0281488Y0308527D01*
X0280078Y0308527D01*
X0279374Y0309232D01*
X0280783Y0310641D02*
X0281488Y0310641D01*
X0281488Y0312755D02*
X0280078Y0312755D01*
X0279374Y0312050D01*
X0285298Y0334511D02*
X0285298Y0338739D01*
X0287413Y0338739D01*
X0288117Y0338034D01*
X0288117Y0336625D01*
X0287413Y0335920D01*
X0285298Y0335920D01*
X0286708Y0335920D02*
X0288117Y0334511D01*
X0289649Y0334511D02*
X0292467Y0334511D01*
X0291058Y0334511D02*
X0291058Y0338739D01*
X0289649Y0337330D01*
X0271212Y0365515D02*
X0268210Y0365515D01*
X0269711Y0365515D02*
X0269711Y0370019D01*
X0268210Y0368518D01*
X0266608Y0370019D02*
X0265107Y0370019D01*
X0265858Y0370019D02*
X0265858Y0366266D01*
X0265107Y0365515D01*
X0264356Y0365515D01*
X0263606Y0366266D01*
X0247979Y0380098D02*
X0247979Y0380802D01*
X0247274Y0381507D01*
X0245160Y0381507D01*
X0245160Y0380098D01*
X0245865Y0379393D01*
X0247274Y0379393D01*
X0247979Y0380098D01*
X0246570Y0382916D02*
X0247979Y0383621D01*
X0246570Y0382916D02*
X0245160Y0381507D01*
X0243629Y0382916D02*
X0242924Y0383621D01*
X0241515Y0383621D01*
X0240810Y0382916D01*
X0240810Y0380098D01*
X0241515Y0379393D01*
X0242924Y0379393D01*
X0243629Y0380098D01*
X0232625Y0380491D02*
X0231920Y0379787D01*
X0230511Y0379787D01*
X0229806Y0380491D01*
X0229806Y0381901D02*
X0231215Y0382605D01*
X0231920Y0382605D01*
X0232625Y0381901D01*
X0232625Y0380491D01*
X0229806Y0381901D02*
X0229806Y0384015D01*
X0232625Y0384015D01*
X0228275Y0383310D02*
X0227570Y0384015D01*
X0226161Y0384015D01*
X0225456Y0383310D01*
X0225456Y0380491D01*
X0226161Y0379787D01*
X0227570Y0379787D01*
X0228275Y0380491D01*
X0206767Y0360786D02*
X0206767Y0356558D01*
X0205358Y0356558D02*
X0208176Y0356558D01*
X0205358Y0359377D02*
X0206767Y0360786D01*
X0203826Y0360082D02*
X0203122Y0360786D01*
X0201712Y0360786D01*
X0201008Y0360082D01*
X0201008Y0357263D01*
X0201712Y0356558D01*
X0203122Y0356558D01*
X0203826Y0357263D01*
X0173828Y0332391D02*
X0173828Y0327470D01*
X0170035Y0326904D02*
X0165807Y0326904D01*
X0167216Y0325495D01*
X0165954Y0327470D02*
X0165954Y0332391D01*
X0166723Y0329419D02*
X0166725Y0329445D01*
X0166731Y0329471D01*
X0166740Y0329495D01*
X0166754Y0329518D01*
X0166770Y0329539D01*
X0166789Y0329557D01*
X0166811Y0329571D01*
X0166835Y0329583D01*
X0166860Y0329591D01*
X0166886Y0329595D01*
X0166912Y0329595D01*
X0166938Y0329591D01*
X0166963Y0329583D01*
X0166987Y0329571D01*
X0167009Y0329557D01*
X0167028Y0329539D01*
X0167044Y0329518D01*
X0167058Y0329495D01*
X0167067Y0329471D01*
X0167073Y0329445D01*
X0167075Y0329419D01*
X0167073Y0329393D01*
X0167067Y0329367D01*
X0167058Y0329343D01*
X0167044Y0329320D01*
X0167028Y0329299D01*
X0167009Y0329281D01*
X0166987Y0329267D01*
X0166963Y0329255D01*
X0166938Y0329247D01*
X0166912Y0329243D01*
X0166886Y0329243D01*
X0166860Y0329247D01*
X0166835Y0329255D01*
X0166811Y0329267D01*
X0166789Y0329281D01*
X0166770Y0329299D01*
X0166754Y0329320D01*
X0166740Y0329343D01*
X0166731Y0329367D01*
X0166725Y0329393D01*
X0166723Y0329419D01*
X0170035Y0328314D02*
X0170035Y0325495D01*
X0170035Y0323963D02*
X0170035Y0321145D01*
X0170035Y0322554D02*
X0165807Y0322554D01*
X0167216Y0321145D01*
X0166511Y0319613D02*
X0165807Y0318909D01*
X0165807Y0317499D01*
X0166511Y0316795D01*
X0169330Y0316795D01*
X0170035Y0317499D01*
X0170035Y0318909D01*
X0169330Y0319613D01*
X0164802Y0315263D02*
X0161984Y0315263D01*
X0161279Y0314558D01*
X0161279Y0313149D01*
X0161984Y0312444D01*
X0162688Y0312444D01*
X0163393Y0313149D01*
X0163393Y0315263D01*
X0164802Y0315263D02*
X0165507Y0314558D01*
X0165507Y0313149D01*
X0164802Y0312444D01*
X0164802Y0310913D02*
X0165507Y0310208D01*
X0165507Y0308799D01*
X0164802Y0308094D01*
X0161984Y0308094D01*
X0161279Y0308799D01*
X0161279Y0310208D01*
X0161984Y0310913D01*
X0126763Y0371519D02*
X0125354Y0371519D01*
X0124649Y0372224D01*
X0125354Y0373633D02*
X0127468Y0373633D01*
X0127468Y0375042D02*
X0126763Y0375747D01*
X0125354Y0375747D01*
X0124649Y0375042D01*
X0124649Y0374338D01*
X0125354Y0373633D01*
X0123118Y0373633D02*
X0122413Y0372928D01*
X0120299Y0372928D01*
X0120299Y0371519D02*
X0120299Y0375747D01*
X0122413Y0375747D01*
X0123118Y0375042D01*
X0123118Y0373633D01*
X0121708Y0372928D02*
X0123118Y0371519D01*
X0126763Y0371519D02*
X0127468Y0372224D01*
X0127468Y0375042D01*
X0123631Y0383080D02*
X0121663Y0383080D01*
X0121663Y0384655D01*
X0131697Y0388759D02*
X0131697Y0391578D01*
X0132401Y0392282D01*
X0133811Y0392282D01*
X0134515Y0391578D01*
X0136047Y0390873D02*
X0137456Y0392282D01*
X0137456Y0388054D01*
X0137574Y0387349D02*
X0138279Y0387349D01*
X0138984Y0386645D01*
X0138984Y0385235D01*
X0138279Y0384531D01*
X0137574Y0384531D01*
X0136870Y0385235D01*
X0136870Y0386645D01*
X0137574Y0387349D01*
X0138866Y0388054D02*
X0136047Y0388054D01*
X0134515Y0388759D02*
X0133811Y0388054D01*
X0132401Y0388054D01*
X0131697Y0388759D01*
X0135442Y0385048D02*
X0135442Y0383080D01*
X0133867Y0383080D01*
X0136870Y0382294D02*
X0137574Y0382999D01*
X0138984Y0382999D01*
X0139688Y0382294D01*
X0139688Y0380180D01*
X0141098Y0380180D02*
X0136870Y0380180D01*
X0136870Y0382294D01*
X0139688Y0381590D02*
X0141098Y0382999D01*
X0140393Y0384531D02*
X0139688Y0384531D01*
X0138984Y0385235D01*
X0138984Y0386645D02*
X0139688Y0387349D01*
X0140393Y0387349D01*
X0141098Y0386645D01*
X0141098Y0385235D01*
X0140393Y0384531D01*
X0141102Y0388054D02*
X0140397Y0388759D01*
X0141102Y0388054D02*
X0142511Y0388054D01*
X0143216Y0388759D01*
X0143216Y0389464D01*
X0142511Y0390168D01*
X0141806Y0390168D01*
X0142511Y0390168D02*
X0143216Y0390873D01*
X0143216Y0391578D01*
X0142511Y0392282D01*
X0141102Y0392282D01*
X0140397Y0391578D01*
X0135442Y0399222D02*
X0135442Y0401190D01*
X0133080Y0401190D01*
X0123631Y0401190D02*
X0121663Y0401190D01*
X0121663Y0399615D01*
X0122844Y0407293D02*
X0146466Y0407293D01*
X0146466Y0423041D01*
X0122844Y0423041D01*
X0122844Y0407293D01*
X0152618Y0407701D02*
X0152618Y0409815D01*
X0153322Y0410519D01*
X0156141Y0410519D01*
X0156846Y0409815D01*
X0156846Y0407701D01*
X0152618Y0407701D01*
X0152618Y0412051D02*
X0152618Y0414869D01*
X0153322Y0414869D01*
X0156141Y0412051D01*
X0156846Y0412051D01*
X0168366Y0406291D02*
X0170480Y0404177D01*
X0170480Y0406995D01*
X0172594Y0406291D02*
X0168366Y0406291D01*
X0168366Y0401236D02*
X0172594Y0401236D01*
X0172594Y0399827D02*
X0172594Y0402645D01*
X0169775Y0399827D02*
X0168366Y0401236D01*
X0169070Y0398295D02*
X0168366Y0397590D01*
X0168366Y0396181D01*
X0169070Y0395476D01*
X0171889Y0395476D01*
X0172594Y0396181D01*
X0172594Y0397590D01*
X0171889Y0398295D01*
X0276361Y0421043D02*
X0277066Y0420338D01*
X0277771Y0420338D01*
X0278475Y0421043D01*
X0278475Y0424566D01*
X0277771Y0424566D02*
X0279180Y0424566D01*
X0280712Y0423861D02*
X0281416Y0424566D01*
X0282826Y0424566D01*
X0283530Y0423861D01*
X0283530Y0423157D01*
X0282826Y0422452D01*
X0283530Y0421747D01*
X0283530Y0421043D01*
X0282826Y0420338D01*
X0281416Y0420338D01*
X0280712Y0421043D01*
X0282121Y0422452D02*
X0282826Y0422452D01*
X0380964Y0406291D02*
X0380964Y0404881D01*
X0381669Y0404177D01*
X0382374Y0404177D01*
X0383078Y0404881D01*
X0383078Y0406291D01*
X0383783Y0406995D01*
X0384488Y0406995D01*
X0385192Y0406291D01*
X0385192Y0404881D01*
X0384488Y0404177D01*
X0383783Y0404177D01*
X0383078Y0404881D01*
X0383078Y0406291D02*
X0382374Y0406995D01*
X0381669Y0406995D01*
X0380964Y0406291D01*
X0381669Y0402645D02*
X0380964Y0401941D01*
X0380964Y0400531D01*
X0381669Y0399827D01*
X0384488Y0399827D01*
X0385192Y0400531D01*
X0385192Y0401941D01*
X0384488Y0402645D01*
X0396712Y0407701D02*
X0396712Y0409815D01*
X0397417Y0410519D01*
X0400236Y0410519D01*
X0400940Y0409815D01*
X0400940Y0407701D01*
X0396712Y0407701D01*
X0398122Y0412051D02*
X0396712Y0413460D01*
X0400940Y0413460D01*
X0400940Y0412051D02*
X0400940Y0414869D01*
X0402371Y0409261D02*
X0402371Y0425009D01*
X0425993Y0425009D01*
X0425993Y0409261D01*
X0402371Y0409261D01*
X0405295Y0400944D02*
X0404590Y0400239D01*
X0404590Y0397420D01*
X0405295Y0396716D01*
X0406704Y0396716D01*
X0407409Y0397420D01*
X0408940Y0397420D02*
X0408940Y0396716D01*
X0408940Y0397420D02*
X0411759Y0400239D01*
X0411759Y0400944D01*
X0408940Y0400944D01*
X0407409Y0400239D02*
X0406704Y0400944D01*
X0405295Y0400944D01*
X0413001Y0403552D02*
X0413001Y0405127D01*
X0414970Y0405127D01*
X0424419Y0405127D02*
X0426781Y0405127D01*
X0426781Y0403159D01*
X0426781Y0388986D02*
X0426781Y0387017D01*
X0425206Y0387017D01*
X0418019Y0379767D02*
X0418019Y0379062D01*
X0417314Y0378357D01*
X0418019Y0377653D01*
X0418019Y0376948D01*
X0417314Y0376243D01*
X0415905Y0376243D01*
X0415200Y0376948D01*
X0413669Y0376243D02*
X0412259Y0377653D01*
X0412964Y0377653D02*
X0410850Y0377653D01*
X0410850Y0376243D02*
X0410850Y0380471D01*
X0412964Y0380471D01*
X0413669Y0379767D01*
X0413669Y0378357D01*
X0412964Y0377653D01*
X0415200Y0379767D02*
X0415905Y0380471D01*
X0417314Y0380471D01*
X0418019Y0379767D01*
X0417314Y0378357D02*
X0416610Y0378357D01*
X0414970Y0387017D02*
X0413001Y0387017D01*
X0413001Y0388592D01*
X0406846Y0389255D02*
X0406846Y0392074D01*
X0406846Y0389255D02*
X0404027Y0392074D01*
X0403322Y0392074D01*
X0402618Y0391369D01*
X0402618Y0389960D01*
X0403322Y0389255D01*
X0403322Y0387723D02*
X0404732Y0387723D01*
X0405436Y0387019D01*
X0405436Y0384905D01*
X0405436Y0386314D02*
X0406846Y0387723D01*
X0406846Y0384905D02*
X0402618Y0384905D01*
X0402618Y0387019D01*
X0403322Y0387723D01*
X0409416Y0312626D02*
X0408666Y0311875D01*
X0408666Y0310374D01*
X0409416Y0309623D01*
X0410167Y0309623D01*
X0410917Y0310374D01*
X0410917Y0312626D01*
X0409416Y0312626D02*
X0412419Y0312626D01*
X0413169Y0311875D01*
X0413169Y0310374D01*
X0412419Y0309623D01*
X0410917Y0308022D02*
X0411668Y0307271D01*
X0411668Y0305019D01*
X0413169Y0305019D02*
X0408666Y0305019D01*
X0408666Y0307271D01*
X0409416Y0308022D01*
X0410917Y0308022D01*
X0408666Y0303418D02*
X0408666Y0301917D01*
X0408666Y0302667D02*
X0412419Y0302667D01*
X0413169Y0301917D01*
X0413169Y0301166D01*
X0412419Y0300415D01*
X0406266Y0294645D02*
X0403448Y0294645D01*
X0403448Y0292531D01*
X0404857Y0293235D01*
X0405562Y0293235D01*
X0406266Y0292531D01*
X0406266Y0291121D01*
X0405562Y0290417D01*
X0404152Y0290417D01*
X0403448Y0291121D01*
X0401916Y0290417D02*
X0399097Y0290417D01*
X0400507Y0290417D02*
X0400507Y0294645D01*
X0399097Y0293235D01*
X0397566Y0293940D02*
X0396861Y0294645D01*
X0395452Y0294645D01*
X0394747Y0293940D01*
X0394747Y0291121D01*
X0395452Y0290417D01*
X0396861Y0290417D01*
X0397566Y0291121D01*
X0375755Y0287609D02*
X0372936Y0287609D01*
X0375050Y0289723D01*
X0375050Y0285495D01*
X0371404Y0285495D02*
X0368586Y0285495D01*
X0371404Y0288314D01*
X0371404Y0289019D01*
X0370700Y0289723D01*
X0369290Y0289723D01*
X0368586Y0289019D01*
X0367054Y0289019D02*
X0366350Y0289723D01*
X0364940Y0289723D01*
X0364236Y0289019D01*
X0364236Y0286200D01*
X0364940Y0285495D01*
X0366350Y0285495D01*
X0367054Y0286200D01*
X0365346Y0252322D02*
X0366050Y0251617D01*
X0366050Y0250912D01*
X0365346Y0250208D01*
X0366050Y0249503D01*
X0366050Y0248798D01*
X0365346Y0248094D01*
X0363936Y0248094D01*
X0363232Y0248798D01*
X0361700Y0248094D02*
X0358882Y0248094D01*
X0361700Y0250912D01*
X0361700Y0251617D01*
X0360996Y0252322D01*
X0359586Y0252322D01*
X0358882Y0251617D01*
X0357350Y0251617D02*
X0356645Y0252322D01*
X0355236Y0252322D01*
X0354531Y0251617D01*
X0354531Y0248798D01*
X0355236Y0248094D01*
X0356645Y0248094D01*
X0357350Y0248798D01*
X0363232Y0251617D02*
X0363936Y0252322D01*
X0365346Y0252322D01*
X0365346Y0250208D02*
X0364641Y0250208D01*
X0336293Y0238633D02*
X0335588Y0239338D01*
X0334179Y0239338D01*
X0333474Y0238633D01*
X0331942Y0239338D02*
X0330533Y0239338D01*
X0331238Y0239338D02*
X0331238Y0235814D01*
X0330533Y0235110D01*
X0329828Y0235110D01*
X0329124Y0235814D01*
X0333474Y0235110D02*
X0336293Y0237928D01*
X0336293Y0238633D01*
X0336293Y0235110D02*
X0333474Y0235110D01*
X0295822Y0268425D02*
X0295822Y0269834D01*
X0295117Y0270539D01*
X0295822Y0272071D02*
X0295822Y0274889D01*
X0295822Y0273480D02*
X0291594Y0273480D01*
X0293003Y0272071D01*
X0292299Y0270539D02*
X0291594Y0269834D01*
X0291594Y0268425D01*
X0292299Y0267720D01*
X0295117Y0267720D01*
X0295822Y0268425D01*
X0291295Y0267924D02*
X0290590Y0268629D01*
X0291295Y0267924D02*
X0291295Y0266515D01*
X0290590Y0265810D01*
X0287771Y0265810D01*
X0287067Y0266515D01*
X0287067Y0267924D01*
X0287771Y0268629D01*
X0287771Y0270160D02*
X0287067Y0270865D01*
X0287067Y0272274D01*
X0287771Y0272979D01*
X0288476Y0272979D01*
X0291295Y0270160D01*
X0291295Y0272979D01*
X0290590Y0274511D02*
X0287771Y0277329D01*
X0290590Y0277329D01*
X0291295Y0276625D01*
X0291295Y0275215D01*
X0290590Y0274511D01*
X0287771Y0274511D01*
X0287067Y0275215D01*
X0287067Y0276625D01*
X0287771Y0277329D01*
X0291594Y0277125D02*
X0292299Y0276421D01*
X0293003Y0276421D01*
X0293708Y0277125D01*
X0293708Y0279239D01*
X0292299Y0279239D02*
X0291594Y0278535D01*
X0291594Y0277125D01*
X0292299Y0279239D02*
X0295117Y0279239D01*
X0295822Y0278535D01*
X0295822Y0277125D01*
X0295117Y0276421D01*
X0282293Y0278749D02*
X0282293Y0281111D01*
X0281899Y0269694D02*
X0281899Y0267726D01*
X0376944Y0156266D02*
X0376240Y0155562D01*
X0376240Y0154152D01*
X0376944Y0153448D01*
X0376944Y0156266D02*
X0377649Y0156266D01*
X0380468Y0153448D01*
X0380468Y0156266D01*
X0380468Y0151916D02*
X0380468Y0149097D01*
X0380468Y0150507D02*
X0376240Y0150507D01*
X0377649Y0149097D01*
X0376944Y0147566D02*
X0376240Y0146861D01*
X0376240Y0145452D01*
X0376944Y0144747D01*
X0379763Y0144747D01*
X0380468Y0145452D01*
X0380468Y0146861D01*
X0379763Y0147566D01*
X0391988Y0144042D02*
X0392692Y0142633D01*
X0394102Y0141223D01*
X0394102Y0143337D01*
X0394806Y0144042D01*
X0395511Y0144042D01*
X0396216Y0143337D01*
X0396216Y0141928D01*
X0395511Y0141223D01*
X0394102Y0141223D01*
X0395511Y0139692D02*
X0392692Y0139692D01*
X0391988Y0138987D01*
X0391988Y0136873D01*
X0396216Y0136873D01*
X0396216Y0138987D01*
X0395511Y0139692D01*
X0402371Y0141545D02*
X0425993Y0141545D01*
X0425993Y0125797D01*
X0402371Y0125797D01*
X0402371Y0141545D01*
X0413395Y0143710D02*
X0413395Y0145678D01*
X0413395Y0143710D02*
X0415757Y0143710D01*
X0425206Y0143710D02*
X0427174Y0143710D01*
X0427174Y0145285D01*
X0415404Y0156558D02*
X0413995Y0156558D01*
X0413290Y0157263D01*
X0416109Y0160082D01*
X0416109Y0157263D01*
X0415404Y0156558D01*
X0413290Y0157263D02*
X0413290Y0160082D01*
X0413995Y0160786D01*
X0415404Y0160786D01*
X0416109Y0160082D01*
X0414970Y0161820D02*
X0413395Y0161820D01*
X0413395Y0159852D01*
X0410349Y0160786D02*
X0410349Y0156558D01*
X0408940Y0156558D02*
X0411759Y0156558D01*
X0408940Y0159377D02*
X0410349Y0160786D01*
X0407409Y0160082D02*
X0406704Y0160786D01*
X0405295Y0160786D01*
X0404590Y0160082D01*
X0404590Y0157263D01*
X0405295Y0156558D01*
X0406704Y0156558D01*
X0407409Y0157263D01*
X0420338Y0167582D02*
X0420338Y0171810D01*
X0422452Y0171810D01*
X0423157Y0171105D01*
X0423157Y0169696D01*
X0422452Y0168991D01*
X0420338Y0168991D01*
X0421747Y0168991D02*
X0423157Y0167582D01*
X0424688Y0167582D02*
X0424688Y0168287D01*
X0427507Y0171105D01*
X0427507Y0171810D01*
X0424688Y0171810D01*
X0425206Y0161820D02*
X0427174Y0161820D01*
X0427174Y0160245D01*
X0407239Y0171125D02*
X0403011Y0171125D01*
X0403011Y0173239D01*
X0403716Y0173944D01*
X0405125Y0173944D01*
X0405830Y0173239D01*
X0405830Y0171125D01*
X0405830Y0172535D02*
X0407239Y0173944D01*
X0405125Y0175475D02*
X0405125Y0178294D01*
X0403011Y0177589D02*
X0405125Y0175475D01*
X0407239Y0177589D02*
X0403011Y0177589D01*
X0412419Y0233486D02*
X0413169Y0234237D01*
X0413169Y0234988D01*
X0412419Y0235738D01*
X0408666Y0235738D01*
X0408666Y0234988D02*
X0408666Y0236489D01*
X0408666Y0238090D02*
X0408666Y0240342D01*
X0409416Y0241093D01*
X0410917Y0241093D01*
X0411668Y0240342D01*
X0411668Y0238090D01*
X0413169Y0238090D02*
X0408666Y0238090D01*
X0410167Y0242694D02*
X0408666Y0244195D01*
X0413169Y0244195D01*
X0413169Y0242694D02*
X0413169Y0245697D01*
X0283867Y0132686D02*
X0283867Y0127962D01*
X0264970Y0127962D01*
X0264970Y0132686D01*
X0283867Y0132686D01*
D16*
X0371663Y0126840D02*
X0371663Y0158867D01*
X0389773Y0158867D02*
X0389773Y0126840D01*
X0371663Y0126840D01*
X0392923Y0126899D02*
X0392923Y0141938D01*
X0400009Y0141938D02*
X0400009Y0126899D01*
X0392923Y0126899D01*
X0400403Y0152804D02*
X0408277Y0152804D01*
X0408277Y0159812D02*
X0400403Y0159812D01*
X0404064Y0166938D02*
X0404064Y0174812D01*
X0410915Y0174812D02*
X0410915Y0166938D01*
X0416151Y0163907D02*
X0424025Y0163907D01*
X0424025Y0170757D02*
X0416151Y0170757D01*
X0348474Y0241860D02*
X0348474Y0251860D01*
X0331807Y0251860D01*
X0328474Y0248526D02*
X0328474Y0241860D01*
X0348474Y0241860D01*
X0363395Y0249064D02*
X0371269Y0249064D01*
X0371269Y0256072D02*
X0363395Y0256072D01*
X0360048Y0281741D02*
X0367923Y0281741D01*
X0367923Y0288749D02*
X0360048Y0288749D01*
X0390560Y0286663D02*
X0398434Y0286663D01*
X0398434Y0293671D02*
X0390560Y0293671D01*
X0415363Y0377293D02*
X0423237Y0377293D01*
X0423237Y0384143D02*
X0415363Y0384143D01*
X0410521Y0380718D02*
X0410521Y0388592D01*
X0408277Y0392962D02*
X0400403Y0392962D01*
X0403671Y0388592D02*
X0403671Y0380718D01*
X0389773Y0393907D02*
X0389773Y0425934D01*
X0371663Y0425934D01*
X0371663Y0393907D01*
X0392923Y0410836D02*
X0392923Y0425875D01*
X0400009Y0425875D01*
X0400009Y0410836D01*
X0400403Y0399970D02*
X0408277Y0399970D01*
X0326111Y0415088D02*
X0326111Y0425088D01*
X0229445Y0425088D01*
X0226111Y0421754D02*
X0226111Y0415088D01*
X0326111Y0415088D01*
X0288986Y0337686D02*
X0281111Y0337686D01*
X0281111Y0330836D02*
X0288986Y0330836D01*
X0290147Y0324734D02*
X0290147Y0319379D01*
X0279537Y0319379D01*
X0279537Y0315678D02*
X0290147Y0315678D01*
X0290147Y0310324D01*
X0279537Y0310324D01*
X0270482Y0309576D02*
X0262608Y0309576D01*
X0262608Y0316426D02*
X0270482Y0316426D01*
X0270482Y0318631D02*
X0262608Y0318631D01*
X0262608Y0325482D02*
X0270482Y0325482D01*
X0279537Y0324734D02*
X0290147Y0324734D01*
X0283237Y0298041D02*
X0283237Y0290167D01*
X0276230Y0290167D02*
X0276230Y0298041D01*
X0273001Y0298237D02*
X0273001Y0290363D01*
X0265993Y0290363D02*
X0265993Y0298237D01*
X0262017Y0295245D02*
X0254143Y0295245D01*
X0254143Y0288237D02*
X0262017Y0288237D01*
X0253356Y0283749D02*
X0245482Y0283749D01*
X0245482Y0276899D02*
X0253356Y0276899D01*
X0253356Y0273710D02*
X0245482Y0273710D01*
X0245482Y0266860D02*
X0253356Y0266860D01*
X0240915Y0293316D02*
X0240915Y0301190D01*
X0233907Y0301190D02*
X0233907Y0293316D01*
X0218474Y0293710D02*
X0218474Y0301584D01*
X0211466Y0301584D02*
X0211466Y0293710D01*
X0210206Y0293710D02*
X0210206Y0301584D01*
X0203198Y0301584D02*
X0203198Y0293710D01*
X0205363Y0262056D02*
X0181269Y0262056D01*
X0181269Y0237962D01*
X0197332Y0237962D01*
X0205363Y0245993D02*
X0205363Y0262056D01*
X0173789Y0312608D02*
X0173789Y0320482D01*
X0166781Y0320482D02*
X0166781Y0312608D01*
X0164537Y0312608D02*
X0164537Y0320482D01*
X0157529Y0320482D02*
X0157529Y0312608D01*
X0205521Y0357529D02*
X0213395Y0357529D01*
X0213395Y0364537D02*
X0205521Y0364537D01*
X0221269Y0376033D02*
X0229143Y0376033D01*
X0229143Y0383041D02*
X0221269Y0383041D01*
X0236623Y0382647D02*
X0244497Y0382647D01*
X0244497Y0375639D02*
X0236623Y0375639D01*
X0177174Y0393907D02*
X0177174Y0425934D01*
X0159064Y0425934D01*
X0159064Y0393907D01*
X0148434Y0396033D02*
X0140560Y0396033D01*
X0140560Y0389025D02*
X0148434Y0389025D01*
X0144773Y0383867D02*
X0144773Y0375993D01*
X0137923Y0375993D02*
X0137923Y0383867D01*
X0132686Y0379419D02*
X0124812Y0379419D01*
X0124812Y0372568D02*
X0132686Y0372568D01*
X0148828Y0410836D02*
X0148828Y0425875D01*
X0155915Y0425875D01*
X0155915Y0410836D01*
X0287844Y0284458D02*
X0287844Y0276584D01*
X0294852Y0276584D02*
X0294852Y0284458D01*
X0295048Y0269497D02*
X0295048Y0261623D01*
X0288041Y0261623D02*
X0288041Y0269497D01*
X0177174Y0154930D02*
X0177174Y0122903D01*
X0159064Y0122903D01*
X0159064Y0154930D01*
X0148434Y0152804D02*
X0140560Y0152804D01*
X0140560Y0159812D02*
X0148434Y0159812D01*
X0145167Y0165363D02*
X0145167Y0173237D01*
X0138316Y0173237D02*
X0138316Y0165363D01*
X0132686Y0163513D02*
X0124812Y0163513D01*
X0124812Y0170363D02*
X0132686Y0170363D01*
X0148828Y0138001D02*
X0148828Y0122962D01*
X0155915Y0122962D01*
X0155915Y0138001D01*
D17*
X0151977Y0121702D02*
X0151979Y0121741D01*
X0151985Y0121780D01*
X0151995Y0121818D01*
X0152008Y0121855D01*
X0152025Y0121890D01*
X0152045Y0121924D01*
X0152069Y0121955D01*
X0152096Y0121984D01*
X0152125Y0122010D01*
X0152157Y0122033D01*
X0152191Y0122053D01*
X0152227Y0122069D01*
X0152264Y0122081D01*
X0152303Y0122090D01*
X0152342Y0122095D01*
X0152381Y0122096D01*
X0152420Y0122093D01*
X0152459Y0122086D01*
X0152496Y0122075D01*
X0152533Y0122061D01*
X0152568Y0122043D01*
X0152601Y0122022D01*
X0152632Y0121997D01*
X0152660Y0121970D01*
X0152685Y0121940D01*
X0152707Y0121907D01*
X0152726Y0121873D01*
X0152741Y0121837D01*
X0152753Y0121799D01*
X0152761Y0121761D01*
X0152765Y0121722D01*
X0152765Y0121682D01*
X0152761Y0121643D01*
X0152753Y0121605D01*
X0152741Y0121567D01*
X0152726Y0121531D01*
X0152707Y0121497D01*
X0152685Y0121464D01*
X0152660Y0121434D01*
X0152632Y0121407D01*
X0152601Y0121382D01*
X0152568Y0121361D01*
X0152533Y0121343D01*
X0152496Y0121329D01*
X0152459Y0121318D01*
X0152420Y0121311D01*
X0152381Y0121308D01*
X0152342Y0121309D01*
X0152303Y0121314D01*
X0152264Y0121323D01*
X0152227Y0121335D01*
X0152191Y0121351D01*
X0152157Y0121371D01*
X0152125Y0121394D01*
X0152096Y0121420D01*
X0152069Y0121449D01*
X0152045Y0121480D01*
X0152025Y0121514D01*
X0152008Y0121549D01*
X0151995Y0121586D01*
X0151985Y0121624D01*
X0151979Y0121663D01*
X0151977Y0121702D01*
X0167725Y0121643D02*
X0167727Y0121682D01*
X0167733Y0121721D01*
X0167743Y0121759D01*
X0167756Y0121796D01*
X0167773Y0121831D01*
X0167793Y0121865D01*
X0167817Y0121896D01*
X0167844Y0121925D01*
X0167873Y0121951D01*
X0167905Y0121974D01*
X0167939Y0121994D01*
X0167975Y0122010D01*
X0168012Y0122022D01*
X0168051Y0122031D01*
X0168090Y0122036D01*
X0168129Y0122037D01*
X0168168Y0122034D01*
X0168207Y0122027D01*
X0168244Y0122016D01*
X0168281Y0122002D01*
X0168316Y0121984D01*
X0168349Y0121963D01*
X0168380Y0121938D01*
X0168408Y0121911D01*
X0168433Y0121881D01*
X0168455Y0121848D01*
X0168474Y0121814D01*
X0168489Y0121778D01*
X0168501Y0121740D01*
X0168509Y0121702D01*
X0168513Y0121663D01*
X0168513Y0121623D01*
X0168509Y0121584D01*
X0168501Y0121546D01*
X0168489Y0121508D01*
X0168474Y0121472D01*
X0168455Y0121438D01*
X0168433Y0121405D01*
X0168408Y0121375D01*
X0168380Y0121348D01*
X0168349Y0121323D01*
X0168316Y0121302D01*
X0168281Y0121284D01*
X0168244Y0121270D01*
X0168207Y0121259D01*
X0168168Y0121252D01*
X0168129Y0121249D01*
X0168090Y0121250D01*
X0168051Y0121255D01*
X0168012Y0121264D01*
X0167975Y0121276D01*
X0167939Y0121292D01*
X0167905Y0121312D01*
X0167873Y0121335D01*
X0167844Y0121361D01*
X0167817Y0121390D01*
X0167793Y0121421D01*
X0167773Y0121455D01*
X0167756Y0121490D01*
X0167743Y0121527D01*
X0167733Y0121565D01*
X0167727Y0121604D01*
X0167725Y0121643D01*
X0186426Y0250009D02*
X0186428Y0250178D01*
X0186434Y0250347D01*
X0186445Y0250516D01*
X0186459Y0250684D01*
X0186478Y0250852D01*
X0186501Y0251020D01*
X0186527Y0251187D01*
X0186558Y0251353D01*
X0186593Y0251519D01*
X0186632Y0251683D01*
X0186676Y0251847D01*
X0186723Y0252009D01*
X0186774Y0252170D01*
X0186829Y0252330D01*
X0186888Y0252489D01*
X0186950Y0252646D01*
X0187017Y0252801D01*
X0187088Y0252955D01*
X0187162Y0253107D01*
X0187240Y0253257D01*
X0187321Y0253405D01*
X0187406Y0253551D01*
X0187495Y0253695D01*
X0187587Y0253837D01*
X0187683Y0253976D01*
X0187782Y0254113D01*
X0187884Y0254248D01*
X0187990Y0254380D01*
X0188099Y0254509D01*
X0188211Y0254636D01*
X0188326Y0254760D01*
X0188444Y0254881D01*
X0188565Y0254999D01*
X0188689Y0255114D01*
X0188816Y0255226D01*
X0188945Y0255335D01*
X0189077Y0255441D01*
X0189212Y0255543D01*
X0189349Y0255642D01*
X0189488Y0255738D01*
X0189630Y0255830D01*
X0189774Y0255919D01*
X0189920Y0256004D01*
X0190068Y0256085D01*
X0190218Y0256163D01*
X0190370Y0256237D01*
X0190524Y0256308D01*
X0190679Y0256375D01*
X0190836Y0256437D01*
X0190995Y0256496D01*
X0191155Y0256551D01*
X0191316Y0256602D01*
X0191478Y0256649D01*
X0191642Y0256693D01*
X0191806Y0256732D01*
X0191972Y0256767D01*
X0192138Y0256798D01*
X0192305Y0256824D01*
X0192473Y0256847D01*
X0192641Y0256866D01*
X0192809Y0256880D01*
X0192978Y0256891D01*
X0193147Y0256897D01*
X0193316Y0256899D01*
X0193485Y0256897D01*
X0193654Y0256891D01*
X0193823Y0256880D01*
X0193991Y0256866D01*
X0194159Y0256847D01*
X0194327Y0256824D01*
X0194494Y0256798D01*
X0194660Y0256767D01*
X0194826Y0256732D01*
X0194990Y0256693D01*
X0195154Y0256649D01*
X0195316Y0256602D01*
X0195477Y0256551D01*
X0195637Y0256496D01*
X0195796Y0256437D01*
X0195953Y0256375D01*
X0196108Y0256308D01*
X0196262Y0256237D01*
X0196414Y0256163D01*
X0196564Y0256085D01*
X0196712Y0256004D01*
X0196858Y0255919D01*
X0197002Y0255830D01*
X0197144Y0255738D01*
X0197283Y0255642D01*
X0197420Y0255543D01*
X0197555Y0255441D01*
X0197687Y0255335D01*
X0197816Y0255226D01*
X0197943Y0255114D01*
X0198067Y0254999D01*
X0198188Y0254881D01*
X0198306Y0254760D01*
X0198421Y0254636D01*
X0198533Y0254509D01*
X0198642Y0254380D01*
X0198748Y0254248D01*
X0198850Y0254113D01*
X0198949Y0253976D01*
X0199045Y0253837D01*
X0199137Y0253695D01*
X0199226Y0253551D01*
X0199311Y0253405D01*
X0199392Y0253257D01*
X0199470Y0253107D01*
X0199544Y0252955D01*
X0199615Y0252801D01*
X0199682Y0252646D01*
X0199744Y0252489D01*
X0199803Y0252330D01*
X0199858Y0252170D01*
X0199909Y0252009D01*
X0199956Y0251847D01*
X0200000Y0251683D01*
X0200039Y0251519D01*
X0200074Y0251353D01*
X0200105Y0251187D01*
X0200131Y0251020D01*
X0200154Y0250852D01*
X0200173Y0250684D01*
X0200187Y0250516D01*
X0200198Y0250347D01*
X0200204Y0250178D01*
X0200206Y0250009D01*
X0200204Y0249840D01*
X0200198Y0249671D01*
X0200187Y0249502D01*
X0200173Y0249334D01*
X0200154Y0249166D01*
X0200131Y0248998D01*
X0200105Y0248831D01*
X0200074Y0248665D01*
X0200039Y0248499D01*
X0200000Y0248335D01*
X0199956Y0248171D01*
X0199909Y0248009D01*
X0199858Y0247848D01*
X0199803Y0247688D01*
X0199744Y0247529D01*
X0199682Y0247372D01*
X0199615Y0247217D01*
X0199544Y0247063D01*
X0199470Y0246911D01*
X0199392Y0246761D01*
X0199311Y0246613D01*
X0199226Y0246467D01*
X0199137Y0246323D01*
X0199045Y0246181D01*
X0198949Y0246042D01*
X0198850Y0245905D01*
X0198748Y0245770D01*
X0198642Y0245638D01*
X0198533Y0245509D01*
X0198421Y0245382D01*
X0198306Y0245258D01*
X0198188Y0245137D01*
X0198067Y0245019D01*
X0197943Y0244904D01*
X0197816Y0244792D01*
X0197687Y0244683D01*
X0197555Y0244577D01*
X0197420Y0244475D01*
X0197283Y0244376D01*
X0197144Y0244280D01*
X0197002Y0244188D01*
X0196858Y0244099D01*
X0196712Y0244014D01*
X0196564Y0243933D01*
X0196414Y0243855D01*
X0196262Y0243781D01*
X0196108Y0243710D01*
X0195953Y0243643D01*
X0195796Y0243581D01*
X0195637Y0243522D01*
X0195477Y0243467D01*
X0195316Y0243416D01*
X0195154Y0243369D01*
X0194990Y0243325D01*
X0194826Y0243286D01*
X0194660Y0243251D01*
X0194494Y0243220D01*
X0194327Y0243194D01*
X0194159Y0243171D01*
X0193991Y0243152D01*
X0193823Y0243138D01*
X0193654Y0243127D01*
X0193485Y0243121D01*
X0193316Y0243119D01*
X0193147Y0243121D01*
X0192978Y0243127D01*
X0192809Y0243138D01*
X0192641Y0243152D01*
X0192473Y0243171D01*
X0192305Y0243194D01*
X0192138Y0243220D01*
X0191972Y0243251D01*
X0191806Y0243286D01*
X0191642Y0243325D01*
X0191478Y0243369D01*
X0191316Y0243416D01*
X0191155Y0243467D01*
X0190995Y0243522D01*
X0190836Y0243581D01*
X0190679Y0243643D01*
X0190524Y0243710D01*
X0190370Y0243781D01*
X0190218Y0243855D01*
X0190068Y0243933D01*
X0189920Y0244014D01*
X0189774Y0244099D01*
X0189630Y0244188D01*
X0189488Y0244280D01*
X0189349Y0244376D01*
X0189212Y0244475D01*
X0189077Y0244577D01*
X0188945Y0244683D01*
X0188816Y0244792D01*
X0188689Y0244904D01*
X0188565Y0245019D01*
X0188444Y0245137D01*
X0188326Y0245258D01*
X0188211Y0245382D01*
X0188099Y0245509D01*
X0187990Y0245638D01*
X0187884Y0245770D01*
X0187782Y0245905D01*
X0187683Y0246042D01*
X0187587Y0246181D01*
X0187495Y0246323D01*
X0187406Y0246467D01*
X0187321Y0246613D01*
X0187240Y0246761D01*
X0187162Y0246911D01*
X0187088Y0247063D01*
X0187017Y0247217D01*
X0186950Y0247372D01*
X0186888Y0247529D01*
X0186829Y0247688D01*
X0186774Y0247848D01*
X0186723Y0248009D01*
X0186676Y0248171D01*
X0186632Y0248335D01*
X0186593Y0248499D01*
X0186558Y0248665D01*
X0186527Y0248831D01*
X0186501Y0248998D01*
X0186478Y0249166D01*
X0186459Y0249334D01*
X0186445Y0249502D01*
X0186434Y0249671D01*
X0186428Y0249840D01*
X0186426Y0250009D01*
X0291013Y0313001D02*
X0291015Y0313040D01*
X0291021Y0313079D01*
X0291031Y0313117D01*
X0291044Y0313154D01*
X0291061Y0313189D01*
X0291081Y0313223D01*
X0291105Y0313254D01*
X0291132Y0313283D01*
X0291161Y0313309D01*
X0291193Y0313332D01*
X0291227Y0313352D01*
X0291263Y0313368D01*
X0291300Y0313380D01*
X0291339Y0313389D01*
X0291378Y0313394D01*
X0291417Y0313395D01*
X0291456Y0313392D01*
X0291495Y0313385D01*
X0291532Y0313374D01*
X0291569Y0313360D01*
X0291604Y0313342D01*
X0291637Y0313321D01*
X0291668Y0313296D01*
X0291696Y0313269D01*
X0291721Y0313239D01*
X0291743Y0313206D01*
X0291762Y0313172D01*
X0291777Y0313136D01*
X0291789Y0313098D01*
X0291797Y0313060D01*
X0291801Y0313021D01*
X0291801Y0312981D01*
X0291797Y0312942D01*
X0291789Y0312904D01*
X0291777Y0312866D01*
X0291762Y0312830D01*
X0291743Y0312796D01*
X0291721Y0312763D01*
X0291696Y0312733D01*
X0291668Y0312706D01*
X0291637Y0312681D01*
X0291604Y0312660D01*
X0291569Y0312642D01*
X0291532Y0312628D01*
X0291495Y0312617D01*
X0291456Y0312610D01*
X0291417Y0312607D01*
X0291378Y0312608D01*
X0291339Y0312613D01*
X0291300Y0312622D01*
X0291263Y0312634D01*
X0291227Y0312650D01*
X0291193Y0312670D01*
X0291161Y0312693D01*
X0291132Y0312719D01*
X0291105Y0312748D01*
X0291081Y0312779D01*
X0291061Y0312813D01*
X0291044Y0312848D01*
X0291031Y0312885D01*
X0291021Y0312923D01*
X0291015Y0312962D01*
X0291013Y0313001D01*
X0291013Y0322056D02*
X0291015Y0322095D01*
X0291021Y0322134D01*
X0291031Y0322172D01*
X0291044Y0322209D01*
X0291061Y0322244D01*
X0291081Y0322278D01*
X0291105Y0322309D01*
X0291132Y0322338D01*
X0291161Y0322364D01*
X0291193Y0322387D01*
X0291227Y0322407D01*
X0291263Y0322423D01*
X0291300Y0322435D01*
X0291339Y0322444D01*
X0291378Y0322449D01*
X0291417Y0322450D01*
X0291456Y0322447D01*
X0291495Y0322440D01*
X0291532Y0322429D01*
X0291569Y0322415D01*
X0291604Y0322397D01*
X0291637Y0322376D01*
X0291668Y0322351D01*
X0291696Y0322324D01*
X0291721Y0322294D01*
X0291743Y0322261D01*
X0291762Y0322227D01*
X0291777Y0322191D01*
X0291789Y0322153D01*
X0291797Y0322115D01*
X0291801Y0322076D01*
X0291801Y0322036D01*
X0291797Y0321997D01*
X0291789Y0321959D01*
X0291777Y0321921D01*
X0291762Y0321885D01*
X0291743Y0321851D01*
X0291721Y0321818D01*
X0291696Y0321788D01*
X0291668Y0321761D01*
X0291637Y0321736D01*
X0291604Y0321715D01*
X0291569Y0321697D01*
X0291532Y0321683D01*
X0291495Y0321672D01*
X0291456Y0321665D01*
X0291417Y0321662D01*
X0291378Y0321663D01*
X0291339Y0321668D01*
X0291300Y0321677D01*
X0291263Y0321689D01*
X0291227Y0321705D01*
X0291193Y0321725D01*
X0291161Y0321748D01*
X0291132Y0321774D01*
X0291105Y0321803D01*
X0291081Y0321834D01*
X0291061Y0321868D01*
X0291044Y0321903D01*
X0291031Y0321940D01*
X0291021Y0321978D01*
X0291015Y0322017D01*
X0291013Y0322056D01*
X0380324Y0427194D02*
X0380326Y0427233D01*
X0380332Y0427272D01*
X0380342Y0427310D01*
X0380355Y0427347D01*
X0380372Y0427382D01*
X0380392Y0427416D01*
X0380416Y0427447D01*
X0380443Y0427476D01*
X0380472Y0427502D01*
X0380504Y0427525D01*
X0380538Y0427545D01*
X0380574Y0427561D01*
X0380611Y0427573D01*
X0380650Y0427582D01*
X0380689Y0427587D01*
X0380728Y0427588D01*
X0380767Y0427585D01*
X0380806Y0427578D01*
X0380843Y0427567D01*
X0380880Y0427553D01*
X0380915Y0427535D01*
X0380948Y0427514D01*
X0380979Y0427489D01*
X0381007Y0427462D01*
X0381032Y0427432D01*
X0381054Y0427399D01*
X0381073Y0427365D01*
X0381088Y0427329D01*
X0381100Y0427291D01*
X0381108Y0427253D01*
X0381112Y0427214D01*
X0381112Y0427174D01*
X0381108Y0427135D01*
X0381100Y0427097D01*
X0381088Y0427059D01*
X0381073Y0427023D01*
X0381054Y0426989D01*
X0381032Y0426956D01*
X0381007Y0426926D01*
X0380979Y0426899D01*
X0380948Y0426874D01*
X0380915Y0426853D01*
X0380880Y0426835D01*
X0380843Y0426821D01*
X0380806Y0426810D01*
X0380767Y0426803D01*
X0380728Y0426800D01*
X0380689Y0426801D01*
X0380650Y0426806D01*
X0380611Y0426815D01*
X0380574Y0426827D01*
X0380538Y0426843D01*
X0380504Y0426863D01*
X0380472Y0426886D01*
X0380443Y0426912D01*
X0380416Y0426941D01*
X0380392Y0426972D01*
X0380372Y0427006D01*
X0380355Y0427041D01*
X0380342Y0427078D01*
X0380332Y0427116D01*
X0380326Y0427155D01*
X0380324Y0427194D01*
X0396072Y0427135D02*
X0396074Y0427174D01*
X0396080Y0427213D01*
X0396090Y0427251D01*
X0396103Y0427288D01*
X0396120Y0427323D01*
X0396140Y0427357D01*
X0396164Y0427388D01*
X0396191Y0427417D01*
X0396220Y0427443D01*
X0396252Y0427466D01*
X0396286Y0427486D01*
X0396322Y0427502D01*
X0396359Y0427514D01*
X0396398Y0427523D01*
X0396437Y0427528D01*
X0396476Y0427529D01*
X0396515Y0427526D01*
X0396554Y0427519D01*
X0396591Y0427508D01*
X0396628Y0427494D01*
X0396663Y0427476D01*
X0396696Y0427455D01*
X0396727Y0427430D01*
X0396755Y0427403D01*
X0396780Y0427373D01*
X0396802Y0427340D01*
X0396821Y0427306D01*
X0396836Y0427270D01*
X0396848Y0427232D01*
X0396856Y0427194D01*
X0396860Y0427155D01*
X0396860Y0427115D01*
X0396856Y0427076D01*
X0396848Y0427038D01*
X0396836Y0427000D01*
X0396821Y0426964D01*
X0396802Y0426930D01*
X0396780Y0426897D01*
X0396755Y0426867D01*
X0396727Y0426840D01*
X0396696Y0426815D01*
X0396663Y0426794D01*
X0396628Y0426776D01*
X0396591Y0426762D01*
X0396554Y0426751D01*
X0396515Y0426744D01*
X0396476Y0426741D01*
X0396437Y0426742D01*
X0396398Y0426747D01*
X0396359Y0426756D01*
X0396322Y0426768D01*
X0396286Y0426784D01*
X0396252Y0426804D01*
X0396220Y0426827D01*
X0396191Y0426853D01*
X0396164Y0426882D01*
X0396140Y0426913D01*
X0396120Y0426947D01*
X0396103Y0426982D01*
X0396090Y0427019D01*
X0396080Y0427057D01*
X0396074Y0427096D01*
X0396072Y0427135D01*
X0167725Y0427194D02*
X0167727Y0427233D01*
X0167733Y0427272D01*
X0167743Y0427310D01*
X0167756Y0427347D01*
X0167773Y0427382D01*
X0167793Y0427416D01*
X0167817Y0427447D01*
X0167844Y0427476D01*
X0167873Y0427502D01*
X0167905Y0427525D01*
X0167939Y0427545D01*
X0167975Y0427561D01*
X0168012Y0427573D01*
X0168051Y0427582D01*
X0168090Y0427587D01*
X0168129Y0427588D01*
X0168168Y0427585D01*
X0168207Y0427578D01*
X0168244Y0427567D01*
X0168281Y0427553D01*
X0168316Y0427535D01*
X0168349Y0427514D01*
X0168380Y0427489D01*
X0168408Y0427462D01*
X0168433Y0427432D01*
X0168455Y0427399D01*
X0168474Y0427365D01*
X0168489Y0427329D01*
X0168501Y0427291D01*
X0168509Y0427253D01*
X0168513Y0427214D01*
X0168513Y0427174D01*
X0168509Y0427135D01*
X0168501Y0427097D01*
X0168489Y0427059D01*
X0168474Y0427023D01*
X0168455Y0426989D01*
X0168433Y0426956D01*
X0168408Y0426926D01*
X0168380Y0426899D01*
X0168349Y0426874D01*
X0168316Y0426853D01*
X0168281Y0426835D01*
X0168244Y0426821D01*
X0168207Y0426810D01*
X0168168Y0426803D01*
X0168129Y0426800D01*
X0168090Y0426801D01*
X0168051Y0426806D01*
X0168012Y0426815D01*
X0167975Y0426827D01*
X0167939Y0426843D01*
X0167905Y0426863D01*
X0167873Y0426886D01*
X0167844Y0426912D01*
X0167817Y0426941D01*
X0167793Y0426972D01*
X0167773Y0427006D01*
X0167756Y0427041D01*
X0167743Y0427078D01*
X0167733Y0427116D01*
X0167727Y0427155D01*
X0167725Y0427194D01*
X0151977Y0427135D02*
X0151979Y0427174D01*
X0151985Y0427213D01*
X0151995Y0427251D01*
X0152008Y0427288D01*
X0152025Y0427323D01*
X0152045Y0427357D01*
X0152069Y0427388D01*
X0152096Y0427417D01*
X0152125Y0427443D01*
X0152157Y0427466D01*
X0152191Y0427486D01*
X0152227Y0427502D01*
X0152264Y0427514D01*
X0152303Y0427523D01*
X0152342Y0427528D01*
X0152381Y0427529D01*
X0152420Y0427526D01*
X0152459Y0427519D01*
X0152496Y0427508D01*
X0152533Y0427494D01*
X0152568Y0427476D01*
X0152601Y0427455D01*
X0152632Y0427430D01*
X0152660Y0427403D01*
X0152685Y0427373D01*
X0152707Y0427340D01*
X0152726Y0427306D01*
X0152741Y0427270D01*
X0152753Y0427232D01*
X0152761Y0427194D01*
X0152765Y0427155D01*
X0152765Y0427115D01*
X0152761Y0427076D01*
X0152753Y0427038D01*
X0152741Y0427000D01*
X0152726Y0426964D01*
X0152707Y0426930D01*
X0152685Y0426897D01*
X0152660Y0426867D01*
X0152632Y0426840D01*
X0152601Y0426815D01*
X0152568Y0426794D01*
X0152533Y0426776D01*
X0152496Y0426762D01*
X0152459Y0426751D01*
X0152420Y0426744D01*
X0152381Y0426741D01*
X0152342Y0426742D01*
X0152303Y0426747D01*
X0152264Y0426756D01*
X0152227Y0426768D01*
X0152191Y0426784D01*
X0152157Y0426804D01*
X0152125Y0426827D01*
X0152096Y0426853D01*
X0152069Y0426882D01*
X0152045Y0426913D01*
X0152025Y0426947D01*
X0152008Y0426982D01*
X0151995Y0427019D01*
X0151985Y0427057D01*
X0151979Y0427096D01*
X0151977Y0427135D01*
X0380324Y0125580D02*
X0380326Y0125619D01*
X0380332Y0125658D01*
X0380342Y0125696D01*
X0380355Y0125733D01*
X0380372Y0125768D01*
X0380392Y0125802D01*
X0380416Y0125833D01*
X0380443Y0125862D01*
X0380472Y0125888D01*
X0380504Y0125911D01*
X0380538Y0125931D01*
X0380574Y0125947D01*
X0380611Y0125959D01*
X0380650Y0125968D01*
X0380689Y0125973D01*
X0380728Y0125974D01*
X0380767Y0125971D01*
X0380806Y0125964D01*
X0380843Y0125953D01*
X0380880Y0125939D01*
X0380915Y0125921D01*
X0380948Y0125900D01*
X0380979Y0125875D01*
X0381007Y0125848D01*
X0381032Y0125818D01*
X0381054Y0125785D01*
X0381073Y0125751D01*
X0381088Y0125715D01*
X0381100Y0125677D01*
X0381108Y0125639D01*
X0381112Y0125600D01*
X0381112Y0125560D01*
X0381108Y0125521D01*
X0381100Y0125483D01*
X0381088Y0125445D01*
X0381073Y0125409D01*
X0381054Y0125375D01*
X0381032Y0125342D01*
X0381007Y0125312D01*
X0380979Y0125285D01*
X0380948Y0125260D01*
X0380915Y0125239D01*
X0380880Y0125221D01*
X0380843Y0125207D01*
X0380806Y0125196D01*
X0380767Y0125189D01*
X0380728Y0125186D01*
X0380689Y0125187D01*
X0380650Y0125192D01*
X0380611Y0125201D01*
X0380574Y0125213D01*
X0380538Y0125229D01*
X0380504Y0125249D01*
X0380472Y0125272D01*
X0380443Y0125298D01*
X0380416Y0125327D01*
X0380392Y0125358D01*
X0380372Y0125392D01*
X0380355Y0125427D01*
X0380342Y0125464D01*
X0380332Y0125502D01*
X0380326Y0125541D01*
X0380324Y0125580D01*
X0396072Y0125639D02*
X0396074Y0125678D01*
X0396080Y0125717D01*
X0396090Y0125755D01*
X0396103Y0125792D01*
X0396120Y0125827D01*
X0396140Y0125861D01*
X0396164Y0125892D01*
X0396191Y0125921D01*
X0396220Y0125947D01*
X0396252Y0125970D01*
X0396286Y0125990D01*
X0396322Y0126006D01*
X0396359Y0126018D01*
X0396398Y0126027D01*
X0396437Y0126032D01*
X0396476Y0126033D01*
X0396515Y0126030D01*
X0396554Y0126023D01*
X0396591Y0126012D01*
X0396628Y0125998D01*
X0396663Y0125980D01*
X0396696Y0125959D01*
X0396727Y0125934D01*
X0396755Y0125907D01*
X0396780Y0125877D01*
X0396802Y0125844D01*
X0396821Y0125810D01*
X0396836Y0125774D01*
X0396848Y0125736D01*
X0396856Y0125698D01*
X0396860Y0125659D01*
X0396860Y0125619D01*
X0396856Y0125580D01*
X0396848Y0125542D01*
X0396836Y0125504D01*
X0396821Y0125468D01*
X0396802Y0125434D01*
X0396780Y0125401D01*
X0396755Y0125371D01*
X0396727Y0125344D01*
X0396696Y0125319D01*
X0396663Y0125298D01*
X0396628Y0125280D01*
X0396591Y0125266D01*
X0396554Y0125255D01*
X0396515Y0125248D01*
X0396476Y0125245D01*
X0396437Y0125246D01*
X0396398Y0125251D01*
X0396359Y0125260D01*
X0396322Y0125272D01*
X0396286Y0125288D01*
X0396252Y0125308D01*
X0396220Y0125331D01*
X0396191Y0125357D01*
X0396164Y0125386D01*
X0396140Y0125417D01*
X0396120Y0125451D01*
X0396103Y0125486D01*
X0396090Y0125523D01*
X0396080Y0125561D01*
X0396074Y0125600D01*
X0396072Y0125639D01*
D18*
X0266151Y0280718D02*
X0266153Y0280757D01*
X0266159Y0280796D01*
X0266169Y0280834D01*
X0266182Y0280871D01*
X0266199Y0280906D01*
X0266219Y0280940D01*
X0266243Y0280971D01*
X0266270Y0281000D01*
X0266299Y0281026D01*
X0266331Y0281049D01*
X0266365Y0281069D01*
X0266401Y0281085D01*
X0266438Y0281097D01*
X0266477Y0281106D01*
X0266516Y0281111D01*
X0266555Y0281112D01*
X0266594Y0281109D01*
X0266633Y0281102D01*
X0266670Y0281091D01*
X0266707Y0281077D01*
X0266742Y0281059D01*
X0266775Y0281038D01*
X0266806Y0281013D01*
X0266834Y0280986D01*
X0266859Y0280956D01*
X0266881Y0280923D01*
X0266900Y0280889D01*
X0266915Y0280853D01*
X0266927Y0280815D01*
X0266935Y0280777D01*
X0266939Y0280738D01*
X0266939Y0280698D01*
X0266935Y0280659D01*
X0266927Y0280621D01*
X0266915Y0280583D01*
X0266900Y0280547D01*
X0266881Y0280513D01*
X0266859Y0280480D01*
X0266834Y0280450D01*
X0266806Y0280423D01*
X0266775Y0280398D01*
X0266742Y0280377D01*
X0266707Y0280359D01*
X0266670Y0280345D01*
X0266633Y0280334D01*
X0266594Y0280327D01*
X0266555Y0280324D01*
X0266516Y0280325D01*
X0266477Y0280330D01*
X0266438Y0280339D01*
X0266401Y0280351D01*
X0266365Y0280367D01*
X0266331Y0280387D01*
X0266299Y0280410D01*
X0266270Y0280436D01*
X0266243Y0280465D01*
X0266219Y0280496D01*
X0266199Y0280530D01*
X0266182Y0280565D01*
X0266169Y0280602D01*
X0266159Y0280640D01*
X0266153Y0280679D01*
X0266151Y0280718D01*
D19*
X0202198Y0348960D02*
X0199262Y0348960D01*
X0200730Y0348960D02*
X0200730Y0353363D01*
X0199262Y0351895D01*
X0197594Y0353363D02*
X0197594Y0349693D01*
X0196860Y0348960D01*
X0195392Y0348960D01*
X0194658Y0349693D01*
X0194658Y0353363D01*
X0358387Y0271702D02*
X0358387Y0265324D01*
X0358757Y0265324D01*
X0361930Y0265324D02*
X0362300Y0265324D01*
X0365671Y0265324D02*
X0366041Y0265324D01*
X0369214Y0265324D02*
X0369584Y0265324D01*
X0369584Y0271702D01*
X0369214Y0271702D01*
X0366041Y0271702D02*
X0361930Y0271702D01*
X0358757Y0271702D02*
X0358387Y0271702D01*
D20*
X0206506Y0232293D02*
X0206508Y0232349D01*
X0206514Y0232404D01*
X0206524Y0232458D01*
X0206537Y0232512D01*
X0206555Y0232565D01*
X0206576Y0232616D01*
X0206600Y0232666D01*
X0206628Y0232714D01*
X0206660Y0232760D01*
X0206694Y0232804D01*
X0206732Y0232845D01*
X0206772Y0232883D01*
X0206815Y0232918D01*
X0206860Y0232950D01*
X0206908Y0232979D01*
X0206957Y0233005D01*
X0207008Y0233027D01*
X0207060Y0233045D01*
X0207114Y0233059D01*
X0207169Y0233070D01*
X0207224Y0233077D01*
X0207279Y0233080D01*
X0207335Y0233079D01*
X0207390Y0233074D01*
X0207445Y0233065D01*
X0207499Y0233053D01*
X0207552Y0233036D01*
X0207604Y0233016D01*
X0207654Y0232992D01*
X0207702Y0232965D01*
X0207749Y0232935D01*
X0207793Y0232901D01*
X0207835Y0232864D01*
X0207873Y0232824D01*
X0207910Y0232782D01*
X0207943Y0232737D01*
X0207972Y0232691D01*
X0207999Y0232642D01*
X0208021Y0232591D01*
X0208041Y0232539D01*
X0208056Y0232485D01*
X0208068Y0232431D01*
X0208076Y0232376D01*
X0208080Y0232321D01*
X0208080Y0232265D01*
X0208076Y0232210D01*
X0208068Y0232155D01*
X0208056Y0232101D01*
X0208041Y0232047D01*
X0208021Y0231995D01*
X0207999Y0231944D01*
X0207972Y0231895D01*
X0207943Y0231849D01*
X0207910Y0231804D01*
X0207873Y0231762D01*
X0207835Y0231722D01*
X0207793Y0231685D01*
X0207749Y0231651D01*
X0207702Y0231621D01*
X0207654Y0231594D01*
X0207604Y0231570D01*
X0207552Y0231550D01*
X0207499Y0231533D01*
X0207445Y0231521D01*
X0207390Y0231512D01*
X0207335Y0231507D01*
X0207279Y0231506D01*
X0207224Y0231509D01*
X0207169Y0231516D01*
X0207114Y0231527D01*
X0207060Y0231541D01*
X0207008Y0231559D01*
X0206957Y0231581D01*
X0206908Y0231607D01*
X0206860Y0231636D01*
X0206815Y0231668D01*
X0206772Y0231703D01*
X0206732Y0231741D01*
X0206694Y0231782D01*
X0206660Y0231826D01*
X0206628Y0231872D01*
X0206600Y0231920D01*
X0206576Y0231970D01*
X0206555Y0232021D01*
X0206537Y0232074D01*
X0206524Y0232128D01*
X0206514Y0232182D01*
X0206508Y0232237D01*
X0206506Y0232293D01*
M02*
