G75*
%MOIN*%
%OFA0B0*%
%FSLAX25Y25*%
%IPPOS*%
%LPD*%
%AMOC8*
5,1,8,0,0,1.08239X$1,22.5*
%
%ADD10R,0.04000X0.10000*%
%ADD11R,0.01378X0.03150*%
%ADD12C,0.05937*%
%ADD13C,0.01956*%
%ADD14C,0.01959*%
%ADD15C,0.01575*%
%ADD16R,0.07087X0.03937*%
%ADD17R,0.00886X0.05315*%
%ADD18R,0.05315X0.00886*%
%ADD19R,0.07400X0.07400*%
%ADD20OC8,0.07400*%
%ADD21R,0.06496X0.06496*%
%ADD22C,0.06496*%
%ADD23C,0.07400*%
%ADD24C,0.01887*%
%ADD25R,0.01969X0.02362*%
%ADD26R,0.11417X0.08071*%
%ADD27R,0.03937X0.06791*%
%ADD28C,0.01811*%
%ADD29R,0.07874X0.07874*%
%ADD30R,0.06150X0.01102*%
%ADD31R,0.01102X0.06150*%
%ADD32R,0.02165X0.04724*%
%ADD33R,0.07480X0.04331*%
%ADD34C,0.01600*%
%ADD35C,0.03962*%
%ADD36C,0.00600*%
%ADD37C,0.03100*%
%ADD38C,0.01800*%
D10*
X0110577Y0327120D03*
X0136577Y0327120D03*
D11*
X0146215Y0326136D03*
X0148774Y0326136D03*
X0151333Y0326136D03*
X0151333Y0332435D03*
X0148774Y0332435D03*
X0146215Y0332435D03*
D12*
X0327911Y0264768D02*
X0333848Y0264768D01*
X0333848Y0254768D02*
X0327911Y0254768D01*
D13*
X0357291Y0252559D02*
X0359587Y0252559D01*
X0359587Y0248925D01*
X0357291Y0248925D01*
X0357291Y0252559D01*
X0357291Y0250880D02*
X0359587Y0250880D01*
X0364338Y0248925D02*
X0366634Y0248925D01*
X0364338Y0248925D02*
X0364338Y0252559D01*
X0366634Y0252559D01*
X0366634Y0248925D01*
X0366634Y0250880D02*
X0364338Y0250880D01*
X0365322Y0282390D02*
X0367618Y0282390D01*
X0365322Y0282390D02*
X0365322Y0286024D01*
X0367618Y0286024D01*
X0367618Y0282390D01*
X0367618Y0284345D02*
X0365322Y0284345D01*
X0360571Y0286024D02*
X0358275Y0286024D01*
X0360571Y0286024D02*
X0360571Y0282390D01*
X0358275Y0282390D01*
X0358275Y0286024D01*
X0358275Y0284345D02*
X0360571Y0284345D01*
X0388787Y0290945D02*
X0391083Y0290945D01*
X0391083Y0287311D01*
X0388787Y0287311D01*
X0388787Y0290945D01*
X0388787Y0289266D02*
X0391083Y0289266D01*
X0395834Y0287311D02*
X0398130Y0287311D01*
X0395834Y0287311D02*
X0395834Y0290945D01*
X0398130Y0290945D01*
X0398130Y0287311D01*
X0398130Y0289266D02*
X0395834Y0289266D01*
X0299115Y0291051D02*
X0296819Y0291051D01*
X0296819Y0294685D01*
X0299115Y0294685D01*
X0299115Y0291051D01*
X0299115Y0293006D02*
X0296819Y0293006D01*
X0292067Y0294685D02*
X0289771Y0294685D01*
X0292067Y0294685D02*
X0292067Y0291051D01*
X0289771Y0291051D01*
X0289771Y0294685D01*
X0289771Y0293006D02*
X0292067Y0293006D01*
X0294095Y0285335D02*
X0294095Y0283039D01*
X0290461Y0283039D01*
X0290461Y0285335D01*
X0294095Y0285335D01*
X0294095Y0284994D02*
X0290461Y0284994D01*
X0290461Y0278288D02*
X0290461Y0275992D01*
X0290461Y0278288D02*
X0294095Y0278288D01*
X0294095Y0275992D01*
X0290461Y0275992D01*
X0290461Y0277947D02*
X0294095Y0277947D01*
X0276878Y0291149D02*
X0276878Y0293445D01*
X0280512Y0293445D01*
X0280512Y0291149D01*
X0276878Y0291149D01*
X0276878Y0293104D02*
X0280512Y0293104D01*
X0280512Y0298197D02*
X0280512Y0300493D01*
X0280512Y0298197D02*
X0276878Y0298197D01*
X0276878Y0300493D01*
X0280512Y0300493D01*
X0280512Y0300152D02*
X0276878Y0300152D01*
X0270276Y0300296D02*
X0270276Y0298000D01*
X0266642Y0298000D01*
X0266642Y0300296D01*
X0270276Y0300296D01*
X0270276Y0299955D02*
X0266642Y0299955D01*
X0266642Y0293248D02*
X0266642Y0290952D01*
X0266642Y0293248D02*
X0270276Y0293248D01*
X0270276Y0290952D01*
X0266642Y0290952D01*
X0266642Y0292907D02*
X0270276Y0292907D01*
X0236910Y0268807D02*
X0234614Y0268807D01*
X0234614Y0272441D01*
X0236910Y0272441D01*
X0236910Y0268807D01*
X0236910Y0270762D02*
X0234614Y0270762D01*
X0229863Y0272441D02*
X0227567Y0272441D01*
X0229863Y0272441D02*
X0229863Y0268807D01*
X0227567Y0268807D01*
X0227567Y0272441D01*
X0227567Y0270762D02*
X0229863Y0270762D01*
X0206602Y0287212D02*
X0206602Y0289508D01*
X0210236Y0289508D01*
X0210236Y0287212D01*
X0206602Y0287212D01*
X0206602Y0289167D02*
X0210236Y0289167D01*
X0210236Y0294260D02*
X0210236Y0296556D01*
X0210236Y0294260D02*
X0206602Y0294260D01*
X0206602Y0296556D01*
X0210236Y0296556D01*
X0210236Y0296215D02*
X0206602Y0296215D01*
X0196850Y0297343D02*
X0196850Y0295047D01*
X0193216Y0295047D01*
X0193216Y0297343D01*
X0196850Y0297343D01*
X0196850Y0297002D02*
X0193216Y0297002D01*
X0187402Y0297343D02*
X0187402Y0295047D01*
X0183768Y0295047D01*
X0183768Y0297343D01*
X0187402Y0297343D01*
X0187402Y0297002D02*
X0183768Y0297002D01*
X0183768Y0290296D02*
X0183768Y0288000D01*
X0183768Y0290296D02*
X0187402Y0290296D01*
X0187402Y0288000D01*
X0183768Y0288000D01*
X0183768Y0289955D02*
X0187402Y0289955D01*
X0193216Y0290296D02*
X0193216Y0288000D01*
X0193216Y0290296D02*
X0196850Y0290296D01*
X0196850Y0288000D01*
X0193216Y0288000D01*
X0193216Y0289955D02*
X0196850Y0289955D01*
X0158768Y0313590D02*
X0158768Y0315886D01*
X0162402Y0315886D01*
X0162402Y0313590D01*
X0158768Y0313590D01*
X0158768Y0315545D02*
X0162402Y0315545D01*
X0162402Y0320637D02*
X0162402Y0322933D01*
X0162402Y0320637D02*
X0158768Y0320637D01*
X0158768Y0322933D01*
X0162402Y0322933D01*
X0162402Y0322592D02*
X0158768Y0322592D01*
X0152461Y0314870D02*
X0150165Y0314870D01*
X0150165Y0318504D01*
X0152461Y0318504D01*
X0152461Y0314870D01*
X0152461Y0316825D02*
X0150165Y0316825D01*
X0145414Y0318504D02*
X0143118Y0318504D01*
X0145414Y0318504D02*
X0145414Y0314870D01*
X0143118Y0314870D01*
X0143118Y0318504D01*
X0143118Y0316825D02*
X0145414Y0316825D01*
X0184161Y0369889D02*
X0184161Y0372185D01*
X0187795Y0372185D01*
X0187795Y0369889D01*
X0184161Y0369889D01*
X0184161Y0371844D02*
X0187795Y0371844D01*
X0187795Y0376937D02*
X0187795Y0379233D01*
X0187795Y0376937D02*
X0184161Y0376937D01*
X0184161Y0379233D01*
X0187795Y0379233D01*
X0187795Y0378892D02*
X0184161Y0378892D01*
X0200204Y0365354D02*
X0202500Y0365354D01*
X0202500Y0361720D01*
X0200204Y0361720D01*
X0200204Y0365354D01*
X0200204Y0363675D02*
X0202500Y0363675D01*
X0207252Y0361720D02*
X0209548Y0361720D01*
X0207252Y0361720D02*
X0207252Y0365354D01*
X0209548Y0365354D01*
X0209548Y0361720D01*
X0209548Y0363675D02*
X0207252Y0363675D01*
X0221169Y0373039D02*
X0221169Y0375335D01*
X0224803Y0375335D01*
X0224803Y0373039D01*
X0221169Y0373039D01*
X0221169Y0374994D02*
X0224803Y0374994D01*
X0224803Y0380086D02*
X0224803Y0382382D01*
X0224803Y0380086D02*
X0221169Y0380086D01*
X0221169Y0382382D01*
X0224803Y0382382D01*
X0224803Y0382041D02*
X0221169Y0382041D01*
X0136319Y0401484D02*
X0134023Y0401484D01*
X0134023Y0405118D01*
X0136319Y0405118D01*
X0136319Y0401484D01*
X0136319Y0403439D02*
X0134023Y0403439D01*
X0129272Y0405118D02*
X0126976Y0405118D01*
X0129272Y0405118D02*
X0129272Y0401484D01*
X0126976Y0401484D01*
X0126976Y0405118D01*
X0126976Y0403439D02*
X0129272Y0403439D01*
X0129272Y0145276D02*
X0126976Y0145276D01*
X0129272Y0145276D02*
X0129272Y0141642D01*
X0126976Y0141642D01*
X0126976Y0145276D01*
X0126976Y0143597D02*
X0129272Y0143597D01*
X0134023Y0141642D02*
X0136319Y0141642D01*
X0134023Y0141642D02*
X0134023Y0145276D01*
X0136319Y0145276D01*
X0136319Y0141642D01*
X0136319Y0143597D02*
X0134023Y0143597D01*
X0410441Y0145276D02*
X0412737Y0145276D01*
X0412737Y0141642D01*
X0410441Y0141642D01*
X0410441Y0145276D01*
X0410441Y0143597D02*
X0412737Y0143597D01*
X0417488Y0141642D02*
X0419784Y0141642D01*
X0417488Y0141642D02*
X0417488Y0145276D01*
X0419784Y0145276D01*
X0419784Y0141642D01*
X0419784Y0143597D02*
X0417488Y0143597D01*
X0417488Y0405421D02*
X0419784Y0405421D01*
X0417488Y0405421D02*
X0417488Y0409055D01*
X0419784Y0409055D01*
X0419784Y0405421D01*
X0419784Y0407376D02*
X0417488Y0407376D01*
X0412737Y0409055D02*
X0410441Y0409055D01*
X0412737Y0409055D02*
X0412737Y0405421D01*
X0410441Y0405421D01*
X0410441Y0409055D01*
X0410441Y0407376D02*
X0412737Y0407376D01*
D14*
X0387686Y0410452D02*
X0387686Y0403080D01*
X0387686Y0410452D02*
X0395294Y0410452D01*
X0395294Y0403080D01*
X0387686Y0403080D01*
X0387686Y0405038D02*
X0395294Y0405038D01*
X0395294Y0406996D02*
X0387686Y0406996D01*
X0387686Y0408954D02*
X0395294Y0408954D01*
X0395294Y0427647D02*
X0395294Y0435019D01*
X0395294Y0427647D02*
X0387686Y0427647D01*
X0387686Y0435019D01*
X0395294Y0435019D01*
X0395294Y0429605D02*
X0387686Y0429605D01*
X0387686Y0431563D02*
X0395294Y0431563D01*
X0395294Y0433521D02*
X0387686Y0433521D01*
X0159074Y0435019D02*
X0159074Y0427647D01*
X0151466Y0427647D01*
X0151466Y0435019D01*
X0159074Y0435019D01*
X0159074Y0429605D02*
X0151466Y0429605D01*
X0151466Y0431563D02*
X0159074Y0431563D01*
X0159074Y0433521D02*
X0151466Y0433521D01*
X0151466Y0410452D02*
X0151466Y0403080D01*
X0151466Y0410452D02*
X0159074Y0410452D01*
X0159074Y0403080D01*
X0151466Y0403080D01*
X0151466Y0405038D02*
X0159074Y0405038D01*
X0159074Y0406996D02*
X0151466Y0406996D01*
X0151466Y0408954D02*
X0159074Y0408954D01*
X0395294Y0147617D02*
X0395294Y0140245D01*
X0387686Y0140245D01*
X0387686Y0147617D01*
X0395294Y0147617D01*
X0395294Y0142203D02*
X0387686Y0142203D01*
X0387686Y0144161D02*
X0395294Y0144161D01*
X0395294Y0146119D02*
X0387686Y0146119D01*
X0387686Y0123050D02*
X0387686Y0115678D01*
X0387686Y0123050D02*
X0395294Y0123050D01*
X0395294Y0115678D01*
X0387686Y0115678D01*
X0387686Y0117636D02*
X0395294Y0117636D01*
X0395294Y0119594D02*
X0387686Y0119594D01*
X0387686Y0121552D02*
X0395294Y0121552D01*
X0151466Y0119113D02*
X0151466Y0111741D01*
X0151466Y0119113D02*
X0159074Y0119113D01*
X0159074Y0111741D01*
X0151466Y0111741D01*
X0151466Y0113699D02*
X0159074Y0113699D01*
X0159074Y0115657D02*
X0151466Y0115657D01*
X0151466Y0117615D02*
X0159074Y0117615D01*
X0159074Y0136308D02*
X0159074Y0143680D01*
X0159074Y0136308D02*
X0151466Y0136308D01*
X0151466Y0143680D01*
X0159074Y0143680D01*
X0159074Y0138266D02*
X0151466Y0138266D01*
X0151466Y0140224D02*
X0159074Y0140224D01*
X0159074Y0142182D02*
X0151466Y0142182D01*
D15*
X0140310Y0128065D02*
X0140310Y0124719D01*
X0138734Y0124719D01*
X0138734Y0128065D01*
X0140310Y0128065D01*
X0140310Y0126293D02*
X0138734Y0126293D01*
X0138734Y0127867D02*
X0140310Y0127867D01*
X0138734Y0114955D02*
X0138734Y0111609D01*
X0138734Y0114955D02*
X0140310Y0114955D01*
X0140310Y0111609D01*
X0138734Y0111609D01*
X0138734Y0113183D02*
X0140310Y0113183D01*
X0140310Y0114757D02*
X0138734Y0114757D01*
X0406450Y0115546D02*
X0406450Y0118892D01*
X0408026Y0118892D01*
X0408026Y0115546D01*
X0406450Y0115546D01*
X0406450Y0117120D02*
X0408026Y0117120D01*
X0408026Y0118694D02*
X0406450Y0118694D01*
X0408026Y0128656D02*
X0408026Y0132002D01*
X0408026Y0128656D02*
X0406450Y0128656D01*
X0406450Y0132002D01*
X0408026Y0132002D01*
X0408026Y0130230D02*
X0406450Y0130230D01*
X0406450Y0131804D02*
X0408026Y0131804D01*
X0406450Y0418695D02*
X0406450Y0422041D01*
X0408026Y0422041D01*
X0408026Y0418695D01*
X0406450Y0418695D01*
X0406450Y0420269D02*
X0408026Y0420269D01*
X0408026Y0421843D02*
X0406450Y0421843D01*
X0408026Y0431805D02*
X0408026Y0435151D01*
X0408026Y0431805D02*
X0406450Y0431805D01*
X0406450Y0435151D01*
X0408026Y0435151D01*
X0408026Y0433379D02*
X0406450Y0433379D01*
X0406450Y0434953D02*
X0408026Y0434953D01*
X0140310Y0435151D02*
X0140310Y0431805D01*
X0138734Y0431805D01*
X0138734Y0435151D01*
X0140310Y0435151D01*
X0140310Y0433379D02*
X0138734Y0433379D01*
X0138734Y0434953D02*
X0140310Y0434953D01*
X0138734Y0422041D02*
X0138734Y0418695D01*
X0138734Y0422041D02*
X0140310Y0422041D01*
X0140310Y0418695D01*
X0138734Y0418695D01*
X0138734Y0420269D02*
X0140310Y0420269D01*
X0140310Y0421843D02*
X0138734Y0421843D01*
D16*
X0268163Y0115900D03*
X0278596Y0115900D03*
D17*
X0279305Y0266589D03*
X0277612Y0266589D03*
X0275919Y0266589D03*
X0274226Y0266589D03*
X0272533Y0266589D03*
X0270841Y0266589D03*
X0269148Y0266589D03*
X0267455Y0266589D03*
X0267455Y0280171D03*
X0269148Y0280171D03*
X0270841Y0280171D03*
X0272533Y0280171D03*
X0274226Y0280171D03*
X0275919Y0280171D03*
X0277612Y0280171D03*
X0279305Y0280171D03*
D18*
X0281156Y0275919D03*
X0281156Y0274226D03*
X0281156Y0272533D03*
X0281156Y0270841D03*
X0265604Y0270841D03*
X0265604Y0272533D03*
X0265604Y0274226D03*
X0265604Y0275919D03*
D19*
X0263380Y0346726D03*
D20*
X0273380Y0346726D03*
X0283380Y0346726D03*
X0283380Y0356726D03*
X0273380Y0356726D03*
X0263380Y0356726D03*
D21*
X0230073Y0430860D03*
X0332435Y0245821D03*
D22*
X0342435Y0245821D03*
X0320073Y0430860D03*
X0310073Y0430860D03*
X0300073Y0430860D03*
X0290073Y0430860D03*
X0280073Y0430860D03*
X0270073Y0430860D03*
X0260073Y0430860D03*
X0250073Y0430860D03*
X0240073Y0430860D03*
D23*
X0430860Y0331254D03*
X0430860Y0321254D03*
X0430860Y0311254D03*
X0430860Y0301254D03*
X0430860Y0291254D03*
X0430860Y0281254D03*
X0430860Y0264325D03*
X0430860Y0254325D03*
X0430860Y0244325D03*
X0430860Y0234325D03*
X0430860Y0224325D03*
X0430860Y0214325D03*
D24*
X0267771Y0310957D02*
X0265957Y0310957D01*
X0265957Y0312969D01*
X0267771Y0312969D01*
X0267771Y0310957D01*
X0267771Y0312843D02*
X0265957Y0312843D01*
X0259543Y0312969D02*
X0257729Y0312969D01*
X0259543Y0312969D02*
X0259543Y0310957D01*
X0257729Y0310957D01*
X0257729Y0312969D01*
X0257729Y0312843D02*
X0259543Y0312843D01*
X0259543Y0322024D02*
X0257729Y0322024D01*
X0259543Y0322024D02*
X0259543Y0320012D01*
X0257729Y0320012D01*
X0257729Y0322024D01*
X0257729Y0321898D02*
X0259543Y0321898D01*
X0265957Y0320012D02*
X0267771Y0320012D01*
X0265957Y0320012D02*
X0265957Y0322024D01*
X0267771Y0322024D01*
X0267771Y0320012D01*
X0267771Y0321898D02*
X0265957Y0321898D01*
D25*
X0343852Y0271608D03*
X0343852Y0269640D03*
D26*
X0430860Y0136077D03*
X0430860Y0410683D03*
X0115900Y0406746D03*
X0115900Y0136077D03*
D27*
X0119640Y0144522D03*
X0112159Y0144522D03*
X0112159Y0398301D03*
X0119640Y0398301D03*
X0427120Y0402238D03*
X0434600Y0402238D03*
X0434600Y0144522D03*
X0427120Y0144522D03*
D28*
X0429049Y0158478D02*
X0429049Y0160290D01*
X0432671Y0160290D01*
X0432671Y0158478D01*
X0429049Y0158478D01*
X0429049Y0160288D02*
X0432671Y0160288D01*
X0432671Y0165998D02*
X0432671Y0167810D01*
X0432671Y0165998D02*
X0429049Y0165998D01*
X0429049Y0167810D01*
X0432671Y0167810D01*
X0432671Y0167808D02*
X0429049Y0167808D01*
X0420860Y0167810D02*
X0420860Y0165998D01*
X0417238Y0165998D01*
X0417238Y0167810D01*
X0420860Y0167810D01*
X0420860Y0167808D02*
X0417238Y0167808D01*
X0417238Y0160290D02*
X0417238Y0158478D01*
X0417238Y0160290D02*
X0420860Y0160290D01*
X0420860Y0158478D01*
X0417238Y0158478D01*
X0417238Y0160288D02*
X0420860Y0160288D01*
X0253046Y0267435D02*
X0251234Y0267435D01*
X0251234Y0271057D01*
X0253046Y0271057D01*
X0253046Y0267435D01*
X0253046Y0269245D02*
X0251234Y0269245D01*
X0251234Y0271055D02*
X0253046Y0271055D01*
X0253046Y0277474D02*
X0251234Y0277474D01*
X0251234Y0281096D01*
X0253046Y0281096D01*
X0253046Y0277474D01*
X0253046Y0279284D02*
X0251234Y0279284D01*
X0251234Y0281094D02*
X0253046Y0281094D01*
X0245526Y0281096D02*
X0243714Y0281096D01*
X0245526Y0281096D02*
X0245526Y0277474D01*
X0243714Y0277474D01*
X0243714Y0281096D01*
X0243714Y0279284D02*
X0245526Y0279284D01*
X0245526Y0281094D02*
X0243714Y0281094D01*
X0243714Y0271057D02*
X0245526Y0271057D01*
X0245526Y0267435D01*
X0243714Y0267435D01*
X0243714Y0271057D01*
X0243714Y0269245D02*
X0245526Y0269245D01*
X0245526Y0271055D02*
X0243714Y0271055D01*
X0242967Y0313774D02*
X0241155Y0313774D01*
X0242967Y0313774D02*
X0242967Y0310152D01*
X0241155Y0310152D01*
X0241155Y0313774D01*
X0241155Y0311962D02*
X0242967Y0311962D01*
X0242967Y0313772D02*
X0241155Y0313772D01*
X0241155Y0322829D02*
X0242967Y0322829D01*
X0242967Y0319207D01*
X0241155Y0319207D01*
X0241155Y0322829D01*
X0241155Y0321017D02*
X0242967Y0321017D01*
X0242967Y0322827D02*
X0241155Y0322827D01*
X0248675Y0319207D02*
X0250487Y0319207D01*
X0248675Y0319207D02*
X0248675Y0322829D01*
X0250487Y0322829D01*
X0250487Y0319207D01*
X0250487Y0321017D02*
X0248675Y0321017D01*
X0248675Y0322827D02*
X0250487Y0322827D01*
X0250487Y0310152D02*
X0248675Y0310152D01*
X0248675Y0313774D01*
X0250487Y0313774D01*
X0250487Y0310152D01*
X0250487Y0311962D02*
X0248675Y0311962D01*
X0248675Y0313772D02*
X0250487Y0313772D01*
X0279344Y0335033D02*
X0281156Y0335033D01*
X0281156Y0331411D01*
X0279344Y0331411D01*
X0279344Y0335033D01*
X0279344Y0333221D02*
X0281156Y0333221D01*
X0281156Y0335031D02*
X0279344Y0335031D01*
X0286864Y0331411D02*
X0288676Y0331411D01*
X0286864Y0331411D02*
X0286864Y0335033D01*
X0288676Y0335033D01*
X0288676Y0331411D01*
X0288676Y0333221D02*
X0286864Y0333221D01*
X0286864Y0335031D02*
X0288676Y0335031D01*
X0417238Y0382887D02*
X0417238Y0384699D01*
X0420860Y0384699D01*
X0420860Y0382887D01*
X0417238Y0382887D01*
X0417238Y0384697D02*
X0420860Y0384697D01*
X0420860Y0390407D02*
X0420860Y0392219D01*
X0420860Y0390407D02*
X0417238Y0390407D01*
X0417238Y0392219D01*
X0420860Y0392219D01*
X0420860Y0392217D02*
X0417238Y0392217D01*
X0432671Y0392219D02*
X0432671Y0390407D01*
X0429049Y0390407D01*
X0429049Y0392219D01*
X0432671Y0392219D01*
X0432671Y0392217D02*
X0429049Y0392217D01*
X0429049Y0384699D02*
X0429049Y0382887D01*
X0429049Y0384699D02*
X0432671Y0384699D01*
X0432671Y0382887D01*
X0429049Y0382887D01*
X0429049Y0384697D02*
X0432671Y0384697D01*
X0129522Y0386470D02*
X0129522Y0388282D01*
X0129522Y0386470D02*
X0125900Y0386470D01*
X0125900Y0388282D01*
X0129522Y0388282D01*
X0129522Y0388280D02*
X0125900Y0388280D01*
X0125900Y0380762D02*
X0125900Y0378950D01*
X0125900Y0380762D02*
X0129522Y0380762D01*
X0129522Y0378950D01*
X0125900Y0378950D01*
X0125900Y0380760D02*
X0129522Y0380760D01*
X0114089Y0380762D02*
X0114089Y0378950D01*
X0114089Y0380762D02*
X0117711Y0380762D01*
X0117711Y0378950D01*
X0114089Y0378950D01*
X0114089Y0380760D02*
X0117711Y0380760D01*
X0117711Y0386470D02*
X0117711Y0388282D01*
X0117711Y0386470D02*
X0114089Y0386470D01*
X0114089Y0388282D01*
X0117711Y0388282D01*
X0117711Y0388280D02*
X0114089Y0388280D01*
X0117711Y0163873D02*
X0117711Y0162061D01*
X0114089Y0162061D01*
X0114089Y0163873D01*
X0117711Y0163873D01*
X0117711Y0163871D02*
X0114089Y0163871D01*
X0114089Y0156353D02*
X0114089Y0154541D01*
X0114089Y0156353D02*
X0117711Y0156353D01*
X0117711Y0154541D01*
X0114089Y0154541D01*
X0114089Y0156351D02*
X0117711Y0156351D01*
X0125900Y0156353D02*
X0125900Y0154541D01*
X0125900Y0156353D02*
X0129522Y0156353D01*
X0129522Y0154541D01*
X0125900Y0154541D01*
X0125900Y0156351D02*
X0129522Y0156351D01*
X0129522Y0162061D02*
X0129522Y0163873D01*
X0129522Y0162061D02*
X0125900Y0162061D01*
X0125900Y0163873D01*
X0129522Y0163873D01*
X0129522Y0163871D02*
X0125900Y0163871D01*
D29*
X0115900Y0119837D03*
X0127711Y0119837D03*
X0419049Y0119837D03*
X0430860Y0119837D03*
X0430860Y0426923D03*
X0419049Y0426923D03*
X0127711Y0426923D03*
X0115900Y0426923D03*
D30*
X0184478Y0344049D03*
X0184478Y0342081D03*
X0184478Y0340112D03*
X0184478Y0338144D03*
X0184478Y0336175D03*
X0184478Y0334207D03*
X0184478Y0332238D03*
X0184478Y0330270D03*
X0184478Y0328301D03*
X0184478Y0326333D03*
X0184478Y0324364D03*
X0184478Y0322396D03*
X0184478Y0320427D03*
X0184478Y0318459D03*
X0184478Y0316490D03*
X0184478Y0314522D03*
X0222911Y0314522D03*
X0222911Y0316490D03*
X0222911Y0318459D03*
X0222911Y0320427D03*
X0222911Y0322396D03*
X0222911Y0324364D03*
X0222911Y0326333D03*
X0222911Y0328301D03*
X0222911Y0330270D03*
X0222911Y0332238D03*
X0222911Y0334207D03*
X0222911Y0336175D03*
X0222911Y0338144D03*
X0222911Y0340112D03*
X0222911Y0342081D03*
X0222911Y0344049D03*
D31*
X0218459Y0348502D03*
X0216490Y0348502D03*
X0214522Y0348502D03*
X0212553Y0348502D03*
X0210585Y0348502D03*
X0208616Y0348502D03*
X0206648Y0348502D03*
X0204679Y0348502D03*
X0202711Y0348502D03*
X0200742Y0348502D03*
X0198774Y0348502D03*
X0196805Y0348502D03*
X0194837Y0348502D03*
X0192868Y0348502D03*
X0190900Y0348502D03*
X0188931Y0348502D03*
X0188931Y0310069D03*
X0190900Y0310069D03*
X0192868Y0310069D03*
X0194837Y0310069D03*
X0196805Y0310069D03*
X0198774Y0310069D03*
X0200742Y0310069D03*
X0202711Y0310069D03*
X0204679Y0310069D03*
X0206648Y0310069D03*
X0208616Y0310069D03*
X0210585Y0310069D03*
X0212553Y0310069D03*
X0214522Y0310069D03*
X0216490Y0310069D03*
X0218459Y0310069D03*
D32*
X0359207Y0272593D03*
X0366687Y0272593D03*
X0366687Y0262356D03*
X0362947Y0262356D03*
X0359207Y0262356D03*
D33*
X0212159Y0372593D03*
X0212159Y0381648D03*
X0197593Y0381648D03*
X0197593Y0372593D03*
D34*
X0174364Y0342278D02*
X0174256Y0331970D01*
X0154202Y0331970D01*
X0153422Y0332750D01*
X0153422Y0334590D01*
X0152602Y0335410D01*
X0150608Y0335410D01*
X0150568Y0335450D01*
X0150157Y0335687D01*
X0149700Y0335810D01*
X0148774Y0335810D01*
X0148774Y0332435D01*
X0148774Y0332435D01*
X0148774Y0335810D01*
X0147848Y0335810D01*
X0147390Y0335687D01*
X0146979Y0335450D01*
X0146939Y0335410D01*
X0144946Y0335410D01*
X0144126Y0334590D01*
X0144126Y0330280D01*
X0139977Y0330280D01*
X0139977Y0329123D02*
X0139977Y0332700D01*
X0139157Y0333520D01*
X0134509Y0333520D01*
X0134600Y0342278D01*
X0174364Y0342278D01*
X0174356Y0341469D02*
X0134592Y0341469D01*
X0134575Y0339871D02*
X0174339Y0339871D01*
X0174322Y0338272D02*
X0134559Y0338272D01*
X0134542Y0336674D02*
X0174305Y0336674D01*
X0174288Y0335075D02*
X0152936Y0335075D01*
X0153422Y0333477D02*
X0174272Y0333477D01*
X0174199Y0326601D02*
X0173983Y0306082D01*
X0134223Y0306082D01*
X0134376Y0320720D01*
X0139157Y0320720D01*
X0139977Y0321540D01*
X0139977Y0324723D01*
X0144015Y0324723D01*
X0144015Y0324685D01*
X0142046Y0322716D01*
X0142046Y0320796D01*
X0140740Y0319489D01*
X0140740Y0313885D01*
X0142133Y0312492D01*
X0146399Y0312492D01*
X0147632Y0313725D01*
X0147703Y0313554D01*
X0148007Y0313099D01*
X0148394Y0312712D01*
X0148849Y0312408D01*
X0149355Y0312199D01*
X0149891Y0312092D01*
X0151050Y0312092D01*
X0151050Y0316424D01*
X0151576Y0316424D01*
X0151576Y0312092D01*
X0152735Y0312092D01*
X0153271Y0312199D01*
X0153777Y0312408D01*
X0154232Y0312712D01*
X0154619Y0313099D01*
X0154923Y0313554D01*
X0155132Y0314059D01*
X0155239Y0314596D01*
X0155239Y0316424D01*
X0151576Y0316424D01*
X0151576Y0316950D01*
X0155239Y0316950D01*
X0155239Y0318778D01*
X0155132Y0319315D01*
X0154923Y0319820D01*
X0154619Y0320275D01*
X0154232Y0320662D01*
X0153777Y0320966D01*
X0153271Y0321176D01*
X0152735Y0321282D01*
X0151576Y0321282D01*
X0151576Y0316950D01*
X0151050Y0316950D01*
X0151050Y0321282D01*
X0149891Y0321282D01*
X0149355Y0321176D01*
X0148849Y0320966D01*
X0148394Y0320662D01*
X0148007Y0320275D01*
X0147703Y0319820D01*
X0147632Y0319649D01*
X0146446Y0320835D01*
X0146446Y0320894D01*
X0147126Y0321574D01*
X0148415Y0322862D01*
X0148415Y0323107D01*
X0148660Y0322861D01*
X0148660Y0322861D01*
X0149644Y0321877D01*
X0156389Y0321877D01*
X0156389Y0319652D01*
X0157623Y0318419D01*
X0157451Y0318348D01*
X0156997Y0318044D01*
X0156610Y0317657D01*
X0156306Y0317202D01*
X0156096Y0316697D01*
X0155989Y0316160D01*
X0155989Y0315001D01*
X0160322Y0315001D01*
X0160322Y0314475D01*
X0160848Y0314475D01*
X0160848Y0315001D01*
X0165180Y0315001D01*
X0165180Y0316160D01*
X0165073Y0316697D01*
X0164864Y0317202D01*
X0164560Y0317657D01*
X0164173Y0318044D01*
X0163718Y0318348D01*
X0163546Y0318419D01*
X0164780Y0319652D01*
X0164780Y0323918D01*
X0163387Y0325311D01*
X0157782Y0325311D01*
X0157748Y0325277D01*
X0153422Y0325277D01*
X0153422Y0325821D01*
X0154202Y0326601D01*
X0174199Y0326601D01*
X0174187Y0325484D02*
X0153422Y0325484D01*
X0154192Y0320689D02*
X0156389Y0320689D01*
X0156952Y0319090D02*
X0155177Y0319090D01*
X0155239Y0317492D02*
X0156499Y0317492D01*
X0155989Y0315893D02*
X0155239Y0315893D01*
X0155179Y0314295D02*
X0155989Y0314295D01*
X0155989Y0314475D02*
X0155989Y0313317D01*
X0156096Y0312780D01*
X0156306Y0312274D01*
X0156610Y0311819D01*
X0156997Y0311432D01*
X0157451Y0311128D01*
X0157957Y0310919D01*
X0158494Y0310812D01*
X0160322Y0310812D01*
X0160322Y0314475D01*
X0155989Y0314475D01*
X0156131Y0312696D02*
X0154208Y0312696D01*
X0151576Y0312696D02*
X0151050Y0312696D01*
X0151050Y0314295D02*
X0151576Y0314295D01*
X0151576Y0315893D02*
X0151050Y0315893D01*
X0151050Y0317492D02*
X0151576Y0317492D01*
X0151576Y0319090D02*
X0151050Y0319090D01*
X0151050Y0320689D02*
X0151576Y0320689D01*
X0149234Y0322287D02*
X0147839Y0322287D01*
X0148434Y0320689D02*
X0146592Y0320689D01*
X0144246Y0321805D02*
X0146215Y0323774D01*
X0146215Y0326136D01*
X0146215Y0326530D01*
X0145821Y0326923D01*
X0136766Y0326923D01*
X0136577Y0327120D01*
X0139977Y0329123D02*
X0146732Y0329123D01*
X0146745Y0329111D01*
X0147483Y0329111D01*
X0147494Y0329100D01*
X0147505Y0329111D01*
X0147660Y0329111D01*
X0147390Y0329183D01*
X0146979Y0329420D01*
X0146939Y0329460D01*
X0144946Y0329460D01*
X0144126Y0330280D01*
X0144126Y0331878D02*
X0139977Y0331878D01*
X0139200Y0333477D02*
X0144126Y0333477D01*
X0144611Y0335075D02*
X0134525Y0335075D01*
X0139977Y0323886D02*
X0143215Y0323886D01*
X0142046Y0322287D02*
X0139977Y0322287D01*
X0141939Y0320689D02*
X0134376Y0320689D01*
X0134359Y0319090D02*
X0140740Y0319090D01*
X0140740Y0317492D02*
X0134342Y0317492D01*
X0134326Y0315893D02*
X0140740Y0315893D01*
X0140740Y0314295D02*
X0134309Y0314295D01*
X0134292Y0312696D02*
X0141928Y0312696D01*
X0144246Y0316687D02*
X0144246Y0321805D01*
X0144246Y0316687D02*
X0144266Y0316687D01*
X0146603Y0312696D02*
X0148418Y0312696D01*
X0157526Y0311098D02*
X0134276Y0311098D01*
X0134259Y0309499D02*
X0174019Y0309499D01*
X0174002Y0307901D02*
X0134242Y0307901D01*
X0134226Y0306302D02*
X0173986Y0306302D01*
X0174036Y0311098D02*
X0163644Y0311098D01*
X0163718Y0311128D02*
X0164173Y0311432D01*
X0164560Y0311819D01*
X0164864Y0312274D01*
X0165073Y0312780D01*
X0165180Y0313317D01*
X0165180Y0314475D01*
X0160848Y0314475D01*
X0160848Y0310812D01*
X0162676Y0310812D01*
X0163212Y0310919D01*
X0163718Y0311128D01*
X0165038Y0312696D02*
X0174053Y0312696D01*
X0174070Y0314295D02*
X0165180Y0314295D01*
X0165180Y0315893D02*
X0174086Y0315893D01*
X0174103Y0317492D02*
X0164670Y0317492D01*
X0164218Y0319090D02*
X0174120Y0319090D01*
X0174137Y0320689D02*
X0164780Y0320689D01*
X0164780Y0322287D02*
X0174154Y0322287D01*
X0174171Y0323886D02*
X0164780Y0323886D01*
X0160848Y0314295D02*
X0160322Y0314295D01*
X0160322Y0312696D02*
X0160848Y0312696D01*
X0160848Y0311098D02*
X0160322Y0311098D01*
X0148774Y0333477D02*
X0148774Y0333477D01*
X0148774Y0335075D02*
X0148774Y0335075D01*
D35*
X0151333Y0339915D03*
X0143852Y0339915D03*
X0137947Y0337553D03*
X0137159Y0317081D03*
X0137159Y0310388D03*
X0143459Y0308813D03*
X0150545Y0308419D03*
X0158026Y0308026D03*
X0167081Y0308026D03*
X0170624Y0313537D03*
X0170624Y0321411D03*
X0170624Y0335191D03*
X0166687Y0339915D03*
X0159207Y0339915D03*
X0178892Y0415506D03*
X0178892Y0425742D03*
X0284797Y0324167D03*
X0306057Y0302908D03*
X0268656Y0252908D03*
X0359207Y0297789D03*
X0415900Y0264325D03*
X0424561Y0181648D03*
X0357238Y0124167D03*
X0296215Y0116293D03*
X0251333Y0116293D03*
X0179679Y0119443D03*
X0179679Y0130467D03*
X0424561Y0372986D03*
D36*
X0423970Y0384600D02*
X0420033Y0388537D01*
X0416096Y0388537D01*
X0412159Y0392474D01*
X0412159Y0407238D01*
X0411589Y0407238D01*
X0401333Y0407238D01*
X0372789Y0435782D01*
X0285191Y0435782D01*
X0280270Y0430860D01*
X0280073Y0430860D01*
X0274364Y0432829D02*
X0271411Y0435782D01*
X0265506Y0435782D01*
X0260585Y0430860D01*
X0260073Y0430860D01*
X0259600Y0430860D01*
X0229089Y0400348D01*
X0134600Y0400348D01*
X0134600Y0380663D01*
X0130663Y0376726D01*
X0124758Y0376726D01*
X0121805Y0379679D01*
X0115900Y0379679D01*
X0115900Y0379856D01*
X0134600Y0400348D02*
X0134600Y0403301D01*
X0135171Y0403301D01*
X0174955Y0366884D02*
X0174955Y0342278D01*
X0174364Y0342278D01*
X0174261Y0332442D02*
X0174955Y0332435D01*
X0183813Y0332435D01*
X0184478Y0332238D01*
X0184797Y0332435D01*
X0187750Y0332435D01*
X0194640Y0339325D01*
X0194640Y0348183D01*
X0194837Y0348502D01*
X0196608Y0349167D02*
X0196805Y0348502D01*
X0196608Y0349167D02*
X0196608Y0352120D01*
X0186766Y0361963D01*
X0186766Y0370821D01*
X0185978Y0371037D01*
X0189719Y0368852D02*
X0189719Y0374758D01*
X0186766Y0377711D01*
X0185978Y0378085D01*
X0185782Y0377711D01*
X0174955Y0366884D01*
X0189719Y0368852D02*
X0200545Y0358026D01*
X0200545Y0349167D01*
X0200742Y0348502D01*
X0200545Y0348183D01*
X0200545Y0345230D01*
X0201530Y0344246D01*
X0205467Y0344246D01*
X0206451Y0345230D01*
X0206451Y0348183D01*
X0206648Y0348502D01*
X0206451Y0349167D01*
X0206451Y0361963D01*
X0207435Y0362947D01*
X0208400Y0363537D01*
X0208419Y0363931D01*
X0212356Y0363931D01*
X0222199Y0373774D01*
X0222986Y0374187D01*
X0222199Y0369837D02*
X0214325Y0361963D01*
X0214325Y0349167D01*
X0214522Y0348502D01*
X0216293Y0349167D02*
X0216490Y0348502D01*
X0216293Y0349167D02*
X0216293Y0359994D01*
X0269443Y0413144D01*
X0269443Y0430860D01*
X0270073Y0430860D01*
X0274364Y0432829D02*
X0274364Y0413144D01*
X0218262Y0357041D01*
X0218262Y0349167D01*
X0218459Y0348502D01*
X0215309Y0343262D02*
X0215309Y0340309D01*
X0210388Y0335388D01*
X0210388Y0321608D01*
X0204482Y0315703D01*
X0204482Y0310782D01*
X0204679Y0310069D01*
X0204482Y0309797D01*
X0204482Y0306845D01*
X0210388Y0300939D01*
X0230073Y0300939D01*
X0251726Y0279285D01*
X0252140Y0279285D01*
X0252711Y0279285D01*
X0255663Y0276333D01*
X0265506Y0276333D01*
X0265604Y0275919D01*
X0265506Y0274364D02*
X0265604Y0274226D01*
X0265506Y0274364D02*
X0250742Y0274364D01*
X0245821Y0279285D01*
X0244620Y0279285D01*
X0243852Y0279285D01*
X0238931Y0274364D01*
X0243852Y0269443D01*
X0244620Y0269246D01*
X0244837Y0268459D01*
X0247789Y0265506D01*
X0253695Y0265506D01*
X0257632Y0269443D01*
X0264522Y0262553D01*
X0268459Y0262553D01*
X0269443Y0263537D01*
X0270427Y0263537D01*
X0270427Y0266490D01*
X0270841Y0266589D01*
X0270427Y0266490D02*
X0269443Y0266490D01*
X0269148Y0266589D01*
X0267474Y0266490D02*
X0267455Y0266589D01*
X0267474Y0266490D02*
X0264522Y0266490D01*
X0265506Y0270427D02*
X0258616Y0270427D01*
X0257632Y0269443D01*
X0255663Y0272396D02*
X0252711Y0269443D01*
X0252140Y0269246D01*
X0251726Y0269443D01*
X0247789Y0273380D01*
X0255663Y0272396D02*
X0265506Y0272396D01*
X0265604Y0272533D01*
X0265604Y0270841D02*
X0265506Y0270427D01*
X0270427Y0263537D02*
X0271411Y0262553D01*
X0278301Y0262553D01*
X0279285Y0263537D01*
X0279285Y0266490D01*
X0279305Y0266589D01*
X0279285Y0266490D02*
X0288144Y0266490D01*
X0296018Y0274364D01*
X0296018Y0280270D01*
X0293065Y0283222D01*
X0292278Y0284187D01*
X0292081Y0284207D01*
X0291096Y0285191D01*
X0291096Y0292081D01*
X0290919Y0292868D01*
X0291096Y0293065D01*
X0300939Y0302908D01*
X0306057Y0302908D01*
X0307829Y0305860D02*
X0297986Y0305860D01*
X0285191Y0293065D01*
X0279285Y0293065D01*
X0278695Y0292297D01*
X0279285Y0292081D01*
X0279285Y0280270D01*
X0279305Y0280171D01*
X0279285Y0280270D02*
X0280270Y0280270D01*
X0284207Y0276333D01*
X0292081Y0276333D01*
X0292278Y0277140D01*
X0297986Y0274364D02*
X0345230Y0274364D01*
X0348183Y0271411D01*
X0348183Y0266490D01*
X0362947Y0266490D01*
X0362947Y0262356D01*
X0362947Y0266490D02*
X0362947Y0269443D01*
X0365900Y0272396D01*
X0366687Y0272593D01*
X0366884Y0272396D01*
X0412159Y0272396D01*
X0420033Y0264522D01*
X0430860Y0264522D01*
X0430860Y0264325D01*
X0430860Y0281254D02*
X0422986Y0289128D01*
X0396982Y0289128D01*
X0389935Y0289128D02*
X0372789Y0289128D01*
X0329482Y0332435D01*
X0288144Y0332435D01*
X0287770Y0333222D01*
X0287159Y0333419D01*
X0287159Y0343262D01*
X0284207Y0346215D01*
X0283380Y0346726D01*
X0278301Y0344246D02*
X0278301Y0352120D01*
X0259600Y0352120D01*
X0245821Y0338341D01*
X0223183Y0338341D01*
X0222911Y0338144D01*
X0222199Y0336372D02*
X0222911Y0336175D01*
X0222199Y0336372D02*
X0217278Y0336372D01*
X0213341Y0336372D02*
X0217278Y0340309D01*
X0222199Y0340309D01*
X0222911Y0340112D01*
X0222911Y0342081D02*
X0223183Y0342278D01*
X0241884Y0342278D01*
X0261569Y0361963D01*
X0360978Y0361963D01*
X0430860Y0292081D01*
X0430860Y0291254D01*
X0435782Y0333419D02*
X0384600Y0384600D01*
X0316687Y0384600D01*
X0290112Y0405270D02*
X0290112Y0430860D01*
X0290073Y0430860D01*
X0283380Y0356726D02*
X0283222Y0356057D01*
X0279285Y0352120D01*
X0278301Y0352120D01*
X0273380Y0346726D02*
X0273380Y0346215D01*
X0263537Y0336372D01*
X0263537Y0311766D01*
X0259600Y0307829D01*
X0240900Y0307829D01*
X0226136Y0322593D01*
X0223183Y0322593D01*
X0222911Y0322396D01*
X0222911Y0324364D02*
X0222199Y0324561D01*
X0218262Y0324561D01*
X0217278Y0325545D01*
X0213341Y0325545D02*
X0213341Y0336372D01*
X0208419Y0335388D02*
X0208419Y0333419D01*
X0200545Y0325545D01*
X0200545Y0318656D01*
X0200545Y0310782D01*
X0200742Y0310069D01*
X0202514Y0309797D02*
X0202711Y0310069D01*
X0202514Y0309797D02*
X0202514Y0306845D01*
X0210388Y0298970D01*
X0211372Y0298970D01*
X0212356Y0297986D01*
X0212356Y0293065D01*
X0208419Y0289128D01*
X0208419Y0288360D01*
X0208419Y0289128D02*
X0199561Y0289128D01*
X0199561Y0298970D01*
X0193656Y0304876D01*
X0188734Y0299955D01*
X0173970Y0314719D01*
X0174178Y0324569D02*
X0174955Y0324561D01*
X0183813Y0324561D01*
X0184478Y0324364D01*
X0184797Y0324561D01*
X0184797Y0326530D01*
X0184478Y0326333D01*
X0184478Y0328301D02*
X0153498Y0328301D01*
X0151333Y0326136D01*
X0149364Y0325545D02*
X0148774Y0326136D01*
X0149364Y0325545D02*
X0149364Y0324561D01*
X0150348Y0323577D01*
X0159207Y0323577D01*
X0160191Y0322593D01*
X0160585Y0321785D01*
X0153498Y0330270D02*
X0151333Y0332435D01*
X0153498Y0330270D02*
X0184478Y0330270D01*
X0184797Y0322593D02*
X0184478Y0322396D01*
X0184797Y0322593D02*
X0193656Y0322593D01*
X0202514Y0331451D01*
X0208419Y0335388D02*
X0198577Y0345230D01*
X0198577Y0348183D01*
X0198774Y0348502D01*
X0202514Y0349167D02*
X0202711Y0348502D01*
X0202514Y0349167D02*
X0202514Y0361963D01*
X0201530Y0362947D01*
X0201352Y0363537D01*
X0200545Y0363931D01*
X0200545Y0368852D01*
X0197593Y0371805D01*
X0197593Y0372593D01*
X0204482Y0374758D02*
X0211372Y0381648D01*
X0212159Y0381648D01*
X0222199Y0381648D01*
X0222986Y0381234D01*
X0204482Y0374758D02*
X0204482Y0349167D01*
X0204679Y0348502D01*
X0208419Y0348183D02*
X0208616Y0348502D01*
X0208419Y0348183D02*
X0208419Y0335388D01*
X0217278Y0330467D02*
X0222199Y0330467D01*
X0222911Y0330270D01*
X0222911Y0332238D02*
X0223183Y0332435D01*
X0227120Y0332435D01*
X0232041Y0327514D01*
X0232041Y0325545D01*
X0241884Y0315703D01*
X0241884Y0312750D01*
X0242061Y0311963D01*
X0249581Y0311963D02*
X0249758Y0312750D01*
X0258616Y0312750D01*
X0258636Y0311963D01*
X0266864Y0311963D02*
X0267474Y0311766D01*
X0268459Y0310782D01*
X0268459Y0305860D01*
X0240900Y0305860D01*
X0231057Y0315703D01*
X0227120Y0315703D01*
X0227120Y0317671D01*
X0226136Y0318656D01*
X0223183Y0318656D01*
X0222911Y0318459D01*
X0222199Y0316687D02*
X0217278Y0316687D01*
X0222199Y0316687D02*
X0222911Y0316490D01*
X0223183Y0314719D02*
X0222911Y0314522D01*
X0223183Y0314719D02*
X0226136Y0314719D01*
X0227120Y0315703D01*
X0229089Y0326530D02*
X0223183Y0326530D01*
X0222911Y0326333D01*
X0222911Y0334207D02*
X0223183Y0334404D01*
X0227120Y0334404D01*
X0239915Y0321608D01*
X0241884Y0321608D01*
X0242061Y0321018D01*
X0249581Y0321018D02*
X0249758Y0321608D01*
X0258616Y0321608D01*
X0258636Y0321018D01*
X0266864Y0321018D02*
X0267474Y0321608D01*
X0267474Y0333419D01*
X0278301Y0344246D01*
X0280250Y0333222D02*
X0280270Y0332435D01*
X0280270Y0328498D01*
X0284207Y0324561D01*
X0284797Y0324167D01*
X0274364Y0313734D01*
X0274364Y0297986D01*
X0271411Y0295033D01*
X0270427Y0296018D01*
X0266490Y0296018D01*
X0264522Y0294049D01*
X0264522Y0290112D01*
X0267474Y0287159D01*
X0267474Y0280270D01*
X0267455Y0280171D01*
X0269148Y0280171D02*
X0269443Y0280270D01*
X0269443Y0291096D01*
X0268459Y0292081D01*
X0268459Y0292100D01*
X0271411Y0295033D02*
X0272396Y0294049D01*
X0272396Y0280270D01*
X0272533Y0280171D01*
X0272199Y0280073D01*
X0271018Y0280073D01*
X0270841Y0280171D01*
X0274226Y0280171D02*
X0274364Y0280270D01*
X0274364Y0295033D01*
X0278301Y0298970D01*
X0278695Y0299345D01*
X0268459Y0299148D02*
X0268459Y0305860D01*
X0266864Y0311963D02*
X0267474Y0312750D01*
X0267474Y0320624D01*
X0266864Y0321018D01*
X0244837Y0328498D02*
X0262553Y0346215D01*
X0263380Y0346726D01*
X0244837Y0328498D02*
X0242868Y0328498D01*
X0232041Y0302908D02*
X0210388Y0302908D01*
X0206451Y0306845D01*
X0206451Y0309797D01*
X0206648Y0310069D01*
X0208419Y0310782D02*
X0208419Y0315703D01*
X0208419Y0310782D02*
X0208616Y0310069D01*
X0210388Y0309797D02*
X0210585Y0310069D01*
X0210388Y0309797D02*
X0210388Y0306845D01*
X0211372Y0305860D01*
X0221215Y0305860D01*
X0208419Y0296018D02*
X0208419Y0295408D01*
X0208419Y0296018D02*
X0198577Y0305860D01*
X0198577Y0309797D01*
X0198774Y0310069D01*
X0198577Y0309797D02*
X0196608Y0309797D01*
X0196805Y0310069D01*
X0194837Y0310069D02*
X0194640Y0309797D01*
X0194640Y0305860D01*
X0193656Y0304876D01*
X0188734Y0299955D02*
X0185782Y0297002D01*
X0185585Y0296195D01*
X0185782Y0290112D02*
X0185585Y0289148D01*
X0185782Y0290112D02*
X0188734Y0290112D01*
X0190703Y0288144D01*
X0190703Y0287159D01*
X0203498Y0274364D01*
X0238931Y0274364D01*
X0235978Y0271411D01*
X0235762Y0270624D01*
X0229089Y0270427D02*
X0228715Y0270624D01*
X0229089Y0270427D02*
X0245821Y0253695D01*
X0268459Y0253695D01*
X0268656Y0252908D01*
X0269443Y0253695D01*
X0277317Y0253695D01*
X0297986Y0274364D01*
X0297986Y0290112D01*
X0297967Y0292868D01*
X0297986Y0292081D01*
X0297986Y0290112D01*
X0309797Y0301923D01*
X0309797Y0303892D01*
X0307829Y0305860D01*
X0284207Y0276333D02*
X0281254Y0276333D01*
X0281156Y0275919D01*
X0281254Y0276333D02*
X0281254Y0274364D01*
X0281156Y0274226D01*
X0281254Y0274364D02*
X0281254Y0272396D01*
X0281156Y0272533D01*
X0281254Y0272396D02*
X0281254Y0270427D01*
X0281156Y0270841D01*
X0279285Y0280270D02*
X0277317Y0280270D01*
X0277612Y0280171D01*
X0277317Y0280270D02*
X0276333Y0280270D01*
X0275919Y0280171D01*
X0343852Y0269640D02*
X0344246Y0269443D01*
X0344246Y0266490D01*
X0348183Y0266490D01*
X0344246Y0266490D02*
X0344246Y0264522D01*
X0358026Y0250742D01*
X0358439Y0250742D01*
X0359207Y0272593D02*
X0359994Y0273380D01*
X0359994Y0284207D01*
X0359423Y0284207D01*
X0359994Y0284207D02*
X0359994Y0297002D01*
X0359207Y0297789D01*
X0366470Y0284207D02*
X0366884Y0284207D01*
X0366884Y0273380D01*
X0366687Y0272593D01*
X0430860Y0207435D02*
X0435782Y0212356D01*
X0435782Y0333419D01*
X0430860Y0383793D02*
X0430860Y0384600D01*
X0423970Y0384600D01*
X0430860Y0207435D02*
X0430860Y0166904D01*
X0430860Y0166096D01*
X0423970Y0166096D01*
X0420033Y0162159D01*
X0416096Y0162159D01*
X0412159Y0158222D01*
X0412159Y0143459D01*
X0411589Y0143459D01*
X0199561Y0289128D02*
X0195624Y0289128D01*
X0195033Y0289148D01*
X0188734Y0290112D02*
X0194640Y0296018D01*
X0195033Y0296195D01*
X0178892Y0305860D02*
X0178892Y0285191D01*
X0122789Y0229089D01*
X0122789Y0162159D01*
X0126726Y0158222D01*
X0130663Y0158222D01*
X0131648Y0157238D01*
X0131648Y0146411D01*
X0128695Y0143459D01*
X0128124Y0143459D01*
X0122789Y0162159D02*
X0115900Y0162159D01*
X0115900Y0162967D01*
D37*
X0112947Y0150348D03*
X0247789Y0273380D03*
X0264522Y0266490D03*
X0232041Y0302908D03*
X0221215Y0305860D03*
X0217278Y0316687D03*
X0208419Y0315703D03*
X0200545Y0318656D03*
X0202514Y0331451D03*
X0213341Y0325545D03*
X0217278Y0325545D03*
X0217278Y0330467D03*
X0217278Y0336372D03*
X0215309Y0343262D03*
X0229089Y0326530D03*
X0242868Y0328498D03*
X0222199Y0369837D03*
X0178892Y0305860D03*
X0290112Y0405270D03*
X0316687Y0384600D03*
X0402317Y0431845D03*
X0422986Y0407238D03*
D38*
X0418636Y0407238D01*
X0427120Y0402238D02*
X0427908Y0401333D01*
X0427908Y0391490D01*
X0419049Y0391490D01*
X0419049Y0391313D01*
X0419049Y0383793D02*
X0419049Y0378695D01*
X0391490Y0406254D01*
X0391490Y0406766D01*
X0407238Y0420368D02*
X0407238Y0421018D01*
X0421018Y0421018D01*
X0430860Y0411175D01*
X0430860Y0410683D01*
X0434600Y0402238D02*
X0434797Y0401333D01*
X0434797Y0393459D01*
X0435782Y0392474D01*
X0435782Y0381648D01*
X0427908Y0373774D01*
X0424955Y0373774D01*
X0424561Y0372986D01*
X0423970Y0373774D01*
X0419049Y0378695D01*
X0427908Y0391490D02*
X0430860Y0391490D01*
X0430860Y0391313D01*
X0424955Y0421018D02*
X0430860Y0426923D01*
X0424955Y0421018D02*
X0421018Y0421018D01*
X0419049Y0426923D02*
X0413636Y0432337D01*
X0413144Y0431845D01*
X0402317Y0431845D01*
X0391490Y0431845D01*
X0391490Y0431333D01*
X0407238Y0432829D02*
X0407238Y0433478D01*
X0407238Y0432829D02*
X0413144Y0432829D01*
X0413636Y0432337D01*
X0343262Y0272396D02*
X0338341Y0272396D01*
X0331451Y0265506D01*
X0330880Y0264768D01*
X0343262Y0272396D02*
X0343852Y0271608D01*
X0359207Y0262356D02*
X0359994Y0261569D01*
X0359994Y0255663D01*
X0364915Y0250742D01*
X0365486Y0250742D01*
X0363931Y0250742D01*
X0363931Y0249758D01*
X0359994Y0245821D01*
X0357041Y0245821D01*
X0357041Y0124758D01*
X0357238Y0124167D01*
X0358026Y0123774D01*
X0361963Y0119837D01*
X0391490Y0119837D01*
X0391490Y0119364D01*
X0391490Y0118852D01*
X0417081Y0118852D01*
X0419049Y0119837D01*
X0417081Y0117868D01*
X0407238Y0117868D01*
X0407238Y0117219D01*
X0407238Y0130329D02*
X0407238Y0130663D01*
X0425939Y0130663D01*
X0430860Y0135585D01*
X0430860Y0136077D01*
X0430860Y0119837D01*
X0413144Y0138537D02*
X0407238Y0138537D01*
X0407238Y0156254D01*
X0419049Y0168065D01*
X0419049Y0166904D01*
X0419049Y0168065D02*
X0419049Y0175939D01*
X0423970Y0180860D01*
X0424561Y0181648D01*
X0419049Y0160191D02*
X0419049Y0159384D01*
X0419049Y0160191D02*
X0433813Y0145427D01*
X0434600Y0144522D01*
X0427120Y0144522D02*
X0426923Y0144443D01*
X0425939Y0143459D01*
X0418636Y0143459D01*
X0418065Y0143459D01*
X0413144Y0138537D01*
X0407238Y0138537D02*
X0396411Y0138537D01*
X0391490Y0143459D01*
X0391490Y0143931D01*
X0419049Y0160191D02*
X0430860Y0160191D01*
X0430860Y0159384D01*
X0357041Y0245821D02*
X0342435Y0245821D01*
X0365486Y0250742D02*
X0365900Y0250742D01*
X0365900Y0261569D01*
X0366687Y0262356D01*
X0296215Y0116293D02*
X0296018Y0115900D01*
X0278596Y0115900D01*
X0268163Y0115900D02*
X0251726Y0115900D01*
X0251333Y0116293D01*
X0179679Y0119443D02*
X0178892Y0118852D01*
X0158222Y0118852D01*
X0155270Y0115900D01*
X0155270Y0115427D01*
X0155270Y0114915D01*
X0133616Y0114915D01*
X0133124Y0114423D01*
X0133616Y0113931D01*
X0139522Y0113931D01*
X0139522Y0113282D01*
X0133124Y0114423D02*
X0127711Y0119837D01*
X0125742Y0125742D02*
X0115900Y0135585D01*
X0115900Y0136077D01*
X0119640Y0144522D02*
X0119837Y0145427D01*
X0119837Y0156254D01*
X0115900Y0156254D01*
X0115900Y0155447D01*
X0119837Y0156254D02*
X0127711Y0156254D01*
X0127711Y0155447D01*
X0127711Y0162159D02*
X0127711Y0162967D01*
X0127711Y0162159D02*
X0129679Y0162159D01*
X0134600Y0157238D01*
X0134600Y0143459D01*
X0135171Y0143459D01*
X0135585Y0143459D01*
X0138537Y0140506D01*
X0155270Y0140506D01*
X0155270Y0139994D01*
X0155270Y0139522D01*
X0170033Y0139522D01*
X0178892Y0130663D01*
X0179679Y0130467D01*
X0139522Y0126392D02*
X0139522Y0125742D01*
X0125742Y0125742D01*
X0121805Y0125742D01*
X0115900Y0119837D01*
X0112159Y0144522D02*
X0112947Y0145427D01*
X0112947Y0150348D01*
X0127711Y0379856D02*
X0127711Y0380663D01*
X0132632Y0385585D01*
X0132632Y0398380D01*
X0119837Y0398380D01*
X0119640Y0398301D01*
X0112947Y0397396D02*
X0112159Y0398301D01*
X0112947Y0397396D02*
X0122789Y0387553D01*
X0115900Y0387553D01*
X0115900Y0387376D01*
X0122789Y0387553D02*
X0127711Y0387553D01*
X0127711Y0387376D01*
X0132632Y0398380D02*
X0132632Y0399364D01*
X0128695Y0403301D01*
X0128124Y0403301D01*
X0129679Y0403301D01*
X0129679Y0404285D01*
X0133616Y0408222D01*
X0154285Y0408222D01*
X0155270Y0407238D01*
X0155270Y0406766D01*
X0155270Y0407238D02*
X0171018Y0407238D01*
X0178892Y0415112D01*
X0178892Y0415506D01*
X0178892Y0425742D02*
X0178892Y0425939D01*
X0173970Y0430860D01*
X0155270Y0430860D01*
X0155270Y0431333D01*
X0155270Y0431845D01*
X0133616Y0431845D01*
X0133124Y0432337D01*
X0133616Y0432829D01*
X0139522Y0432829D01*
X0139522Y0433478D01*
X0133124Y0432337D02*
X0127711Y0426923D01*
X0121805Y0421018D02*
X0115900Y0426923D01*
X0115900Y0406746D01*
X0121805Y0421018D02*
X0139522Y0421018D01*
X0139522Y0420368D01*
M02*
