G75*
%MOIN*%
%OFA0B0*%
%FSLAX25Y25*%
%IPPOS*%
%LPD*%
%AMOC8*
5,1,8,0,0,1.08239X$1,22.5*
%
%ADD10C,0.01600*%
%ADD11C,0.00300*%
%ADD12C,0.00800*%
%ADD13C,0.00400*%
%ADD14C,0.00500*%
%ADD15C,0.00000*%
%ADD16C,0.00472*%
%ADD17C,0.00787*%
%ADD18C,0.00709*%
%ADD19C,0.00600*%
D10*
X0006402Y0011323D02*
X0011323Y0016244D01*
X0016736Y0010535D02*
X0011323Y0006402D01*
X0010535Y0016736D02*
X0010349Y0017081D01*
X0010172Y0017431D01*
X0010003Y0017784D01*
X0009843Y0018142D01*
X0009691Y0018503D01*
X0009548Y0018867D01*
X0009413Y0019235D01*
X0009287Y0019606D01*
X0009170Y0019980D01*
X0009061Y0020357D01*
X0008962Y0020735D01*
X0008871Y0021117D01*
X0008790Y0021500D01*
X0008717Y0021885D01*
X0008654Y0022271D01*
X0008600Y0022659D01*
X0008555Y0023049D01*
X0008519Y0023439D01*
X0008492Y0023829D01*
X0008475Y0024221D01*
X0008467Y0024613D01*
X0008468Y0025004D01*
X0016736Y0010535D02*
X0017081Y0010349D01*
X0017431Y0010172D01*
X0017784Y0010003D01*
X0018142Y0009843D01*
X0018503Y0009691D01*
X0018867Y0009548D01*
X0019235Y0009413D01*
X0019606Y0009287D01*
X0019980Y0009170D01*
X0020357Y0009061D01*
X0020735Y0008962D01*
X0021117Y0008871D01*
X0021500Y0008790D01*
X0021885Y0008717D01*
X0022271Y0008654D01*
X0022659Y0008600D01*
X0023049Y0008555D01*
X0023439Y0008519D01*
X0023829Y0008492D01*
X0024221Y0008475D01*
X0024613Y0008467D01*
X0025004Y0008468D01*
X0025004Y0008469D02*
X0025408Y0008474D01*
X0025811Y0008489D01*
X0026214Y0008513D01*
X0026616Y0008548D01*
X0027018Y0008592D01*
X0027418Y0008646D01*
X0027816Y0008710D01*
X0028213Y0008783D01*
X0028608Y0008867D01*
X0029001Y0008959D01*
X0029392Y0009062D01*
X0029780Y0009174D01*
X0030165Y0009295D01*
X0030547Y0009426D01*
X0030925Y0009566D01*
X0031301Y0009715D01*
X0031672Y0009873D01*
X0032039Y0010040D01*
X0032403Y0010217D01*
X0032761Y0010402D01*
X0033116Y0010595D01*
X0033465Y0010798D01*
X0033809Y0011009D01*
X0034148Y0011228D01*
X0034482Y0011455D01*
X0034810Y0011690D01*
X0035132Y0011934D01*
X0035448Y0012185D01*
X0035758Y0012444D01*
X0036061Y0012710D01*
X0036358Y0012984D01*
X0036648Y0013265D01*
X0036931Y0013552D01*
X0037208Y0013847D01*
X0037476Y0014148D01*
X0037738Y0014456D01*
X0037991Y0014770D01*
X0038237Y0015090D01*
X0038475Y0015416D01*
X0038705Y0015748D01*
X0038927Y0016085D01*
X0039141Y0016428D01*
X0039346Y0016775D01*
X0039543Y0017128D01*
X0039731Y0017485D01*
X0039910Y0017847D01*
X0040080Y0018213D01*
X0040241Y0018583D01*
X0040394Y0018957D01*
X0040537Y0019335D01*
X0040670Y0019716D01*
X0040795Y0020100D01*
X0040910Y0020487D01*
X0041015Y0020876D01*
X0041112Y0021268D01*
X0041198Y0021663D01*
X0041275Y0022059D01*
X0041342Y0022457D01*
X0041399Y0022857D01*
X0041447Y0023258D01*
X0041484Y0023660D01*
X0041512Y0024062D01*
X0041530Y0024466D01*
X0041538Y0024869D01*
X0041537Y0025273D01*
X0041525Y0025677D01*
X0041504Y0026080D01*
X0041473Y0026482D01*
X0041432Y0026884D01*
X0041381Y0027284D01*
X0041320Y0027684D01*
X0041250Y0028081D01*
X0041170Y0028477D01*
X0041081Y0028871D01*
X0040981Y0029262D01*
X0040873Y0029651D01*
X0040754Y0030037D01*
X0040627Y0030420D01*
X0040490Y0030800D01*
X0040344Y0031176D01*
X0040189Y0031549D01*
X0040024Y0031917D01*
X0039851Y0032282D01*
X0039669Y0032642D01*
X0039478Y0032998D01*
X0039279Y0033349D01*
X0039071Y0033695D01*
X0038854Y0034036D01*
X0038630Y0034371D01*
X0038397Y0034701D01*
X0038156Y0035025D01*
X0037908Y0035343D01*
X0037651Y0035655D01*
X0037387Y0035961D01*
X0037116Y0036260D01*
X0036838Y0036552D01*
X0036552Y0036838D01*
X0036260Y0037116D01*
X0035961Y0037387D01*
X0035655Y0037651D01*
X0035343Y0037908D01*
X0035025Y0038156D01*
X0034701Y0038397D01*
X0034371Y0038630D01*
X0034036Y0038854D01*
X0033695Y0039071D01*
X0033349Y0039279D01*
X0032998Y0039478D01*
X0032642Y0039669D01*
X0032282Y0039851D01*
X0031917Y0040024D01*
X0031549Y0040189D01*
X0031176Y0040344D01*
X0030800Y0040490D01*
X0030420Y0040627D01*
X0030037Y0040754D01*
X0029651Y0040873D01*
X0029262Y0040981D01*
X0028871Y0041081D01*
X0028477Y0041170D01*
X0028081Y0041250D01*
X0027684Y0041320D01*
X0027284Y0041381D01*
X0026884Y0041432D01*
X0026482Y0041473D01*
X0026080Y0041504D01*
X0025677Y0041525D01*
X0025273Y0041537D01*
X0024869Y0041538D01*
X0024466Y0041530D01*
X0024062Y0041512D01*
X0023660Y0041484D01*
X0023258Y0041447D01*
X0022857Y0041399D01*
X0022457Y0041342D01*
X0022059Y0041275D01*
X0021663Y0041198D01*
X0021268Y0041112D01*
X0020876Y0041015D01*
X0020487Y0040910D01*
X0020100Y0040795D01*
X0019716Y0040670D01*
X0019335Y0040537D01*
X0018957Y0040394D01*
X0018583Y0040241D01*
X0018213Y0040080D01*
X0017847Y0039910D01*
X0017485Y0039731D01*
X0017128Y0039543D01*
X0016775Y0039346D01*
X0016428Y0039141D01*
X0016085Y0038927D01*
X0015748Y0038705D01*
X0015416Y0038475D01*
X0015090Y0038237D01*
X0014770Y0037991D01*
X0014456Y0037738D01*
X0014148Y0037476D01*
X0013847Y0037208D01*
X0013552Y0036931D01*
X0013265Y0036648D01*
X0012984Y0036358D01*
X0012710Y0036061D01*
X0012444Y0035758D01*
X0012185Y0035448D01*
X0011934Y0035132D01*
X0011690Y0034810D01*
X0011455Y0034482D01*
X0011228Y0034148D01*
X0011009Y0033809D01*
X0010798Y0033465D01*
X0010595Y0033116D01*
X0010402Y0032761D01*
X0010217Y0032403D01*
X0010040Y0032039D01*
X0009873Y0031672D01*
X0009715Y0031301D01*
X0009566Y0030925D01*
X0009426Y0030547D01*
X0009295Y0030165D01*
X0009174Y0029780D01*
X0009062Y0029392D01*
X0008959Y0029001D01*
X0008867Y0028608D01*
X0008783Y0028213D01*
X0008710Y0027816D01*
X0008646Y0027418D01*
X0008592Y0027018D01*
X0008548Y0026616D01*
X0008513Y0026214D01*
X0008489Y0025811D01*
X0008474Y0025408D01*
X0008469Y0025004D01*
X0006402Y0011323D02*
X0006069Y0011782D01*
X0005748Y0012248D01*
X0005438Y0012722D01*
X0005140Y0013204D01*
X0004854Y0013692D01*
X0004579Y0014188D01*
X0004317Y0014689D01*
X0004067Y0015198D01*
X0003829Y0015712D01*
X0003604Y0016231D01*
X0003392Y0016756D01*
X0003193Y0017287D01*
X0003006Y0017821D01*
X0002833Y0018360D01*
X0002673Y0018904D01*
X0002526Y0019451D01*
X0002392Y0020001D01*
X0002272Y0020554D01*
X0002165Y0021110D01*
X0002072Y0021669D01*
X0001992Y0022230D01*
X0001927Y0022792D01*
X0001875Y0023356D01*
X0001836Y0023921D01*
X0001811Y0024487D01*
X0001801Y0025053D01*
X0001803Y0025620D01*
X0001820Y0026186D01*
X0001851Y0026751D01*
X0001895Y0027316D01*
X0001953Y0027879D01*
X0002024Y0028441D01*
X0002110Y0029001D01*
X0002208Y0029558D01*
X0002321Y0030113D01*
X0002447Y0030666D01*
X0002586Y0031214D01*
X0002739Y0031760D01*
X0002904Y0032301D01*
X0003083Y0032839D01*
X0003275Y0033372D01*
X0003480Y0033899D01*
X0003698Y0034422D01*
X0003928Y0034940D01*
X0004171Y0035451D01*
X0004426Y0035957D01*
X0004693Y0036456D01*
X0004973Y0036949D01*
X0005264Y0037434D01*
X0005567Y0037913D01*
X0005882Y0038384D01*
X0006208Y0038847D01*
X0006545Y0039302D01*
X0006893Y0039748D01*
X0007252Y0040186D01*
X0007622Y0040616D01*
X0008001Y0041036D01*
X0008391Y0041446D01*
X0008791Y0041848D01*
X0009201Y0042239D01*
X0009619Y0042620D01*
X0010047Y0042991D01*
X0010484Y0043351D01*
X0010930Y0043701D01*
X0011384Y0044040D01*
X0011846Y0044367D01*
X0012315Y0044683D01*
X0012793Y0044988D01*
X0013277Y0045281D01*
X0013769Y0045562D01*
X0014267Y0045831D01*
X0014772Y0046088D01*
X0015283Y0046333D01*
X0015800Y0046565D01*
X0016322Y0046784D01*
X0016849Y0046991D01*
X0017381Y0047184D01*
X0017918Y0047365D01*
X0018459Y0047533D01*
X0019004Y0047687D01*
X0019552Y0047828D01*
X0020104Y0047956D01*
X0020659Y0048070D01*
X0021216Y0048171D01*
X0021775Y0048258D01*
X0022337Y0048331D01*
X0022900Y0048391D01*
X0023465Y0048437D01*
X0024030Y0048469D01*
X0024596Y0048488D01*
X0025162Y0048493D01*
X0025729Y0048484D01*
X0026294Y0048461D01*
X0026860Y0048425D01*
X0027424Y0048374D01*
X0027986Y0048310D01*
X0028547Y0048233D01*
X0028547Y0048232D02*
X0106057Y0125742D01*
X0106057Y0421018D01*
X0028547Y0498528D01*
X0048232Y0518213D02*
X0125742Y0440703D01*
X0421018Y0440703D01*
X0498528Y0518213D01*
X0518213Y0498528D02*
X0440703Y0421018D01*
X0440703Y0125742D01*
X0518213Y0048232D01*
X0498528Y0028547D02*
X0421018Y0106057D01*
X0125742Y0106057D01*
X0048232Y0028547D01*
X0048233Y0028547D02*
X0048310Y0027986D01*
X0048374Y0027424D01*
X0048425Y0026860D01*
X0048461Y0026294D01*
X0048484Y0025729D01*
X0048493Y0025162D01*
X0048488Y0024596D01*
X0048469Y0024030D01*
X0048437Y0023465D01*
X0048391Y0022900D01*
X0048331Y0022337D01*
X0048258Y0021775D01*
X0048171Y0021216D01*
X0048070Y0020659D01*
X0047956Y0020104D01*
X0047828Y0019552D01*
X0047687Y0019004D01*
X0047533Y0018459D01*
X0047365Y0017918D01*
X0047184Y0017381D01*
X0046991Y0016849D01*
X0046784Y0016322D01*
X0046565Y0015800D01*
X0046333Y0015283D01*
X0046088Y0014772D01*
X0045831Y0014267D01*
X0045562Y0013769D01*
X0045281Y0013277D01*
X0044988Y0012793D01*
X0044683Y0012315D01*
X0044367Y0011846D01*
X0044040Y0011384D01*
X0043701Y0010930D01*
X0043351Y0010484D01*
X0042991Y0010047D01*
X0042620Y0009619D01*
X0042239Y0009201D01*
X0041848Y0008791D01*
X0041446Y0008391D01*
X0041036Y0008001D01*
X0040616Y0007622D01*
X0040186Y0007252D01*
X0039748Y0006893D01*
X0039302Y0006545D01*
X0038847Y0006208D01*
X0038384Y0005882D01*
X0037913Y0005567D01*
X0037434Y0005264D01*
X0036949Y0004973D01*
X0036456Y0004693D01*
X0035957Y0004426D01*
X0035451Y0004171D01*
X0034940Y0003928D01*
X0034422Y0003698D01*
X0033899Y0003480D01*
X0033372Y0003275D01*
X0032839Y0003083D01*
X0032301Y0002904D01*
X0031760Y0002739D01*
X0031214Y0002586D01*
X0030666Y0002447D01*
X0030113Y0002321D01*
X0029558Y0002208D01*
X0029001Y0002110D01*
X0028441Y0002024D01*
X0027879Y0001953D01*
X0027316Y0001895D01*
X0026751Y0001851D01*
X0026186Y0001820D01*
X0025620Y0001803D01*
X0025053Y0001801D01*
X0024487Y0001811D01*
X0023921Y0001836D01*
X0023356Y0001875D01*
X0022792Y0001927D01*
X0022230Y0001992D01*
X0021669Y0002072D01*
X0021110Y0002165D01*
X0020554Y0002272D01*
X0020001Y0002392D01*
X0019451Y0002526D01*
X0018904Y0002673D01*
X0018360Y0002833D01*
X0017821Y0003006D01*
X0017287Y0003193D01*
X0016756Y0003392D01*
X0016231Y0003604D01*
X0015712Y0003829D01*
X0015198Y0004067D01*
X0014689Y0004317D01*
X0014188Y0004579D01*
X0013692Y0004854D01*
X0013204Y0005140D01*
X0012722Y0005438D01*
X0012248Y0005748D01*
X0011782Y0006069D01*
X0011323Y0006402D01*
X0498527Y0028547D02*
X0498450Y0027986D01*
X0498386Y0027424D01*
X0498335Y0026860D01*
X0498299Y0026294D01*
X0498276Y0025729D01*
X0498267Y0025162D01*
X0498272Y0024596D01*
X0498291Y0024030D01*
X0498323Y0023465D01*
X0498369Y0022900D01*
X0498429Y0022337D01*
X0498502Y0021775D01*
X0498589Y0021216D01*
X0498690Y0020659D01*
X0498804Y0020104D01*
X0498932Y0019552D01*
X0499073Y0019004D01*
X0499227Y0018459D01*
X0499395Y0017918D01*
X0499576Y0017381D01*
X0499769Y0016849D01*
X0499976Y0016322D01*
X0500195Y0015800D01*
X0500427Y0015283D01*
X0500672Y0014772D01*
X0500929Y0014267D01*
X0501198Y0013769D01*
X0501479Y0013277D01*
X0501772Y0012793D01*
X0502077Y0012315D01*
X0502393Y0011846D01*
X0502720Y0011384D01*
X0503059Y0010930D01*
X0503409Y0010484D01*
X0503769Y0010047D01*
X0504140Y0009619D01*
X0504521Y0009201D01*
X0504912Y0008791D01*
X0505314Y0008391D01*
X0505724Y0008001D01*
X0506144Y0007622D01*
X0506574Y0007252D01*
X0507012Y0006893D01*
X0507458Y0006545D01*
X0507913Y0006208D01*
X0508376Y0005882D01*
X0508847Y0005567D01*
X0509326Y0005264D01*
X0509811Y0004973D01*
X0510304Y0004693D01*
X0510803Y0004426D01*
X0511309Y0004171D01*
X0511820Y0003928D01*
X0512338Y0003698D01*
X0512861Y0003480D01*
X0513388Y0003275D01*
X0513921Y0003083D01*
X0514459Y0002904D01*
X0515000Y0002739D01*
X0515546Y0002586D01*
X0516094Y0002447D01*
X0516647Y0002321D01*
X0517202Y0002208D01*
X0517759Y0002110D01*
X0518319Y0002024D01*
X0518881Y0001953D01*
X0519444Y0001895D01*
X0520009Y0001851D01*
X0520574Y0001820D01*
X0521140Y0001803D01*
X0521707Y0001801D01*
X0522273Y0001811D01*
X0522839Y0001836D01*
X0523404Y0001875D01*
X0523968Y0001927D01*
X0524530Y0001992D01*
X0525091Y0002072D01*
X0525650Y0002165D01*
X0526206Y0002272D01*
X0526759Y0002392D01*
X0527309Y0002526D01*
X0527856Y0002673D01*
X0528400Y0002833D01*
X0528939Y0003006D01*
X0529473Y0003193D01*
X0530004Y0003392D01*
X0530529Y0003604D01*
X0531048Y0003829D01*
X0531562Y0004067D01*
X0532071Y0004317D01*
X0532572Y0004579D01*
X0533068Y0004854D01*
X0533556Y0005140D01*
X0534038Y0005438D01*
X0534512Y0005748D01*
X0534978Y0006069D01*
X0535437Y0006402D01*
X0530516Y0011323D01*
X0536224Y0016736D02*
X0540358Y0011323D01*
X0530024Y0010535D02*
X0529679Y0010349D01*
X0529329Y0010172D01*
X0528976Y0010003D01*
X0528618Y0009843D01*
X0528257Y0009691D01*
X0527893Y0009548D01*
X0527525Y0009413D01*
X0527154Y0009287D01*
X0526780Y0009170D01*
X0526403Y0009061D01*
X0526025Y0008962D01*
X0525643Y0008871D01*
X0525260Y0008790D01*
X0524875Y0008717D01*
X0524489Y0008654D01*
X0524101Y0008600D01*
X0523711Y0008555D01*
X0523321Y0008519D01*
X0522931Y0008492D01*
X0522539Y0008475D01*
X0522147Y0008467D01*
X0521756Y0008468D01*
X0536225Y0016736D02*
X0536411Y0017081D01*
X0536588Y0017431D01*
X0536757Y0017784D01*
X0536917Y0018142D01*
X0537069Y0018503D01*
X0537212Y0018867D01*
X0537347Y0019235D01*
X0537473Y0019606D01*
X0537590Y0019980D01*
X0537699Y0020357D01*
X0537798Y0020735D01*
X0537889Y0021117D01*
X0537970Y0021500D01*
X0538043Y0021885D01*
X0538106Y0022271D01*
X0538160Y0022659D01*
X0538205Y0023049D01*
X0538241Y0023439D01*
X0538268Y0023829D01*
X0538285Y0024221D01*
X0538293Y0024613D01*
X0538292Y0025004D01*
X0538291Y0025004D02*
X0538286Y0025408D01*
X0538271Y0025811D01*
X0538247Y0026214D01*
X0538212Y0026616D01*
X0538168Y0027018D01*
X0538114Y0027418D01*
X0538050Y0027816D01*
X0537977Y0028213D01*
X0537893Y0028608D01*
X0537801Y0029001D01*
X0537698Y0029392D01*
X0537586Y0029780D01*
X0537465Y0030165D01*
X0537334Y0030547D01*
X0537194Y0030925D01*
X0537045Y0031301D01*
X0536887Y0031672D01*
X0536720Y0032039D01*
X0536543Y0032403D01*
X0536358Y0032761D01*
X0536165Y0033116D01*
X0535962Y0033465D01*
X0535751Y0033809D01*
X0535532Y0034148D01*
X0535305Y0034482D01*
X0535070Y0034810D01*
X0534826Y0035132D01*
X0534575Y0035448D01*
X0534316Y0035758D01*
X0534050Y0036061D01*
X0533776Y0036358D01*
X0533495Y0036648D01*
X0533208Y0036931D01*
X0532913Y0037208D01*
X0532612Y0037476D01*
X0532304Y0037738D01*
X0531990Y0037991D01*
X0531670Y0038237D01*
X0531344Y0038475D01*
X0531012Y0038705D01*
X0530675Y0038927D01*
X0530332Y0039141D01*
X0529985Y0039346D01*
X0529632Y0039543D01*
X0529275Y0039731D01*
X0528913Y0039910D01*
X0528547Y0040080D01*
X0528177Y0040241D01*
X0527803Y0040394D01*
X0527425Y0040537D01*
X0527044Y0040670D01*
X0526660Y0040795D01*
X0526273Y0040910D01*
X0525884Y0041015D01*
X0525492Y0041112D01*
X0525097Y0041198D01*
X0524701Y0041275D01*
X0524303Y0041342D01*
X0523903Y0041399D01*
X0523502Y0041447D01*
X0523100Y0041484D01*
X0522698Y0041512D01*
X0522294Y0041530D01*
X0521891Y0041538D01*
X0521487Y0041537D01*
X0521083Y0041525D01*
X0520680Y0041504D01*
X0520278Y0041473D01*
X0519876Y0041432D01*
X0519476Y0041381D01*
X0519076Y0041320D01*
X0518679Y0041250D01*
X0518283Y0041170D01*
X0517889Y0041081D01*
X0517498Y0040981D01*
X0517109Y0040873D01*
X0516723Y0040754D01*
X0516340Y0040627D01*
X0515960Y0040490D01*
X0515584Y0040344D01*
X0515211Y0040189D01*
X0514843Y0040024D01*
X0514478Y0039851D01*
X0514118Y0039669D01*
X0513762Y0039478D01*
X0513411Y0039279D01*
X0513065Y0039071D01*
X0512724Y0038854D01*
X0512389Y0038630D01*
X0512059Y0038397D01*
X0511735Y0038156D01*
X0511417Y0037908D01*
X0511105Y0037651D01*
X0510799Y0037387D01*
X0510500Y0037116D01*
X0510208Y0036838D01*
X0509922Y0036552D01*
X0509644Y0036260D01*
X0509373Y0035961D01*
X0509109Y0035655D01*
X0508852Y0035343D01*
X0508604Y0035025D01*
X0508363Y0034701D01*
X0508130Y0034371D01*
X0507906Y0034036D01*
X0507689Y0033695D01*
X0507481Y0033349D01*
X0507282Y0032998D01*
X0507091Y0032642D01*
X0506909Y0032282D01*
X0506736Y0031917D01*
X0506571Y0031549D01*
X0506416Y0031176D01*
X0506270Y0030800D01*
X0506133Y0030420D01*
X0506006Y0030037D01*
X0505887Y0029651D01*
X0505779Y0029262D01*
X0505679Y0028871D01*
X0505590Y0028477D01*
X0505510Y0028081D01*
X0505440Y0027684D01*
X0505379Y0027284D01*
X0505328Y0026884D01*
X0505287Y0026482D01*
X0505256Y0026080D01*
X0505235Y0025677D01*
X0505223Y0025273D01*
X0505222Y0024869D01*
X0505230Y0024466D01*
X0505248Y0024062D01*
X0505276Y0023660D01*
X0505313Y0023258D01*
X0505361Y0022857D01*
X0505418Y0022457D01*
X0505485Y0022059D01*
X0505562Y0021663D01*
X0505648Y0021268D01*
X0505745Y0020876D01*
X0505850Y0020487D01*
X0505965Y0020100D01*
X0506090Y0019716D01*
X0506223Y0019335D01*
X0506366Y0018957D01*
X0506519Y0018583D01*
X0506680Y0018213D01*
X0506850Y0017847D01*
X0507029Y0017485D01*
X0507217Y0017128D01*
X0507414Y0016775D01*
X0507619Y0016428D01*
X0507833Y0016085D01*
X0508055Y0015748D01*
X0508285Y0015416D01*
X0508523Y0015090D01*
X0508769Y0014770D01*
X0509022Y0014456D01*
X0509284Y0014148D01*
X0509552Y0013847D01*
X0509829Y0013552D01*
X0510112Y0013265D01*
X0510402Y0012984D01*
X0510699Y0012710D01*
X0511002Y0012444D01*
X0511312Y0012185D01*
X0511628Y0011934D01*
X0511950Y0011690D01*
X0512278Y0011455D01*
X0512612Y0011228D01*
X0512951Y0011009D01*
X0513295Y0010798D01*
X0513644Y0010595D01*
X0513999Y0010402D01*
X0514357Y0010217D01*
X0514721Y0010040D01*
X0515088Y0009873D01*
X0515459Y0009715D01*
X0515835Y0009566D01*
X0516213Y0009426D01*
X0516595Y0009295D01*
X0516980Y0009174D01*
X0517368Y0009062D01*
X0517759Y0008959D01*
X0518152Y0008867D01*
X0518547Y0008783D01*
X0518944Y0008710D01*
X0519342Y0008646D01*
X0519742Y0008592D01*
X0520144Y0008548D01*
X0520546Y0008513D01*
X0520949Y0008489D01*
X0521352Y0008474D01*
X0521756Y0008469D01*
X0540358Y0011323D02*
X0540691Y0011782D01*
X0541012Y0012248D01*
X0541322Y0012722D01*
X0541620Y0013204D01*
X0541906Y0013692D01*
X0542181Y0014188D01*
X0542443Y0014689D01*
X0542693Y0015198D01*
X0542931Y0015712D01*
X0543156Y0016231D01*
X0543368Y0016756D01*
X0543567Y0017287D01*
X0543754Y0017821D01*
X0543927Y0018360D01*
X0544087Y0018904D01*
X0544234Y0019451D01*
X0544368Y0020001D01*
X0544488Y0020554D01*
X0544595Y0021110D01*
X0544688Y0021669D01*
X0544768Y0022230D01*
X0544833Y0022792D01*
X0544885Y0023356D01*
X0544924Y0023921D01*
X0544949Y0024487D01*
X0544959Y0025053D01*
X0544957Y0025620D01*
X0544940Y0026186D01*
X0544909Y0026751D01*
X0544865Y0027316D01*
X0544807Y0027879D01*
X0544736Y0028441D01*
X0544650Y0029001D01*
X0544552Y0029558D01*
X0544439Y0030113D01*
X0544313Y0030666D01*
X0544174Y0031214D01*
X0544021Y0031760D01*
X0543856Y0032301D01*
X0543677Y0032839D01*
X0543485Y0033372D01*
X0543280Y0033899D01*
X0543062Y0034422D01*
X0542832Y0034940D01*
X0542589Y0035451D01*
X0542334Y0035957D01*
X0542067Y0036456D01*
X0541787Y0036949D01*
X0541496Y0037434D01*
X0541193Y0037913D01*
X0540878Y0038384D01*
X0540552Y0038847D01*
X0540215Y0039302D01*
X0539867Y0039748D01*
X0539508Y0040186D01*
X0539138Y0040616D01*
X0538759Y0041036D01*
X0538369Y0041446D01*
X0537969Y0041848D01*
X0537559Y0042239D01*
X0537141Y0042620D01*
X0536713Y0042991D01*
X0536276Y0043351D01*
X0535830Y0043701D01*
X0535376Y0044040D01*
X0534914Y0044367D01*
X0534445Y0044683D01*
X0533967Y0044988D01*
X0533483Y0045281D01*
X0532991Y0045562D01*
X0532493Y0045831D01*
X0531988Y0046088D01*
X0531477Y0046333D01*
X0530960Y0046565D01*
X0530438Y0046784D01*
X0529911Y0046991D01*
X0529379Y0047184D01*
X0528842Y0047365D01*
X0528301Y0047533D01*
X0527756Y0047687D01*
X0527208Y0047828D01*
X0526656Y0047956D01*
X0526101Y0048070D01*
X0525544Y0048171D01*
X0524985Y0048258D01*
X0524423Y0048331D01*
X0523860Y0048391D01*
X0523295Y0048437D01*
X0522730Y0048469D01*
X0522164Y0048488D01*
X0521598Y0048493D01*
X0521031Y0048484D01*
X0520466Y0048461D01*
X0519900Y0048425D01*
X0519336Y0048374D01*
X0518774Y0048310D01*
X0518213Y0048233D01*
X0518213Y0498527D02*
X0518774Y0498450D01*
X0519336Y0498386D01*
X0519900Y0498335D01*
X0520466Y0498299D01*
X0521031Y0498276D01*
X0521598Y0498267D01*
X0522164Y0498272D01*
X0522730Y0498291D01*
X0523295Y0498323D01*
X0523860Y0498369D01*
X0524423Y0498429D01*
X0524985Y0498502D01*
X0525544Y0498589D01*
X0526101Y0498690D01*
X0526656Y0498804D01*
X0527208Y0498932D01*
X0527756Y0499073D01*
X0528301Y0499227D01*
X0528842Y0499395D01*
X0529379Y0499576D01*
X0529911Y0499769D01*
X0530438Y0499976D01*
X0530960Y0500195D01*
X0531477Y0500427D01*
X0531988Y0500672D01*
X0532493Y0500929D01*
X0532991Y0501198D01*
X0533483Y0501479D01*
X0533967Y0501772D01*
X0534445Y0502077D01*
X0534914Y0502393D01*
X0535376Y0502720D01*
X0535830Y0503059D01*
X0536276Y0503409D01*
X0536713Y0503769D01*
X0537141Y0504140D01*
X0537559Y0504521D01*
X0537969Y0504912D01*
X0538369Y0505314D01*
X0538759Y0505724D01*
X0539138Y0506144D01*
X0539508Y0506574D01*
X0539867Y0507012D01*
X0540215Y0507458D01*
X0540552Y0507913D01*
X0540878Y0508376D01*
X0541193Y0508847D01*
X0541496Y0509326D01*
X0541787Y0509811D01*
X0542067Y0510304D01*
X0542334Y0510803D01*
X0542589Y0511309D01*
X0542832Y0511820D01*
X0543062Y0512338D01*
X0543280Y0512861D01*
X0543485Y0513388D01*
X0543677Y0513921D01*
X0543856Y0514459D01*
X0544021Y0515000D01*
X0544174Y0515546D01*
X0544313Y0516094D01*
X0544439Y0516647D01*
X0544552Y0517202D01*
X0544650Y0517759D01*
X0544736Y0518319D01*
X0544807Y0518881D01*
X0544865Y0519444D01*
X0544909Y0520009D01*
X0544940Y0520574D01*
X0544957Y0521140D01*
X0544959Y0521707D01*
X0544949Y0522273D01*
X0544924Y0522839D01*
X0544885Y0523404D01*
X0544833Y0523968D01*
X0544768Y0524530D01*
X0544688Y0525091D01*
X0544595Y0525650D01*
X0544488Y0526206D01*
X0544368Y0526759D01*
X0544234Y0527309D01*
X0544087Y0527856D01*
X0543927Y0528400D01*
X0543754Y0528939D01*
X0543567Y0529473D01*
X0543368Y0530004D01*
X0543156Y0530529D01*
X0542931Y0531048D01*
X0542693Y0531562D01*
X0542443Y0532071D01*
X0542181Y0532572D01*
X0541906Y0533068D01*
X0541620Y0533556D01*
X0541322Y0534038D01*
X0541012Y0534512D01*
X0540691Y0534978D01*
X0540358Y0535437D01*
X0535437Y0530516D01*
X0530024Y0536224D02*
X0535437Y0540358D01*
X0536225Y0530024D02*
X0536411Y0529679D01*
X0536588Y0529329D01*
X0536757Y0528976D01*
X0536917Y0528618D01*
X0537069Y0528257D01*
X0537212Y0527893D01*
X0537347Y0527525D01*
X0537473Y0527154D01*
X0537590Y0526780D01*
X0537699Y0526403D01*
X0537798Y0526025D01*
X0537889Y0525643D01*
X0537970Y0525260D01*
X0538043Y0524875D01*
X0538106Y0524489D01*
X0538160Y0524101D01*
X0538205Y0523711D01*
X0538241Y0523321D01*
X0538268Y0522931D01*
X0538285Y0522539D01*
X0538293Y0522147D01*
X0538292Y0521756D01*
X0530024Y0536225D02*
X0529679Y0536411D01*
X0529329Y0536588D01*
X0528976Y0536757D01*
X0528618Y0536917D01*
X0528257Y0537069D01*
X0527893Y0537212D01*
X0527525Y0537347D01*
X0527154Y0537473D01*
X0526780Y0537590D01*
X0526403Y0537699D01*
X0526025Y0537798D01*
X0525643Y0537889D01*
X0525260Y0537970D01*
X0524875Y0538043D01*
X0524489Y0538106D01*
X0524101Y0538160D01*
X0523711Y0538205D01*
X0523321Y0538241D01*
X0522931Y0538268D01*
X0522539Y0538285D01*
X0522147Y0538293D01*
X0521756Y0538292D01*
X0521756Y0538291D02*
X0521352Y0538286D01*
X0520949Y0538271D01*
X0520546Y0538247D01*
X0520144Y0538212D01*
X0519742Y0538168D01*
X0519342Y0538114D01*
X0518944Y0538050D01*
X0518547Y0537977D01*
X0518152Y0537893D01*
X0517759Y0537801D01*
X0517368Y0537698D01*
X0516980Y0537586D01*
X0516595Y0537465D01*
X0516213Y0537334D01*
X0515835Y0537194D01*
X0515459Y0537045D01*
X0515088Y0536887D01*
X0514721Y0536720D01*
X0514357Y0536543D01*
X0513999Y0536358D01*
X0513644Y0536165D01*
X0513295Y0535962D01*
X0512951Y0535751D01*
X0512612Y0535532D01*
X0512278Y0535305D01*
X0511950Y0535070D01*
X0511628Y0534826D01*
X0511312Y0534575D01*
X0511002Y0534316D01*
X0510699Y0534050D01*
X0510402Y0533776D01*
X0510112Y0533495D01*
X0509829Y0533208D01*
X0509552Y0532913D01*
X0509284Y0532612D01*
X0509022Y0532304D01*
X0508769Y0531990D01*
X0508523Y0531670D01*
X0508285Y0531344D01*
X0508055Y0531012D01*
X0507833Y0530675D01*
X0507619Y0530332D01*
X0507414Y0529985D01*
X0507217Y0529632D01*
X0507029Y0529275D01*
X0506850Y0528913D01*
X0506680Y0528547D01*
X0506519Y0528177D01*
X0506366Y0527803D01*
X0506223Y0527425D01*
X0506090Y0527044D01*
X0505965Y0526660D01*
X0505850Y0526273D01*
X0505745Y0525884D01*
X0505648Y0525492D01*
X0505562Y0525097D01*
X0505485Y0524701D01*
X0505418Y0524303D01*
X0505361Y0523903D01*
X0505313Y0523502D01*
X0505276Y0523100D01*
X0505248Y0522698D01*
X0505230Y0522294D01*
X0505222Y0521891D01*
X0505223Y0521487D01*
X0505235Y0521083D01*
X0505256Y0520680D01*
X0505287Y0520278D01*
X0505328Y0519876D01*
X0505379Y0519476D01*
X0505440Y0519076D01*
X0505510Y0518679D01*
X0505590Y0518283D01*
X0505679Y0517889D01*
X0505779Y0517498D01*
X0505887Y0517109D01*
X0506006Y0516723D01*
X0506133Y0516340D01*
X0506270Y0515960D01*
X0506416Y0515584D01*
X0506571Y0515211D01*
X0506736Y0514843D01*
X0506909Y0514478D01*
X0507091Y0514118D01*
X0507282Y0513762D01*
X0507481Y0513411D01*
X0507689Y0513065D01*
X0507906Y0512724D01*
X0508130Y0512389D01*
X0508363Y0512059D01*
X0508604Y0511735D01*
X0508852Y0511417D01*
X0509109Y0511105D01*
X0509373Y0510799D01*
X0509644Y0510500D01*
X0509922Y0510208D01*
X0510208Y0509922D01*
X0510500Y0509644D01*
X0510799Y0509373D01*
X0511105Y0509109D01*
X0511417Y0508852D01*
X0511735Y0508604D01*
X0512059Y0508363D01*
X0512389Y0508130D01*
X0512724Y0507906D01*
X0513065Y0507689D01*
X0513411Y0507481D01*
X0513762Y0507282D01*
X0514118Y0507091D01*
X0514478Y0506909D01*
X0514843Y0506736D01*
X0515211Y0506571D01*
X0515584Y0506416D01*
X0515960Y0506270D01*
X0516340Y0506133D01*
X0516723Y0506006D01*
X0517109Y0505887D01*
X0517498Y0505779D01*
X0517889Y0505679D01*
X0518283Y0505590D01*
X0518679Y0505510D01*
X0519076Y0505440D01*
X0519476Y0505379D01*
X0519876Y0505328D01*
X0520278Y0505287D01*
X0520680Y0505256D01*
X0521083Y0505235D01*
X0521487Y0505223D01*
X0521891Y0505222D01*
X0522294Y0505230D01*
X0522698Y0505248D01*
X0523100Y0505276D01*
X0523502Y0505313D01*
X0523903Y0505361D01*
X0524303Y0505418D01*
X0524701Y0505485D01*
X0525097Y0505562D01*
X0525492Y0505648D01*
X0525884Y0505745D01*
X0526273Y0505850D01*
X0526660Y0505965D01*
X0527044Y0506090D01*
X0527425Y0506223D01*
X0527803Y0506366D01*
X0528177Y0506519D01*
X0528547Y0506680D01*
X0528913Y0506850D01*
X0529275Y0507029D01*
X0529632Y0507217D01*
X0529985Y0507414D01*
X0530332Y0507619D01*
X0530675Y0507833D01*
X0531012Y0508055D01*
X0531344Y0508285D01*
X0531670Y0508523D01*
X0531990Y0508769D01*
X0532304Y0509022D01*
X0532612Y0509284D01*
X0532913Y0509552D01*
X0533208Y0509829D01*
X0533495Y0510112D01*
X0533776Y0510402D01*
X0534050Y0510699D01*
X0534316Y0511002D01*
X0534575Y0511312D01*
X0534826Y0511628D01*
X0535070Y0511950D01*
X0535305Y0512278D01*
X0535532Y0512612D01*
X0535751Y0512951D01*
X0535962Y0513295D01*
X0536165Y0513644D01*
X0536358Y0513999D01*
X0536543Y0514357D01*
X0536720Y0514721D01*
X0536887Y0515088D01*
X0537045Y0515459D01*
X0537194Y0515835D01*
X0537334Y0516213D01*
X0537465Y0516595D01*
X0537586Y0516980D01*
X0537698Y0517368D01*
X0537801Y0517759D01*
X0537893Y0518152D01*
X0537977Y0518547D01*
X0538050Y0518944D01*
X0538114Y0519342D01*
X0538168Y0519742D01*
X0538212Y0520144D01*
X0538247Y0520546D01*
X0538271Y0520949D01*
X0538286Y0521352D01*
X0538291Y0521756D01*
X0535437Y0540358D02*
X0534978Y0540691D01*
X0534512Y0541012D01*
X0534038Y0541322D01*
X0533556Y0541620D01*
X0533068Y0541906D01*
X0532572Y0542181D01*
X0532071Y0542443D01*
X0531562Y0542693D01*
X0531048Y0542931D01*
X0530529Y0543156D01*
X0530004Y0543368D01*
X0529473Y0543567D01*
X0528939Y0543754D01*
X0528400Y0543927D01*
X0527856Y0544087D01*
X0527309Y0544234D01*
X0526759Y0544368D01*
X0526206Y0544488D01*
X0525650Y0544595D01*
X0525091Y0544688D01*
X0524530Y0544768D01*
X0523968Y0544833D01*
X0523404Y0544885D01*
X0522839Y0544924D01*
X0522273Y0544949D01*
X0521707Y0544959D01*
X0521140Y0544957D01*
X0520574Y0544940D01*
X0520009Y0544909D01*
X0519444Y0544865D01*
X0518881Y0544807D01*
X0518319Y0544736D01*
X0517759Y0544650D01*
X0517202Y0544552D01*
X0516647Y0544439D01*
X0516094Y0544313D01*
X0515546Y0544174D01*
X0515000Y0544021D01*
X0514459Y0543856D01*
X0513921Y0543677D01*
X0513388Y0543485D01*
X0512861Y0543280D01*
X0512338Y0543062D01*
X0511820Y0542832D01*
X0511309Y0542589D01*
X0510803Y0542334D01*
X0510304Y0542067D01*
X0509811Y0541787D01*
X0509326Y0541496D01*
X0508847Y0541193D01*
X0508376Y0540878D01*
X0507913Y0540552D01*
X0507458Y0540215D01*
X0507012Y0539867D01*
X0506574Y0539508D01*
X0506144Y0539138D01*
X0505724Y0538759D01*
X0505314Y0538369D01*
X0504912Y0537969D01*
X0504521Y0537559D01*
X0504140Y0537141D01*
X0503769Y0536713D01*
X0503409Y0536276D01*
X0503059Y0535830D01*
X0502720Y0535376D01*
X0502393Y0534914D01*
X0502077Y0534445D01*
X0501772Y0533967D01*
X0501479Y0533483D01*
X0501198Y0532991D01*
X0500929Y0532493D01*
X0500672Y0531988D01*
X0500427Y0531477D01*
X0500195Y0530960D01*
X0499976Y0530438D01*
X0499769Y0529911D01*
X0499576Y0529379D01*
X0499395Y0528842D01*
X0499227Y0528301D01*
X0499073Y0527756D01*
X0498932Y0527208D01*
X0498804Y0526656D01*
X0498690Y0526101D01*
X0498589Y0525544D01*
X0498502Y0524985D01*
X0498429Y0524423D01*
X0498369Y0523860D01*
X0498323Y0523295D01*
X0498291Y0522730D01*
X0498272Y0522164D01*
X0498267Y0521598D01*
X0498276Y0521031D01*
X0498299Y0520466D01*
X0498335Y0519900D01*
X0498386Y0519336D01*
X0498450Y0518774D01*
X0498527Y0518213D01*
X0048233Y0518213D02*
X0048310Y0518774D01*
X0048374Y0519336D01*
X0048425Y0519900D01*
X0048461Y0520466D01*
X0048484Y0521031D01*
X0048493Y0521598D01*
X0048488Y0522164D01*
X0048469Y0522730D01*
X0048437Y0523295D01*
X0048391Y0523860D01*
X0048331Y0524423D01*
X0048258Y0524985D01*
X0048171Y0525544D01*
X0048070Y0526101D01*
X0047956Y0526656D01*
X0047828Y0527208D01*
X0047687Y0527756D01*
X0047533Y0528301D01*
X0047365Y0528842D01*
X0047184Y0529379D01*
X0046991Y0529911D01*
X0046784Y0530438D01*
X0046565Y0530960D01*
X0046333Y0531477D01*
X0046088Y0531988D01*
X0045831Y0532493D01*
X0045562Y0532991D01*
X0045281Y0533483D01*
X0044988Y0533967D01*
X0044683Y0534445D01*
X0044367Y0534914D01*
X0044040Y0535376D01*
X0043701Y0535830D01*
X0043351Y0536276D01*
X0042991Y0536713D01*
X0042620Y0537141D01*
X0042239Y0537559D01*
X0041848Y0537969D01*
X0041446Y0538369D01*
X0041036Y0538759D01*
X0040616Y0539138D01*
X0040186Y0539508D01*
X0039748Y0539867D01*
X0039302Y0540215D01*
X0038847Y0540552D01*
X0038384Y0540878D01*
X0037913Y0541193D01*
X0037434Y0541496D01*
X0036949Y0541787D01*
X0036456Y0542067D01*
X0035957Y0542334D01*
X0035451Y0542589D01*
X0034940Y0542832D01*
X0034422Y0543062D01*
X0033899Y0543280D01*
X0033372Y0543485D01*
X0032839Y0543677D01*
X0032301Y0543856D01*
X0031760Y0544021D01*
X0031214Y0544174D01*
X0030666Y0544313D01*
X0030113Y0544439D01*
X0029558Y0544552D01*
X0029001Y0544650D01*
X0028441Y0544736D01*
X0027879Y0544807D01*
X0027316Y0544865D01*
X0026751Y0544909D01*
X0026186Y0544940D01*
X0025620Y0544957D01*
X0025053Y0544959D01*
X0024487Y0544949D01*
X0023921Y0544924D01*
X0023356Y0544885D01*
X0022792Y0544833D01*
X0022230Y0544768D01*
X0021669Y0544688D01*
X0021110Y0544595D01*
X0020554Y0544488D01*
X0020001Y0544368D01*
X0019451Y0544234D01*
X0018904Y0544087D01*
X0018360Y0543927D01*
X0017821Y0543754D01*
X0017287Y0543567D01*
X0016756Y0543368D01*
X0016231Y0543156D01*
X0015712Y0542931D01*
X0015198Y0542693D01*
X0014689Y0542443D01*
X0014188Y0542181D01*
X0013692Y0541906D01*
X0013204Y0541620D01*
X0012722Y0541322D01*
X0012248Y0541012D01*
X0011782Y0540691D01*
X0011323Y0540358D01*
X0016244Y0535437D01*
X0010535Y0530024D02*
X0006402Y0535437D01*
X0016736Y0536225D02*
X0017081Y0536411D01*
X0017431Y0536588D01*
X0017784Y0536757D01*
X0018142Y0536917D01*
X0018503Y0537069D01*
X0018867Y0537212D01*
X0019235Y0537347D01*
X0019606Y0537473D01*
X0019980Y0537590D01*
X0020357Y0537699D01*
X0020735Y0537798D01*
X0021117Y0537889D01*
X0021500Y0537970D01*
X0021885Y0538043D01*
X0022271Y0538106D01*
X0022659Y0538160D01*
X0023049Y0538205D01*
X0023439Y0538241D01*
X0023829Y0538268D01*
X0024221Y0538285D01*
X0024613Y0538293D01*
X0025004Y0538292D01*
X0010535Y0530024D02*
X0010349Y0529679D01*
X0010172Y0529329D01*
X0010003Y0528976D01*
X0009843Y0528618D01*
X0009691Y0528257D01*
X0009548Y0527893D01*
X0009413Y0527525D01*
X0009287Y0527154D01*
X0009170Y0526780D01*
X0009061Y0526403D01*
X0008962Y0526025D01*
X0008871Y0525643D01*
X0008790Y0525260D01*
X0008717Y0524875D01*
X0008654Y0524489D01*
X0008600Y0524101D01*
X0008555Y0523711D01*
X0008519Y0523321D01*
X0008492Y0522931D01*
X0008475Y0522539D01*
X0008467Y0522147D01*
X0008468Y0521756D01*
X0008469Y0521756D02*
X0008474Y0521352D01*
X0008489Y0520949D01*
X0008513Y0520546D01*
X0008548Y0520144D01*
X0008592Y0519742D01*
X0008646Y0519342D01*
X0008710Y0518944D01*
X0008783Y0518547D01*
X0008867Y0518152D01*
X0008959Y0517759D01*
X0009062Y0517368D01*
X0009174Y0516980D01*
X0009295Y0516595D01*
X0009426Y0516213D01*
X0009566Y0515835D01*
X0009715Y0515459D01*
X0009873Y0515088D01*
X0010040Y0514721D01*
X0010217Y0514357D01*
X0010402Y0513999D01*
X0010595Y0513644D01*
X0010798Y0513295D01*
X0011009Y0512951D01*
X0011228Y0512612D01*
X0011455Y0512278D01*
X0011690Y0511950D01*
X0011934Y0511628D01*
X0012185Y0511312D01*
X0012444Y0511002D01*
X0012710Y0510699D01*
X0012984Y0510402D01*
X0013265Y0510112D01*
X0013552Y0509829D01*
X0013847Y0509552D01*
X0014148Y0509284D01*
X0014456Y0509022D01*
X0014770Y0508769D01*
X0015090Y0508523D01*
X0015416Y0508285D01*
X0015748Y0508055D01*
X0016085Y0507833D01*
X0016428Y0507619D01*
X0016775Y0507414D01*
X0017128Y0507217D01*
X0017485Y0507029D01*
X0017847Y0506850D01*
X0018213Y0506680D01*
X0018583Y0506519D01*
X0018957Y0506366D01*
X0019335Y0506223D01*
X0019716Y0506090D01*
X0020100Y0505965D01*
X0020487Y0505850D01*
X0020876Y0505745D01*
X0021268Y0505648D01*
X0021663Y0505562D01*
X0022059Y0505485D01*
X0022457Y0505418D01*
X0022857Y0505361D01*
X0023258Y0505313D01*
X0023660Y0505276D01*
X0024062Y0505248D01*
X0024466Y0505230D01*
X0024869Y0505222D01*
X0025273Y0505223D01*
X0025677Y0505235D01*
X0026080Y0505256D01*
X0026482Y0505287D01*
X0026884Y0505328D01*
X0027284Y0505379D01*
X0027684Y0505440D01*
X0028081Y0505510D01*
X0028477Y0505590D01*
X0028871Y0505679D01*
X0029262Y0505779D01*
X0029651Y0505887D01*
X0030037Y0506006D01*
X0030420Y0506133D01*
X0030800Y0506270D01*
X0031176Y0506416D01*
X0031549Y0506571D01*
X0031917Y0506736D01*
X0032282Y0506909D01*
X0032642Y0507091D01*
X0032998Y0507282D01*
X0033349Y0507481D01*
X0033695Y0507689D01*
X0034036Y0507906D01*
X0034371Y0508130D01*
X0034701Y0508363D01*
X0035025Y0508604D01*
X0035343Y0508852D01*
X0035655Y0509109D01*
X0035961Y0509373D01*
X0036260Y0509644D01*
X0036552Y0509922D01*
X0036838Y0510208D01*
X0037116Y0510500D01*
X0037387Y0510799D01*
X0037651Y0511105D01*
X0037908Y0511417D01*
X0038156Y0511735D01*
X0038397Y0512059D01*
X0038630Y0512389D01*
X0038854Y0512724D01*
X0039071Y0513065D01*
X0039279Y0513411D01*
X0039478Y0513762D01*
X0039669Y0514118D01*
X0039851Y0514478D01*
X0040024Y0514843D01*
X0040189Y0515211D01*
X0040344Y0515584D01*
X0040490Y0515960D01*
X0040627Y0516340D01*
X0040754Y0516723D01*
X0040873Y0517109D01*
X0040981Y0517498D01*
X0041081Y0517889D01*
X0041170Y0518283D01*
X0041250Y0518679D01*
X0041320Y0519076D01*
X0041381Y0519476D01*
X0041432Y0519876D01*
X0041473Y0520278D01*
X0041504Y0520680D01*
X0041525Y0521083D01*
X0041537Y0521487D01*
X0041538Y0521891D01*
X0041530Y0522294D01*
X0041512Y0522698D01*
X0041484Y0523100D01*
X0041447Y0523502D01*
X0041399Y0523903D01*
X0041342Y0524303D01*
X0041275Y0524701D01*
X0041198Y0525097D01*
X0041112Y0525492D01*
X0041015Y0525884D01*
X0040910Y0526273D01*
X0040795Y0526660D01*
X0040670Y0527044D01*
X0040537Y0527425D01*
X0040394Y0527803D01*
X0040241Y0528177D01*
X0040080Y0528547D01*
X0039910Y0528913D01*
X0039731Y0529275D01*
X0039543Y0529632D01*
X0039346Y0529985D01*
X0039141Y0530332D01*
X0038927Y0530675D01*
X0038705Y0531012D01*
X0038475Y0531344D01*
X0038237Y0531670D01*
X0037991Y0531990D01*
X0037738Y0532304D01*
X0037476Y0532612D01*
X0037208Y0532913D01*
X0036931Y0533208D01*
X0036648Y0533495D01*
X0036358Y0533776D01*
X0036061Y0534050D01*
X0035758Y0534316D01*
X0035448Y0534575D01*
X0035132Y0534826D01*
X0034810Y0535070D01*
X0034482Y0535305D01*
X0034148Y0535532D01*
X0033809Y0535751D01*
X0033465Y0535962D01*
X0033116Y0536165D01*
X0032761Y0536358D01*
X0032403Y0536543D01*
X0032039Y0536720D01*
X0031672Y0536887D01*
X0031301Y0537045D01*
X0030925Y0537194D01*
X0030547Y0537334D01*
X0030165Y0537465D01*
X0029780Y0537586D01*
X0029392Y0537698D01*
X0029001Y0537801D01*
X0028608Y0537893D01*
X0028213Y0537977D01*
X0027816Y0538050D01*
X0027418Y0538114D01*
X0027018Y0538168D01*
X0026616Y0538212D01*
X0026214Y0538247D01*
X0025811Y0538271D01*
X0025408Y0538286D01*
X0025004Y0538291D01*
X0006402Y0535437D02*
X0006069Y0534978D01*
X0005748Y0534512D01*
X0005438Y0534038D01*
X0005140Y0533556D01*
X0004854Y0533068D01*
X0004579Y0532572D01*
X0004317Y0532071D01*
X0004067Y0531562D01*
X0003829Y0531048D01*
X0003604Y0530529D01*
X0003392Y0530004D01*
X0003193Y0529473D01*
X0003006Y0528939D01*
X0002833Y0528400D01*
X0002673Y0527856D01*
X0002526Y0527309D01*
X0002392Y0526759D01*
X0002272Y0526206D01*
X0002165Y0525650D01*
X0002072Y0525091D01*
X0001992Y0524530D01*
X0001927Y0523968D01*
X0001875Y0523404D01*
X0001836Y0522839D01*
X0001811Y0522273D01*
X0001801Y0521707D01*
X0001803Y0521140D01*
X0001820Y0520574D01*
X0001851Y0520009D01*
X0001895Y0519444D01*
X0001953Y0518881D01*
X0002024Y0518319D01*
X0002110Y0517759D01*
X0002208Y0517202D01*
X0002321Y0516647D01*
X0002447Y0516094D01*
X0002586Y0515546D01*
X0002739Y0515000D01*
X0002904Y0514459D01*
X0003083Y0513921D01*
X0003275Y0513388D01*
X0003480Y0512861D01*
X0003698Y0512338D01*
X0003928Y0511820D01*
X0004171Y0511309D01*
X0004426Y0510803D01*
X0004693Y0510304D01*
X0004973Y0509811D01*
X0005264Y0509326D01*
X0005567Y0508847D01*
X0005882Y0508376D01*
X0006208Y0507913D01*
X0006545Y0507458D01*
X0006893Y0507012D01*
X0007252Y0506574D01*
X0007622Y0506144D01*
X0008001Y0505724D01*
X0008391Y0505314D01*
X0008791Y0504912D01*
X0009201Y0504521D01*
X0009619Y0504140D01*
X0010047Y0503769D01*
X0010484Y0503409D01*
X0010930Y0503059D01*
X0011384Y0502720D01*
X0011846Y0502393D01*
X0012315Y0502077D01*
X0012793Y0501772D01*
X0013277Y0501479D01*
X0013769Y0501198D01*
X0014267Y0500929D01*
X0014772Y0500672D01*
X0015283Y0500427D01*
X0015800Y0500195D01*
X0016322Y0499976D01*
X0016849Y0499769D01*
X0017381Y0499576D01*
X0017918Y0499395D01*
X0018459Y0499227D01*
X0019004Y0499073D01*
X0019552Y0498932D01*
X0020104Y0498804D01*
X0020659Y0498690D01*
X0021216Y0498589D01*
X0021775Y0498502D01*
X0022337Y0498429D01*
X0022900Y0498369D01*
X0023465Y0498323D01*
X0024030Y0498291D01*
X0024596Y0498272D01*
X0025162Y0498267D01*
X0025729Y0498276D01*
X0026294Y0498299D01*
X0026860Y0498335D01*
X0027424Y0498386D01*
X0027986Y0498450D01*
X0028547Y0498527D01*
D11*
X0109097Y0417248D02*
X0110153Y0417248D01*
X0110681Y0416721D01*
X0110681Y0414609D01*
X0110153Y0414081D01*
X0109097Y0414081D01*
X0108569Y0414609D01*
X0108569Y0416721D01*
X0109097Y0417248D01*
X0109625Y0415137D02*
X0110681Y0414081D01*
X0111759Y0414609D02*
X0112287Y0414081D01*
X0113343Y0414081D01*
X0113871Y0414609D01*
X0113871Y0415137D01*
X0113343Y0415665D01*
X0112815Y0415665D01*
X0113343Y0415665D02*
X0113871Y0416193D01*
X0113871Y0416721D01*
X0113343Y0417248D01*
X0112287Y0417248D01*
X0111759Y0416721D01*
X0227267Y0416098D02*
X0227267Y0414885D01*
X0227874Y0414278D01*
X0228480Y0414278D01*
X0229087Y0414885D01*
X0229087Y0416098D01*
X0229694Y0416705D01*
X0230300Y0416705D01*
X0230907Y0416098D01*
X0230907Y0414885D01*
X0230300Y0414278D01*
X0227874Y0416705D02*
X0227267Y0416098D01*
X0227874Y0417903D02*
X0230300Y0417903D01*
X0230907Y0418510D01*
X0230907Y0419723D01*
X0230300Y0420330D01*
X0230907Y0421528D02*
X0227267Y0421528D01*
X0227874Y0420330D02*
X0227267Y0419723D01*
X0227267Y0418510D01*
X0227874Y0417903D01*
X0230907Y0421528D02*
X0230907Y0423955D01*
X0238094Y0422742D02*
X0239307Y0423955D01*
X0241734Y0423955D01*
X0239914Y0423955D02*
X0239914Y0421528D01*
X0239307Y0421528D02*
X0238094Y0422742D01*
X0239307Y0421528D02*
X0241734Y0421528D01*
X0241127Y0420330D02*
X0238700Y0420330D01*
X0238094Y0419723D01*
X0238094Y0417903D01*
X0241734Y0417903D01*
X0241734Y0419723D01*
X0241127Y0420330D01*
X0241127Y0416705D02*
X0241734Y0416098D01*
X0241734Y0414885D01*
X0241127Y0414278D01*
X0239914Y0414885D02*
X0239914Y0416098D01*
X0240521Y0416705D01*
X0241127Y0416705D01*
X0239914Y0414885D02*
X0239307Y0414278D01*
X0238700Y0414278D01*
X0238094Y0414885D01*
X0238094Y0416098D01*
X0238700Y0416705D01*
X0247936Y0416393D02*
X0251576Y0416393D01*
X0250363Y0415179D01*
X0251576Y0413966D01*
X0247936Y0413966D01*
X0248543Y0412768D02*
X0249756Y0412768D01*
X0250363Y0412161D01*
X0250363Y0410341D01*
X0251576Y0410341D02*
X0247936Y0410341D01*
X0247936Y0412161D01*
X0248543Y0412768D01*
X0247936Y0417591D02*
X0249150Y0418805D01*
X0247936Y0420018D01*
X0251576Y0420018D01*
X0249756Y0421216D02*
X0249756Y0423643D01*
X0247936Y0423036D02*
X0249756Y0421216D01*
X0251576Y0423036D02*
X0247936Y0423036D01*
X0247936Y0417591D02*
X0251576Y0417591D01*
X0258763Y0417591D02*
X0259976Y0418805D01*
X0258763Y0420018D01*
X0262403Y0420018D01*
X0261796Y0421216D02*
X0262403Y0421823D01*
X0262403Y0423036D01*
X0261796Y0423643D01*
X0261190Y0423643D01*
X0260583Y0423036D01*
X0260583Y0422430D01*
X0260583Y0423036D02*
X0259976Y0423643D01*
X0259370Y0423643D01*
X0258763Y0423036D01*
X0258763Y0421823D01*
X0259370Y0421216D01*
X0258763Y0417591D02*
X0262403Y0417591D01*
X0262403Y0416393D02*
X0258763Y0416393D01*
X0258763Y0413966D02*
X0262403Y0413966D01*
X0261190Y0415179D01*
X0262403Y0416393D01*
X0260583Y0412768D02*
X0261190Y0412161D01*
X0261190Y0410341D01*
X0262403Y0410341D02*
X0258763Y0410341D01*
X0258763Y0412161D01*
X0259370Y0412768D01*
X0260583Y0412768D01*
X0268606Y0412161D02*
X0269212Y0412768D01*
X0270426Y0412768D01*
X0271032Y0412161D01*
X0271032Y0410341D01*
X0272246Y0410341D02*
X0268606Y0410341D01*
X0268606Y0412161D01*
X0268606Y0413966D02*
X0272246Y0413966D01*
X0271032Y0415179D01*
X0272246Y0416393D01*
X0268606Y0416393D01*
X0268606Y0417591D02*
X0269819Y0418805D01*
X0268606Y0420018D01*
X0272246Y0420018D01*
X0272246Y0421216D02*
X0269819Y0423643D01*
X0269212Y0423643D01*
X0268606Y0423036D01*
X0268606Y0421823D01*
X0269212Y0421216D01*
X0272246Y0421216D02*
X0272246Y0423643D01*
X0272246Y0417591D02*
X0268606Y0417591D01*
X0278448Y0417591D02*
X0279661Y0418805D01*
X0278448Y0420018D01*
X0282088Y0420018D01*
X0282088Y0421216D02*
X0282088Y0423643D01*
X0282088Y0422430D02*
X0278448Y0422430D01*
X0279661Y0421216D01*
X0278448Y0417591D02*
X0282088Y0417591D01*
X0282088Y0416393D02*
X0278448Y0416393D01*
X0278448Y0413966D02*
X0282088Y0413966D01*
X0280875Y0415179D01*
X0282088Y0416393D01*
X0280268Y0412768D02*
X0280875Y0412161D01*
X0280875Y0410341D01*
X0282088Y0410341D02*
X0278448Y0410341D01*
X0278448Y0412161D01*
X0279055Y0412768D01*
X0280268Y0412768D01*
X0288291Y0414278D02*
X0290717Y0414278D01*
X0291931Y0415491D01*
X0290717Y0416705D01*
X0288291Y0416705D01*
X0288897Y0417903D02*
X0291324Y0417903D01*
X0291931Y0418510D01*
X0291931Y0419723D01*
X0291324Y0420330D01*
X0291324Y0421528D02*
X0288897Y0421528D01*
X0288291Y0422135D01*
X0288291Y0423348D01*
X0288897Y0423955D01*
X0291324Y0423955D02*
X0291931Y0423348D01*
X0291931Y0422135D01*
X0291324Y0421528D01*
X0288897Y0420330D02*
X0288291Y0419723D01*
X0288291Y0418510D01*
X0288897Y0417903D01*
X0299117Y0418805D02*
X0300331Y0420018D01*
X0302758Y0420018D01*
X0300937Y0420018D02*
X0300937Y0417591D01*
X0300331Y0417591D02*
X0302758Y0417591D01*
X0302151Y0416393D02*
X0302758Y0415786D01*
X0302758Y0413966D01*
X0299117Y0413966D01*
X0299117Y0415786D01*
X0299724Y0416393D01*
X0300331Y0416393D01*
X0300937Y0415786D01*
X0300937Y0413966D01*
X0301544Y0412768D02*
X0299117Y0412768D01*
X0299117Y0410341D02*
X0301544Y0410341D01*
X0302758Y0411554D01*
X0301544Y0412768D01*
X0300937Y0415786D02*
X0301544Y0416393D01*
X0302151Y0416393D01*
X0300331Y0417591D02*
X0299117Y0418805D01*
X0299117Y0421216D02*
X0299117Y0423643D01*
X0299117Y0422430D02*
X0302758Y0422430D01*
X0308960Y0423085D02*
X0308960Y0421265D01*
X0312600Y0421265D01*
X0312600Y0423085D01*
X0311993Y0423692D01*
X0309567Y0423692D01*
X0308960Y0423085D01*
X0308960Y0420067D02*
X0312600Y0420067D01*
X0308960Y0417640D01*
X0312600Y0417640D01*
X0311993Y0416441D02*
X0310780Y0416441D01*
X0310780Y0415228D01*
X0309567Y0414015D02*
X0311993Y0414015D01*
X0312600Y0414621D01*
X0312600Y0415835D01*
X0311993Y0416441D01*
X0309567Y0416441D02*
X0308960Y0415835D01*
X0308960Y0414621D01*
X0309567Y0414015D01*
X0313207Y0412816D02*
X0313207Y0410390D01*
X0312600Y0407978D02*
X0308960Y0407978D01*
X0308960Y0409191D02*
X0308960Y0406764D01*
X0310173Y0405566D02*
X0312600Y0405566D01*
X0310780Y0405566D02*
X0310780Y0403139D01*
X0310173Y0403139D02*
X0308960Y0404353D01*
X0310173Y0405566D01*
X0310173Y0403139D02*
X0312600Y0403139D01*
X0311993Y0401941D02*
X0312600Y0401334D01*
X0312600Y0399514D01*
X0308960Y0399514D01*
X0308960Y0401334D01*
X0309567Y0401941D01*
X0310173Y0401941D01*
X0310780Y0401334D01*
X0310780Y0399514D01*
X0310780Y0401334D02*
X0311387Y0401941D01*
X0311993Y0401941D01*
X0320393Y0414278D02*
X0322820Y0414278D01*
X0323427Y0414885D01*
X0323427Y0416098D01*
X0322820Y0416705D01*
X0321607Y0416705D01*
X0321607Y0415491D01*
X0320393Y0414278D02*
X0319787Y0414885D01*
X0319787Y0416098D01*
X0320393Y0416705D01*
X0319787Y0417903D02*
X0323427Y0420330D01*
X0319787Y0420330D01*
X0319787Y0421528D02*
X0319787Y0423348D01*
X0320393Y0423955D01*
X0322820Y0423955D01*
X0323427Y0423348D01*
X0323427Y0421528D01*
X0319787Y0421528D01*
X0319787Y0417903D02*
X0323427Y0417903D01*
X0412309Y0332666D02*
X0412309Y0330239D01*
X0412916Y0329632D01*
X0414130Y0329632D01*
X0414736Y0330239D01*
X0414736Y0331452D01*
X0413523Y0331452D01*
X0414736Y0332666D02*
X0414130Y0333272D01*
X0412916Y0333272D01*
X0412309Y0332666D01*
X0415935Y0333272D02*
X0418361Y0329632D01*
X0418361Y0333272D01*
X0419560Y0333272D02*
X0421380Y0333272D01*
X0421986Y0332666D01*
X0421986Y0330239D01*
X0421380Y0329632D01*
X0419560Y0329632D01*
X0419560Y0333272D01*
X0415935Y0333272D02*
X0415935Y0329632D01*
X0416525Y0302957D02*
X0418952Y0299317D01*
X0420150Y0299924D02*
X0422577Y0302351D01*
X0422577Y0299924D01*
X0421970Y0299317D01*
X0420757Y0299317D01*
X0420150Y0299924D01*
X0420150Y0302351D01*
X0420757Y0302957D01*
X0421970Y0302957D01*
X0422577Y0302351D01*
X0418952Y0302957D02*
X0416525Y0299317D01*
X0414113Y0299317D02*
X0414113Y0302957D01*
X0412900Y0302957D02*
X0415327Y0302957D01*
X0415114Y0292918D02*
X0415720Y0292311D01*
X0415720Y0291098D01*
X0415114Y0290491D01*
X0413294Y0290491D01*
X0413294Y0289278D02*
X0413294Y0292918D01*
X0415114Y0292918D01*
X0416919Y0292918D02*
X0419346Y0289278D01*
X0420544Y0289278D02*
X0421757Y0289278D01*
X0421151Y0289278D02*
X0421151Y0292918D01*
X0421757Y0292918D02*
X0420544Y0292918D01*
X0419346Y0292918D02*
X0416919Y0289278D01*
X0415720Y0289278D02*
X0414507Y0290491D01*
X0413893Y0282603D02*
X0412309Y0282603D01*
X0412309Y0279435D01*
X0413893Y0279435D01*
X0414421Y0279963D01*
X0414421Y0282075D01*
X0413893Y0282603D01*
X0415500Y0282603D02*
X0417611Y0282603D01*
X0416555Y0282603D02*
X0416555Y0279435D01*
X0416710Y0277610D02*
X0417238Y0277082D01*
X0417238Y0276554D01*
X0415126Y0276554D01*
X0415126Y0276026D02*
X0415126Y0277082D01*
X0415654Y0277610D01*
X0416710Y0277610D01*
X0418316Y0277082D02*
X0418844Y0277610D01*
X0420428Y0277610D01*
X0419900Y0276554D02*
X0418844Y0276554D01*
X0418316Y0277082D01*
X0418316Y0275498D02*
X0419900Y0275498D01*
X0420428Y0276026D01*
X0419900Y0276554D01*
X0421506Y0275498D02*
X0422562Y0276554D01*
X0422562Y0277610D01*
X0421506Y0278666D01*
X0420801Y0279435D02*
X0419745Y0280491D01*
X0420273Y0280491D02*
X0418690Y0280491D01*
X0418690Y0279435D02*
X0418690Y0282603D01*
X0420273Y0282603D01*
X0420801Y0282075D01*
X0420801Y0281019D01*
X0420273Y0280491D01*
X0416710Y0275498D02*
X0415654Y0275498D01*
X0415126Y0276026D01*
X0414051Y0277610D02*
X0413523Y0277610D01*
X0412468Y0276554D01*
X0412468Y0275498D02*
X0412468Y0277610D01*
X0411397Y0278666D02*
X0410341Y0277610D01*
X0410341Y0276554D01*
X0411397Y0275498D01*
X0412916Y0266343D02*
X0412309Y0265737D01*
X0412309Y0263310D01*
X0412916Y0262703D01*
X0414130Y0262703D01*
X0414736Y0263310D01*
X0414736Y0264523D01*
X0413523Y0264523D01*
X0414736Y0265737D02*
X0414130Y0266343D01*
X0412916Y0266343D01*
X0415935Y0266343D02*
X0418361Y0262703D01*
X0418361Y0266343D01*
X0419560Y0266343D02*
X0421380Y0266343D01*
X0421986Y0265737D01*
X0421986Y0263310D01*
X0421380Y0262703D01*
X0419560Y0262703D01*
X0419560Y0266343D01*
X0415935Y0266343D02*
X0415935Y0262703D01*
X0416525Y0235831D02*
X0418952Y0232191D01*
X0420150Y0232798D02*
X0422577Y0235225D01*
X0422577Y0232798D01*
X0421970Y0232191D01*
X0420757Y0232191D01*
X0420150Y0232798D01*
X0420150Y0235225D01*
X0420757Y0235831D01*
X0421970Y0235831D01*
X0422577Y0235225D01*
X0418952Y0235831D02*
X0416525Y0232191D01*
X0414113Y0232191D02*
X0414113Y0235831D01*
X0412900Y0235831D02*
X0415327Y0235831D01*
X0415114Y0225989D02*
X0415720Y0225382D01*
X0415720Y0224169D01*
X0415114Y0223562D01*
X0413294Y0223562D01*
X0414507Y0223562D02*
X0415720Y0222349D01*
X0416919Y0222349D02*
X0419346Y0225989D01*
X0420544Y0225989D02*
X0421757Y0225989D01*
X0421151Y0225989D02*
X0421151Y0222349D01*
X0421757Y0222349D02*
X0420544Y0222349D01*
X0419346Y0222349D02*
X0416919Y0225989D01*
X0415114Y0225989D02*
X0413294Y0225989D01*
X0413294Y0222349D01*
X0348742Y0247613D02*
X0345574Y0247613D01*
X0348742Y0249725D01*
X0345574Y0249725D01*
X0345574Y0250803D02*
X0348742Y0250803D01*
X0348742Y0252915D01*
X0347158Y0251859D02*
X0347158Y0250803D01*
X0345574Y0250803D02*
X0345574Y0252915D01*
X0345574Y0253994D02*
X0345574Y0256105D01*
X0345574Y0255049D02*
X0348742Y0255049D01*
X0349270Y0257184D02*
X0349270Y0259295D01*
X0348742Y0260374D02*
X0348742Y0261957D01*
X0348214Y0262485D01*
X0347686Y0262485D01*
X0347158Y0261957D01*
X0347158Y0260374D01*
X0347158Y0261957D02*
X0346630Y0262485D01*
X0346102Y0262485D01*
X0345574Y0261957D01*
X0345574Y0260374D01*
X0348742Y0260374D01*
X0348742Y0263564D02*
X0345574Y0263564D01*
X0345574Y0265148D01*
X0346102Y0265675D01*
X0347158Y0265675D01*
X0347686Y0265148D01*
X0347686Y0263564D01*
X0347686Y0264620D02*
X0348742Y0265675D01*
X0348742Y0266754D02*
X0348742Y0267810D01*
X0348742Y0267282D02*
X0345574Y0267282D01*
X0345574Y0266754D02*
X0345574Y0267810D01*
X0345574Y0268881D02*
X0345574Y0270464D01*
X0346102Y0270992D01*
X0348214Y0270992D01*
X0348742Y0270464D01*
X0348742Y0268881D01*
X0345574Y0268881D01*
X0346102Y0272071D02*
X0348214Y0272071D01*
X0348742Y0272599D01*
X0348742Y0273655D01*
X0348214Y0274182D01*
X0347158Y0274182D01*
X0347158Y0273127D01*
X0346102Y0274182D02*
X0345574Y0273655D01*
X0345574Y0272599D01*
X0346102Y0272071D01*
X0345574Y0275261D02*
X0348742Y0275261D01*
X0348742Y0277373D01*
X0347158Y0276317D02*
X0347158Y0275261D01*
X0345574Y0275261D02*
X0345574Y0277373D01*
X0273651Y0284307D02*
X0273651Y0287012D01*
X0271487Y0287012D02*
X0271487Y0284307D01*
X0272028Y0283766D01*
X0273110Y0283766D01*
X0273651Y0284307D01*
X0270389Y0283766D02*
X0270389Y0287012D01*
X0269307Y0285930D01*
X0268225Y0287012D01*
X0268225Y0283766D01*
X0267132Y0283766D02*
X0266050Y0283766D01*
X0266591Y0283766D02*
X0266591Y0287012D01*
X0266050Y0287012D02*
X0267132Y0287012D01*
X0423530Y0418546D02*
X0424058Y0418018D01*
X0425114Y0418018D01*
X0425641Y0418546D01*
X0425641Y0420658D01*
X0425114Y0421185D01*
X0424058Y0421185D01*
X0423530Y0420658D01*
X0423530Y0418546D01*
X0424586Y0419074D02*
X0425641Y0418018D01*
X0426720Y0418018D02*
X0428832Y0418018D01*
X0427776Y0418018D02*
X0427776Y0421185D01*
X0426720Y0420130D01*
X0432638Y0128744D02*
X0433694Y0128744D01*
X0434222Y0128217D01*
X0434222Y0126105D01*
X0433694Y0125577D01*
X0432638Y0125577D01*
X0432110Y0126105D01*
X0432110Y0128217D01*
X0432638Y0128744D01*
X0433166Y0126633D02*
X0434222Y0125577D01*
X0435300Y0125577D02*
X0437412Y0127689D01*
X0437412Y0128217D01*
X0436884Y0128744D01*
X0435828Y0128744D01*
X0435300Y0128217D01*
X0435300Y0125577D02*
X0437412Y0125577D01*
X0281900Y0112603D02*
X0279789Y0112603D01*
X0279789Y0111019D01*
X0280844Y0111547D01*
X0281372Y0111547D01*
X0281900Y0111019D01*
X0281900Y0109963D01*
X0281372Y0109435D01*
X0280317Y0109435D01*
X0279789Y0109963D01*
X0278710Y0109963D02*
X0278710Y0112075D01*
X0278182Y0112603D01*
X0276599Y0112603D01*
X0276599Y0109435D01*
X0278182Y0109435D01*
X0278710Y0109963D01*
X0122451Y0127161D02*
X0120340Y0127161D01*
X0121923Y0128744D01*
X0121923Y0125577D01*
X0119261Y0125577D02*
X0118205Y0126633D01*
X0117150Y0126105D02*
X0117678Y0125577D01*
X0118733Y0125577D01*
X0119261Y0126105D01*
X0119261Y0128217D01*
X0118733Y0128744D01*
X0117678Y0128744D01*
X0117150Y0128217D01*
X0117150Y0126105D01*
D12*
X0185978Y0311569D02*
X0185978Y0312750D01*
X0185978Y0311569D02*
X0187159Y0311569D01*
X0220230Y0311569D02*
X0221411Y0311569D01*
X0221411Y0312750D01*
X0221411Y0345821D02*
X0221411Y0347002D01*
X0220230Y0347002D01*
X0207238Y0370821D02*
X0202514Y0370821D01*
X0195033Y0375939D02*
X0195033Y0378301D01*
X0202514Y0383419D02*
X0207238Y0383419D01*
X0214719Y0378301D02*
X0214719Y0375939D01*
X0187159Y0347002D02*
X0185978Y0345821D01*
X0133077Y0331620D02*
X0114077Y0331620D01*
X0116577Y0328620D02*
X0115077Y0327120D01*
X0116577Y0325620D01*
X0115077Y0327120D02*
X0118577Y0327120D01*
X0114077Y0322620D02*
X0133077Y0322620D01*
X0258380Y0344226D02*
X0258380Y0359226D01*
X0260880Y0361726D01*
X0265880Y0361726D01*
X0268380Y0359226D01*
X0268380Y0344226D01*
X0265880Y0341726D01*
X0260880Y0341726D01*
X0258380Y0344226D01*
X0268380Y0344226D02*
X0270880Y0341726D01*
X0275880Y0341726D01*
X0278380Y0344226D01*
X0278380Y0359226D01*
X0280880Y0361726D01*
X0285880Y0361726D01*
X0288380Y0359226D01*
X0288380Y0344226D01*
X0285880Y0341726D01*
X0280880Y0341726D01*
X0278380Y0344226D01*
X0278380Y0359226D02*
X0275880Y0361726D01*
X0270880Y0361726D01*
X0425860Y0333754D02*
X0425860Y0328754D01*
X0428360Y0326254D01*
X0425860Y0323754D01*
X0425860Y0318754D01*
X0428360Y0316254D01*
X0425860Y0313754D01*
X0425860Y0308754D01*
X0428360Y0306254D01*
X0425860Y0303754D01*
X0425860Y0298754D01*
X0428360Y0296254D01*
X0425860Y0293754D01*
X0425860Y0288754D01*
X0428360Y0286254D01*
X0425860Y0283754D01*
X0425860Y0278754D01*
X0428360Y0276254D01*
X0433360Y0276254D01*
X0435860Y0278754D01*
X0435860Y0283754D01*
X0433360Y0286254D01*
X0435860Y0288754D01*
X0435860Y0293754D01*
X0433360Y0296254D01*
X0435860Y0298754D01*
X0435860Y0303754D01*
X0433360Y0306254D01*
X0435860Y0308754D01*
X0435860Y0313754D01*
X0433360Y0316254D01*
X0435860Y0318754D01*
X0435860Y0323754D01*
X0433360Y0326254D01*
X0435860Y0328754D01*
X0435860Y0333754D01*
X0433360Y0336254D01*
X0428360Y0336254D01*
X0425860Y0333754D01*
X0428360Y0269325D02*
X0433360Y0269325D01*
X0435860Y0266825D01*
X0435860Y0261825D01*
X0433360Y0259325D01*
X0435860Y0256825D01*
X0435860Y0251825D01*
X0433360Y0249325D01*
X0435860Y0246825D01*
X0435860Y0241825D01*
X0433360Y0239325D01*
X0435860Y0236825D01*
X0435860Y0231825D01*
X0433360Y0229325D01*
X0435860Y0226825D01*
X0435860Y0221825D01*
X0433360Y0219325D01*
X0435860Y0216825D01*
X0435860Y0211825D01*
X0433360Y0209325D01*
X0428360Y0209325D01*
X0425860Y0211825D01*
X0425860Y0216825D01*
X0428360Y0219325D01*
X0425860Y0221825D01*
X0425860Y0226825D01*
X0428360Y0229325D01*
X0425860Y0231825D01*
X0425860Y0236825D01*
X0428360Y0239325D01*
X0425860Y0241825D01*
X0425860Y0246825D01*
X0428360Y0249325D01*
X0425860Y0251825D01*
X0425860Y0256825D01*
X0428360Y0259325D01*
X0425860Y0261825D01*
X0425860Y0266825D01*
X0428360Y0269325D01*
D13*
X0373496Y0277379D02*
X0373496Y0278913D01*
X0371961Y0278913D01*
X0370427Y0277379D02*
X0371194Y0276611D01*
X0372729Y0276611D01*
X0373496Y0277379D01*
X0373496Y0280448D02*
X0372729Y0281215D01*
X0371194Y0281215D01*
X0370427Y0280448D01*
X0370427Y0277379D01*
X0368892Y0276611D02*
X0365823Y0276611D01*
X0365823Y0281215D01*
X0368892Y0281215D01*
X0367357Y0278913D02*
X0365823Y0278913D01*
X0364288Y0278913D02*
X0363521Y0278146D01*
X0361219Y0278146D01*
X0362754Y0278146D02*
X0364288Y0276611D01*
X0364288Y0278913D02*
X0364288Y0280448D01*
X0363521Y0281215D01*
X0361219Y0281215D01*
X0361219Y0276611D01*
X0359684Y0275844D02*
X0356615Y0275844D01*
X0355080Y0278146D02*
X0355080Y0281215D01*
X0355080Y0278146D02*
X0353546Y0276611D01*
X0352011Y0278146D01*
X0352011Y0281215D01*
X0207988Y0385863D02*
X0204919Y0385863D01*
X0206453Y0385863D02*
X0206453Y0390467D01*
X0204919Y0388933D01*
X0203384Y0389700D02*
X0203384Y0390467D01*
X0203384Y0389700D02*
X0201849Y0388165D01*
X0201849Y0385863D01*
X0201849Y0388165D02*
X0200315Y0389700D01*
X0200315Y0390467D01*
X0150508Y0340448D02*
X0150508Y0335844D01*
X0148974Y0335844D02*
X0152043Y0335844D01*
X0148974Y0338913D02*
X0150508Y0340448D01*
X0147439Y0339680D02*
X0147439Y0338913D01*
X0146672Y0338146D01*
X0144370Y0338146D01*
X0144370Y0335844D02*
X0144370Y0340448D01*
X0146672Y0340448D01*
X0147439Y0339680D01*
X0146672Y0338146D02*
X0147439Y0337378D01*
X0147439Y0336611D01*
X0146672Y0335844D01*
X0144370Y0335844D01*
X0131768Y0319853D02*
X0130233Y0318319D01*
X0128699Y0318319D02*
X0128699Y0315249D01*
X0130233Y0315249D02*
X0133303Y0315249D01*
X0131768Y0315249D02*
X0131768Y0319853D01*
X0128699Y0318319D02*
X0127164Y0319853D01*
X0125630Y0318319D01*
X0125630Y0315249D01*
X0125630Y0317551D02*
X0128699Y0317551D01*
X0121238Y0412045D02*
X0121238Y0418183D01*
X0122005Y0417416D02*
X0122772Y0416649D01*
X0122005Y0417416D02*
X0120470Y0417416D01*
X0119703Y0416649D01*
X0119703Y0415882D01*
X0120470Y0415114D01*
X0122005Y0415114D01*
X0122772Y0414347D01*
X0122772Y0413580D01*
X0122005Y0412812D01*
X0120470Y0412812D01*
X0119703Y0413580D01*
X0118169Y0413580D02*
X0118169Y0417416D01*
X0115099Y0417416D02*
X0115099Y0413580D01*
X0115867Y0412812D01*
X0117401Y0412812D01*
X0118169Y0413580D01*
X0124307Y0413580D02*
X0125074Y0412812D01*
X0126609Y0412812D01*
X0127376Y0413580D01*
X0127376Y0414347D01*
X0126609Y0415114D01*
X0125842Y0415114D01*
X0126609Y0415114D02*
X0127376Y0415882D01*
X0127376Y0416649D01*
X0126609Y0417416D01*
X0125074Y0417416D01*
X0124307Y0416649D01*
X0126810Y0418954D02*
X0126810Y0422023D01*
X0125275Y0420488D02*
X0128345Y0420488D01*
X0116533Y0420488D02*
X0113464Y0420488D01*
X0126810Y0114936D02*
X0126810Y0111867D01*
X0126609Y0110330D02*
X0124307Y0108028D01*
X0127376Y0108028D01*
X0126609Y0105726D02*
X0126609Y0110330D01*
X0125275Y0113402D02*
X0128345Y0113402D01*
X0122772Y0109562D02*
X0122005Y0110330D01*
X0120470Y0110330D01*
X0119703Y0109562D01*
X0119703Y0108795D01*
X0120470Y0108028D01*
X0122005Y0108028D01*
X0122772Y0107260D01*
X0122772Y0106493D01*
X0122005Y0105726D01*
X0120470Y0105726D01*
X0119703Y0106493D01*
X0118169Y0106493D02*
X0118169Y0110330D01*
X0115099Y0110330D02*
X0115099Y0106493D01*
X0115867Y0105726D01*
X0117401Y0105726D01*
X0118169Y0106493D01*
X0121238Y0104958D02*
X0121238Y0111097D01*
X0116533Y0113402D02*
X0113464Y0113402D01*
X0417281Y0126276D02*
X0420350Y0126276D01*
X0418815Y0127810D02*
X0418815Y0124741D01*
X0419016Y0129348D02*
X0420551Y0129348D01*
X0421318Y0130115D01*
X0421318Y0133952D01*
X0422853Y0133184D02*
X0423620Y0133952D01*
X0425155Y0133952D01*
X0425922Y0133184D01*
X0427457Y0133184D02*
X0428224Y0133952D01*
X0429759Y0133952D01*
X0430526Y0133184D01*
X0430526Y0132417D01*
X0427457Y0129348D01*
X0430526Y0129348D01*
X0429092Y0126276D02*
X0432161Y0126276D01*
X0425922Y0130115D02*
X0425922Y0130882D01*
X0425155Y0131650D01*
X0423620Y0131650D01*
X0422853Y0132417D01*
X0422853Y0133184D01*
X0424387Y0134719D02*
X0424387Y0128580D01*
X0423620Y0129348D02*
X0425155Y0129348D01*
X0425922Y0130115D01*
X0423620Y0129348D02*
X0422853Y0130115D01*
X0419016Y0129348D02*
X0418249Y0130115D01*
X0418249Y0133952D01*
X0418815Y0431828D02*
X0418815Y0434897D01*
X0419016Y0436434D02*
X0420551Y0436434D01*
X0421318Y0437202D01*
X0421318Y0441038D01*
X0422853Y0440271D02*
X0423620Y0441038D01*
X0425155Y0441038D01*
X0425922Y0440271D01*
X0425155Y0438736D02*
X0423620Y0438736D01*
X0422853Y0439504D01*
X0422853Y0440271D01*
X0424387Y0441806D02*
X0424387Y0435667D01*
X0423620Y0436434D02*
X0425155Y0436434D01*
X0425922Y0437202D01*
X0425922Y0437969D01*
X0425155Y0438736D01*
X0427457Y0439504D02*
X0428991Y0441038D01*
X0428991Y0436434D01*
X0427457Y0436434D02*
X0430526Y0436434D01*
X0429092Y0433362D02*
X0432161Y0433362D01*
X0423620Y0436434D02*
X0422853Y0437202D01*
X0419016Y0436434D02*
X0418249Y0437202D01*
X0418249Y0441038D01*
X0417281Y0433362D02*
X0420350Y0433362D01*
D14*
X0413144Y0435782D02*
X0436766Y0435782D01*
X0436766Y0420033D01*
X0413144Y0420033D01*
X0413144Y0435782D01*
X0411713Y0425642D02*
X0411713Y0422823D01*
X0411713Y0424232D02*
X0407485Y0424232D01*
X0408894Y0422823D01*
X0408189Y0421292D02*
X0407485Y0420587D01*
X0407485Y0418473D01*
X0411713Y0418473D01*
X0411713Y0420587D01*
X0411008Y0421292D01*
X0408189Y0421292D01*
X0416067Y0411716D02*
X0415362Y0411012D01*
X0415362Y0408193D01*
X0416067Y0407488D01*
X0417476Y0407488D01*
X0418181Y0408193D01*
X0419712Y0408193D02*
X0419712Y0407488D01*
X0419712Y0408193D02*
X0422531Y0411012D01*
X0422531Y0411716D01*
X0419712Y0411716D01*
X0418181Y0411012D02*
X0417476Y0411716D01*
X0416067Y0411716D01*
X0423774Y0414325D02*
X0423774Y0415900D01*
X0425742Y0415900D01*
X0435191Y0415900D02*
X0437553Y0415900D01*
X0437553Y0413931D01*
X0437553Y0399758D02*
X0437553Y0397789D01*
X0435978Y0397789D01*
X0430610Y0394972D02*
X0430610Y0392153D01*
X0427792Y0394972D01*
X0427087Y0394972D01*
X0426382Y0394267D01*
X0426382Y0392858D01*
X0427087Y0392153D01*
X0427087Y0390622D02*
X0428496Y0390622D01*
X0429201Y0389917D01*
X0429201Y0387803D01*
X0430610Y0387803D02*
X0426382Y0387803D01*
X0426382Y0389917D01*
X0427087Y0390622D01*
X0429201Y0389213D02*
X0430610Y0390622D01*
X0425742Y0397789D02*
X0423774Y0397789D01*
X0423774Y0399364D01*
X0418799Y0394267D02*
X0418799Y0392858D01*
X0418095Y0392153D01*
X0418799Y0390622D02*
X0417390Y0389213D01*
X0417390Y0389917D02*
X0417390Y0387803D01*
X0418799Y0387803D02*
X0414571Y0387803D01*
X0414571Y0389917D01*
X0415276Y0390622D01*
X0416685Y0390622D01*
X0417390Y0389917D01*
X0415276Y0392153D02*
X0414571Y0392858D01*
X0414571Y0394267D01*
X0415276Y0394972D01*
X0415981Y0394972D01*
X0416685Y0394267D01*
X0417390Y0394972D01*
X0418095Y0394972D01*
X0418799Y0394267D01*
X0416685Y0394267D02*
X0416685Y0393563D01*
X0395965Y0411304D02*
X0395965Y0412713D01*
X0395260Y0413418D01*
X0395260Y0414949D02*
X0394555Y0414949D01*
X0393851Y0415654D01*
X0393851Y0417063D01*
X0394555Y0417768D01*
X0395260Y0417768D01*
X0395965Y0417063D01*
X0395965Y0415654D01*
X0395260Y0414949D01*
X0393851Y0415654D02*
X0393146Y0414949D01*
X0392441Y0414949D01*
X0391737Y0415654D01*
X0391737Y0417063D01*
X0392441Y0417768D01*
X0393146Y0417768D01*
X0393851Y0417063D01*
X0392441Y0413418D02*
X0391737Y0412713D01*
X0391737Y0411304D01*
X0392441Y0410599D01*
X0395260Y0410599D01*
X0395965Y0411304D01*
X0420189Y0311587D02*
X0419438Y0310837D01*
X0419438Y0309335D01*
X0420189Y0308585D01*
X0420939Y0308585D01*
X0421690Y0309335D01*
X0421690Y0311587D01*
X0423191Y0311587D02*
X0420189Y0311587D01*
X0423191Y0311587D02*
X0423942Y0310837D01*
X0423942Y0309335D01*
X0423191Y0308585D01*
X0421690Y0306983D02*
X0422440Y0306233D01*
X0422440Y0303981D01*
X0423942Y0303981D02*
X0419438Y0303981D01*
X0419438Y0306233D01*
X0420189Y0306983D01*
X0421690Y0306983D01*
X0419438Y0302379D02*
X0419438Y0300878D01*
X0419438Y0301629D02*
X0423191Y0301629D01*
X0423942Y0300878D01*
X0423942Y0300127D01*
X0423191Y0299377D01*
X0405228Y0293606D02*
X0402409Y0293606D01*
X0402409Y0291492D01*
X0403818Y0292197D01*
X0404523Y0292197D01*
X0405228Y0291492D01*
X0405228Y0290083D01*
X0404523Y0289378D01*
X0403114Y0289378D01*
X0402409Y0290083D01*
X0400878Y0289378D02*
X0398059Y0289378D01*
X0399468Y0289378D02*
X0399468Y0293606D01*
X0398059Y0292197D01*
X0396527Y0292901D02*
X0395823Y0293606D01*
X0394413Y0293606D01*
X0393709Y0292901D01*
X0393709Y0290083D01*
X0394413Y0289378D01*
X0395823Y0289378D01*
X0396527Y0290083D01*
X0374716Y0286571D02*
X0371897Y0286571D01*
X0374011Y0288685D01*
X0374011Y0284457D01*
X0370366Y0284457D02*
X0367547Y0284457D01*
X0370366Y0287275D01*
X0370366Y0287980D01*
X0369661Y0288685D01*
X0368252Y0288685D01*
X0367547Y0287980D01*
X0366016Y0287980D02*
X0365311Y0288685D01*
X0363902Y0288685D01*
X0363197Y0287980D01*
X0363197Y0285161D01*
X0363902Y0284457D01*
X0365311Y0284457D01*
X0366016Y0285161D01*
X0367267Y0255220D02*
X0366563Y0254516D01*
X0367267Y0255220D02*
X0368677Y0255220D01*
X0369381Y0254516D01*
X0369381Y0253811D01*
X0366563Y0250992D01*
X0369381Y0250992D01*
X0370913Y0251697D02*
X0371618Y0250992D01*
X0373027Y0250992D01*
X0373732Y0251697D01*
X0373732Y0252401D01*
X0373027Y0253106D01*
X0372322Y0253106D01*
X0373027Y0253106D02*
X0373732Y0253811D01*
X0373732Y0254516D01*
X0373027Y0255220D01*
X0371618Y0255220D01*
X0370913Y0254516D01*
X0365031Y0254516D02*
X0364327Y0255220D01*
X0362917Y0255220D01*
X0362213Y0254516D01*
X0362213Y0251697D01*
X0362917Y0250992D01*
X0364327Y0250992D01*
X0365031Y0251697D01*
X0335254Y0237594D02*
X0334549Y0238299D01*
X0333140Y0238299D01*
X0332435Y0237594D01*
X0330904Y0238299D02*
X0329494Y0238299D01*
X0330199Y0238299D02*
X0330199Y0234776D01*
X0329494Y0234071D01*
X0328790Y0234071D01*
X0328085Y0234776D01*
X0332435Y0234071D02*
X0335254Y0236890D01*
X0335254Y0237594D01*
X0335254Y0234071D02*
X0332435Y0234071D01*
X0296752Y0268568D02*
X0296047Y0267863D01*
X0293229Y0267863D01*
X0292524Y0268568D01*
X0292524Y0269977D01*
X0293229Y0270682D01*
X0293933Y0272213D02*
X0292524Y0273622D01*
X0296752Y0273622D01*
X0296752Y0272213D02*
X0296752Y0275032D01*
X0296047Y0276563D02*
X0296752Y0277268D01*
X0296752Y0278677D01*
X0296047Y0279382D01*
X0293229Y0279382D01*
X0292524Y0278677D01*
X0292524Y0277268D01*
X0293229Y0276563D01*
X0293933Y0276563D01*
X0294638Y0277268D01*
X0294638Y0279382D01*
X0296047Y0270682D02*
X0296752Y0269977D01*
X0296752Y0268568D01*
X0280860Y0268656D02*
X0280860Y0266687D01*
X0281254Y0277711D02*
X0281254Y0280073D01*
X0272933Y0283528D02*
X0272933Y0284938D01*
X0272228Y0285642D01*
X0272933Y0287174D02*
X0270114Y0289992D01*
X0269410Y0289992D01*
X0268705Y0289288D01*
X0268705Y0287878D01*
X0269410Y0287174D01*
X0269410Y0285642D02*
X0268705Y0284938D01*
X0268705Y0283528D01*
X0269410Y0282824D01*
X0272228Y0282824D01*
X0272933Y0283528D01*
X0272933Y0287174D02*
X0272933Y0289992D01*
X0272933Y0291524D02*
X0272933Y0294343D01*
X0272933Y0292933D02*
X0268705Y0292933D01*
X0270114Y0291524D01*
X0274922Y0296071D02*
X0277740Y0296071D01*
X0278445Y0296776D01*
X0278445Y0298185D01*
X0277740Y0298890D01*
X0278445Y0300421D02*
X0278445Y0303240D01*
X0278445Y0301830D02*
X0274217Y0301830D01*
X0275626Y0300421D01*
X0274922Y0298890D02*
X0274217Y0298185D01*
X0274217Y0296776D01*
X0274922Y0296071D01*
X0274922Y0304771D02*
X0275626Y0304771D01*
X0276331Y0305476D01*
X0276331Y0306885D01*
X0277036Y0307590D01*
X0277740Y0307590D01*
X0278445Y0306885D01*
X0278445Y0305476D01*
X0277740Y0304771D01*
X0277036Y0304771D01*
X0276331Y0305476D01*
X0276331Y0306885D02*
X0275626Y0307590D01*
X0274922Y0307590D01*
X0274217Y0306885D01*
X0274217Y0305476D01*
X0274922Y0304771D01*
X0261469Y0308193D02*
X0260764Y0307488D01*
X0259355Y0307488D01*
X0258650Y0308193D01*
X0257118Y0308193D02*
X0257118Y0311012D01*
X0256414Y0311716D01*
X0254300Y0311716D01*
X0254300Y0307488D01*
X0256414Y0307488D01*
X0257118Y0308193D01*
X0258650Y0311012D02*
X0259355Y0311716D01*
X0260764Y0311716D01*
X0261469Y0311012D01*
X0261469Y0310307D01*
X0260764Y0309602D01*
X0261469Y0308898D01*
X0261469Y0308193D01*
X0260764Y0309602D02*
X0260059Y0309602D01*
X0258650Y0316543D02*
X0261469Y0319362D01*
X0261469Y0320067D01*
X0260764Y0320771D01*
X0259355Y0320771D01*
X0258650Y0320067D01*
X0257118Y0320067D02*
X0256414Y0320771D01*
X0254300Y0320771D01*
X0254300Y0316543D01*
X0256414Y0316543D01*
X0257118Y0317248D01*
X0257118Y0320067D01*
X0258650Y0316543D02*
X0261469Y0316543D01*
X0252768Y0316543D02*
X0249950Y0316543D01*
X0249950Y0320771D01*
X0252768Y0320771D01*
X0251359Y0318657D02*
X0249950Y0318657D01*
X0248418Y0316543D02*
X0245599Y0316543D01*
X0245599Y0320771D01*
X0244539Y0320771D02*
X0243130Y0320067D01*
X0241721Y0318657D01*
X0243835Y0318657D01*
X0244539Y0317953D01*
X0244539Y0317248D01*
X0243835Y0316543D01*
X0242425Y0316543D01*
X0241721Y0317248D01*
X0241721Y0318657D01*
X0240189Y0318657D02*
X0239485Y0317953D01*
X0237371Y0317953D01*
X0238780Y0317953D02*
X0240189Y0316543D01*
X0240189Y0318657D02*
X0240189Y0320067D01*
X0239485Y0320771D01*
X0237371Y0320771D01*
X0237371Y0316543D01*
X0237371Y0311716D02*
X0239485Y0311716D01*
X0240189Y0311012D01*
X0240189Y0309602D01*
X0239485Y0308898D01*
X0237371Y0308898D01*
X0238780Y0308898D02*
X0240189Y0307488D01*
X0241721Y0308193D02*
X0242425Y0307488D01*
X0243835Y0307488D01*
X0244539Y0308193D01*
X0244539Y0309602D01*
X0243835Y0310307D01*
X0243130Y0310307D01*
X0241721Y0309602D01*
X0241721Y0311716D01*
X0244539Y0311716D01*
X0245599Y0311716D02*
X0245599Y0307488D01*
X0248418Y0307488D01*
X0249950Y0307488D02*
X0252768Y0307488D01*
X0251359Y0309602D02*
X0249950Y0309602D01*
X0249950Y0311716D02*
X0249950Y0307488D01*
X0249950Y0311716D02*
X0252768Y0311716D01*
X0237371Y0311716D02*
X0237371Y0307488D01*
X0248630Y0283763D02*
X0250744Y0283763D01*
X0251449Y0283059D01*
X0251449Y0281649D01*
X0250744Y0280945D01*
X0248630Y0280945D01*
X0250039Y0280945D02*
X0251449Y0279535D01*
X0252980Y0279535D02*
X0255799Y0279535D01*
X0254389Y0279535D02*
X0254389Y0283763D01*
X0252980Y0282354D01*
X0257330Y0283059D02*
X0258035Y0283763D01*
X0259444Y0283763D01*
X0260149Y0283059D01*
X0260149Y0282354D01*
X0257330Y0279535D01*
X0260149Y0279535D01*
X0259444Y0273724D02*
X0260149Y0273019D01*
X0260149Y0272315D01*
X0259444Y0271610D01*
X0260149Y0270905D01*
X0260149Y0270201D01*
X0259444Y0269496D01*
X0258035Y0269496D01*
X0257330Y0270201D01*
X0255799Y0269496D02*
X0252980Y0269496D01*
X0254389Y0269496D02*
X0254389Y0273724D01*
X0252980Y0272315D01*
X0251449Y0273019D02*
X0250744Y0273724D01*
X0248630Y0273724D01*
X0248630Y0269496D01*
X0248630Y0270905D02*
X0250744Y0270905D01*
X0251449Y0271610D01*
X0251449Y0273019D01*
X0250039Y0270905D02*
X0251449Y0269496D01*
X0257330Y0273019D02*
X0258035Y0273724D01*
X0259444Y0273724D01*
X0259444Y0271610D02*
X0258740Y0271610D01*
X0265900Y0269049D02*
X0265900Y0267081D01*
X0248630Y0279535D02*
X0248630Y0283763D01*
X0230957Y0269673D02*
X0230252Y0270378D01*
X0228843Y0270378D01*
X0228138Y0269673D01*
X0226607Y0269673D02*
X0225902Y0270378D01*
X0224493Y0270378D01*
X0223788Y0269673D01*
X0222256Y0269673D02*
X0221552Y0270378D01*
X0220142Y0270378D01*
X0219438Y0269673D01*
X0219438Y0266854D01*
X0220142Y0266150D01*
X0221552Y0266150D01*
X0222256Y0266854D01*
X0223788Y0266150D02*
X0226607Y0268968D01*
X0226607Y0269673D01*
X0226607Y0266150D02*
X0223788Y0266150D01*
X0228138Y0266150D02*
X0230957Y0268968D01*
X0230957Y0269673D01*
X0230957Y0266150D02*
X0228138Y0266150D01*
X0212189Y0283434D02*
X0212894Y0284138D01*
X0212894Y0285548D01*
X0212189Y0286252D01*
X0212894Y0287784D02*
X0210075Y0290602D01*
X0209370Y0290602D01*
X0208666Y0289898D01*
X0208666Y0288488D01*
X0209370Y0287784D01*
X0209370Y0286252D02*
X0208666Y0285548D01*
X0208666Y0284138D01*
X0209370Y0283434D01*
X0212189Y0283434D01*
X0212894Y0287784D02*
X0212894Y0290602D01*
X0194783Y0293626D02*
X0194783Y0295035D01*
X0194079Y0295740D01*
X0194079Y0297271D02*
X0194783Y0297976D01*
X0194783Y0299385D01*
X0194079Y0300090D01*
X0193374Y0300090D01*
X0192669Y0299385D01*
X0192669Y0298681D01*
X0192669Y0299385D02*
X0191965Y0300090D01*
X0191260Y0300090D01*
X0190555Y0299385D01*
X0190555Y0297976D01*
X0191260Y0297271D01*
X0191260Y0295740D02*
X0190555Y0295035D01*
X0190555Y0293626D01*
X0191260Y0292921D01*
X0194079Y0292921D01*
X0194783Y0293626D01*
X0190059Y0290685D02*
X0185831Y0290685D01*
X0187945Y0288571D01*
X0187945Y0291390D01*
X0186536Y0287040D02*
X0185831Y0286335D01*
X0185831Y0284926D01*
X0186536Y0284221D01*
X0189354Y0284221D01*
X0190059Y0284926D01*
X0190059Y0286335D01*
X0189354Y0287040D01*
X0159630Y0318512D02*
X0156811Y0318512D01*
X0156107Y0319216D01*
X0156107Y0320626D01*
X0156811Y0321331D01*
X0157516Y0322862D02*
X0156107Y0324271D01*
X0160335Y0324271D01*
X0160335Y0322862D02*
X0160335Y0325681D01*
X0160335Y0327212D02*
X0160335Y0330031D01*
X0160335Y0328622D02*
X0156107Y0328622D01*
X0157516Y0327212D01*
X0152711Y0326825D02*
X0152711Y0331746D01*
X0145606Y0328774D02*
X0145608Y0328800D01*
X0145614Y0328826D01*
X0145623Y0328850D01*
X0145637Y0328873D01*
X0145653Y0328894D01*
X0145672Y0328912D01*
X0145694Y0328926D01*
X0145718Y0328938D01*
X0145743Y0328946D01*
X0145769Y0328950D01*
X0145795Y0328950D01*
X0145821Y0328946D01*
X0145846Y0328938D01*
X0145870Y0328926D01*
X0145892Y0328912D01*
X0145911Y0328894D01*
X0145927Y0328873D01*
X0145941Y0328850D01*
X0145950Y0328826D01*
X0145956Y0328800D01*
X0145958Y0328774D01*
X0145956Y0328748D01*
X0145950Y0328722D01*
X0145941Y0328698D01*
X0145927Y0328675D01*
X0145911Y0328654D01*
X0145892Y0328636D01*
X0145870Y0328622D01*
X0145846Y0328610D01*
X0145821Y0328602D01*
X0145795Y0328598D01*
X0145769Y0328598D01*
X0145743Y0328602D01*
X0145718Y0328610D01*
X0145694Y0328622D01*
X0145672Y0328636D01*
X0145653Y0328654D01*
X0145637Y0328675D01*
X0145623Y0328698D01*
X0145614Y0328722D01*
X0145608Y0328748D01*
X0145606Y0328774D01*
X0144837Y0326825D02*
X0144837Y0331746D01*
X0148744Y0321165D02*
X0148039Y0320460D01*
X0148039Y0317642D01*
X0148744Y0316937D01*
X0150153Y0316937D01*
X0150858Y0317642D01*
X0152390Y0317642D02*
X0153094Y0316937D01*
X0154504Y0316937D01*
X0155208Y0317642D01*
X0155208Y0320460D01*
X0154504Y0321165D01*
X0153094Y0321165D01*
X0152390Y0320460D01*
X0152390Y0319756D01*
X0153094Y0319051D01*
X0155208Y0319051D01*
X0159630Y0318512D02*
X0160335Y0319216D01*
X0160335Y0320626D01*
X0159630Y0321331D01*
X0150858Y0320460D02*
X0150153Y0321165D01*
X0148744Y0321165D01*
X0182205Y0374811D02*
X0185024Y0374811D01*
X0185728Y0375516D01*
X0185728Y0376925D01*
X0185024Y0377630D01*
X0185728Y0379161D02*
X0185728Y0381980D01*
X0185728Y0380571D02*
X0181500Y0380571D01*
X0182910Y0379161D01*
X0182205Y0377630D02*
X0181500Y0376925D01*
X0181500Y0375516D01*
X0182205Y0374811D01*
X0205126Y0367311D02*
X0205126Y0364492D01*
X0205831Y0363787D01*
X0207240Y0363787D01*
X0207945Y0364492D01*
X0209476Y0364492D02*
X0210181Y0363787D01*
X0211590Y0363787D01*
X0212295Y0364492D01*
X0212295Y0365901D01*
X0211590Y0366606D01*
X0210886Y0366606D01*
X0209476Y0365901D01*
X0209476Y0368015D01*
X0212295Y0368015D01*
X0207945Y0367311D02*
X0207240Y0368015D01*
X0205831Y0368015D01*
X0205126Y0367311D01*
X0223233Y0369965D02*
X0223937Y0369260D01*
X0226756Y0369260D01*
X0227461Y0369965D01*
X0227461Y0371374D01*
X0226756Y0372079D01*
X0226756Y0373610D02*
X0227461Y0374315D01*
X0227461Y0375724D01*
X0226756Y0376429D01*
X0226051Y0376429D01*
X0225347Y0375724D01*
X0225347Y0373610D01*
X0226756Y0373610D01*
X0225347Y0373610D02*
X0223937Y0375020D01*
X0223233Y0376429D01*
X0223937Y0372079D02*
X0223233Y0371374D01*
X0223233Y0369965D01*
X0258630Y0365227D02*
X0259381Y0364476D01*
X0260131Y0364476D01*
X0260882Y0365227D01*
X0260882Y0368980D01*
X0260131Y0368980D02*
X0261633Y0368980D01*
X0263234Y0367479D02*
X0264735Y0368980D01*
X0264735Y0364476D01*
X0263234Y0364476D02*
X0266236Y0364476D01*
X0284260Y0337700D02*
X0286374Y0337700D01*
X0287079Y0336996D01*
X0287079Y0335586D01*
X0286374Y0334882D01*
X0284260Y0334882D01*
X0285669Y0334882D02*
X0287079Y0333472D01*
X0288610Y0333472D02*
X0291429Y0333472D01*
X0290019Y0333472D02*
X0290019Y0337700D01*
X0288610Y0336291D01*
X0284260Y0337700D02*
X0284260Y0333472D01*
X0295398Y0297346D02*
X0294693Y0296641D01*
X0294693Y0293823D01*
X0295398Y0293118D01*
X0296807Y0293118D01*
X0297512Y0293823D01*
X0299043Y0293118D02*
X0301862Y0295937D01*
X0301862Y0296641D01*
X0301157Y0297346D01*
X0299748Y0297346D01*
X0299043Y0296641D01*
X0297512Y0296641D02*
X0296807Y0297346D01*
X0295398Y0297346D01*
X0299043Y0293118D02*
X0301862Y0293118D01*
X0303393Y0293823D02*
X0306212Y0296641D01*
X0306212Y0293823D01*
X0305507Y0293118D01*
X0304098Y0293118D01*
X0303393Y0293823D01*
X0303393Y0296641D01*
X0304098Y0297346D01*
X0305507Y0297346D01*
X0306212Y0296641D01*
X0419438Y0243157D02*
X0423942Y0243157D01*
X0423942Y0241656D02*
X0423942Y0244658D01*
X0420939Y0241656D02*
X0419438Y0243157D01*
X0420189Y0240054D02*
X0421690Y0240054D01*
X0422440Y0239304D01*
X0422440Y0237052D01*
X0423942Y0237052D02*
X0419438Y0237052D01*
X0419438Y0239304D01*
X0420189Y0240054D01*
X0419438Y0235450D02*
X0419438Y0233949D01*
X0419438Y0234700D02*
X0423191Y0234700D01*
X0423942Y0233949D01*
X0423942Y0233198D01*
X0423191Y0232448D01*
X0420000Y0161862D02*
X0422819Y0159044D01*
X0423524Y0159044D01*
X0423524Y0157512D02*
X0422114Y0156103D01*
X0422114Y0156807D02*
X0422114Y0154693D01*
X0423524Y0154693D02*
X0419296Y0154693D01*
X0419296Y0156807D01*
X0420000Y0157512D01*
X0421410Y0157512D01*
X0422114Y0156807D01*
X0419296Y0159044D02*
X0419296Y0161862D01*
X0420000Y0161862D01*
X0431107Y0161158D02*
X0433221Y0159044D01*
X0433221Y0161862D01*
X0435335Y0161158D02*
X0431107Y0161158D01*
X0431811Y0157512D02*
X0433221Y0157512D01*
X0433925Y0156807D01*
X0433925Y0154693D01*
X0435335Y0154693D02*
X0431107Y0154693D01*
X0431107Y0156807D01*
X0431811Y0157512D01*
X0433925Y0156103D02*
X0435335Y0157512D01*
X0435978Y0148970D02*
X0437947Y0148970D01*
X0437947Y0147396D01*
X0426881Y0147232D02*
X0424063Y0144413D01*
X0424767Y0143709D01*
X0426177Y0143709D01*
X0426881Y0144413D01*
X0426881Y0147232D01*
X0426177Y0147937D01*
X0424767Y0147937D01*
X0424063Y0147232D01*
X0424063Y0144413D01*
X0422531Y0143709D02*
X0419712Y0143709D01*
X0421122Y0143709D02*
X0421122Y0147937D01*
X0419712Y0146527D01*
X0418181Y0147232D02*
X0417476Y0147937D01*
X0416067Y0147937D01*
X0415362Y0147232D01*
X0415362Y0144413D01*
X0416067Y0143709D01*
X0417476Y0143709D01*
X0418181Y0144413D01*
X0424167Y0147002D02*
X0424167Y0148970D01*
X0425742Y0148970D01*
X0424167Y0132829D02*
X0424167Y0130860D01*
X0426530Y0130860D01*
X0435978Y0130860D02*
X0437947Y0130860D01*
X0437947Y0132435D01*
X0436766Y0128695D02*
X0413144Y0128695D01*
X0413144Y0112947D01*
X0436766Y0112947D01*
X0436766Y0128695D01*
X0406988Y0129078D02*
X0406988Y0130488D01*
X0406284Y0131192D01*
X0405579Y0131192D01*
X0404874Y0130488D01*
X0404874Y0128374D01*
X0406284Y0128374D01*
X0406988Y0129078D01*
X0404874Y0128374D02*
X0403465Y0129783D01*
X0402760Y0131192D01*
X0403465Y0126842D02*
X0402760Y0126138D01*
X0402760Y0124024D01*
X0406988Y0124024D01*
X0406988Y0126138D01*
X0406284Y0126842D01*
X0403465Y0126842D01*
X0391240Y0132602D02*
X0391240Y0134012D01*
X0390536Y0134716D01*
X0391240Y0136248D02*
X0391240Y0139067D01*
X0391240Y0137657D02*
X0387012Y0137657D01*
X0388422Y0136248D01*
X0387717Y0134716D02*
X0387012Y0134012D01*
X0387012Y0132602D01*
X0387717Y0131898D01*
X0390536Y0131898D01*
X0391240Y0132602D01*
X0391240Y0140598D02*
X0388422Y0143417D01*
X0387717Y0143417D01*
X0387012Y0142712D01*
X0387012Y0141303D01*
X0387717Y0140598D01*
X0391240Y0140598D02*
X0391240Y0143417D01*
X0282829Y0118262D02*
X0282829Y0113537D01*
X0263931Y0113537D01*
X0263931Y0118262D01*
X0282829Y0118262D01*
X0155020Y0128665D02*
X0155020Y0130075D01*
X0154315Y0130779D01*
X0155020Y0132311D02*
X0155020Y0135130D01*
X0155020Y0133720D02*
X0150792Y0133720D01*
X0152201Y0132311D01*
X0151496Y0130779D02*
X0150792Y0130075D01*
X0150792Y0128665D01*
X0151496Y0127961D01*
X0154315Y0127961D01*
X0155020Y0128665D01*
X0155020Y0136661D02*
X0154315Y0136661D01*
X0151496Y0139480D01*
X0150792Y0139480D01*
X0150792Y0136661D01*
X0143417Y0144413D02*
X0143417Y0145118D01*
X0142712Y0145823D01*
X0140598Y0145823D01*
X0140598Y0144413D01*
X0141303Y0143709D01*
X0142712Y0143709D01*
X0143417Y0144413D01*
X0142007Y0147232D02*
X0140598Y0145823D01*
X0142007Y0147232D02*
X0143417Y0147937D01*
X0137657Y0147937D02*
X0137657Y0143709D01*
X0136248Y0143709D02*
X0139067Y0143709D01*
X0136248Y0146527D02*
X0137657Y0147937D01*
X0134716Y0147232D02*
X0134012Y0147937D01*
X0132602Y0147937D01*
X0131898Y0147232D01*
X0131898Y0144413D01*
X0132602Y0143709D01*
X0134012Y0143709D01*
X0134716Y0144413D01*
X0132185Y0146406D02*
X0127957Y0146406D01*
X0127957Y0148520D01*
X0128662Y0149225D01*
X0130071Y0149225D01*
X0130776Y0148520D01*
X0130776Y0146406D01*
X0130776Y0147816D02*
X0132185Y0149225D01*
X0132185Y0150756D02*
X0132185Y0153575D01*
X0132185Y0152166D02*
X0127957Y0152166D01*
X0129366Y0150756D01*
X0129366Y0155107D02*
X0127957Y0156516D01*
X0132185Y0156516D01*
X0132185Y0155107D02*
X0132185Y0157925D01*
X0120374Y0157221D02*
X0120374Y0155811D01*
X0119669Y0155107D01*
X0116851Y0157925D01*
X0119669Y0157925D01*
X0120374Y0157221D01*
X0119669Y0155107D02*
X0116851Y0155107D01*
X0116146Y0155811D01*
X0116146Y0157221D01*
X0116851Y0157925D01*
X0120374Y0153575D02*
X0120374Y0150756D01*
X0120374Y0152166D02*
X0116146Y0152166D01*
X0117555Y0150756D01*
X0116851Y0149225D02*
X0118260Y0149225D01*
X0118965Y0148520D01*
X0118965Y0146406D01*
X0120374Y0146406D02*
X0116146Y0146406D01*
X0116146Y0148520D01*
X0116851Y0149225D01*
X0118965Y0147816D02*
X0120374Y0149225D01*
X0121018Y0148970D02*
X0122986Y0148970D01*
X0122986Y0147396D01*
X0110782Y0148970D02*
X0109207Y0148970D01*
X0109207Y0147002D01*
X0109207Y0132829D02*
X0109207Y0130860D01*
X0111569Y0130860D01*
X0109994Y0126726D02*
X0109994Y0110978D01*
X0133616Y0110978D01*
X0133616Y0126726D01*
X0109994Y0126726D01*
X0121018Y0130860D02*
X0122986Y0130860D01*
X0122986Y0132435D01*
X0135044Y0126551D02*
X0135044Y0125141D01*
X0135748Y0124437D01*
X0136453Y0124437D01*
X0137158Y0125141D01*
X0137158Y0126551D01*
X0137862Y0127255D01*
X0138567Y0127255D01*
X0139272Y0126551D01*
X0139272Y0125141D01*
X0138567Y0124437D01*
X0137862Y0124437D01*
X0137158Y0125141D01*
X0137158Y0126551D02*
X0136453Y0127255D01*
X0135748Y0127255D01*
X0135044Y0126551D01*
X0135748Y0122905D02*
X0135044Y0122201D01*
X0135044Y0120087D01*
X0139272Y0120087D01*
X0139272Y0122201D01*
X0138567Y0122905D01*
X0135748Y0122905D01*
X0127461Y0383866D02*
X0123233Y0383866D01*
X0123233Y0385980D01*
X0123937Y0386685D01*
X0125347Y0386685D01*
X0126051Y0385980D01*
X0126051Y0383866D01*
X0126051Y0385276D02*
X0127461Y0386685D01*
X0126756Y0388216D02*
X0127461Y0388921D01*
X0127461Y0390330D01*
X0126756Y0391035D01*
X0123937Y0391035D01*
X0123233Y0390330D01*
X0123233Y0388921D01*
X0123937Y0388216D01*
X0124642Y0388216D01*
X0125347Y0388921D01*
X0125347Y0391035D01*
X0122593Y0393852D02*
X0122593Y0395821D01*
X0122593Y0393852D02*
X0121018Y0393852D01*
X0120961Y0398827D02*
X0121666Y0399531D01*
X0120961Y0398827D02*
X0119552Y0398827D01*
X0118847Y0399531D01*
X0118847Y0402350D01*
X0119552Y0403055D01*
X0120961Y0403055D01*
X0121666Y0402350D01*
X0123197Y0401645D02*
X0124607Y0403055D01*
X0124607Y0398827D01*
X0126016Y0398827D02*
X0123197Y0398827D01*
X0127547Y0399531D02*
X0128252Y0398827D01*
X0129661Y0398827D01*
X0130366Y0399531D01*
X0130366Y0400236D01*
X0129661Y0400941D01*
X0128957Y0400941D01*
X0129661Y0400941D02*
X0130366Y0401645D01*
X0130366Y0402350D01*
X0129661Y0403055D01*
X0128252Y0403055D01*
X0127547Y0402350D01*
X0122593Y0409994D02*
X0122593Y0411963D01*
X0120230Y0411963D01*
X0110782Y0411963D02*
X0108813Y0411963D01*
X0108813Y0410388D01*
X0109994Y0418065D02*
X0133616Y0418065D01*
X0133616Y0433813D01*
X0109994Y0433813D01*
X0109994Y0418065D01*
X0108813Y0395427D02*
X0108813Y0393852D01*
X0110782Y0393852D01*
X0112126Y0391035D02*
X0112831Y0391035D01*
X0113536Y0390330D01*
X0113536Y0388921D01*
X0112831Y0388216D01*
X0112126Y0388216D01*
X0111422Y0388921D01*
X0111422Y0390330D01*
X0112126Y0391035D01*
X0113536Y0390330D02*
X0114240Y0391035D01*
X0114945Y0391035D01*
X0115650Y0390330D01*
X0115650Y0388921D01*
X0114945Y0388216D01*
X0114240Y0388216D01*
X0113536Y0388921D01*
X0113536Y0386685D02*
X0114240Y0385980D01*
X0114240Y0383866D01*
X0114240Y0385276D02*
X0115650Y0386685D01*
X0113536Y0386685D02*
X0112126Y0386685D01*
X0111422Y0385980D01*
X0111422Y0383866D01*
X0115650Y0383866D01*
X0139768Y0418473D02*
X0139768Y0420587D01*
X0140473Y0421292D01*
X0143291Y0421292D01*
X0143996Y0420587D01*
X0143996Y0418473D01*
X0139768Y0418473D01*
X0139768Y0422823D02*
X0139768Y0425642D01*
X0140473Y0425642D01*
X0143291Y0422823D01*
X0143996Y0422823D01*
X0155516Y0417063D02*
X0157630Y0414949D01*
X0157630Y0417768D01*
X0159744Y0417063D02*
X0155516Y0417063D01*
X0155516Y0412008D02*
X0159744Y0412008D01*
X0159744Y0410599D02*
X0159744Y0413418D01*
X0156925Y0410599D02*
X0155516Y0412008D01*
X0156221Y0409067D02*
X0155516Y0408363D01*
X0155516Y0406953D01*
X0156221Y0406249D01*
X0159039Y0406249D01*
X0159744Y0406953D01*
X0159744Y0408363D01*
X0159039Y0409067D01*
X0275323Y0431815D02*
X0276028Y0431110D01*
X0276732Y0431110D01*
X0277437Y0431815D01*
X0277437Y0435338D01*
X0276732Y0435338D02*
X0278142Y0435338D01*
X0279673Y0434634D02*
X0280378Y0435338D01*
X0281787Y0435338D01*
X0282492Y0434634D01*
X0282492Y0433929D01*
X0281787Y0433224D01*
X0282492Y0432520D01*
X0282492Y0431815D01*
X0281787Y0431110D01*
X0280378Y0431110D01*
X0279673Y0431815D01*
X0281082Y0433224D02*
X0281787Y0433224D01*
D15*
X0318065Y0293705D02*
X0318067Y0293810D01*
X0318073Y0293915D01*
X0318083Y0294019D01*
X0318097Y0294123D01*
X0318115Y0294227D01*
X0318137Y0294329D01*
X0318162Y0294431D01*
X0318192Y0294532D01*
X0318225Y0294631D01*
X0318262Y0294729D01*
X0318303Y0294826D01*
X0318348Y0294921D01*
X0318396Y0295014D01*
X0318447Y0295106D01*
X0318503Y0295195D01*
X0318561Y0295282D01*
X0318623Y0295367D01*
X0318687Y0295450D01*
X0318755Y0295530D01*
X0318826Y0295607D01*
X0318900Y0295681D01*
X0318977Y0295753D01*
X0319056Y0295822D01*
X0319138Y0295887D01*
X0319222Y0295950D01*
X0319309Y0296009D01*
X0319398Y0296065D01*
X0319489Y0296118D01*
X0319582Y0296167D01*
X0319676Y0296212D01*
X0319772Y0296254D01*
X0319870Y0296292D01*
X0319969Y0296326D01*
X0320070Y0296357D01*
X0320171Y0296383D01*
X0320274Y0296406D01*
X0320377Y0296425D01*
X0320481Y0296440D01*
X0320585Y0296451D01*
X0320690Y0296458D01*
X0320795Y0296461D01*
X0320900Y0296460D01*
X0321005Y0296455D01*
X0321109Y0296446D01*
X0321213Y0296433D01*
X0321317Y0296416D01*
X0321420Y0296395D01*
X0321522Y0296370D01*
X0321623Y0296342D01*
X0321722Y0296309D01*
X0321821Y0296273D01*
X0321918Y0296233D01*
X0322013Y0296190D01*
X0322107Y0296142D01*
X0322199Y0296092D01*
X0322289Y0296038D01*
X0322377Y0295980D01*
X0322462Y0295919D01*
X0322545Y0295855D01*
X0322626Y0295788D01*
X0322704Y0295718D01*
X0322779Y0295644D01*
X0322851Y0295569D01*
X0322921Y0295490D01*
X0322987Y0295409D01*
X0323051Y0295325D01*
X0323111Y0295239D01*
X0323167Y0295151D01*
X0323221Y0295060D01*
X0323271Y0294968D01*
X0323317Y0294874D01*
X0323360Y0294778D01*
X0323399Y0294680D01*
X0323434Y0294582D01*
X0323465Y0294481D01*
X0323493Y0294380D01*
X0323517Y0294278D01*
X0323537Y0294175D01*
X0323553Y0294071D01*
X0323565Y0293967D01*
X0323573Y0293862D01*
X0323577Y0293757D01*
X0323577Y0293653D01*
X0323573Y0293548D01*
X0323565Y0293443D01*
X0323553Y0293339D01*
X0323537Y0293235D01*
X0323517Y0293132D01*
X0323493Y0293030D01*
X0323465Y0292929D01*
X0323434Y0292828D01*
X0323399Y0292730D01*
X0323360Y0292632D01*
X0323317Y0292536D01*
X0323271Y0292442D01*
X0323221Y0292350D01*
X0323167Y0292259D01*
X0323111Y0292171D01*
X0323051Y0292085D01*
X0322987Y0292001D01*
X0322921Y0291920D01*
X0322851Y0291841D01*
X0322779Y0291766D01*
X0322704Y0291692D01*
X0322626Y0291622D01*
X0322545Y0291555D01*
X0322462Y0291491D01*
X0322377Y0291430D01*
X0322289Y0291372D01*
X0322199Y0291318D01*
X0322107Y0291268D01*
X0322013Y0291220D01*
X0321918Y0291177D01*
X0321821Y0291137D01*
X0321722Y0291101D01*
X0321623Y0291068D01*
X0321522Y0291040D01*
X0321420Y0291015D01*
X0321317Y0290994D01*
X0321213Y0290977D01*
X0321109Y0290964D01*
X0321005Y0290955D01*
X0320900Y0290950D01*
X0320795Y0290949D01*
X0320690Y0290952D01*
X0320585Y0290959D01*
X0320481Y0290970D01*
X0320377Y0290985D01*
X0320274Y0291004D01*
X0320171Y0291027D01*
X0320070Y0291053D01*
X0319969Y0291084D01*
X0319870Y0291118D01*
X0319772Y0291156D01*
X0319676Y0291198D01*
X0319582Y0291243D01*
X0319489Y0291292D01*
X0319398Y0291345D01*
X0319309Y0291401D01*
X0319222Y0291460D01*
X0319138Y0291523D01*
X0319056Y0291588D01*
X0318977Y0291657D01*
X0318900Y0291729D01*
X0318826Y0291803D01*
X0318755Y0291880D01*
X0318687Y0291960D01*
X0318623Y0292043D01*
X0318561Y0292128D01*
X0318503Y0292215D01*
X0318447Y0292304D01*
X0318396Y0292396D01*
X0318348Y0292489D01*
X0318303Y0292584D01*
X0318262Y0292681D01*
X0318225Y0292779D01*
X0318192Y0292878D01*
X0318162Y0292979D01*
X0318137Y0293081D01*
X0318115Y0293183D01*
X0318097Y0293287D01*
X0318083Y0293391D01*
X0318073Y0293495D01*
X0318067Y0293600D01*
X0318065Y0293705D01*
X0318065Y0235831D02*
X0318067Y0235936D01*
X0318073Y0236041D01*
X0318083Y0236145D01*
X0318097Y0236249D01*
X0318115Y0236353D01*
X0318137Y0236455D01*
X0318162Y0236557D01*
X0318192Y0236658D01*
X0318225Y0236757D01*
X0318262Y0236855D01*
X0318303Y0236952D01*
X0318348Y0237047D01*
X0318396Y0237140D01*
X0318447Y0237232D01*
X0318503Y0237321D01*
X0318561Y0237408D01*
X0318623Y0237493D01*
X0318687Y0237576D01*
X0318755Y0237656D01*
X0318826Y0237733D01*
X0318900Y0237807D01*
X0318977Y0237879D01*
X0319056Y0237948D01*
X0319138Y0238013D01*
X0319222Y0238076D01*
X0319309Y0238135D01*
X0319398Y0238191D01*
X0319489Y0238244D01*
X0319582Y0238293D01*
X0319676Y0238338D01*
X0319772Y0238380D01*
X0319870Y0238418D01*
X0319969Y0238452D01*
X0320070Y0238483D01*
X0320171Y0238509D01*
X0320274Y0238532D01*
X0320377Y0238551D01*
X0320481Y0238566D01*
X0320585Y0238577D01*
X0320690Y0238584D01*
X0320795Y0238587D01*
X0320900Y0238586D01*
X0321005Y0238581D01*
X0321109Y0238572D01*
X0321213Y0238559D01*
X0321317Y0238542D01*
X0321420Y0238521D01*
X0321522Y0238496D01*
X0321623Y0238468D01*
X0321722Y0238435D01*
X0321821Y0238399D01*
X0321918Y0238359D01*
X0322013Y0238316D01*
X0322107Y0238268D01*
X0322199Y0238218D01*
X0322289Y0238164D01*
X0322377Y0238106D01*
X0322462Y0238045D01*
X0322545Y0237981D01*
X0322626Y0237914D01*
X0322704Y0237844D01*
X0322779Y0237770D01*
X0322851Y0237695D01*
X0322921Y0237616D01*
X0322987Y0237535D01*
X0323051Y0237451D01*
X0323111Y0237365D01*
X0323167Y0237277D01*
X0323221Y0237186D01*
X0323271Y0237094D01*
X0323317Y0237000D01*
X0323360Y0236904D01*
X0323399Y0236806D01*
X0323434Y0236708D01*
X0323465Y0236607D01*
X0323493Y0236506D01*
X0323517Y0236404D01*
X0323537Y0236301D01*
X0323553Y0236197D01*
X0323565Y0236093D01*
X0323573Y0235988D01*
X0323577Y0235883D01*
X0323577Y0235779D01*
X0323573Y0235674D01*
X0323565Y0235569D01*
X0323553Y0235465D01*
X0323537Y0235361D01*
X0323517Y0235258D01*
X0323493Y0235156D01*
X0323465Y0235055D01*
X0323434Y0234954D01*
X0323399Y0234856D01*
X0323360Y0234758D01*
X0323317Y0234662D01*
X0323271Y0234568D01*
X0323221Y0234476D01*
X0323167Y0234385D01*
X0323111Y0234297D01*
X0323051Y0234211D01*
X0322987Y0234127D01*
X0322921Y0234046D01*
X0322851Y0233967D01*
X0322779Y0233892D01*
X0322704Y0233818D01*
X0322626Y0233748D01*
X0322545Y0233681D01*
X0322462Y0233617D01*
X0322377Y0233556D01*
X0322289Y0233498D01*
X0322199Y0233444D01*
X0322107Y0233394D01*
X0322013Y0233346D01*
X0321918Y0233303D01*
X0321821Y0233263D01*
X0321722Y0233227D01*
X0321623Y0233194D01*
X0321522Y0233166D01*
X0321420Y0233141D01*
X0321317Y0233120D01*
X0321213Y0233103D01*
X0321109Y0233090D01*
X0321005Y0233081D01*
X0320900Y0233076D01*
X0320795Y0233075D01*
X0320690Y0233078D01*
X0320585Y0233085D01*
X0320481Y0233096D01*
X0320377Y0233111D01*
X0320274Y0233130D01*
X0320171Y0233153D01*
X0320070Y0233179D01*
X0319969Y0233210D01*
X0319870Y0233244D01*
X0319772Y0233282D01*
X0319676Y0233324D01*
X0319582Y0233369D01*
X0319489Y0233418D01*
X0319398Y0233471D01*
X0319309Y0233527D01*
X0319222Y0233586D01*
X0319138Y0233649D01*
X0319056Y0233714D01*
X0318977Y0233783D01*
X0318900Y0233855D01*
X0318826Y0233929D01*
X0318755Y0234006D01*
X0318687Y0234086D01*
X0318623Y0234169D01*
X0318561Y0234254D01*
X0318503Y0234341D01*
X0318447Y0234430D01*
X0318396Y0234522D01*
X0318348Y0234615D01*
X0318303Y0234710D01*
X0318262Y0234807D01*
X0318225Y0234905D01*
X0318192Y0235004D01*
X0318162Y0235105D01*
X0318137Y0235207D01*
X0318115Y0235309D01*
X0318097Y0235413D01*
X0318083Y0235517D01*
X0318073Y0235621D01*
X0318067Y0235726D01*
X0318065Y0235831D01*
X0223183Y0235831D02*
X0223185Y0235936D01*
X0223191Y0236041D01*
X0223201Y0236145D01*
X0223215Y0236249D01*
X0223233Y0236353D01*
X0223255Y0236455D01*
X0223280Y0236557D01*
X0223310Y0236658D01*
X0223343Y0236757D01*
X0223380Y0236855D01*
X0223421Y0236952D01*
X0223466Y0237047D01*
X0223514Y0237140D01*
X0223565Y0237232D01*
X0223621Y0237321D01*
X0223679Y0237408D01*
X0223741Y0237493D01*
X0223805Y0237576D01*
X0223873Y0237656D01*
X0223944Y0237733D01*
X0224018Y0237807D01*
X0224095Y0237879D01*
X0224174Y0237948D01*
X0224256Y0238013D01*
X0224340Y0238076D01*
X0224427Y0238135D01*
X0224516Y0238191D01*
X0224607Y0238244D01*
X0224700Y0238293D01*
X0224794Y0238338D01*
X0224890Y0238380D01*
X0224988Y0238418D01*
X0225087Y0238452D01*
X0225188Y0238483D01*
X0225289Y0238509D01*
X0225392Y0238532D01*
X0225495Y0238551D01*
X0225599Y0238566D01*
X0225703Y0238577D01*
X0225808Y0238584D01*
X0225913Y0238587D01*
X0226018Y0238586D01*
X0226123Y0238581D01*
X0226227Y0238572D01*
X0226331Y0238559D01*
X0226435Y0238542D01*
X0226538Y0238521D01*
X0226640Y0238496D01*
X0226741Y0238468D01*
X0226840Y0238435D01*
X0226939Y0238399D01*
X0227036Y0238359D01*
X0227131Y0238316D01*
X0227225Y0238268D01*
X0227317Y0238218D01*
X0227407Y0238164D01*
X0227495Y0238106D01*
X0227580Y0238045D01*
X0227663Y0237981D01*
X0227744Y0237914D01*
X0227822Y0237844D01*
X0227897Y0237770D01*
X0227969Y0237695D01*
X0228039Y0237616D01*
X0228105Y0237535D01*
X0228169Y0237451D01*
X0228229Y0237365D01*
X0228285Y0237277D01*
X0228339Y0237186D01*
X0228389Y0237094D01*
X0228435Y0237000D01*
X0228478Y0236904D01*
X0228517Y0236806D01*
X0228552Y0236708D01*
X0228583Y0236607D01*
X0228611Y0236506D01*
X0228635Y0236404D01*
X0228655Y0236301D01*
X0228671Y0236197D01*
X0228683Y0236093D01*
X0228691Y0235988D01*
X0228695Y0235883D01*
X0228695Y0235779D01*
X0228691Y0235674D01*
X0228683Y0235569D01*
X0228671Y0235465D01*
X0228655Y0235361D01*
X0228635Y0235258D01*
X0228611Y0235156D01*
X0228583Y0235055D01*
X0228552Y0234954D01*
X0228517Y0234856D01*
X0228478Y0234758D01*
X0228435Y0234662D01*
X0228389Y0234568D01*
X0228339Y0234476D01*
X0228285Y0234385D01*
X0228229Y0234297D01*
X0228169Y0234211D01*
X0228105Y0234127D01*
X0228039Y0234046D01*
X0227969Y0233967D01*
X0227897Y0233892D01*
X0227822Y0233818D01*
X0227744Y0233748D01*
X0227663Y0233681D01*
X0227580Y0233617D01*
X0227495Y0233556D01*
X0227407Y0233498D01*
X0227317Y0233444D01*
X0227225Y0233394D01*
X0227131Y0233346D01*
X0227036Y0233303D01*
X0226939Y0233263D01*
X0226840Y0233227D01*
X0226741Y0233194D01*
X0226640Y0233166D01*
X0226538Y0233141D01*
X0226435Y0233120D01*
X0226331Y0233103D01*
X0226227Y0233090D01*
X0226123Y0233081D01*
X0226018Y0233076D01*
X0225913Y0233075D01*
X0225808Y0233078D01*
X0225703Y0233085D01*
X0225599Y0233096D01*
X0225495Y0233111D01*
X0225392Y0233130D01*
X0225289Y0233153D01*
X0225188Y0233179D01*
X0225087Y0233210D01*
X0224988Y0233244D01*
X0224890Y0233282D01*
X0224794Y0233324D01*
X0224700Y0233369D01*
X0224607Y0233418D01*
X0224516Y0233471D01*
X0224427Y0233527D01*
X0224340Y0233586D01*
X0224256Y0233649D01*
X0224174Y0233714D01*
X0224095Y0233783D01*
X0224018Y0233855D01*
X0223944Y0233929D01*
X0223873Y0234006D01*
X0223805Y0234086D01*
X0223741Y0234169D01*
X0223679Y0234254D01*
X0223621Y0234341D01*
X0223565Y0234430D01*
X0223514Y0234522D01*
X0223466Y0234615D01*
X0223421Y0234710D01*
X0223380Y0234807D01*
X0223343Y0234905D01*
X0223310Y0235004D01*
X0223280Y0235105D01*
X0223255Y0235207D01*
X0223233Y0235309D01*
X0223215Y0235413D01*
X0223201Y0235517D01*
X0223191Y0235621D01*
X0223185Y0235726D01*
X0223183Y0235831D01*
X0223183Y0293705D02*
X0223185Y0293810D01*
X0223191Y0293915D01*
X0223201Y0294019D01*
X0223215Y0294123D01*
X0223233Y0294227D01*
X0223255Y0294329D01*
X0223280Y0294431D01*
X0223310Y0294532D01*
X0223343Y0294631D01*
X0223380Y0294729D01*
X0223421Y0294826D01*
X0223466Y0294921D01*
X0223514Y0295014D01*
X0223565Y0295106D01*
X0223621Y0295195D01*
X0223679Y0295282D01*
X0223741Y0295367D01*
X0223805Y0295450D01*
X0223873Y0295530D01*
X0223944Y0295607D01*
X0224018Y0295681D01*
X0224095Y0295753D01*
X0224174Y0295822D01*
X0224256Y0295887D01*
X0224340Y0295950D01*
X0224427Y0296009D01*
X0224516Y0296065D01*
X0224607Y0296118D01*
X0224700Y0296167D01*
X0224794Y0296212D01*
X0224890Y0296254D01*
X0224988Y0296292D01*
X0225087Y0296326D01*
X0225188Y0296357D01*
X0225289Y0296383D01*
X0225392Y0296406D01*
X0225495Y0296425D01*
X0225599Y0296440D01*
X0225703Y0296451D01*
X0225808Y0296458D01*
X0225913Y0296461D01*
X0226018Y0296460D01*
X0226123Y0296455D01*
X0226227Y0296446D01*
X0226331Y0296433D01*
X0226435Y0296416D01*
X0226538Y0296395D01*
X0226640Y0296370D01*
X0226741Y0296342D01*
X0226840Y0296309D01*
X0226939Y0296273D01*
X0227036Y0296233D01*
X0227131Y0296190D01*
X0227225Y0296142D01*
X0227317Y0296092D01*
X0227407Y0296038D01*
X0227495Y0295980D01*
X0227580Y0295919D01*
X0227663Y0295855D01*
X0227744Y0295788D01*
X0227822Y0295718D01*
X0227897Y0295644D01*
X0227969Y0295569D01*
X0228039Y0295490D01*
X0228105Y0295409D01*
X0228169Y0295325D01*
X0228229Y0295239D01*
X0228285Y0295151D01*
X0228339Y0295060D01*
X0228389Y0294968D01*
X0228435Y0294874D01*
X0228478Y0294778D01*
X0228517Y0294680D01*
X0228552Y0294582D01*
X0228583Y0294481D01*
X0228611Y0294380D01*
X0228635Y0294278D01*
X0228655Y0294175D01*
X0228671Y0294071D01*
X0228683Y0293967D01*
X0228691Y0293862D01*
X0228695Y0293757D01*
X0228695Y0293653D01*
X0228691Y0293548D01*
X0228683Y0293443D01*
X0228671Y0293339D01*
X0228655Y0293235D01*
X0228635Y0293132D01*
X0228611Y0293030D01*
X0228583Y0292929D01*
X0228552Y0292828D01*
X0228517Y0292730D01*
X0228478Y0292632D01*
X0228435Y0292536D01*
X0228389Y0292442D01*
X0228339Y0292350D01*
X0228285Y0292259D01*
X0228229Y0292171D01*
X0228169Y0292085D01*
X0228105Y0292001D01*
X0228039Y0291920D01*
X0227969Y0291841D01*
X0227897Y0291766D01*
X0227822Y0291692D01*
X0227744Y0291622D01*
X0227663Y0291555D01*
X0227580Y0291491D01*
X0227495Y0291430D01*
X0227407Y0291372D01*
X0227317Y0291318D01*
X0227225Y0291268D01*
X0227131Y0291220D01*
X0227036Y0291177D01*
X0226939Y0291137D01*
X0226840Y0291101D01*
X0226741Y0291068D01*
X0226640Y0291040D01*
X0226538Y0291015D01*
X0226435Y0290994D01*
X0226331Y0290977D01*
X0226227Y0290964D01*
X0226123Y0290955D01*
X0226018Y0290950D01*
X0225913Y0290949D01*
X0225808Y0290952D01*
X0225703Y0290959D01*
X0225599Y0290970D01*
X0225495Y0290985D01*
X0225392Y0291004D01*
X0225289Y0291027D01*
X0225188Y0291053D01*
X0225087Y0291084D01*
X0224988Y0291118D01*
X0224890Y0291156D01*
X0224794Y0291198D01*
X0224700Y0291243D01*
X0224607Y0291292D01*
X0224516Y0291345D01*
X0224427Y0291401D01*
X0224340Y0291460D01*
X0224256Y0291523D01*
X0224174Y0291588D01*
X0224095Y0291657D01*
X0224018Y0291729D01*
X0223944Y0291803D01*
X0223873Y0291880D01*
X0223805Y0291960D01*
X0223741Y0292043D01*
X0223679Y0292128D01*
X0223621Y0292215D01*
X0223565Y0292304D01*
X0223514Y0292396D01*
X0223466Y0292489D01*
X0223421Y0292584D01*
X0223380Y0292681D01*
X0223343Y0292779D01*
X0223310Y0292878D01*
X0223280Y0292979D01*
X0223255Y0293081D01*
X0223233Y0293183D01*
X0223215Y0293287D01*
X0223201Y0293391D01*
X0223191Y0293495D01*
X0223185Y0293600D01*
X0223183Y0293705D01*
D16*
X0211923Y0295821D02*
X0211923Y0287947D01*
X0204915Y0287947D02*
X0204915Y0295821D01*
X0198537Y0296608D02*
X0198537Y0288734D01*
X0191530Y0288734D02*
X0191530Y0296608D01*
X0189089Y0296608D02*
X0189089Y0288734D01*
X0182081Y0288734D02*
X0182081Y0296608D01*
X0164089Y0314325D02*
X0164089Y0322199D01*
X0157081Y0322199D02*
X0157081Y0314325D01*
X0151726Y0313183D02*
X0143852Y0313183D01*
X0143852Y0320191D02*
X0151726Y0320191D01*
X0182474Y0370624D02*
X0182474Y0378498D01*
X0189482Y0378498D02*
X0189482Y0370624D01*
X0200939Y0367041D02*
X0208813Y0367041D01*
X0208813Y0360033D02*
X0200939Y0360033D01*
X0219482Y0373774D02*
X0219482Y0381648D01*
X0226490Y0381648D02*
X0226490Y0373774D01*
X0241884Y0324443D02*
X0249758Y0324443D01*
X0249758Y0317593D02*
X0241884Y0317593D01*
X0241884Y0315388D02*
X0249758Y0315388D01*
X0249758Y0308537D02*
X0241884Y0308537D01*
X0258813Y0309285D02*
X0269423Y0309285D01*
X0269423Y0314640D01*
X0258813Y0314640D01*
X0258813Y0318341D02*
X0269423Y0318341D01*
X0269423Y0323695D01*
X0258813Y0323695D01*
X0280073Y0329797D02*
X0287947Y0329797D01*
X0287947Y0336648D02*
X0280073Y0336648D01*
X0282199Y0299758D02*
X0282199Y0291884D01*
X0275191Y0291884D02*
X0275191Y0299758D01*
X0271963Y0299561D02*
X0271963Y0291687D01*
X0264955Y0291687D02*
X0264955Y0299561D01*
X0252317Y0282711D02*
X0244443Y0282711D01*
X0244443Y0275860D02*
X0252317Y0275860D01*
X0252317Y0272671D02*
X0244443Y0272671D01*
X0244443Y0265821D02*
X0252317Y0265821D01*
X0236175Y0267120D02*
X0228301Y0267120D01*
X0228301Y0274128D02*
X0236175Y0274128D01*
X0288774Y0276726D02*
X0288774Y0284600D01*
X0290506Y0289364D02*
X0298380Y0289364D01*
X0295782Y0284600D02*
X0295782Y0276726D01*
X0298380Y0296372D02*
X0290506Y0296372D01*
X0330769Y0250821D02*
X0347435Y0250821D01*
X0347435Y0240821D01*
X0327435Y0240821D01*
X0327435Y0247487D01*
X0358026Y0247238D02*
X0365900Y0247238D01*
X0365900Y0254246D02*
X0358026Y0254246D01*
X0359010Y0280703D02*
X0366884Y0280703D01*
X0366884Y0287711D02*
X0359010Y0287711D01*
X0389522Y0285624D02*
X0397396Y0285624D01*
X0397396Y0292632D02*
X0389522Y0292632D01*
X0415624Y0383616D02*
X0415624Y0391490D01*
X0422474Y0391490D02*
X0422474Y0383616D01*
X0427435Y0383616D02*
X0427435Y0391490D01*
X0434285Y0391490D02*
X0434285Y0383616D01*
X0419049Y0403734D02*
X0411175Y0403734D01*
X0411175Y0410742D02*
X0419049Y0410742D01*
X0410782Y0421608D02*
X0410782Y0436648D01*
X0403695Y0436648D01*
X0403695Y0421608D01*
X0400545Y0436707D02*
X0400545Y0404679D01*
X0382435Y0404679D02*
X0382435Y0436707D01*
X0400545Y0436707D01*
X0325073Y0435860D02*
X0325073Y0425860D01*
X0225073Y0425860D01*
X0225073Y0432527D01*
X0228406Y0435860D02*
X0325073Y0435860D01*
X0164325Y0436707D02*
X0164325Y0404679D01*
X0146215Y0404679D02*
X0146215Y0436707D01*
X0164325Y0436707D01*
X0143065Y0436648D02*
X0143065Y0421608D01*
X0135978Y0421608D02*
X0135978Y0436648D01*
X0143065Y0436648D01*
X0135585Y0406805D02*
X0127711Y0406805D01*
X0127711Y0399797D02*
X0135585Y0399797D01*
X0131136Y0387553D02*
X0131136Y0379679D01*
X0124285Y0379679D02*
X0124285Y0387553D01*
X0119325Y0387553D02*
X0119325Y0379679D01*
X0112474Y0379679D02*
X0112474Y0387553D01*
X0112474Y0163144D02*
X0112474Y0155270D01*
X0119325Y0155270D02*
X0119325Y0163144D01*
X0124285Y0163144D02*
X0124285Y0155270D01*
X0131136Y0155270D02*
X0131136Y0163144D01*
X0127711Y0146963D02*
X0135585Y0146963D01*
X0135585Y0139955D02*
X0127711Y0139955D01*
X0135978Y0125152D02*
X0135978Y0110112D01*
X0143065Y0110112D01*
X0143065Y0125152D01*
X0146215Y0110053D02*
X0146215Y0142081D01*
X0164325Y0142081D02*
X0164325Y0110053D01*
X0146215Y0110053D01*
X0382435Y0113990D02*
X0382435Y0146018D01*
X0400545Y0146018D02*
X0400545Y0113990D01*
X0382435Y0113990D01*
X0403695Y0114049D02*
X0403695Y0129089D01*
X0410782Y0129089D02*
X0410782Y0114049D01*
X0403695Y0114049D01*
X0411175Y0139955D02*
X0419049Y0139955D01*
X0419049Y0146963D02*
X0411175Y0146963D01*
X0415624Y0159207D02*
X0415624Y0167081D01*
X0422474Y0167081D02*
X0422474Y0159207D01*
X0427435Y0159207D02*
X0427435Y0167081D01*
X0434285Y0167081D02*
X0434285Y0159207D01*
D17*
X0406844Y0112789D02*
X0406846Y0112828D01*
X0406852Y0112867D01*
X0406862Y0112905D01*
X0406875Y0112942D01*
X0406892Y0112977D01*
X0406912Y0113011D01*
X0406936Y0113042D01*
X0406963Y0113071D01*
X0406992Y0113097D01*
X0407024Y0113120D01*
X0407058Y0113140D01*
X0407094Y0113156D01*
X0407131Y0113168D01*
X0407170Y0113177D01*
X0407209Y0113182D01*
X0407248Y0113183D01*
X0407287Y0113180D01*
X0407326Y0113173D01*
X0407363Y0113162D01*
X0407400Y0113148D01*
X0407435Y0113130D01*
X0407468Y0113109D01*
X0407499Y0113084D01*
X0407527Y0113057D01*
X0407552Y0113027D01*
X0407574Y0112994D01*
X0407593Y0112960D01*
X0407608Y0112924D01*
X0407620Y0112886D01*
X0407628Y0112848D01*
X0407632Y0112809D01*
X0407632Y0112769D01*
X0407628Y0112730D01*
X0407620Y0112692D01*
X0407608Y0112654D01*
X0407593Y0112618D01*
X0407574Y0112584D01*
X0407552Y0112551D01*
X0407527Y0112521D01*
X0407499Y0112494D01*
X0407468Y0112469D01*
X0407435Y0112448D01*
X0407400Y0112430D01*
X0407363Y0112416D01*
X0407326Y0112405D01*
X0407287Y0112398D01*
X0407248Y0112395D01*
X0407209Y0112396D01*
X0407170Y0112401D01*
X0407131Y0112410D01*
X0407094Y0112422D01*
X0407058Y0112438D01*
X0407024Y0112458D01*
X0406992Y0112481D01*
X0406963Y0112507D01*
X0406936Y0112536D01*
X0406912Y0112567D01*
X0406892Y0112601D01*
X0406875Y0112636D01*
X0406862Y0112673D01*
X0406852Y0112711D01*
X0406846Y0112750D01*
X0406844Y0112789D01*
X0391096Y0112730D02*
X0391098Y0112769D01*
X0391104Y0112808D01*
X0391114Y0112846D01*
X0391127Y0112883D01*
X0391144Y0112918D01*
X0391164Y0112952D01*
X0391188Y0112983D01*
X0391215Y0113012D01*
X0391244Y0113038D01*
X0391276Y0113061D01*
X0391310Y0113081D01*
X0391346Y0113097D01*
X0391383Y0113109D01*
X0391422Y0113118D01*
X0391461Y0113123D01*
X0391500Y0113124D01*
X0391539Y0113121D01*
X0391578Y0113114D01*
X0391615Y0113103D01*
X0391652Y0113089D01*
X0391687Y0113071D01*
X0391720Y0113050D01*
X0391751Y0113025D01*
X0391779Y0112998D01*
X0391804Y0112968D01*
X0391826Y0112935D01*
X0391845Y0112901D01*
X0391860Y0112865D01*
X0391872Y0112827D01*
X0391880Y0112789D01*
X0391884Y0112750D01*
X0391884Y0112710D01*
X0391880Y0112671D01*
X0391872Y0112633D01*
X0391860Y0112595D01*
X0391845Y0112559D01*
X0391826Y0112525D01*
X0391804Y0112492D01*
X0391779Y0112462D01*
X0391751Y0112435D01*
X0391720Y0112410D01*
X0391687Y0112389D01*
X0391652Y0112371D01*
X0391615Y0112357D01*
X0391578Y0112346D01*
X0391539Y0112339D01*
X0391500Y0112336D01*
X0391461Y0112337D01*
X0391422Y0112342D01*
X0391383Y0112351D01*
X0391346Y0112363D01*
X0391310Y0112379D01*
X0391276Y0112399D01*
X0391244Y0112422D01*
X0391215Y0112448D01*
X0391188Y0112477D01*
X0391164Y0112508D01*
X0391144Y0112542D01*
X0391127Y0112577D01*
X0391114Y0112614D01*
X0391104Y0112652D01*
X0391098Y0112691D01*
X0391096Y0112730D01*
X0270289Y0311963D02*
X0270291Y0312002D01*
X0270297Y0312041D01*
X0270307Y0312079D01*
X0270320Y0312116D01*
X0270337Y0312151D01*
X0270357Y0312185D01*
X0270381Y0312216D01*
X0270408Y0312245D01*
X0270437Y0312271D01*
X0270469Y0312294D01*
X0270503Y0312314D01*
X0270539Y0312330D01*
X0270576Y0312342D01*
X0270615Y0312351D01*
X0270654Y0312356D01*
X0270693Y0312357D01*
X0270732Y0312354D01*
X0270771Y0312347D01*
X0270808Y0312336D01*
X0270845Y0312322D01*
X0270880Y0312304D01*
X0270913Y0312283D01*
X0270944Y0312258D01*
X0270972Y0312231D01*
X0270997Y0312201D01*
X0271019Y0312168D01*
X0271038Y0312134D01*
X0271053Y0312098D01*
X0271065Y0312060D01*
X0271073Y0312022D01*
X0271077Y0311983D01*
X0271077Y0311943D01*
X0271073Y0311904D01*
X0271065Y0311866D01*
X0271053Y0311828D01*
X0271038Y0311792D01*
X0271019Y0311758D01*
X0270997Y0311725D01*
X0270972Y0311695D01*
X0270944Y0311668D01*
X0270913Y0311643D01*
X0270880Y0311622D01*
X0270845Y0311604D01*
X0270808Y0311590D01*
X0270771Y0311579D01*
X0270732Y0311572D01*
X0270693Y0311569D01*
X0270654Y0311570D01*
X0270615Y0311575D01*
X0270576Y0311584D01*
X0270539Y0311596D01*
X0270503Y0311612D01*
X0270469Y0311632D01*
X0270437Y0311655D01*
X0270408Y0311681D01*
X0270381Y0311710D01*
X0270357Y0311741D01*
X0270337Y0311775D01*
X0270320Y0311810D01*
X0270307Y0311847D01*
X0270297Y0311885D01*
X0270291Y0311924D01*
X0270289Y0311963D01*
X0270289Y0321018D02*
X0270291Y0321057D01*
X0270297Y0321096D01*
X0270307Y0321134D01*
X0270320Y0321171D01*
X0270337Y0321206D01*
X0270357Y0321240D01*
X0270381Y0321271D01*
X0270408Y0321300D01*
X0270437Y0321326D01*
X0270469Y0321349D01*
X0270503Y0321369D01*
X0270539Y0321385D01*
X0270576Y0321397D01*
X0270615Y0321406D01*
X0270654Y0321411D01*
X0270693Y0321412D01*
X0270732Y0321409D01*
X0270771Y0321402D01*
X0270808Y0321391D01*
X0270845Y0321377D01*
X0270880Y0321359D01*
X0270913Y0321338D01*
X0270944Y0321313D01*
X0270972Y0321286D01*
X0270997Y0321256D01*
X0271019Y0321223D01*
X0271038Y0321189D01*
X0271053Y0321153D01*
X0271065Y0321115D01*
X0271073Y0321077D01*
X0271077Y0321038D01*
X0271077Y0320998D01*
X0271073Y0320959D01*
X0271065Y0320921D01*
X0271053Y0320883D01*
X0271038Y0320847D01*
X0271019Y0320813D01*
X0270997Y0320780D01*
X0270972Y0320750D01*
X0270944Y0320723D01*
X0270913Y0320698D01*
X0270880Y0320677D01*
X0270845Y0320659D01*
X0270808Y0320645D01*
X0270771Y0320634D01*
X0270732Y0320627D01*
X0270693Y0320624D01*
X0270654Y0320625D01*
X0270615Y0320630D01*
X0270576Y0320639D01*
X0270539Y0320651D01*
X0270503Y0320667D01*
X0270469Y0320687D01*
X0270437Y0320710D01*
X0270408Y0320736D01*
X0270381Y0320765D01*
X0270357Y0320796D01*
X0270337Y0320830D01*
X0270320Y0320865D01*
X0270307Y0320902D01*
X0270297Y0320940D01*
X0270291Y0320979D01*
X0270289Y0321018D01*
X0154876Y0437967D02*
X0154878Y0438006D01*
X0154884Y0438045D01*
X0154894Y0438083D01*
X0154907Y0438120D01*
X0154924Y0438155D01*
X0154944Y0438189D01*
X0154968Y0438220D01*
X0154995Y0438249D01*
X0155024Y0438275D01*
X0155056Y0438298D01*
X0155090Y0438318D01*
X0155126Y0438334D01*
X0155163Y0438346D01*
X0155202Y0438355D01*
X0155241Y0438360D01*
X0155280Y0438361D01*
X0155319Y0438358D01*
X0155358Y0438351D01*
X0155395Y0438340D01*
X0155432Y0438326D01*
X0155467Y0438308D01*
X0155500Y0438287D01*
X0155531Y0438262D01*
X0155559Y0438235D01*
X0155584Y0438205D01*
X0155606Y0438172D01*
X0155625Y0438138D01*
X0155640Y0438102D01*
X0155652Y0438064D01*
X0155660Y0438026D01*
X0155664Y0437987D01*
X0155664Y0437947D01*
X0155660Y0437908D01*
X0155652Y0437870D01*
X0155640Y0437832D01*
X0155625Y0437796D01*
X0155606Y0437762D01*
X0155584Y0437729D01*
X0155559Y0437699D01*
X0155531Y0437672D01*
X0155500Y0437647D01*
X0155467Y0437626D01*
X0155432Y0437608D01*
X0155395Y0437594D01*
X0155358Y0437583D01*
X0155319Y0437576D01*
X0155280Y0437573D01*
X0155241Y0437574D01*
X0155202Y0437579D01*
X0155163Y0437588D01*
X0155126Y0437600D01*
X0155090Y0437616D01*
X0155056Y0437636D01*
X0155024Y0437659D01*
X0154995Y0437685D01*
X0154968Y0437714D01*
X0154944Y0437745D01*
X0154924Y0437779D01*
X0154907Y0437814D01*
X0154894Y0437851D01*
X0154884Y0437889D01*
X0154878Y0437928D01*
X0154876Y0437967D01*
X0139128Y0437908D02*
X0139130Y0437947D01*
X0139136Y0437986D01*
X0139146Y0438024D01*
X0139159Y0438061D01*
X0139176Y0438096D01*
X0139196Y0438130D01*
X0139220Y0438161D01*
X0139247Y0438190D01*
X0139276Y0438216D01*
X0139308Y0438239D01*
X0139342Y0438259D01*
X0139378Y0438275D01*
X0139415Y0438287D01*
X0139454Y0438296D01*
X0139493Y0438301D01*
X0139532Y0438302D01*
X0139571Y0438299D01*
X0139610Y0438292D01*
X0139647Y0438281D01*
X0139684Y0438267D01*
X0139719Y0438249D01*
X0139752Y0438228D01*
X0139783Y0438203D01*
X0139811Y0438176D01*
X0139836Y0438146D01*
X0139858Y0438113D01*
X0139877Y0438079D01*
X0139892Y0438043D01*
X0139904Y0438005D01*
X0139912Y0437967D01*
X0139916Y0437928D01*
X0139916Y0437888D01*
X0139912Y0437849D01*
X0139904Y0437811D01*
X0139892Y0437773D01*
X0139877Y0437737D01*
X0139858Y0437703D01*
X0139836Y0437670D01*
X0139811Y0437640D01*
X0139783Y0437613D01*
X0139752Y0437588D01*
X0139719Y0437567D01*
X0139684Y0437549D01*
X0139647Y0437535D01*
X0139610Y0437524D01*
X0139571Y0437517D01*
X0139532Y0437514D01*
X0139493Y0437515D01*
X0139454Y0437520D01*
X0139415Y0437529D01*
X0139378Y0437541D01*
X0139342Y0437557D01*
X0139308Y0437577D01*
X0139276Y0437600D01*
X0139247Y0437626D01*
X0139220Y0437655D01*
X0139196Y0437686D01*
X0139176Y0437720D01*
X0139159Y0437755D01*
X0139146Y0437792D01*
X0139136Y0437830D01*
X0139130Y0437869D01*
X0139128Y0437908D01*
X0391096Y0437967D02*
X0391098Y0438006D01*
X0391104Y0438045D01*
X0391114Y0438083D01*
X0391127Y0438120D01*
X0391144Y0438155D01*
X0391164Y0438189D01*
X0391188Y0438220D01*
X0391215Y0438249D01*
X0391244Y0438275D01*
X0391276Y0438298D01*
X0391310Y0438318D01*
X0391346Y0438334D01*
X0391383Y0438346D01*
X0391422Y0438355D01*
X0391461Y0438360D01*
X0391500Y0438361D01*
X0391539Y0438358D01*
X0391578Y0438351D01*
X0391615Y0438340D01*
X0391652Y0438326D01*
X0391687Y0438308D01*
X0391720Y0438287D01*
X0391751Y0438262D01*
X0391779Y0438235D01*
X0391804Y0438205D01*
X0391826Y0438172D01*
X0391845Y0438138D01*
X0391860Y0438102D01*
X0391872Y0438064D01*
X0391880Y0438026D01*
X0391884Y0437987D01*
X0391884Y0437947D01*
X0391880Y0437908D01*
X0391872Y0437870D01*
X0391860Y0437832D01*
X0391845Y0437796D01*
X0391826Y0437762D01*
X0391804Y0437729D01*
X0391779Y0437699D01*
X0391751Y0437672D01*
X0391720Y0437647D01*
X0391687Y0437626D01*
X0391652Y0437608D01*
X0391615Y0437594D01*
X0391578Y0437583D01*
X0391539Y0437576D01*
X0391500Y0437573D01*
X0391461Y0437574D01*
X0391422Y0437579D01*
X0391383Y0437588D01*
X0391346Y0437600D01*
X0391310Y0437616D01*
X0391276Y0437636D01*
X0391244Y0437659D01*
X0391215Y0437685D01*
X0391188Y0437714D01*
X0391164Y0437745D01*
X0391144Y0437779D01*
X0391127Y0437814D01*
X0391114Y0437851D01*
X0391104Y0437889D01*
X0391098Y0437928D01*
X0391096Y0437967D01*
X0406844Y0437908D02*
X0406846Y0437947D01*
X0406852Y0437986D01*
X0406862Y0438024D01*
X0406875Y0438061D01*
X0406892Y0438096D01*
X0406912Y0438130D01*
X0406936Y0438161D01*
X0406963Y0438190D01*
X0406992Y0438216D01*
X0407024Y0438239D01*
X0407058Y0438259D01*
X0407094Y0438275D01*
X0407131Y0438287D01*
X0407170Y0438296D01*
X0407209Y0438301D01*
X0407248Y0438302D01*
X0407287Y0438299D01*
X0407326Y0438292D01*
X0407363Y0438281D01*
X0407400Y0438267D01*
X0407435Y0438249D01*
X0407468Y0438228D01*
X0407499Y0438203D01*
X0407527Y0438176D01*
X0407552Y0438146D01*
X0407574Y0438113D01*
X0407593Y0438079D01*
X0407608Y0438043D01*
X0407620Y0438005D01*
X0407628Y0437967D01*
X0407632Y0437928D01*
X0407632Y0437888D01*
X0407628Y0437849D01*
X0407620Y0437811D01*
X0407608Y0437773D01*
X0407593Y0437737D01*
X0407574Y0437703D01*
X0407552Y0437670D01*
X0407527Y0437640D01*
X0407499Y0437613D01*
X0407468Y0437588D01*
X0407435Y0437567D01*
X0407400Y0437549D01*
X0407363Y0437535D01*
X0407326Y0437524D01*
X0407287Y0437517D01*
X0407248Y0437514D01*
X0407209Y0437515D01*
X0407170Y0437520D01*
X0407131Y0437529D01*
X0407094Y0437541D01*
X0407058Y0437557D01*
X0407024Y0437577D01*
X0406992Y0437600D01*
X0406963Y0437626D01*
X0406936Y0437655D01*
X0406912Y0437686D01*
X0406892Y0437720D01*
X0406875Y0437755D01*
X0406862Y0437792D01*
X0406852Y0437830D01*
X0406846Y0437869D01*
X0406844Y0437908D01*
X0154876Y0108793D02*
X0154878Y0108832D01*
X0154884Y0108871D01*
X0154894Y0108909D01*
X0154907Y0108946D01*
X0154924Y0108981D01*
X0154944Y0109015D01*
X0154968Y0109046D01*
X0154995Y0109075D01*
X0155024Y0109101D01*
X0155056Y0109124D01*
X0155090Y0109144D01*
X0155126Y0109160D01*
X0155163Y0109172D01*
X0155202Y0109181D01*
X0155241Y0109186D01*
X0155280Y0109187D01*
X0155319Y0109184D01*
X0155358Y0109177D01*
X0155395Y0109166D01*
X0155432Y0109152D01*
X0155467Y0109134D01*
X0155500Y0109113D01*
X0155531Y0109088D01*
X0155559Y0109061D01*
X0155584Y0109031D01*
X0155606Y0108998D01*
X0155625Y0108964D01*
X0155640Y0108928D01*
X0155652Y0108890D01*
X0155660Y0108852D01*
X0155664Y0108813D01*
X0155664Y0108773D01*
X0155660Y0108734D01*
X0155652Y0108696D01*
X0155640Y0108658D01*
X0155625Y0108622D01*
X0155606Y0108588D01*
X0155584Y0108555D01*
X0155559Y0108525D01*
X0155531Y0108498D01*
X0155500Y0108473D01*
X0155467Y0108452D01*
X0155432Y0108434D01*
X0155395Y0108420D01*
X0155358Y0108409D01*
X0155319Y0108402D01*
X0155280Y0108399D01*
X0155241Y0108400D01*
X0155202Y0108405D01*
X0155163Y0108414D01*
X0155126Y0108426D01*
X0155090Y0108442D01*
X0155056Y0108462D01*
X0155024Y0108485D01*
X0154995Y0108511D01*
X0154968Y0108540D01*
X0154944Y0108571D01*
X0154924Y0108605D01*
X0154907Y0108640D01*
X0154894Y0108677D01*
X0154884Y0108715D01*
X0154878Y0108754D01*
X0154876Y0108793D01*
X0139128Y0108852D02*
X0139130Y0108891D01*
X0139136Y0108930D01*
X0139146Y0108968D01*
X0139159Y0109005D01*
X0139176Y0109040D01*
X0139196Y0109074D01*
X0139220Y0109105D01*
X0139247Y0109134D01*
X0139276Y0109160D01*
X0139308Y0109183D01*
X0139342Y0109203D01*
X0139378Y0109219D01*
X0139415Y0109231D01*
X0139454Y0109240D01*
X0139493Y0109245D01*
X0139532Y0109246D01*
X0139571Y0109243D01*
X0139610Y0109236D01*
X0139647Y0109225D01*
X0139684Y0109211D01*
X0139719Y0109193D01*
X0139752Y0109172D01*
X0139783Y0109147D01*
X0139811Y0109120D01*
X0139836Y0109090D01*
X0139858Y0109057D01*
X0139877Y0109023D01*
X0139892Y0108987D01*
X0139904Y0108949D01*
X0139912Y0108911D01*
X0139916Y0108872D01*
X0139916Y0108832D01*
X0139912Y0108793D01*
X0139904Y0108755D01*
X0139892Y0108717D01*
X0139877Y0108681D01*
X0139858Y0108647D01*
X0139836Y0108614D01*
X0139811Y0108584D01*
X0139783Y0108557D01*
X0139752Y0108532D01*
X0139719Y0108511D01*
X0139684Y0108493D01*
X0139647Y0108479D01*
X0139610Y0108468D01*
X0139571Y0108461D01*
X0139532Y0108458D01*
X0139493Y0108459D01*
X0139454Y0108464D01*
X0139415Y0108473D01*
X0139378Y0108485D01*
X0139342Y0108501D01*
X0139308Y0108521D01*
X0139276Y0108544D01*
X0139247Y0108570D01*
X0139220Y0108599D01*
X0139196Y0108630D01*
X0139176Y0108664D01*
X0139159Y0108699D01*
X0139146Y0108736D01*
X0139136Y0108774D01*
X0139130Y0108813D01*
X0139128Y0108852D01*
D18*
X0265112Y0279679D02*
X0265114Y0279718D01*
X0265120Y0279757D01*
X0265130Y0279795D01*
X0265143Y0279832D01*
X0265160Y0279867D01*
X0265180Y0279901D01*
X0265204Y0279932D01*
X0265231Y0279961D01*
X0265260Y0279987D01*
X0265292Y0280010D01*
X0265326Y0280030D01*
X0265362Y0280046D01*
X0265399Y0280058D01*
X0265438Y0280067D01*
X0265477Y0280072D01*
X0265516Y0280073D01*
X0265555Y0280070D01*
X0265594Y0280063D01*
X0265631Y0280052D01*
X0265668Y0280038D01*
X0265703Y0280020D01*
X0265736Y0279999D01*
X0265767Y0279974D01*
X0265795Y0279947D01*
X0265820Y0279917D01*
X0265842Y0279884D01*
X0265861Y0279850D01*
X0265876Y0279814D01*
X0265888Y0279776D01*
X0265896Y0279738D01*
X0265900Y0279699D01*
X0265900Y0279659D01*
X0265896Y0279620D01*
X0265888Y0279582D01*
X0265876Y0279544D01*
X0265861Y0279508D01*
X0265842Y0279474D01*
X0265820Y0279441D01*
X0265795Y0279411D01*
X0265767Y0279384D01*
X0265736Y0279359D01*
X0265703Y0279338D01*
X0265668Y0279320D01*
X0265631Y0279306D01*
X0265594Y0279295D01*
X0265555Y0279288D01*
X0265516Y0279285D01*
X0265477Y0279286D01*
X0265438Y0279291D01*
X0265399Y0279300D01*
X0265362Y0279312D01*
X0265326Y0279328D01*
X0265292Y0279348D01*
X0265260Y0279371D01*
X0265231Y0279397D01*
X0265204Y0279426D01*
X0265180Y0279457D01*
X0265160Y0279491D01*
X0265143Y0279526D01*
X0265130Y0279563D01*
X0265120Y0279601D01*
X0265114Y0279640D01*
X0265112Y0279679D01*
D19*
X0180687Y0347921D02*
X0177751Y0347921D01*
X0179219Y0347921D02*
X0179219Y0352325D01*
X0177751Y0350857D01*
X0176083Y0352325D02*
X0176083Y0348655D01*
X0175349Y0347921D01*
X0173881Y0347921D01*
X0173147Y0348655D01*
X0173147Y0352325D01*
X0357348Y0270663D02*
X0357348Y0264285D01*
X0357719Y0264285D01*
X0360892Y0264285D02*
X0361262Y0264285D01*
X0364632Y0264285D02*
X0365002Y0264285D01*
X0368175Y0264285D02*
X0368545Y0264285D01*
X0368545Y0270663D01*
X0368175Y0270663D01*
X0365002Y0270663D02*
X0360892Y0270663D01*
X0357719Y0270663D02*
X0357348Y0270663D01*
M02*
