G75*
%MOIN*%
%OFA0B0*%
%FSLAX25Y25*%
%IPPOS*%
%LPD*%
%AMOC8*
5,1,8,0,0,1.08239X$1,22.5*
%
%ADD10C,0.06312*%
%ADD11C,0.06737*%
%ADD12R,0.08200X0.08200*%
%ADD13OC8,0.08200*%
%ADD14C,0.00039*%
%ADD15C,0.08200*%
%ADD16C,0.04762*%
%ADD17C,0.03900*%
D10*
X0225939Y0235831D03*
X0225939Y0293705D03*
X0320821Y0293705D03*
X0320821Y0235831D03*
D11*
X0327911Y0254768D02*
X0333848Y0254768D01*
X0333848Y0264768D02*
X0327911Y0264768D01*
D12*
X0263380Y0346726D03*
D13*
X0273380Y0346726D03*
X0283380Y0346726D03*
X0283380Y0356726D03*
X0273380Y0356726D03*
X0263380Y0356726D03*
D14*
X0260073Y0427632D02*
X0260633Y0427681D01*
X0261177Y0427827D01*
X0261687Y0428065D01*
X0262148Y0428387D01*
X0262546Y0428785D01*
X0262869Y0429246D01*
X0263106Y0429756D01*
X0263252Y0430300D01*
X0263301Y0430860D01*
X0263252Y0431421D01*
X0263106Y0431965D01*
X0262869Y0432474D01*
X0262546Y0432935D01*
X0262148Y0433333D01*
X0261687Y0433656D01*
X0261177Y0433894D01*
X0260633Y0434039D01*
X0260073Y0434089D01*
X0259512Y0434039D01*
X0258969Y0433894D01*
X0258459Y0433656D01*
X0257998Y0433333D01*
X0257600Y0432935D01*
X0257277Y0432474D01*
X0257039Y0431965D01*
X0256894Y0431421D01*
X0256845Y0430860D01*
X0256894Y0430300D01*
X0257039Y0429756D01*
X0257277Y0429246D01*
X0257600Y0428785D01*
X0257998Y0428387D01*
X0258459Y0428065D01*
X0258969Y0427827D01*
X0259512Y0427681D01*
X0260073Y0427632D01*
X0259668Y0427667D02*
X0260478Y0427667D01*
X0260724Y0427705D02*
X0259422Y0427705D01*
X0259280Y0427743D02*
X0260865Y0427743D01*
X0261007Y0427781D02*
X0259139Y0427781D01*
X0258998Y0427819D02*
X0261148Y0427819D01*
X0261242Y0427857D02*
X0258904Y0427857D01*
X0258823Y0427895D02*
X0261323Y0427895D01*
X0261404Y0427933D02*
X0258742Y0427933D01*
X0258660Y0427971D02*
X0261485Y0427971D01*
X0261567Y0428008D02*
X0258579Y0428008D01*
X0258498Y0428046D02*
X0261648Y0428046D01*
X0261715Y0428084D02*
X0258431Y0428084D01*
X0258377Y0428122D02*
X0261769Y0428122D01*
X0261823Y0428160D02*
X0258322Y0428160D01*
X0258268Y0428198D02*
X0261878Y0428198D01*
X0261932Y0428236D02*
X0258214Y0428236D01*
X0258160Y0428274D02*
X0261986Y0428274D01*
X0262040Y0428311D02*
X0258106Y0428311D01*
X0258052Y0428349D02*
X0262094Y0428349D01*
X0262148Y0428387D02*
X0257997Y0428387D01*
X0257960Y0428425D02*
X0262186Y0428425D01*
X0262224Y0428463D02*
X0257922Y0428463D01*
X0257884Y0428501D02*
X0262262Y0428501D01*
X0262300Y0428539D02*
X0257846Y0428539D01*
X0257808Y0428577D02*
X0262338Y0428577D01*
X0262376Y0428615D02*
X0257770Y0428615D01*
X0257732Y0428652D02*
X0262413Y0428652D01*
X0262451Y0428690D02*
X0257694Y0428690D01*
X0257657Y0428728D02*
X0262489Y0428728D01*
X0262527Y0428766D02*
X0257619Y0428766D01*
X0257586Y0428804D02*
X0262559Y0428804D01*
X0262586Y0428842D02*
X0257560Y0428842D01*
X0257533Y0428880D02*
X0262612Y0428880D01*
X0262639Y0428918D02*
X0257507Y0428918D01*
X0257480Y0428955D02*
X0262665Y0428955D01*
X0262692Y0428993D02*
X0257454Y0428993D01*
X0257427Y0429031D02*
X0262718Y0429031D01*
X0262745Y0429069D02*
X0257401Y0429069D01*
X0257374Y0429107D02*
X0262771Y0429107D01*
X0262798Y0429145D02*
X0257348Y0429145D01*
X0257321Y0429183D02*
X0262824Y0429183D01*
X0262851Y0429221D02*
X0257295Y0429221D01*
X0257271Y0429259D02*
X0262874Y0429259D01*
X0262892Y0429296D02*
X0257254Y0429296D01*
X0257236Y0429334D02*
X0262910Y0429334D01*
X0262927Y0429372D02*
X0257218Y0429372D01*
X0257201Y0429410D02*
X0262945Y0429410D01*
X0262963Y0429448D02*
X0257183Y0429448D01*
X0257165Y0429486D02*
X0262980Y0429486D01*
X0262998Y0429524D02*
X0257148Y0429524D01*
X0257130Y0429562D02*
X0263016Y0429562D01*
X0263033Y0429599D02*
X0257112Y0429599D01*
X0257095Y0429637D02*
X0263051Y0429637D01*
X0263069Y0429675D02*
X0257077Y0429675D01*
X0257059Y0429713D02*
X0263086Y0429713D01*
X0263104Y0429751D02*
X0257042Y0429751D01*
X0257031Y0429789D02*
X0263115Y0429789D01*
X0263125Y0429827D02*
X0257020Y0429827D01*
X0257010Y0429865D02*
X0263135Y0429865D01*
X0263146Y0429902D02*
X0257000Y0429902D01*
X0256990Y0429940D02*
X0263156Y0429940D01*
X0263166Y0429978D02*
X0256980Y0429978D01*
X0256970Y0430016D02*
X0263176Y0430016D01*
X0263186Y0430054D02*
X0256960Y0430054D01*
X0256949Y0430092D02*
X0263196Y0430092D01*
X0263206Y0430130D02*
X0256939Y0430130D01*
X0256929Y0430168D02*
X0263217Y0430168D01*
X0263227Y0430206D02*
X0256919Y0430206D01*
X0256909Y0430243D02*
X0263237Y0430243D01*
X0263247Y0430281D02*
X0256899Y0430281D01*
X0256892Y0430319D02*
X0263254Y0430319D01*
X0263257Y0430357D02*
X0256889Y0430357D01*
X0256885Y0430395D02*
X0263260Y0430395D01*
X0263264Y0430433D02*
X0256882Y0430433D01*
X0256879Y0430471D02*
X0263267Y0430471D01*
X0263270Y0430509D02*
X0256875Y0430509D01*
X0256872Y0430546D02*
X0263274Y0430546D01*
X0263277Y0430584D02*
X0256869Y0430584D01*
X0256865Y0430622D02*
X0263280Y0430622D01*
X0263284Y0430660D02*
X0256862Y0430660D01*
X0256859Y0430698D02*
X0263287Y0430698D01*
X0263290Y0430736D02*
X0256855Y0430736D01*
X0256852Y0430774D02*
X0263294Y0430774D01*
X0263297Y0430812D02*
X0256849Y0430812D01*
X0256845Y0430850D02*
X0263300Y0430850D01*
X0263299Y0430887D02*
X0256847Y0430887D01*
X0256850Y0430925D02*
X0263295Y0430925D01*
X0263292Y0430963D02*
X0256854Y0430963D01*
X0256857Y0431001D02*
X0263289Y0431001D01*
X0263286Y0431039D02*
X0256860Y0431039D01*
X0256864Y0431077D02*
X0263282Y0431077D01*
X0263279Y0431115D02*
X0256867Y0431115D01*
X0256870Y0431153D02*
X0263276Y0431153D01*
X0263272Y0431190D02*
X0256873Y0431190D01*
X0256877Y0431228D02*
X0263269Y0431228D01*
X0263266Y0431266D02*
X0256880Y0431266D01*
X0256883Y0431304D02*
X0263262Y0431304D01*
X0263259Y0431342D02*
X0256887Y0431342D01*
X0256890Y0431380D02*
X0263256Y0431380D01*
X0263252Y0431418D02*
X0256893Y0431418D01*
X0256903Y0431456D02*
X0263243Y0431456D01*
X0263233Y0431494D02*
X0256913Y0431494D01*
X0256923Y0431531D02*
X0263222Y0431531D01*
X0263212Y0431569D02*
X0256933Y0431569D01*
X0256944Y0431607D02*
X0263202Y0431607D01*
X0263192Y0431645D02*
X0256954Y0431645D01*
X0256964Y0431683D02*
X0263182Y0431683D01*
X0263172Y0431721D02*
X0256974Y0431721D01*
X0256984Y0431759D02*
X0263161Y0431759D01*
X0263151Y0431797D02*
X0256994Y0431797D01*
X0257005Y0431834D02*
X0263141Y0431834D01*
X0263131Y0431872D02*
X0257015Y0431872D01*
X0257025Y0431910D02*
X0263121Y0431910D01*
X0263111Y0431948D02*
X0257035Y0431948D01*
X0257049Y0431986D02*
X0263096Y0431986D01*
X0263079Y0432024D02*
X0257067Y0432024D01*
X0257085Y0432062D02*
X0263061Y0432062D01*
X0263043Y0432100D02*
X0257102Y0432100D01*
X0257120Y0432137D02*
X0263026Y0432137D01*
X0263008Y0432175D02*
X0257138Y0432175D01*
X0257155Y0432213D02*
X0262990Y0432213D01*
X0262973Y0432251D02*
X0257173Y0432251D01*
X0257191Y0432289D02*
X0262955Y0432289D01*
X0262937Y0432327D02*
X0257208Y0432327D01*
X0257226Y0432365D02*
X0262920Y0432365D01*
X0262902Y0432403D02*
X0257244Y0432403D01*
X0257261Y0432441D02*
X0262884Y0432441D01*
X0262866Y0432478D02*
X0257280Y0432478D01*
X0257306Y0432516D02*
X0262839Y0432516D01*
X0262813Y0432554D02*
X0257333Y0432554D01*
X0257359Y0432592D02*
X0262786Y0432592D01*
X0262760Y0432630D02*
X0257386Y0432630D01*
X0257412Y0432668D02*
X0262733Y0432668D01*
X0262707Y0432706D02*
X0257439Y0432706D01*
X0257465Y0432744D02*
X0262680Y0432744D01*
X0262654Y0432781D02*
X0257492Y0432781D01*
X0257518Y0432819D02*
X0262627Y0432819D01*
X0262601Y0432857D02*
X0257545Y0432857D01*
X0257571Y0432895D02*
X0262574Y0432895D01*
X0262548Y0432933D02*
X0257598Y0432933D01*
X0257635Y0432971D02*
X0262511Y0432971D01*
X0262473Y0433009D02*
X0257673Y0433009D01*
X0257711Y0433047D02*
X0262435Y0433047D01*
X0262397Y0433085D02*
X0257749Y0433085D01*
X0257787Y0433122D02*
X0262359Y0433122D01*
X0262321Y0433160D02*
X0257824Y0433160D01*
X0257862Y0433198D02*
X0262283Y0433198D01*
X0262245Y0433236D02*
X0257900Y0433236D01*
X0257938Y0433274D02*
X0262208Y0433274D01*
X0262170Y0433312D02*
X0257976Y0433312D01*
X0258021Y0433350D02*
X0262125Y0433350D01*
X0262071Y0433388D02*
X0258075Y0433388D01*
X0258129Y0433425D02*
X0262017Y0433425D01*
X0261962Y0433463D02*
X0258183Y0433463D01*
X0258237Y0433501D02*
X0261908Y0433501D01*
X0261854Y0433539D02*
X0258292Y0433539D01*
X0258346Y0433577D02*
X0261800Y0433577D01*
X0261746Y0433615D02*
X0258400Y0433615D01*
X0258454Y0433653D02*
X0261692Y0433653D01*
X0261613Y0433691D02*
X0258533Y0433691D01*
X0258614Y0433729D02*
X0261531Y0433729D01*
X0261450Y0433766D02*
X0258696Y0433766D01*
X0258777Y0433804D02*
X0261369Y0433804D01*
X0261288Y0433842D02*
X0258858Y0433842D01*
X0258939Y0433880D02*
X0261207Y0433880D01*
X0261087Y0433918D02*
X0259059Y0433918D01*
X0259200Y0433956D02*
X0260945Y0433956D01*
X0260804Y0433994D02*
X0259342Y0433994D01*
X0259483Y0434032D02*
X0260663Y0434032D01*
X0260291Y0434069D02*
X0259855Y0434069D01*
X0253106Y0431965D02*
X0253252Y0431421D01*
X0253301Y0430860D01*
X0253252Y0430300D01*
X0253106Y0429756D01*
X0252869Y0429246D01*
X0252546Y0428785D01*
X0252148Y0428387D01*
X0251687Y0428065D01*
X0251177Y0427827D01*
X0250633Y0427681D01*
X0250073Y0427632D01*
X0249512Y0427681D01*
X0248969Y0427827D01*
X0248459Y0428065D01*
X0247998Y0428387D01*
X0247600Y0428785D01*
X0247277Y0429246D01*
X0247039Y0429756D01*
X0246894Y0430300D01*
X0246845Y0430860D01*
X0246894Y0431421D01*
X0247039Y0431965D01*
X0247277Y0432474D01*
X0247600Y0432935D01*
X0247998Y0433333D01*
X0248459Y0433656D01*
X0248969Y0433894D01*
X0249512Y0434039D01*
X0250073Y0434089D01*
X0250633Y0434039D01*
X0251177Y0433894D01*
X0251687Y0433656D01*
X0252148Y0433333D01*
X0252546Y0432935D01*
X0252869Y0432474D01*
X0253106Y0431965D01*
X0253111Y0431948D02*
X0247035Y0431948D01*
X0247025Y0431910D02*
X0253121Y0431910D01*
X0253131Y0431872D02*
X0247015Y0431872D01*
X0247005Y0431834D02*
X0253141Y0431834D01*
X0253151Y0431797D02*
X0246994Y0431797D01*
X0246984Y0431759D02*
X0253161Y0431759D01*
X0253172Y0431721D02*
X0246974Y0431721D01*
X0246964Y0431683D02*
X0253182Y0431683D01*
X0253192Y0431645D02*
X0246954Y0431645D01*
X0246944Y0431607D02*
X0253202Y0431607D01*
X0253212Y0431569D02*
X0246933Y0431569D01*
X0246923Y0431531D02*
X0253222Y0431531D01*
X0253233Y0431494D02*
X0246913Y0431494D01*
X0246903Y0431456D02*
X0253243Y0431456D01*
X0253252Y0431418D02*
X0246893Y0431418D01*
X0246890Y0431380D02*
X0253256Y0431380D01*
X0253259Y0431342D02*
X0246887Y0431342D01*
X0246883Y0431304D02*
X0253262Y0431304D01*
X0253266Y0431266D02*
X0246880Y0431266D01*
X0246877Y0431228D02*
X0253269Y0431228D01*
X0253272Y0431190D02*
X0246873Y0431190D01*
X0246870Y0431153D02*
X0253276Y0431153D01*
X0253279Y0431115D02*
X0246867Y0431115D01*
X0246864Y0431077D02*
X0253282Y0431077D01*
X0253286Y0431039D02*
X0246860Y0431039D01*
X0246857Y0431001D02*
X0253289Y0431001D01*
X0253292Y0430963D02*
X0246854Y0430963D01*
X0246850Y0430925D02*
X0253295Y0430925D01*
X0253299Y0430887D02*
X0246847Y0430887D01*
X0246845Y0430850D02*
X0253300Y0430850D01*
X0253297Y0430812D02*
X0246849Y0430812D01*
X0246852Y0430774D02*
X0253294Y0430774D01*
X0253290Y0430736D02*
X0246855Y0430736D01*
X0246859Y0430698D02*
X0253287Y0430698D01*
X0253284Y0430660D02*
X0246862Y0430660D01*
X0246865Y0430622D02*
X0253280Y0430622D01*
X0253277Y0430584D02*
X0246869Y0430584D01*
X0246872Y0430546D02*
X0253274Y0430546D01*
X0253270Y0430509D02*
X0246875Y0430509D01*
X0246879Y0430471D02*
X0253267Y0430471D01*
X0253264Y0430433D02*
X0246882Y0430433D01*
X0246885Y0430395D02*
X0253260Y0430395D01*
X0253257Y0430357D02*
X0246889Y0430357D01*
X0246892Y0430319D02*
X0253254Y0430319D01*
X0253247Y0430281D02*
X0246899Y0430281D01*
X0246909Y0430243D02*
X0253237Y0430243D01*
X0253227Y0430206D02*
X0246919Y0430206D01*
X0246929Y0430168D02*
X0253217Y0430168D01*
X0253206Y0430130D02*
X0246939Y0430130D01*
X0246949Y0430092D02*
X0253196Y0430092D01*
X0253186Y0430054D02*
X0246960Y0430054D01*
X0246970Y0430016D02*
X0253176Y0430016D01*
X0253166Y0429978D02*
X0246980Y0429978D01*
X0246990Y0429940D02*
X0253156Y0429940D01*
X0253146Y0429902D02*
X0247000Y0429902D01*
X0247010Y0429865D02*
X0253135Y0429865D01*
X0253125Y0429827D02*
X0247020Y0429827D01*
X0247031Y0429789D02*
X0253115Y0429789D01*
X0253104Y0429751D02*
X0247042Y0429751D01*
X0247059Y0429713D02*
X0253086Y0429713D01*
X0253069Y0429675D02*
X0247077Y0429675D01*
X0247095Y0429637D02*
X0253051Y0429637D01*
X0253033Y0429599D02*
X0247112Y0429599D01*
X0247130Y0429562D02*
X0253016Y0429562D01*
X0252998Y0429524D02*
X0247148Y0429524D01*
X0247165Y0429486D02*
X0252980Y0429486D01*
X0252963Y0429448D02*
X0247183Y0429448D01*
X0247201Y0429410D02*
X0252945Y0429410D01*
X0252927Y0429372D02*
X0247218Y0429372D01*
X0247236Y0429334D02*
X0252910Y0429334D01*
X0252892Y0429296D02*
X0247254Y0429296D01*
X0247271Y0429259D02*
X0252874Y0429259D01*
X0252851Y0429221D02*
X0247295Y0429221D01*
X0247321Y0429183D02*
X0252824Y0429183D01*
X0252798Y0429145D02*
X0247348Y0429145D01*
X0247374Y0429107D02*
X0252771Y0429107D01*
X0252745Y0429069D02*
X0247401Y0429069D01*
X0247427Y0429031D02*
X0252718Y0429031D01*
X0252692Y0428993D02*
X0247454Y0428993D01*
X0247480Y0428955D02*
X0252665Y0428955D01*
X0252639Y0428918D02*
X0247507Y0428918D01*
X0247533Y0428880D02*
X0252612Y0428880D01*
X0252586Y0428842D02*
X0247560Y0428842D01*
X0247586Y0428804D02*
X0252559Y0428804D01*
X0252527Y0428766D02*
X0247619Y0428766D01*
X0247657Y0428728D02*
X0252489Y0428728D01*
X0252451Y0428690D02*
X0247694Y0428690D01*
X0247732Y0428652D02*
X0252413Y0428652D01*
X0252376Y0428615D02*
X0247770Y0428615D01*
X0247808Y0428577D02*
X0252338Y0428577D01*
X0252300Y0428539D02*
X0247846Y0428539D01*
X0247884Y0428501D02*
X0252262Y0428501D01*
X0252224Y0428463D02*
X0247922Y0428463D01*
X0247960Y0428425D02*
X0252186Y0428425D01*
X0252148Y0428387D02*
X0247997Y0428387D01*
X0248052Y0428349D02*
X0252094Y0428349D01*
X0252040Y0428311D02*
X0248106Y0428311D01*
X0248160Y0428274D02*
X0251986Y0428274D01*
X0251932Y0428236D02*
X0248214Y0428236D01*
X0248268Y0428198D02*
X0251878Y0428198D01*
X0251823Y0428160D02*
X0248322Y0428160D01*
X0248377Y0428122D02*
X0251769Y0428122D01*
X0251715Y0428084D02*
X0248431Y0428084D01*
X0248498Y0428046D02*
X0251648Y0428046D01*
X0251567Y0428008D02*
X0248579Y0428008D01*
X0248660Y0427971D02*
X0251485Y0427971D01*
X0251404Y0427933D02*
X0248742Y0427933D01*
X0248823Y0427895D02*
X0251323Y0427895D01*
X0251242Y0427857D02*
X0248904Y0427857D01*
X0248998Y0427819D02*
X0251148Y0427819D01*
X0251007Y0427781D02*
X0249139Y0427781D01*
X0249280Y0427743D02*
X0250865Y0427743D01*
X0250724Y0427705D02*
X0249422Y0427705D01*
X0249668Y0427667D02*
X0250478Y0427667D01*
X0253096Y0431986D02*
X0247049Y0431986D01*
X0247067Y0432024D02*
X0253079Y0432024D01*
X0253061Y0432062D02*
X0247085Y0432062D01*
X0247102Y0432100D02*
X0253043Y0432100D01*
X0253026Y0432137D02*
X0247120Y0432137D01*
X0247138Y0432175D02*
X0253008Y0432175D01*
X0252990Y0432213D02*
X0247155Y0432213D01*
X0247173Y0432251D02*
X0252973Y0432251D01*
X0252955Y0432289D02*
X0247191Y0432289D01*
X0247208Y0432327D02*
X0252937Y0432327D01*
X0252920Y0432365D02*
X0247226Y0432365D01*
X0247244Y0432403D02*
X0252902Y0432403D01*
X0252884Y0432441D02*
X0247261Y0432441D01*
X0247280Y0432478D02*
X0252866Y0432478D01*
X0252839Y0432516D02*
X0247306Y0432516D01*
X0247333Y0432554D02*
X0252813Y0432554D01*
X0252786Y0432592D02*
X0247359Y0432592D01*
X0247386Y0432630D02*
X0252760Y0432630D01*
X0252733Y0432668D02*
X0247412Y0432668D01*
X0247439Y0432706D02*
X0252707Y0432706D01*
X0252680Y0432744D02*
X0247465Y0432744D01*
X0247492Y0432781D02*
X0252654Y0432781D01*
X0252627Y0432819D02*
X0247518Y0432819D01*
X0247545Y0432857D02*
X0252601Y0432857D01*
X0252574Y0432895D02*
X0247571Y0432895D01*
X0247598Y0432933D02*
X0252548Y0432933D01*
X0252511Y0432971D02*
X0247635Y0432971D01*
X0247673Y0433009D02*
X0252473Y0433009D01*
X0252435Y0433047D02*
X0247711Y0433047D01*
X0247749Y0433085D02*
X0252397Y0433085D01*
X0252359Y0433122D02*
X0247787Y0433122D01*
X0247824Y0433160D02*
X0252321Y0433160D01*
X0252283Y0433198D02*
X0247862Y0433198D01*
X0247900Y0433236D02*
X0252245Y0433236D01*
X0252208Y0433274D02*
X0247938Y0433274D01*
X0247976Y0433312D02*
X0252170Y0433312D01*
X0252125Y0433350D02*
X0248021Y0433350D01*
X0248075Y0433388D02*
X0252071Y0433388D01*
X0252017Y0433425D02*
X0248129Y0433425D01*
X0248183Y0433463D02*
X0251962Y0433463D01*
X0251908Y0433501D02*
X0248237Y0433501D01*
X0248292Y0433539D02*
X0251854Y0433539D01*
X0251800Y0433577D02*
X0248346Y0433577D01*
X0248400Y0433615D02*
X0251746Y0433615D01*
X0251692Y0433653D02*
X0248454Y0433653D01*
X0248533Y0433691D02*
X0251613Y0433691D01*
X0251531Y0433729D02*
X0248614Y0433729D01*
X0248696Y0433766D02*
X0251450Y0433766D01*
X0251369Y0433804D02*
X0248777Y0433804D01*
X0248858Y0433842D02*
X0251288Y0433842D01*
X0251207Y0433880D02*
X0248939Y0433880D01*
X0249059Y0433918D02*
X0251087Y0433918D01*
X0250945Y0433956D02*
X0249200Y0433956D01*
X0249342Y0433994D02*
X0250804Y0433994D01*
X0250663Y0434032D02*
X0249483Y0434032D01*
X0249855Y0434069D02*
X0250291Y0434069D01*
X0243106Y0431965D02*
X0243252Y0431421D01*
X0243301Y0430860D01*
X0243252Y0430300D01*
X0243106Y0429756D01*
X0242869Y0429246D01*
X0242546Y0428785D01*
X0242148Y0428387D01*
X0241687Y0428065D01*
X0241177Y0427827D01*
X0240633Y0427681D01*
X0240073Y0427632D01*
X0239512Y0427681D01*
X0238969Y0427827D01*
X0238459Y0428065D01*
X0237998Y0428387D01*
X0237600Y0428785D01*
X0237277Y0429246D01*
X0237039Y0429756D01*
X0236894Y0430300D01*
X0236845Y0430860D01*
X0236894Y0431421D01*
X0237039Y0431965D01*
X0237277Y0432474D01*
X0237600Y0432935D01*
X0237998Y0433333D01*
X0238459Y0433656D01*
X0238969Y0433894D01*
X0239512Y0434039D01*
X0240073Y0434089D01*
X0240633Y0434039D01*
X0241177Y0433894D01*
X0241687Y0433656D01*
X0242148Y0433333D01*
X0242546Y0432935D01*
X0242869Y0432474D01*
X0243106Y0431965D01*
X0243111Y0431948D02*
X0237035Y0431948D01*
X0237025Y0431910D02*
X0243121Y0431910D01*
X0243131Y0431872D02*
X0237015Y0431872D01*
X0237005Y0431834D02*
X0243141Y0431834D01*
X0243151Y0431797D02*
X0236994Y0431797D01*
X0236984Y0431759D02*
X0243161Y0431759D01*
X0243172Y0431721D02*
X0236974Y0431721D01*
X0236964Y0431683D02*
X0243182Y0431683D01*
X0243192Y0431645D02*
X0236954Y0431645D01*
X0236944Y0431607D02*
X0243202Y0431607D01*
X0243212Y0431569D02*
X0236933Y0431569D01*
X0236923Y0431531D02*
X0243222Y0431531D01*
X0243233Y0431494D02*
X0236913Y0431494D01*
X0236903Y0431456D02*
X0243243Y0431456D01*
X0243252Y0431418D02*
X0236893Y0431418D01*
X0236890Y0431380D02*
X0243256Y0431380D01*
X0243259Y0431342D02*
X0236887Y0431342D01*
X0236883Y0431304D02*
X0243262Y0431304D01*
X0243266Y0431266D02*
X0236880Y0431266D01*
X0236877Y0431228D02*
X0243269Y0431228D01*
X0243272Y0431190D02*
X0236873Y0431190D01*
X0236870Y0431153D02*
X0243276Y0431153D01*
X0243279Y0431115D02*
X0236867Y0431115D01*
X0236864Y0431077D02*
X0243282Y0431077D01*
X0243286Y0431039D02*
X0236860Y0431039D01*
X0236857Y0431001D02*
X0243289Y0431001D01*
X0243292Y0430963D02*
X0236854Y0430963D01*
X0236850Y0430925D02*
X0243295Y0430925D01*
X0243299Y0430887D02*
X0236847Y0430887D01*
X0236845Y0430850D02*
X0243300Y0430850D01*
X0243297Y0430812D02*
X0236849Y0430812D01*
X0236852Y0430774D02*
X0243294Y0430774D01*
X0243290Y0430736D02*
X0236855Y0430736D01*
X0236859Y0430698D02*
X0243287Y0430698D01*
X0243284Y0430660D02*
X0236862Y0430660D01*
X0236865Y0430622D02*
X0243280Y0430622D01*
X0243277Y0430584D02*
X0236869Y0430584D01*
X0236872Y0430546D02*
X0243274Y0430546D01*
X0243270Y0430509D02*
X0236875Y0430509D01*
X0236879Y0430471D02*
X0243267Y0430471D01*
X0243264Y0430433D02*
X0236882Y0430433D01*
X0236885Y0430395D02*
X0243260Y0430395D01*
X0243257Y0430357D02*
X0236889Y0430357D01*
X0236892Y0430319D02*
X0243254Y0430319D01*
X0243247Y0430281D02*
X0236899Y0430281D01*
X0236909Y0430243D02*
X0243237Y0430243D01*
X0243227Y0430206D02*
X0236919Y0430206D01*
X0236929Y0430168D02*
X0243217Y0430168D01*
X0243206Y0430130D02*
X0236939Y0430130D01*
X0236949Y0430092D02*
X0243196Y0430092D01*
X0243186Y0430054D02*
X0236960Y0430054D01*
X0236970Y0430016D02*
X0243176Y0430016D01*
X0243166Y0429978D02*
X0236980Y0429978D01*
X0236990Y0429940D02*
X0243156Y0429940D01*
X0243146Y0429902D02*
X0237000Y0429902D01*
X0237010Y0429865D02*
X0243135Y0429865D01*
X0243125Y0429827D02*
X0237020Y0429827D01*
X0237031Y0429789D02*
X0243115Y0429789D01*
X0243104Y0429751D02*
X0237042Y0429751D01*
X0237059Y0429713D02*
X0243086Y0429713D01*
X0243069Y0429675D02*
X0237077Y0429675D01*
X0237095Y0429637D02*
X0243051Y0429637D01*
X0243033Y0429599D02*
X0237112Y0429599D01*
X0237130Y0429562D02*
X0243016Y0429562D01*
X0242998Y0429524D02*
X0237148Y0429524D01*
X0237165Y0429486D02*
X0242980Y0429486D01*
X0242963Y0429448D02*
X0237183Y0429448D01*
X0237201Y0429410D02*
X0242945Y0429410D01*
X0242927Y0429372D02*
X0237218Y0429372D01*
X0237236Y0429334D02*
X0242910Y0429334D01*
X0242892Y0429296D02*
X0237254Y0429296D01*
X0237271Y0429259D02*
X0242874Y0429259D01*
X0242851Y0429221D02*
X0237295Y0429221D01*
X0237321Y0429183D02*
X0242824Y0429183D01*
X0242798Y0429145D02*
X0237348Y0429145D01*
X0237374Y0429107D02*
X0242771Y0429107D01*
X0242745Y0429069D02*
X0237401Y0429069D01*
X0237427Y0429031D02*
X0242718Y0429031D01*
X0242692Y0428993D02*
X0237454Y0428993D01*
X0237480Y0428955D02*
X0242665Y0428955D01*
X0242639Y0428918D02*
X0237507Y0428918D01*
X0237533Y0428880D02*
X0242612Y0428880D01*
X0242586Y0428842D02*
X0237560Y0428842D01*
X0237586Y0428804D02*
X0242559Y0428804D01*
X0242527Y0428766D02*
X0237619Y0428766D01*
X0237657Y0428728D02*
X0242489Y0428728D01*
X0242451Y0428690D02*
X0237694Y0428690D01*
X0237732Y0428652D02*
X0242413Y0428652D01*
X0242376Y0428615D02*
X0237770Y0428615D01*
X0237808Y0428577D02*
X0242338Y0428577D01*
X0242300Y0428539D02*
X0237846Y0428539D01*
X0237884Y0428501D02*
X0242262Y0428501D01*
X0242224Y0428463D02*
X0237922Y0428463D01*
X0237960Y0428425D02*
X0242186Y0428425D01*
X0242148Y0428387D02*
X0237997Y0428387D01*
X0238052Y0428349D02*
X0242094Y0428349D01*
X0242040Y0428311D02*
X0238106Y0428311D01*
X0238160Y0428274D02*
X0241986Y0428274D01*
X0241932Y0428236D02*
X0238214Y0428236D01*
X0238268Y0428198D02*
X0241878Y0428198D01*
X0241823Y0428160D02*
X0238322Y0428160D01*
X0238377Y0428122D02*
X0241769Y0428122D01*
X0241715Y0428084D02*
X0238431Y0428084D01*
X0238498Y0428046D02*
X0241648Y0428046D01*
X0241567Y0428008D02*
X0238579Y0428008D01*
X0238660Y0427971D02*
X0241485Y0427971D01*
X0241404Y0427933D02*
X0238742Y0427933D01*
X0238823Y0427895D02*
X0241323Y0427895D01*
X0241242Y0427857D02*
X0238904Y0427857D01*
X0238998Y0427819D02*
X0241148Y0427819D01*
X0241007Y0427781D02*
X0239139Y0427781D01*
X0239280Y0427743D02*
X0240865Y0427743D01*
X0240724Y0427705D02*
X0239422Y0427705D01*
X0239668Y0427667D02*
X0240478Y0427667D01*
X0243096Y0431986D02*
X0237049Y0431986D01*
X0237067Y0432024D02*
X0243079Y0432024D01*
X0243061Y0432062D02*
X0237085Y0432062D01*
X0237102Y0432100D02*
X0243043Y0432100D01*
X0243026Y0432137D02*
X0237120Y0432137D01*
X0237138Y0432175D02*
X0243008Y0432175D01*
X0242990Y0432213D02*
X0237155Y0432213D01*
X0237173Y0432251D02*
X0242973Y0432251D01*
X0242955Y0432289D02*
X0237191Y0432289D01*
X0237208Y0432327D02*
X0242937Y0432327D01*
X0242920Y0432365D02*
X0237226Y0432365D01*
X0237244Y0432403D02*
X0242902Y0432403D01*
X0242884Y0432441D02*
X0237261Y0432441D01*
X0237280Y0432478D02*
X0242866Y0432478D01*
X0242839Y0432516D02*
X0237306Y0432516D01*
X0237333Y0432554D02*
X0242813Y0432554D01*
X0242786Y0432592D02*
X0237359Y0432592D01*
X0237386Y0432630D02*
X0242760Y0432630D01*
X0242733Y0432668D02*
X0237412Y0432668D01*
X0237439Y0432706D02*
X0242707Y0432706D01*
X0242680Y0432744D02*
X0237465Y0432744D01*
X0237492Y0432781D02*
X0242654Y0432781D01*
X0242627Y0432819D02*
X0237518Y0432819D01*
X0237545Y0432857D02*
X0242601Y0432857D01*
X0242574Y0432895D02*
X0237571Y0432895D01*
X0237598Y0432933D02*
X0242548Y0432933D01*
X0242511Y0432971D02*
X0237635Y0432971D01*
X0237673Y0433009D02*
X0242473Y0433009D01*
X0242435Y0433047D02*
X0237711Y0433047D01*
X0237749Y0433085D02*
X0242397Y0433085D01*
X0242359Y0433122D02*
X0237787Y0433122D01*
X0237824Y0433160D02*
X0242321Y0433160D01*
X0242283Y0433198D02*
X0237862Y0433198D01*
X0237900Y0433236D02*
X0242245Y0433236D01*
X0242208Y0433274D02*
X0237938Y0433274D01*
X0237976Y0433312D02*
X0242170Y0433312D01*
X0242125Y0433350D02*
X0238021Y0433350D01*
X0238075Y0433388D02*
X0242071Y0433388D01*
X0242017Y0433425D02*
X0238129Y0433425D01*
X0238183Y0433463D02*
X0241962Y0433463D01*
X0241908Y0433501D02*
X0238237Y0433501D01*
X0238292Y0433539D02*
X0241854Y0433539D01*
X0241800Y0433577D02*
X0238346Y0433577D01*
X0238400Y0433615D02*
X0241746Y0433615D01*
X0241692Y0433653D02*
X0238454Y0433653D01*
X0238533Y0433691D02*
X0241613Y0433691D01*
X0241531Y0433729D02*
X0238614Y0433729D01*
X0238696Y0433766D02*
X0241450Y0433766D01*
X0241369Y0433804D02*
X0238777Y0433804D01*
X0238858Y0433842D02*
X0241288Y0433842D01*
X0241207Y0433880D02*
X0238939Y0433880D01*
X0239059Y0433918D02*
X0241087Y0433918D01*
X0240945Y0433956D02*
X0239200Y0433956D01*
X0239342Y0433994D02*
X0240804Y0433994D01*
X0240663Y0434032D02*
X0239483Y0434032D01*
X0239855Y0434069D02*
X0240291Y0434069D01*
X0233321Y0434069D02*
X0226825Y0434069D01*
X0226825Y0434032D02*
X0233321Y0434032D01*
X0233321Y0433994D02*
X0226825Y0433994D01*
X0226825Y0433956D02*
X0233321Y0433956D01*
X0233321Y0433918D02*
X0226825Y0433918D01*
X0226825Y0433880D02*
X0233321Y0433880D01*
X0233321Y0433842D02*
X0226825Y0433842D01*
X0226825Y0433804D02*
X0233321Y0433804D01*
X0233321Y0433766D02*
X0226825Y0433766D01*
X0226825Y0433729D02*
X0233321Y0433729D01*
X0233321Y0433691D02*
X0226825Y0433691D01*
X0226825Y0433653D02*
X0233321Y0433653D01*
X0233321Y0433615D02*
X0226825Y0433615D01*
X0226825Y0433577D02*
X0233321Y0433577D01*
X0233321Y0433539D02*
X0226825Y0433539D01*
X0226825Y0433501D02*
X0233321Y0433501D01*
X0233321Y0433463D02*
X0226825Y0433463D01*
X0226825Y0433425D02*
X0233321Y0433425D01*
X0233321Y0433388D02*
X0226825Y0433388D01*
X0226825Y0433350D02*
X0233321Y0433350D01*
X0233321Y0433312D02*
X0226825Y0433312D01*
X0226825Y0433274D02*
X0233321Y0433274D01*
X0233321Y0433236D02*
X0226825Y0433236D01*
X0226825Y0433198D02*
X0233321Y0433198D01*
X0233321Y0433160D02*
X0226825Y0433160D01*
X0226825Y0433122D02*
X0233321Y0433122D01*
X0233321Y0433085D02*
X0226825Y0433085D01*
X0226825Y0433047D02*
X0233321Y0433047D01*
X0233321Y0433009D02*
X0226825Y0433009D01*
X0226825Y0432971D02*
X0233321Y0432971D01*
X0233321Y0432933D02*
X0226825Y0432933D01*
X0226825Y0432895D02*
X0233321Y0432895D01*
X0233321Y0432857D02*
X0226825Y0432857D01*
X0226825Y0432819D02*
X0233321Y0432819D01*
X0233321Y0432781D02*
X0226825Y0432781D01*
X0226825Y0432744D02*
X0233321Y0432744D01*
X0233321Y0432706D02*
X0226825Y0432706D01*
X0226825Y0432668D02*
X0233321Y0432668D01*
X0233321Y0432630D02*
X0226825Y0432630D01*
X0226825Y0432592D02*
X0233321Y0432592D01*
X0233321Y0432554D02*
X0226825Y0432554D01*
X0226825Y0432516D02*
X0233321Y0432516D01*
X0233321Y0432478D02*
X0226825Y0432478D01*
X0226825Y0432441D02*
X0233321Y0432441D01*
X0233321Y0432403D02*
X0226825Y0432403D01*
X0226825Y0432365D02*
X0233321Y0432365D01*
X0233321Y0432327D02*
X0226825Y0432327D01*
X0226825Y0432289D02*
X0233321Y0432289D01*
X0233321Y0432251D02*
X0226825Y0432251D01*
X0226825Y0432213D02*
X0233321Y0432213D01*
X0233321Y0432175D02*
X0226825Y0432175D01*
X0226825Y0432137D02*
X0233321Y0432137D01*
X0233321Y0432100D02*
X0226825Y0432100D01*
X0226825Y0432062D02*
X0233321Y0432062D01*
X0233321Y0432024D02*
X0226825Y0432024D01*
X0226825Y0431986D02*
X0233321Y0431986D01*
X0233321Y0431948D02*
X0226825Y0431948D01*
X0226825Y0431910D02*
X0233321Y0431910D01*
X0233321Y0431872D02*
X0226825Y0431872D01*
X0226825Y0431834D02*
X0233321Y0431834D01*
X0233321Y0431797D02*
X0226825Y0431797D01*
X0226825Y0431759D02*
X0233321Y0431759D01*
X0233321Y0431721D02*
X0226825Y0431721D01*
X0226825Y0431683D02*
X0233321Y0431683D01*
X0233321Y0431645D02*
X0226825Y0431645D01*
X0226825Y0431607D02*
X0233321Y0431607D01*
X0233321Y0431569D02*
X0226825Y0431569D01*
X0226825Y0431531D02*
X0233321Y0431531D01*
X0233321Y0431494D02*
X0226825Y0431494D01*
X0226825Y0431456D02*
X0233321Y0431456D01*
X0233321Y0431418D02*
X0226825Y0431418D01*
X0226825Y0431380D02*
X0233321Y0431380D01*
X0233321Y0431342D02*
X0226825Y0431342D01*
X0226825Y0431304D02*
X0233321Y0431304D01*
X0233321Y0431266D02*
X0226825Y0431266D01*
X0226825Y0431228D02*
X0233321Y0431228D01*
X0233321Y0431190D02*
X0226825Y0431190D01*
X0226825Y0431153D02*
X0233321Y0431153D01*
X0233321Y0431115D02*
X0226825Y0431115D01*
X0226825Y0431077D02*
X0233321Y0431077D01*
X0233321Y0431039D02*
X0226825Y0431039D01*
X0226825Y0431001D02*
X0233321Y0431001D01*
X0233321Y0430963D02*
X0226825Y0430963D01*
X0226825Y0430925D02*
X0233321Y0430925D01*
X0233321Y0430887D02*
X0226825Y0430887D01*
X0226825Y0430850D02*
X0233321Y0430850D01*
X0233321Y0430812D02*
X0226825Y0430812D01*
X0226825Y0430774D02*
X0233321Y0430774D01*
X0233321Y0430736D02*
X0226825Y0430736D01*
X0226825Y0430698D02*
X0233321Y0430698D01*
X0233321Y0430660D02*
X0226825Y0430660D01*
X0226825Y0430622D02*
X0233321Y0430622D01*
X0233321Y0430584D02*
X0226825Y0430584D01*
X0226825Y0430546D02*
X0233321Y0430546D01*
X0233321Y0430509D02*
X0226825Y0430509D01*
X0226825Y0430471D02*
X0233321Y0430471D01*
X0233321Y0430433D02*
X0226825Y0430433D01*
X0226825Y0430395D02*
X0233321Y0430395D01*
X0233321Y0430357D02*
X0226825Y0430357D01*
X0226825Y0430319D02*
X0233321Y0430319D01*
X0233321Y0430281D02*
X0226825Y0430281D01*
X0226825Y0430243D02*
X0233321Y0430243D01*
X0233321Y0430206D02*
X0226825Y0430206D01*
X0226825Y0430168D02*
X0233321Y0430168D01*
X0233321Y0430130D02*
X0226825Y0430130D01*
X0226825Y0430092D02*
X0233321Y0430092D01*
X0233321Y0430054D02*
X0226825Y0430054D01*
X0226825Y0430016D02*
X0233321Y0430016D01*
X0233321Y0429978D02*
X0226825Y0429978D01*
X0226825Y0429940D02*
X0233321Y0429940D01*
X0233321Y0429902D02*
X0226825Y0429902D01*
X0226825Y0429865D02*
X0233321Y0429865D01*
X0233321Y0429827D02*
X0226825Y0429827D01*
X0226825Y0429789D02*
X0233321Y0429789D01*
X0233321Y0429751D02*
X0226825Y0429751D01*
X0226825Y0429713D02*
X0233321Y0429713D01*
X0233321Y0429675D02*
X0226825Y0429675D01*
X0226825Y0429637D02*
X0233321Y0429637D01*
X0233321Y0429599D02*
X0226825Y0429599D01*
X0226825Y0429562D02*
X0233321Y0429562D01*
X0233321Y0429524D02*
X0226825Y0429524D01*
X0226825Y0429486D02*
X0233321Y0429486D01*
X0233321Y0429448D02*
X0226825Y0429448D01*
X0226825Y0429410D02*
X0233321Y0429410D01*
X0233321Y0429372D02*
X0226825Y0429372D01*
X0226825Y0429334D02*
X0233321Y0429334D01*
X0233321Y0429296D02*
X0226825Y0429296D01*
X0226825Y0429259D02*
X0233321Y0429259D01*
X0233321Y0429221D02*
X0226825Y0429221D01*
X0226825Y0429183D02*
X0233321Y0429183D01*
X0233321Y0429145D02*
X0226825Y0429145D01*
X0226825Y0429107D02*
X0233321Y0429107D01*
X0233321Y0429069D02*
X0226825Y0429069D01*
X0226825Y0429031D02*
X0233321Y0429031D01*
X0233321Y0428993D02*
X0226825Y0428993D01*
X0226825Y0428955D02*
X0233321Y0428955D01*
X0233321Y0428918D02*
X0226825Y0428918D01*
X0226825Y0428880D02*
X0233321Y0428880D01*
X0233321Y0428842D02*
X0226825Y0428842D01*
X0226825Y0428804D02*
X0233321Y0428804D01*
X0233321Y0428766D02*
X0226825Y0428766D01*
X0226825Y0428728D02*
X0233321Y0428728D01*
X0233321Y0428690D02*
X0226825Y0428690D01*
X0226825Y0428652D02*
X0233321Y0428652D01*
X0233321Y0428615D02*
X0226825Y0428615D01*
X0226825Y0428577D02*
X0233321Y0428577D01*
X0233321Y0428539D02*
X0226825Y0428539D01*
X0226825Y0428501D02*
X0233321Y0428501D01*
X0233321Y0428463D02*
X0226825Y0428463D01*
X0226825Y0428425D02*
X0233321Y0428425D01*
X0233321Y0428387D02*
X0226825Y0428387D01*
X0226825Y0428349D02*
X0233321Y0428349D01*
X0233321Y0428311D02*
X0226825Y0428311D01*
X0226825Y0428274D02*
X0233321Y0428274D01*
X0233321Y0428236D02*
X0226825Y0428236D01*
X0226825Y0428198D02*
X0233321Y0428198D01*
X0233321Y0428160D02*
X0226825Y0428160D01*
X0226825Y0428122D02*
X0233321Y0428122D01*
X0233321Y0428084D02*
X0226825Y0428084D01*
X0226825Y0428046D02*
X0233321Y0428046D01*
X0233321Y0428008D02*
X0226825Y0428008D01*
X0226825Y0427971D02*
X0233321Y0427971D01*
X0233321Y0427933D02*
X0226825Y0427933D01*
X0226825Y0427895D02*
X0233321Y0427895D01*
X0233321Y0427857D02*
X0226825Y0427857D01*
X0226825Y0427819D02*
X0233321Y0427819D01*
X0233321Y0427781D02*
X0226825Y0427781D01*
X0226825Y0427743D02*
X0233321Y0427743D01*
X0233321Y0427705D02*
X0226825Y0427705D01*
X0226825Y0427667D02*
X0233321Y0427667D01*
X0233321Y0427630D02*
X0226825Y0427630D01*
X0226825Y0427612D02*
X0233321Y0427612D01*
X0233321Y0434108D01*
X0226825Y0434108D01*
X0226825Y0427612D01*
X0226825Y0434107D02*
X0233321Y0434107D01*
X0266870Y0431153D02*
X0273276Y0431153D01*
X0273272Y0431190D02*
X0266873Y0431190D01*
X0266877Y0431228D02*
X0273269Y0431228D01*
X0273266Y0431266D02*
X0266880Y0431266D01*
X0266883Y0431304D02*
X0273262Y0431304D01*
X0273259Y0431342D02*
X0266887Y0431342D01*
X0266890Y0431380D02*
X0273256Y0431380D01*
X0273252Y0431418D02*
X0266893Y0431418D01*
X0266894Y0431421D02*
X0266845Y0430860D01*
X0266894Y0430300D01*
X0267039Y0429756D01*
X0267277Y0429246D01*
X0267600Y0428785D01*
X0267998Y0428387D01*
X0268459Y0428065D01*
X0268969Y0427827D01*
X0269512Y0427681D01*
X0270073Y0427632D01*
X0270633Y0427681D01*
X0271177Y0427827D01*
X0271687Y0428065D01*
X0272148Y0428387D01*
X0272546Y0428785D01*
X0272869Y0429246D01*
X0273106Y0429756D01*
X0273252Y0430300D01*
X0273301Y0430860D01*
X0273252Y0431421D01*
X0273106Y0431965D01*
X0272869Y0432474D01*
X0272546Y0432935D01*
X0272148Y0433333D01*
X0271687Y0433656D01*
X0271177Y0433894D01*
X0270633Y0434039D01*
X0270073Y0434089D01*
X0269512Y0434039D01*
X0268969Y0433894D01*
X0268459Y0433656D01*
X0267998Y0433333D01*
X0267600Y0432935D01*
X0267277Y0432474D01*
X0267039Y0431965D01*
X0266894Y0431421D01*
X0266903Y0431456D02*
X0273243Y0431456D01*
X0273233Y0431494D02*
X0266913Y0431494D01*
X0266923Y0431531D02*
X0273222Y0431531D01*
X0273212Y0431569D02*
X0266933Y0431569D01*
X0266944Y0431607D02*
X0273202Y0431607D01*
X0273192Y0431645D02*
X0266954Y0431645D01*
X0266964Y0431683D02*
X0273182Y0431683D01*
X0273172Y0431721D02*
X0266974Y0431721D01*
X0266984Y0431759D02*
X0273161Y0431759D01*
X0273151Y0431797D02*
X0266994Y0431797D01*
X0267005Y0431834D02*
X0273141Y0431834D01*
X0273131Y0431872D02*
X0267015Y0431872D01*
X0267025Y0431910D02*
X0273121Y0431910D01*
X0273111Y0431948D02*
X0267035Y0431948D01*
X0267049Y0431986D02*
X0273096Y0431986D01*
X0273079Y0432024D02*
X0267067Y0432024D01*
X0267085Y0432062D02*
X0273061Y0432062D01*
X0273043Y0432100D02*
X0267102Y0432100D01*
X0267120Y0432137D02*
X0273026Y0432137D01*
X0273008Y0432175D02*
X0267138Y0432175D01*
X0267155Y0432213D02*
X0272990Y0432213D01*
X0272973Y0432251D02*
X0267173Y0432251D01*
X0267191Y0432289D02*
X0272955Y0432289D01*
X0272937Y0432327D02*
X0267208Y0432327D01*
X0267226Y0432365D02*
X0272920Y0432365D01*
X0272902Y0432403D02*
X0267244Y0432403D01*
X0267261Y0432441D02*
X0272884Y0432441D01*
X0272866Y0432478D02*
X0267280Y0432478D01*
X0267306Y0432516D02*
X0272839Y0432516D01*
X0272813Y0432554D02*
X0267333Y0432554D01*
X0267359Y0432592D02*
X0272786Y0432592D01*
X0272760Y0432630D02*
X0267386Y0432630D01*
X0267412Y0432668D02*
X0272733Y0432668D01*
X0272707Y0432706D02*
X0267439Y0432706D01*
X0267465Y0432744D02*
X0272680Y0432744D01*
X0272654Y0432781D02*
X0267492Y0432781D01*
X0267518Y0432819D02*
X0272627Y0432819D01*
X0272601Y0432857D02*
X0267545Y0432857D01*
X0267571Y0432895D02*
X0272574Y0432895D01*
X0272548Y0432933D02*
X0267598Y0432933D01*
X0267635Y0432971D02*
X0272511Y0432971D01*
X0272473Y0433009D02*
X0267673Y0433009D01*
X0267711Y0433047D02*
X0272435Y0433047D01*
X0272397Y0433085D02*
X0267749Y0433085D01*
X0267787Y0433122D02*
X0272359Y0433122D01*
X0272321Y0433160D02*
X0267824Y0433160D01*
X0267862Y0433198D02*
X0272283Y0433198D01*
X0272245Y0433236D02*
X0267900Y0433236D01*
X0267938Y0433274D02*
X0272208Y0433274D01*
X0272170Y0433312D02*
X0267976Y0433312D01*
X0268021Y0433350D02*
X0272125Y0433350D01*
X0272071Y0433388D02*
X0268075Y0433388D01*
X0268129Y0433425D02*
X0272017Y0433425D01*
X0271962Y0433463D02*
X0268183Y0433463D01*
X0268238Y0433501D02*
X0271908Y0433501D01*
X0271854Y0433539D02*
X0268292Y0433539D01*
X0268346Y0433577D02*
X0271800Y0433577D01*
X0271746Y0433615D02*
X0268400Y0433615D01*
X0268454Y0433653D02*
X0271692Y0433653D01*
X0271613Y0433691D02*
X0268533Y0433691D01*
X0268614Y0433729D02*
X0271531Y0433729D01*
X0271450Y0433766D02*
X0268696Y0433766D01*
X0268777Y0433804D02*
X0271369Y0433804D01*
X0271288Y0433842D02*
X0268858Y0433842D01*
X0268939Y0433880D02*
X0271207Y0433880D01*
X0271087Y0433918D02*
X0269059Y0433918D01*
X0269200Y0433956D02*
X0270945Y0433956D01*
X0270804Y0433994D02*
X0269342Y0433994D01*
X0269483Y0434032D02*
X0270663Y0434032D01*
X0270291Y0434069D02*
X0269855Y0434069D01*
X0266867Y0431115D02*
X0273279Y0431115D01*
X0273282Y0431077D02*
X0266864Y0431077D01*
X0266860Y0431039D02*
X0273286Y0431039D01*
X0273289Y0431001D02*
X0266857Y0431001D01*
X0266854Y0430963D02*
X0273292Y0430963D01*
X0273295Y0430925D02*
X0266850Y0430925D01*
X0266847Y0430887D02*
X0273299Y0430887D01*
X0273300Y0430850D02*
X0266845Y0430850D01*
X0266849Y0430812D02*
X0273297Y0430812D01*
X0273294Y0430774D02*
X0266852Y0430774D01*
X0266855Y0430736D02*
X0273290Y0430736D01*
X0273287Y0430698D02*
X0266859Y0430698D01*
X0266862Y0430660D02*
X0273284Y0430660D01*
X0273280Y0430622D02*
X0266865Y0430622D01*
X0266869Y0430584D02*
X0273277Y0430584D01*
X0273274Y0430546D02*
X0266872Y0430546D01*
X0266875Y0430509D02*
X0273270Y0430509D01*
X0273267Y0430471D02*
X0266879Y0430471D01*
X0266882Y0430433D02*
X0273264Y0430433D01*
X0273260Y0430395D02*
X0266885Y0430395D01*
X0266889Y0430357D02*
X0273257Y0430357D01*
X0273254Y0430319D02*
X0266892Y0430319D01*
X0266899Y0430281D02*
X0273247Y0430281D01*
X0273237Y0430243D02*
X0266909Y0430243D01*
X0266919Y0430206D02*
X0273227Y0430206D01*
X0273217Y0430168D02*
X0266929Y0430168D01*
X0266939Y0430130D02*
X0273206Y0430130D01*
X0273196Y0430092D02*
X0266949Y0430092D01*
X0266960Y0430054D02*
X0273186Y0430054D01*
X0273176Y0430016D02*
X0266970Y0430016D01*
X0266980Y0429978D02*
X0273166Y0429978D01*
X0273156Y0429940D02*
X0266990Y0429940D01*
X0267000Y0429902D02*
X0273146Y0429902D01*
X0273135Y0429865D02*
X0267010Y0429865D01*
X0267020Y0429827D02*
X0273125Y0429827D01*
X0273115Y0429789D02*
X0267031Y0429789D01*
X0267042Y0429751D02*
X0273104Y0429751D01*
X0273086Y0429713D02*
X0267059Y0429713D01*
X0267077Y0429675D02*
X0273069Y0429675D01*
X0273051Y0429637D02*
X0267095Y0429637D01*
X0267112Y0429599D02*
X0273033Y0429599D01*
X0273016Y0429562D02*
X0267130Y0429562D01*
X0267148Y0429524D02*
X0272998Y0429524D01*
X0272980Y0429486D02*
X0267165Y0429486D01*
X0267183Y0429448D02*
X0272963Y0429448D01*
X0272945Y0429410D02*
X0267201Y0429410D01*
X0267218Y0429372D02*
X0272927Y0429372D01*
X0272910Y0429334D02*
X0267236Y0429334D01*
X0267254Y0429296D02*
X0272892Y0429296D01*
X0272874Y0429259D02*
X0267271Y0429259D01*
X0267295Y0429221D02*
X0272851Y0429221D01*
X0272824Y0429183D02*
X0267321Y0429183D01*
X0267348Y0429145D02*
X0272798Y0429145D01*
X0272771Y0429107D02*
X0267374Y0429107D01*
X0267401Y0429069D02*
X0272745Y0429069D01*
X0272718Y0429031D02*
X0267427Y0429031D01*
X0267454Y0428993D02*
X0272692Y0428993D01*
X0272665Y0428955D02*
X0267480Y0428955D01*
X0267507Y0428918D02*
X0272639Y0428918D01*
X0272612Y0428880D02*
X0267533Y0428880D01*
X0267560Y0428842D02*
X0272586Y0428842D01*
X0272559Y0428804D02*
X0267586Y0428804D01*
X0267619Y0428766D02*
X0272527Y0428766D01*
X0272489Y0428728D02*
X0267657Y0428728D01*
X0267694Y0428690D02*
X0272451Y0428690D01*
X0272413Y0428652D02*
X0267732Y0428652D01*
X0267770Y0428615D02*
X0272376Y0428615D01*
X0272338Y0428577D02*
X0267808Y0428577D01*
X0267846Y0428539D02*
X0272300Y0428539D01*
X0272262Y0428501D02*
X0267884Y0428501D01*
X0267922Y0428463D02*
X0272224Y0428463D01*
X0272186Y0428425D02*
X0267960Y0428425D01*
X0267997Y0428387D02*
X0272148Y0428387D01*
X0272094Y0428349D02*
X0268052Y0428349D01*
X0268106Y0428311D02*
X0272040Y0428311D01*
X0271986Y0428274D02*
X0268160Y0428274D01*
X0268214Y0428236D02*
X0271932Y0428236D01*
X0271878Y0428198D02*
X0268268Y0428198D01*
X0268322Y0428160D02*
X0271823Y0428160D01*
X0271769Y0428122D02*
X0268377Y0428122D01*
X0268431Y0428084D02*
X0271715Y0428084D01*
X0271648Y0428046D02*
X0268498Y0428046D01*
X0268579Y0428008D02*
X0271567Y0428008D01*
X0271485Y0427971D02*
X0268660Y0427971D01*
X0268742Y0427933D02*
X0271404Y0427933D01*
X0271323Y0427895D02*
X0268823Y0427895D01*
X0268904Y0427857D02*
X0271242Y0427857D01*
X0271148Y0427819D02*
X0268998Y0427819D01*
X0269139Y0427781D02*
X0271007Y0427781D01*
X0270865Y0427743D02*
X0269280Y0427743D01*
X0269422Y0427705D02*
X0270724Y0427705D01*
X0270478Y0427667D02*
X0269668Y0427667D01*
X0277039Y0429756D02*
X0277277Y0429246D01*
X0277600Y0428785D01*
X0277998Y0428387D01*
X0278459Y0428065D01*
X0278969Y0427827D01*
X0279512Y0427681D01*
X0280073Y0427632D01*
X0280633Y0427681D01*
X0281177Y0427827D01*
X0281687Y0428065D01*
X0282148Y0428387D01*
X0282546Y0428785D01*
X0282869Y0429246D01*
X0283106Y0429756D01*
X0283252Y0430300D01*
X0283301Y0430860D01*
X0283252Y0431421D01*
X0283106Y0431965D01*
X0282869Y0432474D01*
X0282546Y0432935D01*
X0282148Y0433333D01*
X0281687Y0433656D01*
X0281177Y0433894D01*
X0280633Y0434039D01*
X0280073Y0434089D01*
X0279512Y0434039D01*
X0278969Y0433894D01*
X0278459Y0433656D01*
X0277998Y0433333D01*
X0277600Y0432935D01*
X0277277Y0432474D01*
X0277039Y0431965D01*
X0276894Y0431421D01*
X0276845Y0430860D01*
X0276894Y0430300D01*
X0277039Y0429756D01*
X0277042Y0429751D02*
X0283104Y0429751D01*
X0283115Y0429789D02*
X0277031Y0429789D01*
X0277020Y0429827D02*
X0283125Y0429827D01*
X0283135Y0429865D02*
X0277010Y0429865D01*
X0277000Y0429902D02*
X0283146Y0429902D01*
X0283156Y0429940D02*
X0276990Y0429940D01*
X0276980Y0429978D02*
X0283166Y0429978D01*
X0283176Y0430016D02*
X0276970Y0430016D01*
X0276960Y0430054D02*
X0283186Y0430054D01*
X0283196Y0430092D02*
X0276949Y0430092D01*
X0276939Y0430130D02*
X0283206Y0430130D01*
X0283217Y0430168D02*
X0276929Y0430168D01*
X0276919Y0430206D02*
X0283227Y0430206D01*
X0283237Y0430243D02*
X0276909Y0430243D01*
X0276899Y0430281D02*
X0283247Y0430281D01*
X0283254Y0430319D02*
X0276892Y0430319D01*
X0276889Y0430357D02*
X0283257Y0430357D01*
X0283260Y0430395D02*
X0276885Y0430395D01*
X0276882Y0430433D02*
X0283264Y0430433D01*
X0283267Y0430471D02*
X0276879Y0430471D01*
X0276875Y0430509D02*
X0283270Y0430509D01*
X0283274Y0430546D02*
X0276872Y0430546D01*
X0276869Y0430584D02*
X0283277Y0430584D01*
X0283280Y0430622D02*
X0276865Y0430622D01*
X0276862Y0430660D02*
X0283284Y0430660D01*
X0283287Y0430698D02*
X0276859Y0430698D01*
X0276855Y0430736D02*
X0283290Y0430736D01*
X0283294Y0430774D02*
X0276852Y0430774D01*
X0276849Y0430812D02*
X0283297Y0430812D01*
X0283300Y0430850D02*
X0276845Y0430850D01*
X0276847Y0430887D02*
X0283299Y0430887D01*
X0283295Y0430925D02*
X0276850Y0430925D01*
X0276854Y0430963D02*
X0283292Y0430963D01*
X0283289Y0431001D02*
X0276857Y0431001D01*
X0276860Y0431039D02*
X0283286Y0431039D01*
X0283282Y0431077D02*
X0276864Y0431077D01*
X0276867Y0431115D02*
X0283279Y0431115D01*
X0283276Y0431153D02*
X0276870Y0431153D01*
X0276873Y0431190D02*
X0283272Y0431190D01*
X0283269Y0431228D02*
X0276877Y0431228D01*
X0276880Y0431266D02*
X0283266Y0431266D01*
X0283262Y0431304D02*
X0276883Y0431304D01*
X0276887Y0431342D02*
X0283259Y0431342D01*
X0283256Y0431380D02*
X0276890Y0431380D01*
X0276893Y0431418D02*
X0283252Y0431418D01*
X0283243Y0431456D02*
X0276903Y0431456D01*
X0276913Y0431494D02*
X0283233Y0431494D01*
X0283222Y0431531D02*
X0276923Y0431531D01*
X0276933Y0431569D02*
X0283212Y0431569D01*
X0283202Y0431607D02*
X0276944Y0431607D01*
X0276954Y0431645D02*
X0283192Y0431645D01*
X0283182Y0431683D02*
X0276964Y0431683D01*
X0276974Y0431721D02*
X0283172Y0431721D01*
X0283161Y0431759D02*
X0276984Y0431759D01*
X0276994Y0431797D02*
X0283151Y0431797D01*
X0283141Y0431834D02*
X0277005Y0431834D01*
X0277015Y0431872D02*
X0283131Y0431872D01*
X0283121Y0431910D02*
X0277025Y0431910D01*
X0277035Y0431948D02*
X0283111Y0431948D01*
X0283096Y0431986D02*
X0277049Y0431986D01*
X0277067Y0432024D02*
X0283079Y0432024D01*
X0283061Y0432062D02*
X0277085Y0432062D01*
X0277102Y0432100D02*
X0283043Y0432100D01*
X0283026Y0432137D02*
X0277120Y0432137D01*
X0277138Y0432175D02*
X0283008Y0432175D01*
X0282990Y0432213D02*
X0277155Y0432213D01*
X0277173Y0432251D02*
X0282973Y0432251D01*
X0282955Y0432289D02*
X0277191Y0432289D01*
X0277208Y0432327D02*
X0282937Y0432327D01*
X0282920Y0432365D02*
X0277226Y0432365D01*
X0277244Y0432403D02*
X0282902Y0432403D01*
X0282884Y0432441D02*
X0277261Y0432441D01*
X0277280Y0432478D02*
X0282866Y0432478D01*
X0282839Y0432516D02*
X0277306Y0432516D01*
X0277333Y0432554D02*
X0282813Y0432554D01*
X0282786Y0432592D02*
X0277359Y0432592D01*
X0277386Y0432630D02*
X0282760Y0432630D01*
X0282733Y0432668D02*
X0277412Y0432668D01*
X0277439Y0432706D02*
X0282707Y0432706D01*
X0282680Y0432744D02*
X0277465Y0432744D01*
X0277492Y0432781D02*
X0282654Y0432781D01*
X0282627Y0432819D02*
X0277518Y0432819D01*
X0277545Y0432857D02*
X0282601Y0432857D01*
X0282574Y0432895D02*
X0277571Y0432895D01*
X0277598Y0432933D02*
X0282548Y0432933D01*
X0282511Y0432971D02*
X0277635Y0432971D01*
X0277673Y0433009D02*
X0282473Y0433009D01*
X0282435Y0433047D02*
X0277711Y0433047D01*
X0277749Y0433085D02*
X0282397Y0433085D01*
X0282359Y0433122D02*
X0277787Y0433122D01*
X0277824Y0433160D02*
X0282321Y0433160D01*
X0282283Y0433198D02*
X0277862Y0433198D01*
X0277900Y0433236D02*
X0282245Y0433236D01*
X0282208Y0433274D02*
X0277938Y0433274D01*
X0277976Y0433312D02*
X0282170Y0433312D01*
X0282125Y0433350D02*
X0278021Y0433350D01*
X0278075Y0433388D02*
X0282071Y0433388D01*
X0282017Y0433425D02*
X0278129Y0433425D01*
X0278183Y0433463D02*
X0281962Y0433463D01*
X0281908Y0433501D02*
X0278238Y0433501D01*
X0278292Y0433539D02*
X0281854Y0433539D01*
X0281800Y0433577D02*
X0278346Y0433577D01*
X0278400Y0433615D02*
X0281746Y0433615D01*
X0281692Y0433653D02*
X0278454Y0433653D01*
X0278533Y0433691D02*
X0281613Y0433691D01*
X0281531Y0433729D02*
X0278614Y0433729D01*
X0278696Y0433766D02*
X0281450Y0433766D01*
X0281369Y0433804D02*
X0278777Y0433804D01*
X0278858Y0433842D02*
X0281288Y0433842D01*
X0281207Y0433880D02*
X0278939Y0433880D01*
X0279059Y0433918D02*
X0281087Y0433918D01*
X0280945Y0433956D02*
X0279200Y0433956D01*
X0279342Y0433994D02*
X0280804Y0433994D01*
X0280663Y0434032D02*
X0279483Y0434032D01*
X0279855Y0434069D02*
X0280291Y0434069D01*
X0283086Y0429713D02*
X0277059Y0429713D01*
X0277077Y0429675D02*
X0283069Y0429675D01*
X0283051Y0429637D02*
X0277095Y0429637D01*
X0277112Y0429599D02*
X0283033Y0429599D01*
X0283016Y0429562D02*
X0277130Y0429562D01*
X0277148Y0429524D02*
X0282998Y0429524D01*
X0282980Y0429486D02*
X0277165Y0429486D01*
X0277183Y0429448D02*
X0282963Y0429448D01*
X0282945Y0429410D02*
X0277201Y0429410D01*
X0277218Y0429372D02*
X0282927Y0429372D01*
X0282910Y0429334D02*
X0277236Y0429334D01*
X0277254Y0429296D02*
X0282892Y0429296D01*
X0282874Y0429259D02*
X0277271Y0429259D01*
X0277295Y0429221D02*
X0282851Y0429221D01*
X0282824Y0429183D02*
X0277321Y0429183D01*
X0277348Y0429145D02*
X0282798Y0429145D01*
X0282771Y0429107D02*
X0277374Y0429107D01*
X0277401Y0429069D02*
X0282745Y0429069D01*
X0282718Y0429031D02*
X0277427Y0429031D01*
X0277454Y0428993D02*
X0282692Y0428993D01*
X0282665Y0428955D02*
X0277480Y0428955D01*
X0277507Y0428918D02*
X0282639Y0428918D01*
X0282612Y0428880D02*
X0277533Y0428880D01*
X0277560Y0428842D02*
X0282586Y0428842D01*
X0282559Y0428804D02*
X0277586Y0428804D01*
X0277619Y0428766D02*
X0282527Y0428766D01*
X0282489Y0428728D02*
X0277657Y0428728D01*
X0277694Y0428690D02*
X0282451Y0428690D01*
X0282413Y0428652D02*
X0277732Y0428652D01*
X0277770Y0428615D02*
X0282376Y0428615D01*
X0282338Y0428577D02*
X0277808Y0428577D01*
X0277846Y0428539D02*
X0282300Y0428539D01*
X0282262Y0428501D02*
X0277884Y0428501D01*
X0277922Y0428463D02*
X0282224Y0428463D01*
X0282186Y0428425D02*
X0277960Y0428425D01*
X0277997Y0428387D02*
X0282148Y0428387D01*
X0282094Y0428349D02*
X0278052Y0428349D01*
X0278106Y0428311D02*
X0282040Y0428311D01*
X0281986Y0428274D02*
X0278160Y0428274D01*
X0278214Y0428236D02*
X0281932Y0428236D01*
X0281878Y0428198D02*
X0278268Y0428198D01*
X0278322Y0428160D02*
X0281823Y0428160D01*
X0281769Y0428122D02*
X0278377Y0428122D01*
X0278431Y0428084D02*
X0281715Y0428084D01*
X0281648Y0428046D02*
X0278498Y0428046D01*
X0278579Y0428008D02*
X0281567Y0428008D01*
X0281485Y0427971D02*
X0278660Y0427971D01*
X0278742Y0427933D02*
X0281404Y0427933D01*
X0281323Y0427895D02*
X0278823Y0427895D01*
X0278904Y0427857D02*
X0281242Y0427857D01*
X0281148Y0427819D02*
X0278998Y0427819D01*
X0279139Y0427781D02*
X0281007Y0427781D01*
X0280865Y0427743D02*
X0279280Y0427743D01*
X0279422Y0427705D02*
X0280724Y0427705D01*
X0280478Y0427667D02*
X0279668Y0427667D01*
X0287039Y0429756D02*
X0287277Y0429246D01*
X0287600Y0428785D01*
X0287998Y0428387D01*
X0288459Y0428065D01*
X0288969Y0427827D01*
X0289512Y0427681D01*
X0290073Y0427632D01*
X0290633Y0427681D01*
X0291177Y0427827D01*
X0291687Y0428065D01*
X0292148Y0428387D01*
X0292546Y0428785D01*
X0292869Y0429246D01*
X0293106Y0429756D01*
X0293252Y0430300D01*
X0293301Y0430860D01*
X0293252Y0431421D01*
X0293106Y0431965D01*
X0292869Y0432474D01*
X0292546Y0432935D01*
X0292148Y0433333D01*
X0291687Y0433656D01*
X0291177Y0433894D01*
X0290633Y0434039D01*
X0290073Y0434089D01*
X0289512Y0434039D01*
X0288969Y0433894D01*
X0288459Y0433656D01*
X0287998Y0433333D01*
X0287600Y0432935D01*
X0287277Y0432474D01*
X0287039Y0431965D01*
X0286894Y0431421D01*
X0286845Y0430860D01*
X0286894Y0430300D01*
X0287039Y0429756D01*
X0287042Y0429751D02*
X0293104Y0429751D01*
X0293115Y0429789D02*
X0287031Y0429789D01*
X0287020Y0429827D02*
X0293125Y0429827D01*
X0293135Y0429865D02*
X0287010Y0429865D01*
X0287000Y0429902D02*
X0293146Y0429902D01*
X0293156Y0429940D02*
X0286990Y0429940D01*
X0286980Y0429978D02*
X0293166Y0429978D01*
X0293176Y0430016D02*
X0286970Y0430016D01*
X0286960Y0430054D02*
X0293186Y0430054D01*
X0293196Y0430092D02*
X0286949Y0430092D01*
X0286939Y0430130D02*
X0293206Y0430130D01*
X0293217Y0430168D02*
X0286929Y0430168D01*
X0286919Y0430206D02*
X0293227Y0430206D01*
X0293237Y0430243D02*
X0286909Y0430243D01*
X0286899Y0430281D02*
X0293247Y0430281D01*
X0293254Y0430319D02*
X0286892Y0430319D01*
X0286889Y0430357D02*
X0293257Y0430357D01*
X0293260Y0430395D02*
X0286885Y0430395D01*
X0286882Y0430433D02*
X0293264Y0430433D01*
X0293267Y0430471D02*
X0286879Y0430471D01*
X0286875Y0430509D02*
X0293270Y0430509D01*
X0293274Y0430546D02*
X0286872Y0430546D01*
X0286869Y0430584D02*
X0293277Y0430584D01*
X0293280Y0430622D02*
X0286865Y0430622D01*
X0286862Y0430660D02*
X0293284Y0430660D01*
X0293287Y0430698D02*
X0286859Y0430698D01*
X0286855Y0430736D02*
X0293290Y0430736D01*
X0293294Y0430774D02*
X0286852Y0430774D01*
X0286849Y0430812D02*
X0293297Y0430812D01*
X0293300Y0430850D02*
X0286845Y0430850D01*
X0286847Y0430887D02*
X0293299Y0430887D01*
X0293295Y0430925D02*
X0286850Y0430925D01*
X0286854Y0430963D02*
X0293292Y0430963D01*
X0293289Y0431001D02*
X0286857Y0431001D01*
X0286860Y0431039D02*
X0293286Y0431039D01*
X0293282Y0431077D02*
X0286864Y0431077D01*
X0286867Y0431115D02*
X0293279Y0431115D01*
X0293276Y0431153D02*
X0286870Y0431153D01*
X0286873Y0431190D02*
X0293272Y0431190D01*
X0293269Y0431228D02*
X0286877Y0431228D01*
X0286880Y0431266D02*
X0293266Y0431266D01*
X0293262Y0431304D02*
X0286883Y0431304D01*
X0286887Y0431342D02*
X0293259Y0431342D01*
X0293256Y0431380D02*
X0286890Y0431380D01*
X0286893Y0431418D02*
X0293252Y0431418D01*
X0293243Y0431456D02*
X0286903Y0431456D01*
X0286913Y0431494D02*
X0293233Y0431494D01*
X0293222Y0431531D02*
X0286923Y0431531D01*
X0286933Y0431569D02*
X0293212Y0431569D01*
X0293202Y0431607D02*
X0286944Y0431607D01*
X0286954Y0431645D02*
X0293192Y0431645D01*
X0293182Y0431683D02*
X0286964Y0431683D01*
X0286974Y0431721D02*
X0293172Y0431721D01*
X0293161Y0431759D02*
X0286984Y0431759D01*
X0286994Y0431797D02*
X0293151Y0431797D01*
X0293141Y0431834D02*
X0287005Y0431834D01*
X0287015Y0431872D02*
X0293131Y0431872D01*
X0293121Y0431910D02*
X0287025Y0431910D01*
X0287035Y0431948D02*
X0293111Y0431948D01*
X0293096Y0431986D02*
X0287049Y0431986D01*
X0287067Y0432024D02*
X0293079Y0432024D01*
X0293061Y0432062D02*
X0287085Y0432062D01*
X0287102Y0432100D02*
X0293043Y0432100D01*
X0293026Y0432137D02*
X0287120Y0432137D01*
X0287138Y0432175D02*
X0293008Y0432175D01*
X0292990Y0432213D02*
X0287155Y0432213D01*
X0287173Y0432251D02*
X0292973Y0432251D01*
X0292955Y0432289D02*
X0287191Y0432289D01*
X0287208Y0432327D02*
X0292937Y0432327D01*
X0292920Y0432365D02*
X0287226Y0432365D01*
X0287244Y0432403D02*
X0292902Y0432403D01*
X0292884Y0432441D02*
X0287261Y0432441D01*
X0287280Y0432478D02*
X0292866Y0432478D01*
X0292839Y0432516D02*
X0287306Y0432516D01*
X0287333Y0432554D02*
X0292813Y0432554D01*
X0292786Y0432592D02*
X0287359Y0432592D01*
X0287386Y0432630D02*
X0292760Y0432630D01*
X0292733Y0432668D02*
X0287412Y0432668D01*
X0287439Y0432706D02*
X0292707Y0432706D01*
X0292680Y0432744D02*
X0287465Y0432744D01*
X0287492Y0432781D02*
X0292654Y0432781D01*
X0292627Y0432819D02*
X0287518Y0432819D01*
X0287545Y0432857D02*
X0292601Y0432857D01*
X0292574Y0432895D02*
X0287571Y0432895D01*
X0287598Y0432933D02*
X0292548Y0432933D01*
X0292511Y0432971D02*
X0287635Y0432971D01*
X0287673Y0433009D02*
X0292473Y0433009D01*
X0292435Y0433047D02*
X0287711Y0433047D01*
X0287749Y0433085D02*
X0292397Y0433085D01*
X0292359Y0433122D02*
X0287787Y0433122D01*
X0287824Y0433160D02*
X0292321Y0433160D01*
X0292283Y0433198D02*
X0287862Y0433198D01*
X0287900Y0433236D02*
X0292245Y0433236D01*
X0292208Y0433274D02*
X0287938Y0433274D01*
X0287976Y0433312D02*
X0292170Y0433312D01*
X0292125Y0433350D02*
X0288021Y0433350D01*
X0288075Y0433388D02*
X0292071Y0433388D01*
X0292017Y0433425D02*
X0288129Y0433425D01*
X0288183Y0433463D02*
X0291962Y0433463D01*
X0291908Y0433501D02*
X0288238Y0433501D01*
X0288292Y0433539D02*
X0291854Y0433539D01*
X0291800Y0433577D02*
X0288346Y0433577D01*
X0288400Y0433615D02*
X0291746Y0433615D01*
X0291692Y0433653D02*
X0288454Y0433653D01*
X0288533Y0433691D02*
X0291613Y0433691D01*
X0291531Y0433729D02*
X0288614Y0433729D01*
X0288696Y0433766D02*
X0291450Y0433766D01*
X0291369Y0433804D02*
X0288777Y0433804D01*
X0288858Y0433842D02*
X0291288Y0433842D01*
X0291207Y0433880D02*
X0288939Y0433880D01*
X0289059Y0433918D02*
X0291087Y0433918D01*
X0290945Y0433956D02*
X0289200Y0433956D01*
X0289342Y0433994D02*
X0290804Y0433994D01*
X0290663Y0434032D02*
X0289483Y0434032D01*
X0289855Y0434069D02*
X0290291Y0434069D01*
X0293086Y0429713D02*
X0287059Y0429713D01*
X0287077Y0429675D02*
X0293069Y0429675D01*
X0293051Y0429637D02*
X0287095Y0429637D01*
X0287112Y0429599D02*
X0293033Y0429599D01*
X0293016Y0429562D02*
X0287130Y0429562D01*
X0287148Y0429524D02*
X0292998Y0429524D01*
X0292980Y0429486D02*
X0287165Y0429486D01*
X0287183Y0429448D02*
X0292963Y0429448D01*
X0292945Y0429410D02*
X0287201Y0429410D01*
X0287218Y0429372D02*
X0292927Y0429372D01*
X0292910Y0429334D02*
X0287236Y0429334D01*
X0287254Y0429296D02*
X0292892Y0429296D01*
X0292874Y0429259D02*
X0287271Y0429259D01*
X0287295Y0429221D02*
X0292851Y0429221D01*
X0292824Y0429183D02*
X0287321Y0429183D01*
X0287348Y0429145D02*
X0292798Y0429145D01*
X0292771Y0429107D02*
X0287374Y0429107D01*
X0287401Y0429069D02*
X0292745Y0429069D01*
X0292718Y0429031D02*
X0287427Y0429031D01*
X0287454Y0428993D02*
X0292692Y0428993D01*
X0292665Y0428955D02*
X0287480Y0428955D01*
X0287507Y0428918D02*
X0292639Y0428918D01*
X0292612Y0428880D02*
X0287533Y0428880D01*
X0287560Y0428842D02*
X0292586Y0428842D01*
X0292559Y0428804D02*
X0287586Y0428804D01*
X0287619Y0428766D02*
X0292527Y0428766D01*
X0292489Y0428728D02*
X0287657Y0428728D01*
X0287694Y0428690D02*
X0292451Y0428690D01*
X0292413Y0428652D02*
X0287732Y0428652D01*
X0287770Y0428615D02*
X0292376Y0428615D01*
X0292338Y0428577D02*
X0287808Y0428577D01*
X0287846Y0428539D02*
X0292300Y0428539D01*
X0292262Y0428501D02*
X0287884Y0428501D01*
X0287922Y0428463D02*
X0292224Y0428463D01*
X0292186Y0428425D02*
X0287960Y0428425D01*
X0287997Y0428387D02*
X0292148Y0428387D01*
X0292094Y0428349D02*
X0288052Y0428349D01*
X0288106Y0428311D02*
X0292040Y0428311D01*
X0291986Y0428274D02*
X0288160Y0428274D01*
X0288214Y0428236D02*
X0291932Y0428236D01*
X0291878Y0428198D02*
X0288268Y0428198D01*
X0288322Y0428160D02*
X0291823Y0428160D01*
X0291769Y0428122D02*
X0288377Y0428122D01*
X0288431Y0428084D02*
X0291715Y0428084D01*
X0291648Y0428046D02*
X0288498Y0428046D01*
X0288579Y0428008D02*
X0291567Y0428008D01*
X0291485Y0427971D02*
X0288660Y0427971D01*
X0288742Y0427933D02*
X0291404Y0427933D01*
X0291323Y0427895D02*
X0288823Y0427895D01*
X0288904Y0427857D02*
X0291242Y0427857D01*
X0291148Y0427819D02*
X0288998Y0427819D01*
X0289139Y0427781D02*
X0291007Y0427781D01*
X0290865Y0427743D02*
X0289280Y0427743D01*
X0289422Y0427705D02*
X0290724Y0427705D01*
X0290478Y0427667D02*
X0289668Y0427667D01*
X0297039Y0429756D02*
X0297277Y0429246D01*
X0297600Y0428785D01*
X0297998Y0428387D01*
X0298459Y0428065D01*
X0298969Y0427827D01*
X0299512Y0427681D01*
X0300073Y0427632D01*
X0300633Y0427681D01*
X0301177Y0427827D01*
X0301687Y0428065D01*
X0302148Y0428387D01*
X0302546Y0428785D01*
X0302869Y0429246D01*
X0303106Y0429756D01*
X0303252Y0430300D01*
X0303301Y0430860D01*
X0303252Y0431421D01*
X0303106Y0431965D01*
X0302869Y0432474D01*
X0302546Y0432935D01*
X0302148Y0433333D01*
X0301687Y0433656D01*
X0301177Y0433894D01*
X0300633Y0434039D01*
X0300073Y0434089D01*
X0299512Y0434039D01*
X0298969Y0433894D01*
X0298459Y0433656D01*
X0297998Y0433333D01*
X0297600Y0432935D01*
X0297277Y0432474D01*
X0297039Y0431965D01*
X0296894Y0431421D01*
X0296845Y0430860D01*
X0296894Y0430300D01*
X0297039Y0429756D01*
X0297042Y0429751D02*
X0303104Y0429751D01*
X0303115Y0429789D02*
X0297031Y0429789D01*
X0297020Y0429827D02*
X0303125Y0429827D01*
X0303135Y0429865D02*
X0297010Y0429865D01*
X0297000Y0429902D02*
X0303146Y0429902D01*
X0303156Y0429940D02*
X0296990Y0429940D01*
X0296980Y0429978D02*
X0303166Y0429978D01*
X0303176Y0430016D02*
X0296970Y0430016D01*
X0296960Y0430054D02*
X0303186Y0430054D01*
X0303196Y0430092D02*
X0296949Y0430092D01*
X0296939Y0430130D02*
X0303206Y0430130D01*
X0303217Y0430168D02*
X0296929Y0430168D01*
X0296919Y0430206D02*
X0303227Y0430206D01*
X0303237Y0430243D02*
X0296909Y0430243D01*
X0296899Y0430281D02*
X0303247Y0430281D01*
X0303254Y0430319D02*
X0296892Y0430319D01*
X0296889Y0430357D02*
X0303257Y0430357D01*
X0303260Y0430395D02*
X0296885Y0430395D01*
X0296882Y0430433D02*
X0303264Y0430433D01*
X0303267Y0430471D02*
X0296879Y0430471D01*
X0296875Y0430509D02*
X0303270Y0430509D01*
X0303274Y0430546D02*
X0296872Y0430546D01*
X0296869Y0430584D02*
X0303277Y0430584D01*
X0303280Y0430622D02*
X0296865Y0430622D01*
X0296862Y0430660D02*
X0303284Y0430660D01*
X0303287Y0430698D02*
X0296859Y0430698D01*
X0296855Y0430736D02*
X0303290Y0430736D01*
X0303294Y0430774D02*
X0296852Y0430774D01*
X0296849Y0430812D02*
X0303297Y0430812D01*
X0303300Y0430850D02*
X0296845Y0430850D01*
X0296847Y0430887D02*
X0303299Y0430887D01*
X0303295Y0430925D02*
X0296850Y0430925D01*
X0296854Y0430963D02*
X0303292Y0430963D01*
X0303289Y0431001D02*
X0296857Y0431001D01*
X0296860Y0431039D02*
X0303286Y0431039D01*
X0303282Y0431077D02*
X0296864Y0431077D01*
X0296867Y0431115D02*
X0303279Y0431115D01*
X0303276Y0431153D02*
X0296870Y0431153D01*
X0296873Y0431190D02*
X0303272Y0431190D01*
X0303269Y0431228D02*
X0296877Y0431228D01*
X0296880Y0431266D02*
X0303266Y0431266D01*
X0303262Y0431304D02*
X0296883Y0431304D01*
X0296887Y0431342D02*
X0303259Y0431342D01*
X0303256Y0431380D02*
X0296890Y0431380D01*
X0296893Y0431418D02*
X0303252Y0431418D01*
X0303243Y0431456D02*
X0296903Y0431456D01*
X0296913Y0431494D02*
X0303233Y0431494D01*
X0303222Y0431531D02*
X0296923Y0431531D01*
X0296933Y0431569D02*
X0303212Y0431569D01*
X0303202Y0431607D02*
X0296944Y0431607D01*
X0296954Y0431645D02*
X0303192Y0431645D01*
X0303182Y0431683D02*
X0296964Y0431683D01*
X0296974Y0431721D02*
X0303172Y0431721D01*
X0303161Y0431759D02*
X0296984Y0431759D01*
X0296994Y0431797D02*
X0303151Y0431797D01*
X0303141Y0431834D02*
X0297005Y0431834D01*
X0297015Y0431872D02*
X0303131Y0431872D01*
X0303121Y0431910D02*
X0297025Y0431910D01*
X0297035Y0431948D02*
X0303111Y0431948D01*
X0303096Y0431986D02*
X0297049Y0431986D01*
X0297067Y0432024D02*
X0303079Y0432024D01*
X0303061Y0432062D02*
X0297085Y0432062D01*
X0297102Y0432100D02*
X0303043Y0432100D01*
X0303026Y0432137D02*
X0297120Y0432137D01*
X0297138Y0432175D02*
X0303008Y0432175D01*
X0302990Y0432213D02*
X0297155Y0432213D01*
X0297173Y0432251D02*
X0302973Y0432251D01*
X0302955Y0432289D02*
X0297191Y0432289D01*
X0297208Y0432327D02*
X0302937Y0432327D01*
X0302920Y0432365D02*
X0297226Y0432365D01*
X0297244Y0432403D02*
X0302902Y0432403D01*
X0302884Y0432441D02*
X0297261Y0432441D01*
X0297280Y0432478D02*
X0302866Y0432478D01*
X0302839Y0432516D02*
X0297306Y0432516D01*
X0297333Y0432554D02*
X0302813Y0432554D01*
X0302786Y0432592D02*
X0297359Y0432592D01*
X0297386Y0432630D02*
X0302760Y0432630D01*
X0302733Y0432668D02*
X0297412Y0432668D01*
X0297439Y0432706D02*
X0302707Y0432706D01*
X0302680Y0432744D02*
X0297465Y0432744D01*
X0297492Y0432781D02*
X0302654Y0432781D01*
X0302627Y0432819D02*
X0297518Y0432819D01*
X0297545Y0432857D02*
X0302601Y0432857D01*
X0302574Y0432895D02*
X0297571Y0432895D01*
X0297598Y0432933D02*
X0302548Y0432933D01*
X0302511Y0432971D02*
X0297635Y0432971D01*
X0297673Y0433009D02*
X0302473Y0433009D01*
X0302435Y0433047D02*
X0297711Y0433047D01*
X0297749Y0433085D02*
X0302397Y0433085D01*
X0302359Y0433122D02*
X0297787Y0433122D01*
X0297824Y0433160D02*
X0302321Y0433160D01*
X0302283Y0433198D02*
X0297862Y0433198D01*
X0297900Y0433236D02*
X0302245Y0433236D01*
X0302208Y0433274D02*
X0297938Y0433274D01*
X0297976Y0433312D02*
X0302170Y0433312D01*
X0302125Y0433350D02*
X0298021Y0433350D01*
X0298075Y0433388D02*
X0302071Y0433388D01*
X0302017Y0433425D02*
X0298129Y0433425D01*
X0298183Y0433463D02*
X0301962Y0433463D01*
X0301908Y0433501D02*
X0298238Y0433501D01*
X0298292Y0433539D02*
X0301854Y0433539D01*
X0301800Y0433577D02*
X0298346Y0433577D01*
X0298400Y0433615D02*
X0301746Y0433615D01*
X0301692Y0433653D02*
X0298454Y0433653D01*
X0298533Y0433691D02*
X0301613Y0433691D01*
X0301531Y0433729D02*
X0298614Y0433729D01*
X0298696Y0433766D02*
X0301450Y0433766D01*
X0301369Y0433804D02*
X0298777Y0433804D01*
X0298858Y0433842D02*
X0301288Y0433842D01*
X0301207Y0433880D02*
X0298939Y0433880D01*
X0299059Y0433918D02*
X0301087Y0433918D01*
X0300945Y0433956D02*
X0299200Y0433956D01*
X0299342Y0433994D02*
X0300804Y0433994D01*
X0300663Y0434032D02*
X0299483Y0434032D01*
X0299855Y0434069D02*
X0300291Y0434069D01*
X0303086Y0429713D02*
X0297059Y0429713D01*
X0297077Y0429675D02*
X0303069Y0429675D01*
X0303051Y0429637D02*
X0297095Y0429637D01*
X0297112Y0429599D02*
X0303033Y0429599D01*
X0303016Y0429562D02*
X0297130Y0429562D01*
X0297148Y0429524D02*
X0302998Y0429524D01*
X0302980Y0429486D02*
X0297165Y0429486D01*
X0297183Y0429448D02*
X0302963Y0429448D01*
X0302945Y0429410D02*
X0297201Y0429410D01*
X0297218Y0429372D02*
X0302927Y0429372D01*
X0302910Y0429334D02*
X0297236Y0429334D01*
X0297254Y0429296D02*
X0302892Y0429296D01*
X0302874Y0429259D02*
X0297271Y0429259D01*
X0297295Y0429221D02*
X0302851Y0429221D01*
X0302824Y0429183D02*
X0297321Y0429183D01*
X0297348Y0429145D02*
X0302798Y0429145D01*
X0302771Y0429107D02*
X0297374Y0429107D01*
X0297401Y0429069D02*
X0302745Y0429069D01*
X0302718Y0429031D02*
X0297427Y0429031D01*
X0297454Y0428993D02*
X0302692Y0428993D01*
X0302665Y0428955D02*
X0297480Y0428955D01*
X0297507Y0428918D02*
X0302639Y0428918D01*
X0302612Y0428880D02*
X0297533Y0428880D01*
X0297560Y0428842D02*
X0302586Y0428842D01*
X0302559Y0428804D02*
X0297586Y0428804D01*
X0297619Y0428766D02*
X0302527Y0428766D01*
X0302489Y0428728D02*
X0297657Y0428728D01*
X0297694Y0428690D02*
X0302451Y0428690D01*
X0302413Y0428652D02*
X0297732Y0428652D01*
X0297770Y0428615D02*
X0302376Y0428615D01*
X0302338Y0428577D02*
X0297808Y0428577D01*
X0297846Y0428539D02*
X0302300Y0428539D01*
X0302262Y0428501D02*
X0297884Y0428501D01*
X0297922Y0428463D02*
X0302224Y0428463D01*
X0302186Y0428425D02*
X0297960Y0428425D01*
X0297997Y0428387D02*
X0302148Y0428387D01*
X0302094Y0428349D02*
X0298052Y0428349D01*
X0298106Y0428311D02*
X0302040Y0428311D01*
X0301986Y0428274D02*
X0298160Y0428274D01*
X0298214Y0428236D02*
X0301932Y0428236D01*
X0301878Y0428198D02*
X0298268Y0428198D01*
X0298322Y0428160D02*
X0301823Y0428160D01*
X0301769Y0428122D02*
X0298377Y0428122D01*
X0298431Y0428084D02*
X0301715Y0428084D01*
X0301648Y0428046D02*
X0298498Y0428046D01*
X0298579Y0428008D02*
X0301567Y0428008D01*
X0301485Y0427971D02*
X0298660Y0427971D01*
X0298742Y0427933D02*
X0301404Y0427933D01*
X0301323Y0427895D02*
X0298823Y0427895D01*
X0298904Y0427857D02*
X0301242Y0427857D01*
X0301148Y0427819D02*
X0298998Y0427819D01*
X0299139Y0427781D02*
X0301007Y0427781D01*
X0300865Y0427743D02*
X0299280Y0427743D01*
X0299422Y0427705D02*
X0300724Y0427705D01*
X0300478Y0427667D02*
X0299668Y0427667D01*
X0307039Y0429756D02*
X0307277Y0429246D01*
X0307600Y0428785D01*
X0307998Y0428387D01*
X0308459Y0428065D01*
X0308969Y0427827D01*
X0309512Y0427681D01*
X0310073Y0427632D01*
X0310633Y0427681D01*
X0311177Y0427827D01*
X0311687Y0428065D01*
X0312148Y0428387D01*
X0312546Y0428785D01*
X0312869Y0429246D01*
X0313106Y0429756D01*
X0313252Y0430300D01*
X0313301Y0430860D01*
X0313252Y0431421D01*
X0313106Y0431965D01*
X0312869Y0432474D01*
X0312546Y0432935D01*
X0312148Y0433333D01*
X0311687Y0433656D01*
X0311177Y0433894D01*
X0310633Y0434039D01*
X0310073Y0434089D01*
X0309512Y0434039D01*
X0308969Y0433894D01*
X0308459Y0433656D01*
X0307998Y0433333D01*
X0307600Y0432935D01*
X0307277Y0432474D01*
X0307039Y0431965D01*
X0306894Y0431421D01*
X0306845Y0430860D01*
X0306894Y0430300D01*
X0307039Y0429756D01*
X0307042Y0429751D02*
X0313104Y0429751D01*
X0313115Y0429789D02*
X0307031Y0429789D01*
X0307020Y0429827D02*
X0313125Y0429827D01*
X0313135Y0429865D02*
X0307010Y0429865D01*
X0307000Y0429902D02*
X0313146Y0429902D01*
X0313156Y0429940D02*
X0306990Y0429940D01*
X0306980Y0429978D02*
X0313166Y0429978D01*
X0313176Y0430016D02*
X0306970Y0430016D01*
X0306960Y0430054D02*
X0313186Y0430054D01*
X0313196Y0430092D02*
X0306949Y0430092D01*
X0306939Y0430130D02*
X0313206Y0430130D01*
X0313217Y0430168D02*
X0306929Y0430168D01*
X0306919Y0430206D02*
X0313227Y0430206D01*
X0313237Y0430243D02*
X0306909Y0430243D01*
X0306899Y0430281D02*
X0313247Y0430281D01*
X0313254Y0430319D02*
X0306892Y0430319D01*
X0306889Y0430357D02*
X0313257Y0430357D01*
X0313260Y0430395D02*
X0306885Y0430395D01*
X0306882Y0430433D02*
X0313264Y0430433D01*
X0313267Y0430471D02*
X0306879Y0430471D01*
X0306875Y0430509D02*
X0313270Y0430509D01*
X0313274Y0430546D02*
X0306872Y0430546D01*
X0306869Y0430584D02*
X0313277Y0430584D01*
X0313280Y0430622D02*
X0306865Y0430622D01*
X0306862Y0430660D02*
X0313284Y0430660D01*
X0313287Y0430698D02*
X0306859Y0430698D01*
X0306855Y0430736D02*
X0313290Y0430736D01*
X0313294Y0430774D02*
X0306852Y0430774D01*
X0306849Y0430812D02*
X0313297Y0430812D01*
X0313300Y0430850D02*
X0306845Y0430850D01*
X0306847Y0430887D02*
X0313299Y0430887D01*
X0313295Y0430925D02*
X0306850Y0430925D01*
X0306854Y0430963D02*
X0313292Y0430963D01*
X0313289Y0431001D02*
X0306857Y0431001D01*
X0306860Y0431039D02*
X0313286Y0431039D01*
X0313282Y0431077D02*
X0306864Y0431077D01*
X0306867Y0431115D02*
X0313279Y0431115D01*
X0313276Y0431153D02*
X0306870Y0431153D01*
X0306873Y0431190D02*
X0313272Y0431190D01*
X0313269Y0431228D02*
X0306877Y0431228D01*
X0306880Y0431266D02*
X0313266Y0431266D01*
X0313262Y0431304D02*
X0306883Y0431304D01*
X0306887Y0431342D02*
X0313259Y0431342D01*
X0313256Y0431380D02*
X0306890Y0431380D01*
X0306893Y0431418D02*
X0313252Y0431418D01*
X0313243Y0431456D02*
X0306903Y0431456D01*
X0306913Y0431494D02*
X0313233Y0431494D01*
X0313222Y0431531D02*
X0306923Y0431531D01*
X0306933Y0431569D02*
X0313212Y0431569D01*
X0313202Y0431607D02*
X0306944Y0431607D01*
X0306954Y0431645D02*
X0313192Y0431645D01*
X0313182Y0431683D02*
X0306964Y0431683D01*
X0306974Y0431721D02*
X0313172Y0431721D01*
X0313161Y0431759D02*
X0306984Y0431759D01*
X0306994Y0431797D02*
X0313151Y0431797D01*
X0313141Y0431834D02*
X0307005Y0431834D01*
X0307015Y0431872D02*
X0313131Y0431872D01*
X0313121Y0431910D02*
X0307025Y0431910D01*
X0307035Y0431948D02*
X0313111Y0431948D01*
X0313096Y0431986D02*
X0307049Y0431986D01*
X0307067Y0432024D02*
X0313079Y0432024D01*
X0313061Y0432062D02*
X0307085Y0432062D01*
X0307102Y0432100D02*
X0313043Y0432100D01*
X0313026Y0432137D02*
X0307120Y0432137D01*
X0307138Y0432175D02*
X0313008Y0432175D01*
X0312990Y0432213D02*
X0307155Y0432213D01*
X0307173Y0432251D02*
X0312973Y0432251D01*
X0312955Y0432289D02*
X0307191Y0432289D01*
X0307208Y0432327D02*
X0312937Y0432327D01*
X0312920Y0432365D02*
X0307226Y0432365D01*
X0307244Y0432403D02*
X0312902Y0432403D01*
X0312884Y0432441D02*
X0307261Y0432441D01*
X0307280Y0432478D02*
X0312866Y0432478D01*
X0312839Y0432516D02*
X0307306Y0432516D01*
X0307333Y0432554D02*
X0312813Y0432554D01*
X0312786Y0432592D02*
X0307359Y0432592D01*
X0307386Y0432630D02*
X0312760Y0432630D01*
X0312733Y0432668D02*
X0307412Y0432668D01*
X0307439Y0432706D02*
X0312707Y0432706D01*
X0312680Y0432744D02*
X0307465Y0432744D01*
X0307492Y0432781D02*
X0312654Y0432781D01*
X0312627Y0432819D02*
X0307518Y0432819D01*
X0307545Y0432857D02*
X0312601Y0432857D01*
X0312574Y0432895D02*
X0307571Y0432895D01*
X0307598Y0432933D02*
X0312548Y0432933D01*
X0312511Y0432971D02*
X0307635Y0432971D01*
X0307673Y0433009D02*
X0312473Y0433009D01*
X0312435Y0433047D02*
X0307711Y0433047D01*
X0307749Y0433085D02*
X0312397Y0433085D01*
X0312359Y0433122D02*
X0307787Y0433122D01*
X0307824Y0433160D02*
X0312321Y0433160D01*
X0312283Y0433198D02*
X0307862Y0433198D01*
X0307900Y0433236D02*
X0312245Y0433236D01*
X0312208Y0433274D02*
X0307938Y0433274D01*
X0307976Y0433312D02*
X0312170Y0433312D01*
X0312125Y0433350D02*
X0308021Y0433350D01*
X0308075Y0433388D02*
X0312071Y0433388D01*
X0312017Y0433425D02*
X0308129Y0433425D01*
X0308183Y0433463D02*
X0311962Y0433463D01*
X0311908Y0433501D02*
X0308238Y0433501D01*
X0308292Y0433539D02*
X0311854Y0433539D01*
X0311800Y0433577D02*
X0308346Y0433577D01*
X0308400Y0433615D02*
X0311746Y0433615D01*
X0311692Y0433653D02*
X0308454Y0433653D01*
X0308533Y0433691D02*
X0311613Y0433691D01*
X0311531Y0433729D02*
X0308614Y0433729D01*
X0308696Y0433766D02*
X0311450Y0433766D01*
X0311369Y0433804D02*
X0308777Y0433804D01*
X0308858Y0433842D02*
X0311288Y0433842D01*
X0311207Y0433880D02*
X0308939Y0433880D01*
X0309059Y0433918D02*
X0311087Y0433918D01*
X0310945Y0433956D02*
X0309200Y0433956D01*
X0309342Y0433994D02*
X0310804Y0433994D01*
X0310663Y0434032D02*
X0309483Y0434032D01*
X0309855Y0434069D02*
X0310291Y0434069D01*
X0313086Y0429713D02*
X0307059Y0429713D01*
X0307077Y0429675D02*
X0313069Y0429675D01*
X0313051Y0429637D02*
X0307095Y0429637D01*
X0307112Y0429599D02*
X0313033Y0429599D01*
X0313016Y0429562D02*
X0307130Y0429562D01*
X0307148Y0429524D02*
X0312998Y0429524D01*
X0312980Y0429486D02*
X0307165Y0429486D01*
X0307183Y0429448D02*
X0312963Y0429448D01*
X0312945Y0429410D02*
X0307201Y0429410D01*
X0307218Y0429372D02*
X0312927Y0429372D01*
X0312910Y0429334D02*
X0307236Y0429334D01*
X0307254Y0429296D02*
X0312892Y0429296D01*
X0312874Y0429259D02*
X0307271Y0429259D01*
X0307295Y0429221D02*
X0312851Y0429221D01*
X0312824Y0429183D02*
X0307321Y0429183D01*
X0307348Y0429145D02*
X0312798Y0429145D01*
X0312771Y0429107D02*
X0307374Y0429107D01*
X0307401Y0429069D02*
X0312745Y0429069D01*
X0312718Y0429031D02*
X0307427Y0429031D01*
X0307454Y0428993D02*
X0312692Y0428993D01*
X0312665Y0428955D02*
X0307480Y0428955D01*
X0307507Y0428918D02*
X0312639Y0428918D01*
X0312612Y0428880D02*
X0307533Y0428880D01*
X0307560Y0428842D02*
X0312586Y0428842D01*
X0312559Y0428804D02*
X0307586Y0428804D01*
X0307619Y0428766D02*
X0312527Y0428766D01*
X0312489Y0428728D02*
X0307657Y0428728D01*
X0307694Y0428690D02*
X0312451Y0428690D01*
X0312413Y0428652D02*
X0307732Y0428652D01*
X0307770Y0428615D02*
X0312376Y0428615D01*
X0312338Y0428577D02*
X0307808Y0428577D01*
X0307846Y0428539D02*
X0312300Y0428539D01*
X0312262Y0428501D02*
X0307884Y0428501D01*
X0307922Y0428463D02*
X0312224Y0428463D01*
X0312186Y0428425D02*
X0307960Y0428425D01*
X0307997Y0428387D02*
X0312148Y0428387D01*
X0312094Y0428349D02*
X0308052Y0428349D01*
X0308106Y0428311D02*
X0312040Y0428311D01*
X0311986Y0428274D02*
X0308160Y0428274D01*
X0308214Y0428236D02*
X0311932Y0428236D01*
X0311878Y0428198D02*
X0308268Y0428198D01*
X0308322Y0428160D02*
X0311823Y0428160D01*
X0311769Y0428122D02*
X0308377Y0428122D01*
X0308431Y0428084D02*
X0311715Y0428084D01*
X0311648Y0428046D02*
X0308498Y0428046D01*
X0308579Y0428008D02*
X0311567Y0428008D01*
X0311485Y0427971D02*
X0308660Y0427971D01*
X0308742Y0427933D02*
X0311404Y0427933D01*
X0311323Y0427895D02*
X0308823Y0427895D01*
X0308904Y0427857D02*
X0311242Y0427857D01*
X0311148Y0427819D02*
X0308998Y0427819D01*
X0309139Y0427781D02*
X0311007Y0427781D01*
X0310865Y0427743D02*
X0309280Y0427743D01*
X0309422Y0427705D02*
X0310724Y0427705D01*
X0310478Y0427667D02*
X0309668Y0427667D01*
X0317039Y0429756D02*
X0317277Y0429246D01*
X0317600Y0428785D01*
X0317998Y0428387D01*
X0318459Y0428065D01*
X0318969Y0427827D01*
X0319512Y0427681D01*
X0320073Y0427632D01*
X0320633Y0427681D01*
X0321177Y0427827D01*
X0321687Y0428065D01*
X0322148Y0428387D01*
X0322546Y0428785D01*
X0322869Y0429246D01*
X0323106Y0429756D01*
X0323252Y0430300D01*
X0323301Y0430860D01*
X0323252Y0431421D01*
X0323106Y0431965D01*
X0322869Y0432474D01*
X0322546Y0432935D01*
X0322148Y0433333D01*
X0321687Y0433656D01*
X0321177Y0433894D01*
X0320633Y0434039D01*
X0320073Y0434089D01*
X0319512Y0434039D01*
X0318969Y0433894D01*
X0318459Y0433656D01*
X0317998Y0433333D01*
X0317600Y0432935D01*
X0317277Y0432474D01*
X0317039Y0431965D01*
X0316894Y0431421D01*
X0316845Y0430860D01*
X0316894Y0430300D01*
X0317039Y0429756D01*
X0317042Y0429751D02*
X0323104Y0429751D01*
X0323115Y0429789D02*
X0317031Y0429789D01*
X0317020Y0429827D02*
X0323125Y0429827D01*
X0323135Y0429865D02*
X0317010Y0429865D01*
X0317000Y0429902D02*
X0323146Y0429902D01*
X0323156Y0429940D02*
X0316990Y0429940D01*
X0316980Y0429978D02*
X0323166Y0429978D01*
X0323176Y0430016D02*
X0316970Y0430016D01*
X0316960Y0430054D02*
X0323186Y0430054D01*
X0323196Y0430092D02*
X0316949Y0430092D01*
X0316939Y0430130D02*
X0323206Y0430130D01*
X0323217Y0430168D02*
X0316929Y0430168D01*
X0316919Y0430206D02*
X0323227Y0430206D01*
X0323237Y0430243D02*
X0316909Y0430243D01*
X0316899Y0430281D02*
X0323247Y0430281D01*
X0323254Y0430319D02*
X0316892Y0430319D01*
X0316889Y0430357D02*
X0323257Y0430357D01*
X0323260Y0430395D02*
X0316885Y0430395D01*
X0316882Y0430433D02*
X0323264Y0430433D01*
X0323267Y0430471D02*
X0316879Y0430471D01*
X0316875Y0430509D02*
X0323270Y0430509D01*
X0323274Y0430546D02*
X0316872Y0430546D01*
X0316869Y0430584D02*
X0323277Y0430584D01*
X0323280Y0430622D02*
X0316865Y0430622D01*
X0316862Y0430660D02*
X0323284Y0430660D01*
X0323287Y0430698D02*
X0316859Y0430698D01*
X0316855Y0430736D02*
X0323290Y0430736D01*
X0323294Y0430774D02*
X0316852Y0430774D01*
X0316849Y0430812D02*
X0323297Y0430812D01*
X0323300Y0430850D02*
X0316845Y0430850D01*
X0316847Y0430887D02*
X0323299Y0430887D01*
X0323295Y0430925D02*
X0316850Y0430925D01*
X0316854Y0430963D02*
X0323292Y0430963D01*
X0323289Y0431001D02*
X0316857Y0431001D01*
X0316860Y0431039D02*
X0323286Y0431039D01*
X0323282Y0431077D02*
X0316864Y0431077D01*
X0316867Y0431115D02*
X0323279Y0431115D01*
X0323276Y0431153D02*
X0316870Y0431153D01*
X0316873Y0431190D02*
X0323272Y0431190D01*
X0323269Y0431228D02*
X0316877Y0431228D01*
X0316880Y0431266D02*
X0323266Y0431266D01*
X0323262Y0431304D02*
X0316883Y0431304D01*
X0316887Y0431342D02*
X0323259Y0431342D01*
X0323256Y0431380D02*
X0316890Y0431380D01*
X0316893Y0431418D02*
X0323252Y0431418D01*
X0323243Y0431456D02*
X0316903Y0431456D01*
X0316913Y0431494D02*
X0323233Y0431494D01*
X0323222Y0431531D02*
X0316923Y0431531D01*
X0316933Y0431569D02*
X0323212Y0431569D01*
X0323202Y0431607D02*
X0316944Y0431607D01*
X0316954Y0431645D02*
X0323192Y0431645D01*
X0323182Y0431683D02*
X0316964Y0431683D01*
X0316974Y0431721D02*
X0323172Y0431721D01*
X0323161Y0431759D02*
X0316984Y0431759D01*
X0316994Y0431797D02*
X0323151Y0431797D01*
X0323141Y0431834D02*
X0317005Y0431834D01*
X0317015Y0431872D02*
X0323131Y0431872D01*
X0323121Y0431910D02*
X0317025Y0431910D01*
X0317035Y0431948D02*
X0323111Y0431948D01*
X0323096Y0431986D02*
X0317049Y0431986D01*
X0317067Y0432024D02*
X0323079Y0432024D01*
X0323061Y0432062D02*
X0317085Y0432062D01*
X0317102Y0432100D02*
X0323043Y0432100D01*
X0323026Y0432137D02*
X0317120Y0432137D01*
X0317138Y0432175D02*
X0323008Y0432175D01*
X0322990Y0432213D02*
X0317155Y0432213D01*
X0317173Y0432251D02*
X0322973Y0432251D01*
X0322955Y0432289D02*
X0317191Y0432289D01*
X0317208Y0432327D02*
X0322937Y0432327D01*
X0322920Y0432365D02*
X0317226Y0432365D01*
X0317244Y0432403D02*
X0322902Y0432403D01*
X0322884Y0432441D02*
X0317261Y0432441D01*
X0317280Y0432478D02*
X0322866Y0432478D01*
X0322839Y0432516D02*
X0317306Y0432516D01*
X0317333Y0432554D02*
X0322813Y0432554D01*
X0322786Y0432592D02*
X0317359Y0432592D01*
X0317386Y0432630D02*
X0322760Y0432630D01*
X0322733Y0432668D02*
X0317412Y0432668D01*
X0317439Y0432706D02*
X0322707Y0432706D01*
X0322680Y0432744D02*
X0317465Y0432744D01*
X0317492Y0432781D02*
X0322654Y0432781D01*
X0322627Y0432819D02*
X0317518Y0432819D01*
X0317545Y0432857D02*
X0322601Y0432857D01*
X0322574Y0432895D02*
X0317571Y0432895D01*
X0317598Y0432933D02*
X0322548Y0432933D01*
X0322511Y0432971D02*
X0317635Y0432971D01*
X0317673Y0433009D02*
X0322473Y0433009D01*
X0322435Y0433047D02*
X0317711Y0433047D01*
X0317749Y0433085D02*
X0322397Y0433085D01*
X0322359Y0433122D02*
X0317787Y0433122D01*
X0317824Y0433160D02*
X0322321Y0433160D01*
X0322283Y0433198D02*
X0317862Y0433198D01*
X0317900Y0433236D02*
X0322245Y0433236D01*
X0322208Y0433274D02*
X0317938Y0433274D01*
X0317976Y0433312D02*
X0322170Y0433312D01*
X0322125Y0433350D02*
X0318021Y0433350D01*
X0318075Y0433388D02*
X0322071Y0433388D01*
X0322017Y0433425D02*
X0318129Y0433425D01*
X0318183Y0433463D02*
X0321962Y0433463D01*
X0321908Y0433501D02*
X0318238Y0433501D01*
X0318292Y0433539D02*
X0321854Y0433539D01*
X0321800Y0433577D02*
X0318346Y0433577D01*
X0318400Y0433615D02*
X0321746Y0433615D01*
X0321692Y0433653D02*
X0318454Y0433653D01*
X0318533Y0433691D02*
X0321613Y0433691D01*
X0321531Y0433729D02*
X0318614Y0433729D01*
X0318696Y0433766D02*
X0321450Y0433766D01*
X0321369Y0433804D02*
X0318777Y0433804D01*
X0318858Y0433842D02*
X0321288Y0433842D01*
X0321207Y0433880D02*
X0318939Y0433880D01*
X0319059Y0433918D02*
X0321087Y0433918D01*
X0320945Y0433956D02*
X0319200Y0433956D01*
X0319342Y0433994D02*
X0320804Y0433994D01*
X0320663Y0434032D02*
X0319483Y0434032D01*
X0319855Y0434069D02*
X0320291Y0434069D01*
X0323086Y0429713D02*
X0317059Y0429713D01*
X0317077Y0429675D02*
X0323069Y0429675D01*
X0323051Y0429637D02*
X0317095Y0429637D01*
X0317112Y0429599D02*
X0323033Y0429599D01*
X0323016Y0429562D02*
X0317130Y0429562D01*
X0317148Y0429524D02*
X0322998Y0429524D01*
X0322980Y0429486D02*
X0317165Y0429486D01*
X0317183Y0429448D02*
X0322963Y0429448D01*
X0322945Y0429410D02*
X0317201Y0429410D01*
X0317218Y0429372D02*
X0322927Y0429372D01*
X0322910Y0429334D02*
X0317236Y0429334D01*
X0317254Y0429296D02*
X0322892Y0429296D01*
X0322874Y0429259D02*
X0317271Y0429259D01*
X0317295Y0429221D02*
X0322851Y0429221D01*
X0322824Y0429183D02*
X0317321Y0429183D01*
X0317348Y0429145D02*
X0322798Y0429145D01*
X0322771Y0429107D02*
X0317374Y0429107D01*
X0317401Y0429069D02*
X0322745Y0429069D01*
X0322718Y0429031D02*
X0317427Y0429031D01*
X0317454Y0428993D02*
X0322692Y0428993D01*
X0322665Y0428955D02*
X0317480Y0428955D01*
X0317507Y0428918D02*
X0322639Y0428918D01*
X0322612Y0428880D02*
X0317533Y0428880D01*
X0317560Y0428842D02*
X0322586Y0428842D01*
X0322559Y0428804D02*
X0317586Y0428804D01*
X0317619Y0428766D02*
X0322527Y0428766D01*
X0322489Y0428728D02*
X0317657Y0428728D01*
X0317694Y0428690D02*
X0322451Y0428690D01*
X0322413Y0428652D02*
X0317732Y0428652D01*
X0317770Y0428615D02*
X0322376Y0428615D01*
X0322338Y0428577D02*
X0317808Y0428577D01*
X0317846Y0428539D02*
X0322300Y0428539D01*
X0322262Y0428501D02*
X0317884Y0428501D01*
X0317922Y0428463D02*
X0322224Y0428463D01*
X0322186Y0428425D02*
X0317960Y0428425D01*
X0317997Y0428387D02*
X0322148Y0428387D01*
X0322094Y0428349D02*
X0318052Y0428349D01*
X0318106Y0428311D02*
X0322040Y0428311D01*
X0321986Y0428274D02*
X0318160Y0428274D01*
X0318214Y0428236D02*
X0321932Y0428236D01*
X0321878Y0428198D02*
X0318268Y0428198D01*
X0318322Y0428160D02*
X0321823Y0428160D01*
X0321769Y0428122D02*
X0318377Y0428122D01*
X0318431Y0428084D02*
X0321715Y0428084D01*
X0321648Y0428046D02*
X0318498Y0428046D01*
X0318579Y0428008D02*
X0321567Y0428008D01*
X0321485Y0427971D02*
X0318660Y0427971D01*
X0318742Y0427933D02*
X0321404Y0427933D01*
X0321323Y0427895D02*
X0318823Y0427895D01*
X0318904Y0427857D02*
X0321242Y0427857D01*
X0321148Y0427819D02*
X0318998Y0427819D01*
X0319139Y0427781D02*
X0321007Y0427781D01*
X0320865Y0427743D02*
X0319280Y0427743D01*
X0319422Y0427705D02*
X0320724Y0427705D01*
X0320478Y0427667D02*
X0319668Y0427667D01*
X0329187Y0249069D02*
X0335683Y0249069D01*
X0335683Y0242573D01*
X0329187Y0242573D01*
X0329187Y0249069D01*
X0329187Y0249057D02*
X0335683Y0249057D01*
X0335683Y0249019D02*
X0329187Y0249019D01*
X0329187Y0248981D02*
X0335683Y0248981D01*
X0335683Y0248943D02*
X0329187Y0248943D01*
X0329187Y0248905D02*
X0335683Y0248905D01*
X0335683Y0248867D02*
X0329187Y0248867D01*
X0329187Y0248829D02*
X0335683Y0248829D01*
X0335683Y0248792D02*
X0329187Y0248792D01*
X0329187Y0248754D02*
X0335683Y0248754D01*
X0335683Y0248716D02*
X0329187Y0248716D01*
X0329187Y0248678D02*
X0335683Y0248678D01*
X0335683Y0248640D02*
X0329187Y0248640D01*
X0329187Y0248602D02*
X0335683Y0248602D01*
X0335683Y0248564D02*
X0329187Y0248564D01*
X0329187Y0248526D02*
X0335683Y0248526D01*
X0335683Y0248488D02*
X0329187Y0248488D01*
X0329187Y0248451D02*
X0335683Y0248451D01*
X0335683Y0248413D02*
X0329187Y0248413D01*
X0329187Y0248375D02*
X0335683Y0248375D01*
X0335683Y0248337D02*
X0329187Y0248337D01*
X0329187Y0248299D02*
X0335683Y0248299D01*
X0335683Y0248261D02*
X0329187Y0248261D01*
X0329187Y0248223D02*
X0335683Y0248223D01*
X0335683Y0248185D02*
X0329187Y0248185D01*
X0329187Y0248148D02*
X0335683Y0248148D01*
X0335683Y0248110D02*
X0329187Y0248110D01*
X0329187Y0248072D02*
X0335683Y0248072D01*
X0335683Y0248034D02*
X0329187Y0248034D01*
X0329187Y0247996D02*
X0335683Y0247996D01*
X0335683Y0247958D02*
X0329187Y0247958D01*
X0329187Y0247920D02*
X0335683Y0247920D01*
X0335683Y0247882D02*
X0329187Y0247882D01*
X0329187Y0247845D02*
X0335683Y0247845D01*
X0335683Y0247807D02*
X0329187Y0247807D01*
X0329187Y0247769D02*
X0335683Y0247769D01*
X0335683Y0247731D02*
X0329187Y0247731D01*
X0329187Y0247693D02*
X0335683Y0247693D01*
X0335683Y0247655D02*
X0329187Y0247655D01*
X0329187Y0247617D02*
X0335683Y0247617D01*
X0335683Y0247579D02*
X0329187Y0247579D01*
X0329187Y0247541D02*
X0335683Y0247541D01*
X0335683Y0247504D02*
X0329187Y0247504D01*
X0329187Y0247466D02*
X0335683Y0247466D01*
X0335683Y0247428D02*
X0329187Y0247428D01*
X0329187Y0247390D02*
X0335683Y0247390D01*
X0335683Y0247352D02*
X0329187Y0247352D01*
X0329187Y0247314D02*
X0335683Y0247314D01*
X0335683Y0247276D02*
X0329187Y0247276D01*
X0329187Y0247238D02*
X0335683Y0247238D01*
X0335683Y0247201D02*
X0329187Y0247201D01*
X0329187Y0247163D02*
X0335683Y0247163D01*
X0335683Y0247125D02*
X0329187Y0247125D01*
X0329187Y0247087D02*
X0335683Y0247087D01*
X0335683Y0247049D02*
X0329187Y0247049D01*
X0329187Y0247011D02*
X0335683Y0247011D01*
X0335683Y0246973D02*
X0329187Y0246973D01*
X0329187Y0246935D02*
X0335683Y0246935D01*
X0335683Y0246897D02*
X0329187Y0246897D01*
X0329187Y0246860D02*
X0335683Y0246860D01*
X0335683Y0246822D02*
X0329187Y0246822D01*
X0329187Y0246784D02*
X0335683Y0246784D01*
X0335683Y0246746D02*
X0329187Y0246746D01*
X0329187Y0246708D02*
X0335683Y0246708D01*
X0335683Y0246670D02*
X0329187Y0246670D01*
X0329187Y0246632D02*
X0335683Y0246632D01*
X0335683Y0246594D02*
X0329187Y0246594D01*
X0329187Y0246557D02*
X0335683Y0246557D01*
X0335683Y0246519D02*
X0329187Y0246519D01*
X0329187Y0246481D02*
X0335683Y0246481D01*
X0335683Y0246443D02*
X0329187Y0246443D01*
X0329187Y0246405D02*
X0335683Y0246405D01*
X0335683Y0246367D02*
X0329187Y0246367D01*
X0329187Y0246329D02*
X0335683Y0246329D01*
X0335683Y0246291D02*
X0329187Y0246291D01*
X0329187Y0246253D02*
X0335683Y0246253D01*
X0335683Y0246216D02*
X0329187Y0246216D01*
X0329187Y0246178D02*
X0335683Y0246178D01*
X0335683Y0246140D02*
X0329187Y0246140D01*
X0329187Y0246102D02*
X0335683Y0246102D01*
X0335683Y0246064D02*
X0329187Y0246064D01*
X0329187Y0246026D02*
X0335683Y0246026D01*
X0335683Y0245988D02*
X0329187Y0245988D01*
X0329187Y0245950D02*
X0335683Y0245950D01*
X0335683Y0245913D02*
X0329187Y0245913D01*
X0329187Y0245875D02*
X0335683Y0245875D01*
X0335683Y0245837D02*
X0329187Y0245837D01*
X0329187Y0245799D02*
X0335683Y0245799D01*
X0335683Y0245761D02*
X0329187Y0245761D01*
X0329187Y0245723D02*
X0335683Y0245723D01*
X0335683Y0245685D02*
X0329187Y0245685D01*
X0329187Y0245647D02*
X0335683Y0245647D01*
X0335683Y0245609D02*
X0329187Y0245609D01*
X0329187Y0245572D02*
X0335683Y0245572D01*
X0335683Y0245534D02*
X0329187Y0245534D01*
X0329187Y0245496D02*
X0335683Y0245496D01*
X0335683Y0245458D02*
X0329187Y0245458D01*
X0329187Y0245420D02*
X0335683Y0245420D01*
X0335683Y0245382D02*
X0329187Y0245382D01*
X0329187Y0245344D02*
X0335683Y0245344D01*
X0335683Y0245306D02*
X0329187Y0245306D01*
X0329187Y0245269D02*
X0335683Y0245269D01*
X0335683Y0245231D02*
X0329187Y0245231D01*
X0329187Y0245193D02*
X0335683Y0245193D01*
X0335683Y0245155D02*
X0329187Y0245155D01*
X0329187Y0245117D02*
X0335683Y0245117D01*
X0335683Y0245079D02*
X0329187Y0245079D01*
X0329187Y0245041D02*
X0335683Y0245041D01*
X0335683Y0245003D02*
X0329187Y0245003D01*
X0329187Y0244966D02*
X0335683Y0244966D01*
X0335683Y0244928D02*
X0329187Y0244928D01*
X0329187Y0244890D02*
X0335683Y0244890D01*
X0335683Y0244852D02*
X0329187Y0244852D01*
X0329187Y0244814D02*
X0335683Y0244814D01*
X0335683Y0244776D02*
X0329187Y0244776D01*
X0329187Y0244738D02*
X0335683Y0244738D01*
X0335683Y0244700D02*
X0329187Y0244700D01*
X0329187Y0244662D02*
X0335683Y0244662D01*
X0335683Y0244625D02*
X0329187Y0244625D01*
X0329187Y0244587D02*
X0335683Y0244587D01*
X0335683Y0244549D02*
X0329187Y0244549D01*
X0329187Y0244511D02*
X0335683Y0244511D01*
X0335683Y0244473D02*
X0329187Y0244473D01*
X0329187Y0244435D02*
X0335683Y0244435D01*
X0335683Y0244397D02*
X0329187Y0244397D01*
X0329187Y0244359D02*
X0335683Y0244359D01*
X0335683Y0244322D02*
X0329187Y0244322D01*
X0329187Y0244284D02*
X0335683Y0244284D01*
X0335683Y0244246D02*
X0329187Y0244246D01*
X0329187Y0244208D02*
X0335683Y0244208D01*
X0335683Y0244170D02*
X0329187Y0244170D01*
X0329187Y0244132D02*
X0335683Y0244132D01*
X0335683Y0244094D02*
X0329187Y0244094D01*
X0329187Y0244056D02*
X0335683Y0244056D01*
X0335683Y0244018D02*
X0329187Y0244018D01*
X0329187Y0243981D02*
X0335683Y0243981D01*
X0335683Y0243943D02*
X0329187Y0243943D01*
X0329187Y0243905D02*
X0335683Y0243905D01*
X0335683Y0243867D02*
X0329187Y0243867D01*
X0329187Y0243829D02*
X0335683Y0243829D01*
X0335683Y0243791D02*
X0329187Y0243791D01*
X0329187Y0243753D02*
X0335683Y0243753D01*
X0335683Y0243715D02*
X0329187Y0243715D01*
X0329187Y0243678D02*
X0335683Y0243678D01*
X0335683Y0243640D02*
X0329187Y0243640D01*
X0329187Y0243602D02*
X0335683Y0243602D01*
X0335683Y0243564D02*
X0329187Y0243564D01*
X0329187Y0243526D02*
X0335683Y0243526D01*
X0335683Y0243488D02*
X0329187Y0243488D01*
X0329187Y0243450D02*
X0335683Y0243450D01*
X0335683Y0243412D02*
X0329187Y0243412D01*
X0329187Y0243374D02*
X0335683Y0243374D01*
X0335683Y0243337D02*
X0329187Y0243337D01*
X0329187Y0243299D02*
X0335683Y0243299D01*
X0335683Y0243261D02*
X0329187Y0243261D01*
X0329187Y0243223D02*
X0335683Y0243223D01*
X0335683Y0243185D02*
X0329187Y0243185D01*
X0329187Y0243147D02*
X0335683Y0243147D01*
X0335683Y0243109D02*
X0329187Y0243109D01*
X0329187Y0243071D02*
X0335683Y0243071D01*
X0335683Y0243034D02*
X0329187Y0243034D01*
X0329187Y0242996D02*
X0335683Y0242996D01*
X0335683Y0242958D02*
X0329187Y0242958D01*
X0329187Y0242920D02*
X0335683Y0242920D01*
X0335683Y0242882D02*
X0329187Y0242882D01*
X0329187Y0242844D02*
X0335683Y0242844D01*
X0335683Y0242806D02*
X0329187Y0242806D01*
X0329187Y0242768D02*
X0335683Y0242768D01*
X0335683Y0242731D02*
X0329187Y0242731D01*
X0329187Y0242693D02*
X0335683Y0242693D01*
X0335683Y0242655D02*
X0329187Y0242655D01*
X0329187Y0242617D02*
X0335683Y0242617D01*
X0335683Y0242579D02*
X0329187Y0242579D01*
X0339256Y0245260D02*
X0339402Y0244717D01*
X0339639Y0244207D01*
X0339962Y0243746D01*
X0340360Y0243348D01*
X0340821Y0243025D01*
X0341331Y0242787D01*
X0341874Y0242642D01*
X0342435Y0242593D01*
X0342996Y0242642D01*
X0343539Y0242787D01*
X0344049Y0243025D01*
X0344510Y0243348D01*
X0344908Y0243746D01*
X0345231Y0244207D01*
X0345469Y0244717D01*
X0345614Y0245260D01*
X0345663Y0245821D01*
X0345614Y0246382D01*
X0345469Y0246925D01*
X0345231Y0247435D01*
X0344908Y0247896D01*
X0344510Y0248294D01*
X0344049Y0248617D01*
X0343539Y0248854D01*
X0342996Y0249000D01*
X0342435Y0249049D01*
X0341874Y0249000D01*
X0341331Y0248854D01*
X0340821Y0248617D01*
X0340360Y0248294D01*
X0339962Y0247896D01*
X0339639Y0247435D01*
X0339402Y0246925D01*
X0339256Y0246382D01*
X0339207Y0245821D01*
X0339256Y0245260D01*
X0339255Y0245269D02*
X0345615Y0245269D01*
X0345618Y0245306D02*
X0339252Y0245306D01*
X0339249Y0245344D02*
X0345622Y0245344D01*
X0345625Y0245382D02*
X0339245Y0245382D01*
X0339242Y0245420D02*
X0345628Y0245420D01*
X0345632Y0245458D02*
X0339239Y0245458D01*
X0339235Y0245496D02*
X0345635Y0245496D01*
X0345638Y0245534D02*
X0339232Y0245534D01*
X0339229Y0245572D02*
X0345642Y0245572D01*
X0345645Y0245609D02*
X0339225Y0245609D01*
X0339222Y0245647D02*
X0345648Y0245647D01*
X0345652Y0245685D02*
X0339219Y0245685D01*
X0339215Y0245723D02*
X0345655Y0245723D01*
X0345658Y0245761D02*
X0339212Y0245761D01*
X0339209Y0245799D02*
X0345661Y0245799D01*
X0345662Y0245837D02*
X0339208Y0245837D01*
X0339211Y0245875D02*
X0345659Y0245875D01*
X0345655Y0245913D02*
X0339215Y0245913D01*
X0339218Y0245950D02*
X0345652Y0245950D01*
X0345649Y0245988D02*
X0339221Y0245988D01*
X0339225Y0246026D02*
X0345645Y0246026D01*
X0345642Y0246064D02*
X0339228Y0246064D01*
X0339231Y0246102D02*
X0345639Y0246102D01*
X0345635Y0246140D02*
X0339235Y0246140D01*
X0339238Y0246178D02*
X0345632Y0246178D01*
X0345629Y0246216D02*
X0339241Y0246216D01*
X0339245Y0246253D02*
X0345625Y0246253D01*
X0345622Y0246291D02*
X0339248Y0246291D01*
X0339251Y0246329D02*
X0345619Y0246329D01*
X0345615Y0246367D02*
X0339255Y0246367D01*
X0339262Y0246405D02*
X0345608Y0246405D01*
X0345598Y0246443D02*
X0339272Y0246443D01*
X0339283Y0246481D02*
X0345588Y0246481D01*
X0345577Y0246519D02*
X0339293Y0246519D01*
X0339303Y0246557D02*
X0345567Y0246557D01*
X0345557Y0246594D02*
X0339313Y0246594D01*
X0339323Y0246632D02*
X0345547Y0246632D01*
X0345537Y0246670D02*
X0339333Y0246670D01*
X0339343Y0246708D02*
X0345527Y0246708D01*
X0345517Y0246746D02*
X0339354Y0246746D01*
X0339364Y0246784D02*
X0345506Y0246784D01*
X0345496Y0246822D02*
X0339374Y0246822D01*
X0339384Y0246860D02*
X0345486Y0246860D01*
X0345476Y0246897D02*
X0339394Y0246897D01*
X0339406Y0246935D02*
X0345464Y0246935D01*
X0345446Y0246973D02*
X0339424Y0246973D01*
X0339442Y0247011D02*
X0345428Y0247011D01*
X0345411Y0247049D02*
X0339459Y0247049D01*
X0339477Y0247087D02*
X0345393Y0247087D01*
X0345375Y0247125D02*
X0339495Y0247125D01*
X0339512Y0247163D02*
X0345358Y0247163D01*
X0345340Y0247201D02*
X0339530Y0247201D01*
X0339548Y0247238D02*
X0345322Y0247238D01*
X0345305Y0247276D02*
X0339565Y0247276D01*
X0339583Y0247314D02*
X0345287Y0247314D01*
X0345269Y0247352D02*
X0339601Y0247352D01*
X0339618Y0247390D02*
X0345252Y0247390D01*
X0345234Y0247428D02*
X0339636Y0247428D01*
X0339661Y0247466D02*
X0345209Y0247466D01*
X0345183Y0247504D02*
X0339687Y0247504D01*
X0339714Y0247541D02*
X0345156Y0247541D01*
X0345130Y0247579D02*
X0339740Y0247579D01*
X0339767Y0247617D02*
X0345103Y0247617D01*
X0345077Y0247655D02*
X0339793Y0247655D01*
X0339820Y0247693D02*
X0345050Y0247693D01*
X0345024Y0247731D02*
X0339846Y0247731D01*
X0339873Y0247769D02*
X0344997Y0247769D01*
X0344971Y0247807D02*
X0339899Y0247807D01*
X0339926Y0247845D02*
X0344944Y0247845D01*
X0344918Y0247882D02*
X0339952Y0247882D01*
X0339986Y0247920D02*
X0344884Y0247920D01*
X0344846Y0247958D02*
X0340024Y0247958D01*
X0340062Y0247996D02*
X0344808Y0247996D01*
X0344770Y0248034D02*
X0340100Y0248034D01*
X0340138Y0248072D02*
X0344733Y0248072D01*
X0344695Y0248110D02*
X0340175Y0248110D01*
X0340213Y0248148D02*
X0344657Y0248148D01*
X0344619Y0248185D02*
X0340251Y0248185D01*
X0340289Y0248223D02*
X0344581Y0248223D01*
X0344543Y0248261D02*
X0340327Y0248261D01*
X0340367Y0248299D02*
X0344503Y0248299D01*
X0344449Y0248337D02*
X0340421Y0248337D01*
X0340475Y0248375D02*
X0344395Y0248375D01*
X0344341Y0248413D02*
X0340529Y0248413D01*
X0340584Y0248451D02*
X0344287Y0248451D01*
X0344232Y0248488D02*
X0340638Y0248488D01*
X0340692Y0248526D02*
X0344178Y0248526D01*
X0344124Y0248564D02*
X0340746Y0248564D01*
X0340800Y0248602D02*
X0344070Y0248602D01*
X0343999Y0248640D02*
X0340871Y0248640D01*
X0340952Y0248678D02*
X0343918Y0248678D01*
X0343837Y0248716D02*
X0341034Y0248716D01*
X0341115Y0248754D02*
X0343755Y0248754D01*
X0343674Y0248792D02*
X0341196Y0248792D01*
X0341277Y0248829D02*
X0343593Y0248829D01*
X0343491Y0248867D02*
X0341379Y0248867D01*
X0341520Y0248905D02*
X0343350Y0248905D01*
X0343208Y0248943D02*
X0341662Y0248943D01*
X0341803Y0248981D02*
X0343067Y0248981D01*
X0342782Y0249019D02*
X0342089Y0249019D01*
X0339264Y0245231D02*
X0345606Y0245231D01*
X0345596Y0245193D02*
X0339274Y0245193D01*
X0339284Y0245155D02*
X0345586Y0245155D01*
X0345576Y0245117D02*
X0339294Y0245117D01*
X0339304Y0245079D02*
X0345566Y0245079D01*
X0345556Y0245041D02*
X0339315Y0245041D01*
X0339325Y0245003D02*
X0345545Y0245003D01*
X0345535Y0244966D02*
X0339335Y0244966D01*
X0339345Y0244928D02*
X0345525Y0244928D01*
X0345515Y0244890D02*
X0339355Y0244890D01*
X0339365Y0244852D02*
X0345505Y0244852D01*
X0345495Y0244814D02*
X0339375Y0244814D01*
X0339386Y0244776D02*
X0345484Y0244776D01*
X0345474Y0244738D02*
X0339396Y0244738D01*
X0339409Y0244700D02*
X0345461Y0244700D01*
X0345443Y0244662D02*
X0339427Y0244662D01*
X0339444Y0244625D02*
X0345426Y0244625D01*
X0345408Y0244587D02*
X0339462Y0244587D01*
X0339480Y0244549D02*
X0345390Y0244549D01*
X0345373Y0244511D02*
X0339498Y0244511D01*
X0339515Y0244473D02*
X0345355Y0244473D01*
X0345337Y0244435D02*
X0339533Y0244435D01*
X0339551Y0244397D02*
X0345320Y0244397D01*
X0345302Y0244359D02*
X0339568Y0244359D01*
X0339586Y0244322D02*
X0345284Y0244322D01*
X0345267Y0244284D02*
X0339604Y0244284D01*
X0339621Y0244246D02*
X0345249Y0244246D01*
X0345231Y0244208D02*
X0339639Y0244208D01*
X0339665Y0244170D02*
X0345205Y0244170D01*
X0345179Y0244132D02*
X0339692Y0244132D01*
X0339718Y0244094D02*
X0345152Y0244094D01*
X0345126Y0244056D02*
X0339745Y0244056D01*
X0339771Y0244018D02*
X0345099Y0244018D01*
X0345073Y0243981D02*
X0339798Y0243981D01*
X0339824Y0243943D02*
X0345046Y0243943D01*
X0345020Y0243905D02*
X0339851Y0243905D01*
X0339877Y0243867D02*
X0344993Y0243867D01*
X0344967Y0243829D02*
X0339904Y0243829D01*
X0339930Y0243791D02*
X0344940Y0243791D01*
X0344914Y0243753D02*
X0339957Y0243753D01*
X0339992Y0243715D02*
X0344878Y0243715D01*
X0344840Y0243678D02*
X0340030Y0243678D01*
X0340068Y0243640D02*
X0344802Y0243640D01*
X0344764Y0243602D02*
X0340106Y0243602D01*
X0340144Y0243564D02*
X0344727Y0243564D01*
X0344689Y0243526D02*
X0340182Y0243526D01*
X0340219Y0243488D02*
X0344651Y0243488D01*
X0344613Y0243450D02*
X0340257Y0243450D01*
X0340295Y0243412D02*
X0344575Y0243412D01*
X0344537Y0243374D02*
X0340333Y0243374D01*
X0340376Y0243337D02*
X0344494Y0243337D01*
X0344440Y0243299D02*
X0340430Y0243299D01*
X0340484Y0243261D02*
X0344386Y0243261D01*
X0344332Y0243223D02*
X0340538Y0243223D01*
X0340592Y0243185D02*
X0344278Y0243185D01*
X0344224Y0243147D02*
X0340646Y0243147D01*
X0340701Y0243109D02*
X0344169Y0243109D01*
X0344115Y0243071D02*
X0340755Y0243071D01*
X0340809Y0243034D02*
X0344061Y0243034D01*
X0343986Y0242996D02*
X0340884Y0242996D01*
X0340965Y0242958D02*
X0343905Y0242958D01*
X0343823Y0242920D02*
X0341047Y0242920D01*
X0341128Y0242882D02*
X0343742Y0242882D01*
X0343661Y0242844D02*
X0341209Y0242844D01*
X0341290Y0242806D02*
X0343580Y0242806D01*
X0343468Y0242768D02*
X0341402Y0242768D01*
X0341543Y0242731D02*
X0343327Y0242731D01*
X0343186Y0242693D02*
X0341685Y0242693D01*
X0341826Y0242655D02*
X0343044Y0242655D01*
X0342712Y0242617D02*
X0342158Y0242617D01*
D15*
X0430860Y0244325D03*
X0430860Y0254325D03*
X0430860Y0264325D03*
X0430860Y0281254D03*
X0430860Y0291254D03*
X0430860Y0301254D03*
X0430860Y0311254D03*
X0430860Y0321254D03*
X0430860Y0331254D03*
X0430860Y0234325D03*
X0430860Y0224325D03*
X0430860Y0214325D03*
D16*
X0424561Y0181648D03*
X0357238Y0124167D03*
X0296215Y0116293D03*
X0251333Y0116293D03*
X0179679Y0119443D03*
X0179679Y0130467D03*
X0268656Y0252908D03*
X0306057Y0302908D03*
X0284797Y0324167D03*
X0359207Y0297789D03*
X0415900Y0264325D03*
X0424561Y0372986D03*
X0178892Y0415506D03*
X0178892Y0425742D03*
X0166687Y0339915D03*
X0170624Y0335191D03*
X0159207Y0339915D03*
X0151333Y0339915D03*
X0143852Y0339915D03*
X0137947Y0337553D03*
X0137159Y0317081D03*
X0137159Y0310388D03*
X0143459Y0308813D03*
X0150545Y0308419D03*
X0158026Y0308026D03*
X0167081Y0308026D03*
X0170624Y0313537D03*
X0170624Y0321411D03*
D17*
X0112947Y0150348D03*
X0247789Y0273380D03*
X0264522Y0266490D03*
X0232041Y0302908D03*
X0221215Y0305860D03*
X0217278Y0316687D03*
X0208419Y0315703D03*
X0200545Y0318656D03*
X0202514Y0331451D03*
X0213341Y0325545D03*
X0217278Y0325545D03*
X0217278Y0330467D03*
X0217278Y0336372D03*
X0215309Y0343262D03*
X0229089Y0326530D03*
X0242868Y0328498D03*
X0222199Y0369837D03*
X0178892Y0305860D03*
X0290112Y0405270D03*
X0316687Y0384600D03*
X0402317Y0431845D03*
X0422986Y0407238D03*
M02*
